<svg xmlns="http://www.w3.org/2000/svg"
  xmlns:xlink="http://www.w3.org/1999/xlink" fill="none" version="1.1" width="36" height="36" viewBox="0 0 36 36">
  <defs>
    <mask id="master_svg0_61_6802/46_11053" style="mask-type:alpha" maskUnits="userSpaceOnUse">
      <g>
        <ellipse cx="18" cy="18" rx="18" ry="18" fill="#FFFFFF" fill-opacity="1"/>
      </g>
    </mask>
    <mask id="master_svg1_61_6802/46_11024" style="mask-type:alpha" maskUnits="userSpaceOnUse">
      <g>
        <path d="M12.820750713348389,30.55364179611206L17.86172071334839,30.55364179611206L17.86172071334839,42.64614179611206L12.820750713348389,42.64614179611206L12.820750713348389,30.55364179611206Z" fill-rule="evenodd" fill="#FFFFFF" fill-opacity="1"/>
      </g>
    </mask>
  </defs>
  <g>
    <g>
      <g>
        <ellipse cx="18" cy="18" rx="18" ry="18" fill="#E3F1FF" fill-opacity="1"/>
      </g>
      <g mask="url(#master_svg0_61_6802/46_11053)">
        <g>
          <g>
            <path d="M14.927228750915528,30.69440567501831C14.927228750915528,30.69440567501831,13.353822750915528,33.59677767501831,13.091635750915527,36.16019767501831C12.829448750915528,38.723607675018314,12.916890750915528,40.43957767501831,12.916890750915528,40.43957767501831C12.916890750915528,40.43957767501831,12.261210750915527,41.71061767501831,12.523398450915527,42.00701767501831C12.785726750915527,42.30361767501831,14.140528750915527,42.32511767501831,15.145698750915528,42.34631767501831C16.151008750915526,42.36751767501831,16.87212875091553,42.240217675018314,16.937708750915526,41.98601767501831C17.00314875091553,41.73191767501831,16.80654875091553,40.735917675018314,16.762818750915528,40.37599767501831C16.719098750915528,40.01598767501831,16.91584875091553,38.53273767501831,17.112448750915526,38.42704767501831C17.309058750915526,38.320937675018314,18.44552875091553,38.21510767501831,18.51111875091553,38.34240767501831C18.576558750915527,38.46929767501831,18.860748750915526,39.74047767501831,18.838738750915528,40.20644767501831C18.817028750915526,40.67271767501831,18.576558750915527,41.837817675018314,18.88246875091553,42.17691767501831C19.18836875091553,42.51571767501831,22.597508750915527,42.32511767501831,22.859708750915527,42.21901767501831C23.121908750915527,42.11331767501831,22.903408750915528,40.82091767501831,22.81600875091553,40.56671767501831C22.728508750915527,40.31255767501831,22.794008750915527,39.27435767501831,22.81600875091553,38.93526767501831C22.837708750915528,38.59631767501831,22.42262875091553,35.37618767501831,22.335188750915528,34.86768767501831C22.24788875091553,34.35959767501831,20.543318750915528,30.46141767501831,20.543318750915528,30.46141767501831C20.543318750915528,30.46141767501831,16.80654875091553,31.66874767501831,14.927228750915528,30.69440567501831L14.927228750915528,30.69440567501831Z" fill-rule="evenodd" fill="#FEFEFE" fill-opacity="1"/>
          </g>
          <g>
            <path d="M15.219116719665529,30.62588165939331C15.219116719665529,30.62588165939331,16.234096719665526,32.40432165939331,17.354976719665526,33.12397165939331C17.354976719665526,33.12397165939331,16.14947671966553,33.25118165939331,15.430656719665528,33.06030165939331C15.430656719665528,33.06030165939331,17.312526719665527,34.66945165939331,18.77172671966553,35.21981165939331C18.77172671966553,35.21981165939331,17.841236719665527,36.06654165939331,17.01651671966553,36.38421165939331C17.01651671966553,36.38421165939331,19.89233671966553,36.17257165939331,22.239476719665525,34.81770165939331C22.239476719665525,34.81770165939331,22.87377671966553,36.76543165939331,22.831576719665527,37.80262165939331C22.831576719665527,37.80262165939331,24.290676719665527,38.67094165939331,25.178876719665528,37.67582165939331C26.066776719665526,36.68058165939331,25.770876719665527,35.19877165939331,25.326776719665528,34.41517165939331C24.882676719665525,33.63184165939331,23.508276719665528,32.61583165939331,23.381376719665525,32.23462165939331C23.25457671966553,31.853811659393312,22.175976719665528,30.07551365939331,21.92237671966553,29.77915265939331C21.668576719665527,29.48265465939331,20.907276719665525,29.33467955939331,20.716876719665528,29.35572131939331C20.526676719665527,29.376763059393312,18.919676719665528,29.58854665939331,18.919676719665528,29.58854665939331C18.919676719665528,29.58854665939331,18.327496719665525,30.75281165939331,18.031486719665526,30.75281165939331C17.735466719665528,30.75281165939331,16.974206719665528,29.50369665939331,16.974206719665528,29.50369665939331C16.974206719665528,29.50369665939331,15.197966719665526,29.376763059393312,14.923106719665526,29.397941459393312C14.648236719665526,29.419119859393312,13.908126719665528,29.94830665939331,13.506346719665528,30.64692165939331C13.104556719665528,31.34567165939331,12.322146719665527,32.84893165939331,11.603326719665528,33.46269165939331C10.884365719665528,34.07686165939331,9.953871719665527,35.45264165939331,10.334366819665528,36.65926165939331C10.715135719665527,37.86588165939331,11.793436719665527,38.79773165939331,13.231486719665527,37.78144165939331C13.231486719665527,37.78144165939331,13.337116719665527,33.75919165939331,15.219116719665529,30.62588165939331L15.219116719665529,30.62588165939331Z" fill-rule="evenodd" fill="#294892" fill-opacity="1"/>
          </g>
          <g>
            <path d="M17.918554688415526,7.7538981437683105C17.918554688415526,7.7538981437683105,18.968644688415527,9.04872814376831,17.534144688415527,10.83914814376831C15.611264688415528,13.23880814376831,8.988738688415527,14.56696814376831,8.134294688415528,20.65169814376831C7.279712688415527,26.73619814376831,11.808664688415528,29.95019814376831,18.43134468841553,29.907298143768312C25.053944688415527,29.864498143768312,28.984844688415528,25.96499814376831,28.130244688415527,19.96599814376831C27.27574468841553,13.96739814376831,21.080244688415526,8.610941143768311,17.918554688415526,7.7538981437683105L17.918554688415526,7.7538981437683105Z" fill-rule="evenodd" fill="#7098CF" fill-opacity="1"/>
          </g>
          <g>
            <path d="M17.169272422790527,29.92711753751831C17.169272422790527,29.92711753751831,17.823164422790526,31.015396737518312,18.15010942279053,31.015396737518312C18.47705242279053,31.015396737518312,19.107732422790527,29.90770673751831,19.107732422790527,29.90770673751831L17.169272422790527,29.92711753751831Z" fill-rule="evenodd" fill="#FADFB7" fill-opacity="1"/>
          </g>
          <g>
            <path d="M19.61556617279053,9.96923017501831C19.61556617279053,9.96923017501831,19.84266617279053,11.04239017501831,18.50963617279053,12.200160175018311C17.176516172790528,13.35794017501831,11.391116172790527,15.842980175018312,10.568666172790527,18.27157017501831C10.568666172790527,18.27157017501831,12.610576172790527,16.71835017501831,15.531616172790528,17.22656017501831C15.531616172790528,17.22656017501831,9.746223172790527,18.41263017501831,9.434184972790527,23.07213017501831C9.122147172790527,27.73153017501831,12.724106172790528,29.84913017501831,17.743756172790526,29.90593017501831C22.76366617279053,29.96233017501831,26.989266172790526,28.71963017501831,28.12376617279053,23.185030175018312C29.258266172790528,17.65017017501831,22.196566172790526,11.18359017501831,19.61556617279053,9.96923017501831L19.61556617279053,9.96923017501831Z" fill-rule="evenodd" fill="#294892" fill-opacity="1"/>
          </g>
          <g>
            <path d="M26.861665782165527,23.261462989959718C26.861665782165527,26.779272989959715,23.018365782165528,29.63080298995972,18.27715578216553,29.63080298995972C13.536095782165528,29.63080298995972,9.692465782165527,26.779272989959715,9.692465782165527,23.261462989959718C9.692465782165527,19.744202989959717,13.536095782165528,16.892302989959717,18.27715578216553,16.892302989959717C23.018365782165528,16.892302989959717,26.861665782165527,19.744202989959717,26.861665782165527,23.261462989959718L26.861665782165527,23.261462989959718Z" fill-rule="evenodd" fill="#FADFB7" fill-opacity="1"/>
          </g>
          <g>
            <path d="M26.805865782165526,23.271612989959717C26.76056578216553,27.53320298995972,21.787165782165527,29.507802989959718,18.066455782165527,29.401702989959716C14.424625782165528,29.298302989959716,9.724944882165527,26.992802989959717,10.035024782165527,22.842352989959718C10.164305782165528,21.111822989959716,11.324105782165528,19.659332989959715,12.738595782165527,18.698682989959718C14.479185782165526,17.516535989959717,16.662455782165527,17.048423989959716,18.757605782165527,17.10818598995972C22.282565782165527,17.208822989959717,26.763865782165528,19.321672989959715,26.805865782165526,23.271612989959717C26.80756578216553,23.423242989959718,27.139865782165526,23.360382989959717,27.13856578216553,23.23816298995972C27.098165782165527,19.448742989959715,23.08806578216553,17.32780698995972,19.678595782165527,16.956959889959716C16.099335782165525,16.567765989959717,11.555175782165527,17.920302989959715,10.061820782165528,21.429922989959717C9.429366782165527,22.915882989959716,9.636271582165527,24.565732989959717,10.475214782165528,25.928252989959717C11.414435782165528,27.454502989959717,13.061385782165527,28.46470298995972,14.746725782165527,29.041402989959717C18.364655782165528,30.278902989959718,23.090265782165527,29.597902989959717,25.715665782165527,26.711632989959718C26.589565782165526,25.75112298995972,27.12476578216553,24.528772989959716,27.13856578216553,23.23816298995972C27.14016578216553,23.087342989959716,26.807265782165526,23.148852989959718,26.805865782165526,23.271612989959717L26.805865782165526,23.271612989959717Z" fill-rule="evenodd" fill="#151F3D" fill-opacity="1"/>
          </g>
          <g>
            <path d="M16.061589844665527,19.861723909393312C16.061589844665527,19.861723909393312,15.516489844665527,19.05766360939331,14.639795844665528,19.11011704939331C13.762950844665527,19.16268320939331,13.857624844665528,20.22866790939331,16.061589844665527,19.861723909393312L16.061589844665527,19.861723909393312Z" fill-rule="evenodd" fill="#151F3D" fill-opacity="1"/>
          </g>
          <g>
            <path d="M13.813732735290527,26.58422306564331C13.658582735290526,27.06766306564331,12.989332735290528,27.27415306564331,12.318961735290527,27.04470306564331C11.648593735290527,26.81525306564331,11.230968735290528,26.23768306564331,11.386257035290527,25.75410106564331C11.541406735290527,25.270807465643312,12.210662735290528,25.06417406564331,12.881032735290528,25.293623265643312C13.551402735290527,25.52278606564331,13.969022735290528,26.10078606564331,13.813732735290527,26.58422306564331L13.813732735290527,26.58422306564331Z" fill-rule="evenodd" fill="#ED7C79" fill-opacity="1"/>
          </g>
          <g>
            <path d="M20.215415000915527,19.861723909393312C20.215415000915527,19.861723909393312,20.760376000915528,19.05766360939331,21.637235000915528,19.11011704939331C22.514105000915528,19.16268320939331,22.419275000915526,20.22866790939331,20.215415000915527,19.861723909393312L20.215415000915527,19.861723909393312Z" fill-rule="evenodd" fill="#151F3D" fill-opacity="1"/>
          </g>
          <g>
            <path d="M22.186313463415527,26.58422306564331C22.34146556341553,27.06766306564331,23.01059256341553,27.27415306564331,23.681111563415527,27.04470306564331C24.35149156341553,26.81525306564331,24.768981563415526,26.23768306564331,24.613831563415527,25.75410106564331C24.458541563415526,25.270807465643312,23.789411563415527,25.06417406564331,23.11903156341553,25.293623265643312C22.44851456341553,25.52278606564331,22.031022563415526,26.10078606564331,22.186313463415527,26.58422306564331L22.186313463415527,26.58422306564331Z" fill-rule="evenodd" fill="#ED7C79" fill-opacity="1"/>
          </g>
          <g>
            <path d="M16.63455568529053,26.702258690643312C17.549118485290528,27.315839690643312,18.70675148529053,27.243593690643312,19.625681485290528,26.726340690643312C19.720391485290527,26.67336069064331,19.60388148529053,26.60695269064331,19.555921485290526,26.63731059064331C18.65682148529053,27.20900369064331,17.56391448529053,27.254832690643312,16.718970485290527,26.59060608064331C16.679075085290528,26.55937239064331,16.57246638529053,26.66037099064331,16.63455568529053,26.702258690643312L16.63455568529053,26.702258690643312Z" fill-rule="evenodd" fill="#AD6441" fill-opacity="1"/>
          </g>
          <g>
            <path d="M18.000082969665527,25.47686606564331L18.830851969665527,25.47686606564331C18.830851969665527,25.47686606564331,18.447292969665526,24.853789065643312,18.000082969665527,25.47686606564331L18.000082969665527,25.47686606564331Z" fill-rule="evenodd" fill="#AD6441" fill-opacity="1"/>
          </g>
          <g>
            <path d="M16.90453895404053,30.01181773751831C17.03459495404053,30.19166273751831,17.180281954040527,30.36569873751831,17.336732954040528,30.53280973751831C17.48374595404053,30.69031373751831,17.75801395404053,31.01861673751831,18.057346954040526,31.01537673751831C18.31701695404053,31.01246673751831,18.52478695404053,30.734101737518312,18.652186954040527,30.59536473751831C18.81335695404053,30.41920573751831,18.960076954040527,30.23411073751831,19.09573695404053,30.04655773751831C19.152356954040528,29.96814083751831,18.994436954040527,29.89821349751831,18.937956954040526,29.97663043751831C18.839896954040526,30.11212873751831,18.734616954040526,30.24483373751831,18.625346954040527,30.375417737518312C18.530096954040527,30.48902173751831,18.42982695404053,30.60061473751831,18.318196954040527,30.70528173751831C18.271746954040527,30.74907073751831,18.145086954040526,30.88635573751831,18.056026954040526,30.87641473751831C17.789421954040527,30.84714773751831,17.544792954040528,30.52074573751831,17.410460954040527,30.37173073751831C17.285712954040527,30.23299373751831,17.168779954040527,30.08900573751831,17.062463954040528,29.94189013751831C17.005693954040527,29.86369663751831,16.847768454040526,29.93362403751831,16.90453895404053,30.01181773751831L16.90453895404053,30.01181773751831Z" fill-rule="evenodd" fill="#151F3D" fill-opacity="1"/>
          </g>
          <g>
            <path d="M15.374176719665527,29.63110705376831C14.066696719665527,29.68088166876831,13.589696719665527,30.85495126876831,13.079276719665527,31.883721268768312C12.746406719665528,32.55492126876831,12.341676719665527,33.11464126876831,11.813386719665527,33.63457126876831C11.385886719665528,34.05537126876831,10.971741719665527,34.48642126876831,10.659326719665527,35.00538126876831C10.033953719665528,36.04455126876831,10.077999719665527,37.62015126876831,11.071424719665528,38.41196126876831C11.678796719665527,38.89612126876831,12.698406719665527,38.88905126876831,13.291186719665527,38.38618126876831C13.440646719665526,38.25959126876831,13.363466719665528,38.11165126876831,13.271276719665527,38.18999126876831C12.613316719665526,38.74833126876831,11.361886719665527,38.43484126876831,10.939831719665527,37.80732126876831C10.228683719665527,36.74930126876831,10.620189719665527,35.37821126876831,11.356426719665528,34.47228126876831C11.651116719665527,34.10985126876831,11.997486719665527,33.79374126876831,12.325716719665527,33.46375126876831C12.709176719665528,33.07762126876831,13.001816719665527,32.63159126876831,13.259826719665528,32.15103126876831C13.749646719665527,31.23956126876831,14.109656719665526,29.88677426876831,15.336126719665527,29.84004926876831C15.508636719665528,29.83339426876831,15.598496719665526,29.62251087876831,15.374176719665527,29.63110705376831L15.374176719665527,29.63110705376831Z" fill-rule="evenodd" fill="#151F3D" fill-opacity="1"/>
          </g>
          <g>
            <path d="M11.865041344665528,35.618934815643314C12.412575344665527,35.46233991564331,13.150042344665527,35.83229081564331,13.372802344665526,36.25989281564331C13.413192344665527,36.33757781564331,13.599862344665528,36.12622581564331,13.565112344665527,36.05933581564331C13.263062344665528,35.47936831564331,12.471828344665527,35.32466581564331,11.734209344665528,35.53646351564331C11.499275344665527,35.60346381564331,11.718616144665527,35.66100481564331,11.865041344665528,35.618934815643314L11.865041344665528,35.618934815643314Z" fill-rule="evenodd" fill="#151F3D" fill-opacity="1"/>
          </g>
          <g>
            <g></g>
            <g mask="url(#master_svg1_61_6802/46_11024)">
              <g>
                <path d="M15.479250713348389,30.63094969611206C15.085200713348389,31.194727796112062,14.792830713348389,31.83668179611206,14.525630713348388,32.462341796112064C13.82158071334839,34.11137179611206,13.420423713348388,35.87376179611206,13.252907713348389,37.64627179611206C13.20029271334839,38.20499179611206,13.17896171334839,38.76630179611206,13.17583371334839,39.32734179611206C13.174269713348389,39.58418179611206,13.180241713348389,39.84074179611206,13.18863171334839,40.09744179611206C13.19531571334839,40.308131796112065,13.266985713348388,40.57294179611206,13.185929713348388,40.77154179611206C13.027657713348388,41.15844179611206,12.61455571334839,42.00854179611206,12.94617471334839,42.387841796112056C13.037469713348388,42.49244179611206,13.270541713348388,42.50914179611206,13.396391713348388,42.52904179611206C13.715638713348389,42.580741796112065,14.042280713348388,42.59764179611206,14.365080713348389,42.61414179611206C15.10170071334839,42.65234179611206,15.842580713348388,42.65494179611206,16.57976071334839,42.62934179611206C16.78866071334839,42.62184179611206,17.050320713348388,42.640641796112064,17.24798071334839,42.56184179611206C17.66421071334839,42.39634179611206,17.731900713348388,41.97014179611206,17.70502071334839,41.57654179611206C17.69237071334839,41.39254179611206,17.62439071334839,41.20984179611206,17.60178071334839,41.02534179611206C17.56652071334839,40.73734179611206,17.56708071334839,40.44518179611206,17.57448071334839,40.15562179611206C17.58799071334839,39.63045179611206,17.64729071334839,39.08050179611206,17.857460713348388,38.59120179611206C17.90340071334839,38.48386179611206,17.56339071334839,38.52261179611206,17.51660071334839,38.63145179611206C17.191380713348387,39.388671796112064,17.180010713348388,40.30745179611206,17.261200713348387,41.11304179611206C17.30401071334839,41.53684179611206,17.48119071334839,41.94214179611206,17.22779071334839,42.34334179611206C17.12753071334839,42.50174179611206,16.655420713348388,42.44294179611206,16.49416071334839,42.44724179611206C15.741190713348388,42.46724179611206,14.984810713348388,42.45724179611206,14.233260713348388,42.41084179611206C13.951980713348389,42.39344179611206,13.667289713348389,42.37174179611206,13.392694713348389,42.30834179611206C13.07102971334839,42.23374179611206,13.196026713348388,41.811641796112056,13.245939713348388,41.58494179611206C13.31035871334839,41.29344179611206,13.41544671334839,41.00884179611206,13.52664971334839,40.73114179611206C13.570733713348389,40.62154179611206,13.560352713348388,40.61714179611206,13.550966713348389,40.46927179611206C13.526223713348388,40.07567179611206,13.517122713348389,39.68124179611206,13.516411713348388,39.28723179611206C13.51442071334839,38.17446179611206,13.620504713348389,37.06237179611206,13.81717271334839,35.966171796112064C14.088640713348388,34.45295179611206,14.561180713348389,32.95739179611206,15.25898071334839,31.57505179611206C15.419950713348388,31.25606179611206,15.590880713348389,30.93433279611206,15.796650713348388,30.63943779611206C15.88567071334839,30.51225229611206,15.542250713348388,30.54113949611206,15.479250713348389,30.63094969611206L15.479250713348389,30.63094969611206Z" fill-rule="evenodd" fill="#151F3D" fill-opacity="1"/>
              </g>
            </g>
          </g>
          <g>
            <path d="M20.860293979040527,29.52510865939331C22.071570079040526,29.570052659393312,22.481930079040527,30.80785165939331,22.948510079040528,31.70430165939331C23.200970079040527,32.18844165939331,23.495740079040527,32.64584165939331,23.881120079040528,33.03725165939331C24.200320079040527,33.36158165939331,24.540390079040527,33.66296165939331,24.844170079040527,34.00228165939331C25.63090007904053,34.88092165939331,25.956510079040527,36.01735165939331,25.472870079040526,37.13111165939331C25.122150079040527,37.93822165939331,23.873890079040528,38.35973165939331,22.964610079040526,37.62766165939331C22.87987007904053,37.55963165939331,22.89106007904053,37.81945165939331,22.972250079040528,37.88653165939331C23.562060079040528,38.37363165939331,24.506000079040525,38.27254165939331,25.11806007904053,37.88896165939331C26.19696007904053,37.21331165939331,26.228220079040526,35.63323165939331,25.685080079040528,34.62313165939331C25.40532007904053,34.10391165939331,24.97559007904053,33.677411659393314,24.55322007904053,33.27075165939331C24.030550079040527,32.76799165939331,23.62020007904053,32.26240165939331,23.27535007904053,31.61766165939331C22.937050079040528,30.98452165939331,22.685130079040526,30.20143465939331,22.103370079040527,29.73943865939331C21.801640079040528,29.49973465939331,21.37572907904053,29.36827545939331,20.990756079040526,29.35383382029331C20.87516907904053,29.34951483939331,20.63976407904053,29.51687565939331,20.860293979040527,29.52510865939331L20.860293979040527,29.52510865939331Z" fill-rule="evenodd" fill="#151F3D" fill-opacity="1"/>
          </g>
          <g>
            <path d="M24.521296641540527,35.52842581564331C23.816566641540525,35.33033881564331,23.04014764154053,35.48355271564331,22.727385341540526,36.05209381564331C22.649116441540528,36.19439581564331,22.827299641540527,36.34883481564331,22.88706064154053,36.24027081564331C23.123278641540526,35.81046881564331,23.867386641540527,35.47319741564331,24.474866641540526,35.63799181564331C24.632036641540527,35.68063781564331,24.743716641540527,35.58899881564331,24.521296641540527,35.52842581564331L24.521296641540527,35.52842581564331Z" fill-rule="evenodd" fill="#151F3D" fill-opacity="1"/>
          </g>
          <g>
            <path d="M20.32974843841553,30.61645567501831C20.74217843841553,31.21456467501831,21.043448438415528,31.90038767501831,21.315998438415527,32.56592767501831C22.013428438415527,34.26896767501831,22.39927843841553,36.08618767501831,22.54339843841553,37.91140767501831C22.58837843841553,38.48358767501831,22.601528438415528,39.05756767501831,22.59615843841553,39.63098767501831C22.592478438415526,40.04099767501831,22.47451843841553,40.49611767501831,22.624868438415525,40.88351767501831C22.742408438415527,41.18661767501831,22.84098843841553,41.49741767501831,22.90095843841553,41.81631767501831C22.96898843841553,42.17871767501831,22.937168438415526,42.31721767501831,22.577348438415527,42.36981767501831C21.847808438415527,42.47691767501831,21.092378438415526,42.46971767501831,20.35647843841553,42.46861767501831C20.045878438415528,42.46821767501831,19.734998438415527,42.46271767501831,19.424538438415528,42.44871767501831C19.044210438415526,42.43191767501831,18.85581443841553,42.33741767501831,18.775618438415528,41.92621767501831C18.721872438415527,41.64971767501831,18.82384943841553,41.388517675018306,18.862886438415526,41.11941767501831C18.90036743841553,40.86291767501831,18.903620438415526,40.60101767501831,18.90446943841553,40.34218767501831C18.906307438415528,39.74324767501831,18.855955438415528,39.10266767501831,18.618904438415527,38.54399767501831C18.573644438415528,38.43725767501831,18.240839338415526,38.53958767501831,18.280159268415527,38.63253767501831C18.612681438415528,39.41640767501831,18.636160438415526,40.40672767501831,18.51494743841553,41.237217675018314C18.438146438415526,41.763517675018306,18.292040138415526,42.54351767501831,19.037987438415527,42.606217675018314C19.67771843841553,42.66001767501831,20.327338438415527,42.64791767501831,20.968478438415527,42.63501767501831C21.588128438415527,42.62281767501831,22.238738438415528,42.61961767501831,22.84466843841553,42.477817675018315C23.40292843841553,42.347217675018314,23.278028438415525,41.82441767501831,23.161628438415526,41.388517675018306C23.093738438415528,41.133617675018314,23.001808438415527,40.88301767501831,22.901378438415527,40.63891767501831C22.825568438415527,40.45389767501831,22.921748438415527,40.06843767501831,22.928118438415527,39.865707675018314C22.937728438415526,39.56120767501831,22.937728438415526,39.25642767501831,22.93390843841553,38.95206767501831C22.907888438415526,36.97293767501831,22.562498438415528,34.99229767501831,21.900138438415528,33.12101767501831C21.58133843841553,32.22060767501831,21.19449843841553,31.287380675018312,20.64543843841553,30.49178577501831C20.587588438415526,30.40793737501831,20.258748438415527,30.51357537501831,20.32974843841553,30.61645567501831L20.32974843841553,30.61645567501831Z" fill-rule="evenodd" fill="#151F3D" fill-opacity="1"/>
          </g>
          <g>
            <path d="M15.230795860290527,38.21532392501831C15.230795860290527,38.21532392501831,18.065475860290526,39.449283925018314,21.32310586029053,38.23347562501831C21.32310586029053,38.23347562501831,17.938505860290526,38.99549492501831,15.230795860290527,38.21532392501831L15.230795860290527,38.21532392501831Z" fill-rule="evenodd" fill="#151F3D" fill-opacity="1"/>
          </g>
          <g>
            <path d="M17.80238921966553,7.81822967501831C18.698989219665528,8.942582675018311,17.906789219665527,10.19823267501831,17.00242921966553,11.01861267501831C16.03051921966553,11.900712675018312,14.826249219665527,12.51279267501831,13.712039219665527,13.19156267501831C12.407239219665527,13.986502675018311,10.853269219665528,15.20654267501831,9.823299219665527,16.344372675018313C8.692811219665527,17.59324267501831,8.041379219665528,18.94054267501831,7.814950419665528,20.60464267501831C7.590590219665527,22.25434267501831,7.9993202196655275,24.163942675018312,8.814019219665527,25.63274267501831C9.467249219665527,26.81094267501831,10.741019219665528,27.977842675018312,12.092279219665528,28.65054267501831C13.669559219665526,29.43624267501831,15.446929219665527,29.767642675018312,17.194109219665528,29.87384267501831C19.046089219665525,29.987042675018312,20.92398921966553,29.82574267501831,22.696289219665527,29.26194267501831C24.186089219665526,28.787342675018312,25.574289219665527,27.96864267501831,26.620389219665526,26.80084267501831C27.647489219665527,25.65444267501831,28.234889219665526,24.20604267501831,28.438589219665527,22.69334267501831C28.967289219665528,18.76594267501831,26.945989219665528,15.004712675018311,24.38908921966553,12.17101267501831C23.39768921966553,11.072362675018312,22.21788921966553,9.959562675018311,21.004189219665527,9.11100267501831C20.11728921966553,8.49094267501831,19.138289219665527,7.825928675018311,17.735359219665526,7.477816173018311C17.658959219665526,7.45911817501831,17.66874921966553,7.785370675018311,17.763789219665526,7.811492675018311C19.196089219665527,8.208411675018311,20.610689219665527,9.17548267501831,21.755789219665527,10.091132675018311C23.306989219665528,11.331662675018311,24.673389219665527,12.81554267501831,25.788789219665528,14.45573267501831C27.85548921966553,17.49514267501831,29.046789219665527,21.564942675018308,27.459989219665527,25.07494267501831C25.882089219665527,28.564842675018312,21.959689219665528,29.78164267501831,18.389589219665528,29.77134267501831C15.001389219665526,29.761542675018312,11.077899219665527,28.81374267501831,9.232819219665528,25.70144267501831C7.464826219665527,22.71904267501831,8.250847219665527,18.65534267501831,10.531269219665528,16.18571267501831C11.594739219665527,15.03400267501831,12.927119219665528,14.17114267501831,14.261839219665529,13.366852675018311C15.335789219665529,12.719712675018311,16.48847921966553,12.12412267501831,17.412399219665527,11.26470267501831C18.29278921966553,10.44612267501831,19.059589219665526,8.863802675018311,18.185189219665528,7.76749767501831C18.12198921966553,7.68830567501831,17.778689219665527,7.788532675018311,17.80238921966553,7.81822967501831L17.80238921966553,7.81822967501831Z" fill-rule="evenodd" fill="#151F3D" fill-opacity="1"/>
          </g>
          <g>
            <path d="M15.994470391540528,6.923079967498779L15.608417391540527,8.12951996749878L14.953940391540527,8.31227996749878L15.105048391540528,8.699889967498779L15.583232391540527,8.502399967498778L15.449022391540527,9.116519967498778L15.986020391540528,9.138459967498779L16.086760391540526,8.648499967498779L16.456080391540528,8.948479967498779L16.615480391540526,8.61933996749878L16.212520391540526,8.202559967498779L16.439190391540528,6.923079967498779L15.994470391540528,6.923079967498779Z" fill-rule="evenodd" fill="#151F3D" fill-opacity="1"/>
          </g>
          <g>
            <path d="M16.23655840716553,7.32338158126831L17.392716407165526,7.00344158126831L17.802406407165527,7.476961581268311L18.065436407165528,7.133551581268311L17.712986407165527,6.822341581268311L18.276986407165527,6.605327581268311L18.084076407165526,6.12306558126831L17.636576407165528,6.30189158126831L17.740876407165526,5.8154215812683105L17.404246407165527,5.855070681268311L17.215886407165527,6.43491758126831L16.061606407165527,6.934011581268311L16.23655840716553,7.32338158126831Z" fill-rule="evenodd" fill="#151F3D" fill-opacity="1"/>
          </g>
          <g>
            <path d="M16.688945407165527,7.19844103439331L17.069666407165528,5.991921034393311L17.723146407165526,5.80701503439331L17.570526407165527,5.420359034393311L17.093366407165526,5.618993034393311L17.225036407165526,5.00484223439331L16.688458407165527,4.9846110343933105L16.58958440716553,5.47440403439331L16.219415407165528,5.17602903439331L16.061606407165527,5.505245034393311L16.465707407165528,5.92062103439331L16.24458040716553,7.19999103439331L16.688945407165527,7.19844103439331Z" fill-rule="evenodd" fill="#151F3D" fill-opacity="1"/>
          </g>
          <g>
            <path d="M16.141259844665527,6.4029552187683105L14.993362844665528,6.812404518768311L14.555267844665527,6.3691325187683105L14.308331844665528,6.733701518768311L14.680089844665527,7.018592518768311L14.123129844665527,7.27990551876831L14.343260844665528,7.748542518768311L14.784604844665527,7.534552518768311L14.705405844665528,8.030672518768311L15.042370844665527,7.96481251876831L15.201579844665527,7.36918251876831L16.338509844665527,6.779882518768311L16.141259844665527,6.4029552187683105Z" fill-rule="evenodd" fill="#151F3D" fill-opacity="1"/>
          </g>
          <g>
            <path d="M15.765394922790527,5.5385661125183105L15.655790922790528,6.222694112518311L16.615544922790527,7.18691611251831L16.39542492279053,7.477026112518311L15.264368922790528,6.50411711251831L14.677084922790527,6.65630611251831L15.765394922790527,5.5385661125183105Z" fill-rule="evenodd" fill="#151F3D" fill-opacity="1"/>
          </g>
          <g>
            <path d="M16.061606407165527,6.991448834197998L16.934026407165526,7.903905834197998L16.811716407165527,8.505045834197999L17.20946640716553,8.584615834197997L17.243936407165528,8.112995834197998L17.714676407165527,8.529145834197998L17.962796407165527,8.123305834197998L17.58466640716553,7.796165834197998L18.000066407165527,7.661855834197998L17.710896407165528,7.362732834197998L17.254866407165526,7.472070834197998L16.25158540716553,6.646155834197998L16.061606407165527,6.991448834197998Z" fill-rule="evenodd" fill="#151F3D" fill-opacity="1"/>
          </g>
          <g>
            <path d="M15.784588750915528,23.39991796798706C15.784588750915528,24.853077967987062,15.040788750915528,26.03075796798706,14.123048750915528,26.03075796798706C13.205437750915527,26.03075796798706,12.461508750915527,24.853077967987062,12.461508750915527,23.39991796798706C12.461508750915527,21.94703796798706,13.205437750915527,20.76921796798706,14.123048750915528,20.76921796798706C15.040788750915528,20.76921796798706,15.784588750915528,21.94703796798706,15.784588750915528,23.39991796798706L15.784588750915528,23.39991796798706Z" fill-rule="evenodd" fill="#151F3D" fill-opacity="1"/>
          </g>
          <g>
            <path d="M15.784588750915528,23.95379955001831C15.784588750915528,25.25384955001831,15.040768750915527,26.30777955001831,14.123118750915527,26.30777955001831C13.205325750915527,26.30777955001831,12.461508750915527,25.25384955001831,12.461508750915527,23.95379955001831C12.461508750915527,22.65401955001831,13.205325750915527,21.60008955001831,14.123118750915527,21.60008955001831C15.040768750915527,21.60008955001831,15.784588750915528,22.65401955001831,15.784588750915528,23.95379955001831L15.784588750915528,23.95379955001831Z" fill-rule="evenodd" fill="#2C4992" fill-opacity="1"/>
          </g>
          <g>
            <path d="M15.507699297790527,23.67681048751831C15.507699297790527,24.51801048751831,15.011659297790528,25.19995048751831,14.400009297790527,25.19995048751831C13.788359297790528,25.19995048751831,13.292319297790527,24.51801048751831,13.292319297790527,23.67681048751831C13.292319297790527,22.83560848751831,13.788359297790528,22.15380048751831,14.400009297790527,22.15380048751831C15.011659297790528,22.15380048751831,15.507699297790527,22.83560848751831,15.507699297790527,23.67681048751831L15.507699297790527,23.67681048751831Z" fill-rule="evenodd" fill="#151F3D" fill-opacity="1"/>
          </g>
          <g>
            <path d="M15.230819844665527,23.26146290109253C15.230819844665527,23.56751190109253,14.982845844665528,23.81537690109253,14.676975844665527,23.81537690109253C14.371105844665527,23.81537690109253,14.123129844665527,23.56751190109253,14.123129844665527,23.26146290109253C14.123129844665527,22.95541390109253,14.371105844665527,22.70768690109253,14.676975844665527,22.70768690109253C14.982845844665528,22.70768690109253,15.230819844665527,22.95541390109253,15.230819844665527,23.26146290109253L15.230819844665527,23.26146290109253Z" fill-rule="evenodd" fill="#FEFEFE" fill-opacity="1"/>
          </g>
          <g>
            <path d="M20.215415000915527,23.39991796798706C20.215415000915527,24.853077967987062,20.959213000915526,26.03075796798706,21.876955000915526,26.03075796798706C22.794565000915526,26.03075796798706,23.53849500091553,24.853077967987062,23.53849500091553,23.39991796798706C23.53849500091553,21.94703796798706,22.794565000915526,20.76921796798706,21.876955000915526,20.76921796798706C20.959213000915526,20.76921796798706,20.215415000915527,21.94703796798706,20.215415000915527,23.39991796798706L20.215415000915527,23.39991796798706Z" fill-rule="evenodd" fill="#151F3D" fill-opacity="1"/>
          </g>
          <g>
            <path d="M20.215415000915527,23.95379955001831C20.215415000915527,25.25384955001831,20.959371000915528,26.30777955001831,21.87688500091553,26.30777955001831C22.794535000915527,26.30777955001831,23.53849500091553,25.25384955001831,23.53849500091553,23.95379955001831C23.53849500091553,22.65401955001831,22.794535000915527,21.60008955001831,21.87688500091553,21.60008955001831C20.959371000915528,21.60008955001831,20.215415000915527,22.65401955001831,20.215415000915527,23.95379955001831L20.215415000915527,23.95379955001831Z" fill-rule="evenodd" fill="#2C4992" fill-opacity="1"/>
          </g>
          <g>
            <path d="M20.769370079040527,23.67681048751831C20.769370079040527,24.51801048751831,21.265275079040528,25.19995048751831,21.87706007904053,25.19995048751831C22.488710079040526,25.19995048751831,22.984750079040527,24.51801048751831,22.984750079040527,23.67681048751831C22.984750079040527,22.83560848751831,22.488710079040526,22.15380048751831,21.87706007904053,22.15380048751831C21.265275079040528,22.15380048751831,20.769370079040527,22.83560848751831,20.769370079040527,23.67681048751831L20.769370079040527,23.67681048751831Z" fill-rule="evenodd" fill="#151F3D" fill-opacity="1"/>
          </g>
          <g>
            <path d="M21.046225547790527,23.26146290109253C21.046225547790527,23.56751190109253,21.294061547790527,23.81537690109253,21.600071547790527,23.81537690109253C21.905941547790526,23.81537690109253,22.15391554779053,23.56751190109253,22.15391554779053,23.26146290109253C22.15391554779053,22.95541390109253,21.905941547790526,22.70768690109253,21.600071547790527,22.70768690109253C21.294061547790527,22.70768690109253,21.046225547790527,22.95541390109253,21.046225547790527,23.26146290109253L21.046225547790527,23.26146290109253Z" fill-rule="evenodd" fill="#FEFEFE" fill-opacity="1"/>
          </g>
        </g>
      </g>
    </g>
  </g>
</svg>