<svg xmlns="http://www.w3.org/2000/svg" xmlns:xlink="http://www.w3.org/1999/xlink" fill="none" version="1.1" width="40" height="40" viewBox="0 0 40 40"><defs><linearGradient x1="0.11999999731779099" y1="0.1411290317773819" x2="0.5" y2="0.3709677457809448" id="master_svg0_56_00435"><stop offset="0%" stop-color="#F7D481" stop-opacity="1"/><stop offset="100%" stop-color="#FFFFFF" stop-opacity="1"/></linearGradient><filter id="master_svg1_63_00941" filterUnits="objectBoundingBox" color-interpolation-filters="sRGB" x="-16.66666603088379" y="-13.333332777023315" width="45.228755950927734" height="44.99999809265137"><feFlood flood-opacity="0" result="BackgroundImageFix"/><feColorMatrix in="SourceAlpha" type="matrix" values="0 0 0 0 0 0 0 0 0 0 0 0 0 0 0 0 0 0 127 0"/><feOffset dy="3.3333332538604736" dx="0"/><feGaussianBlur stdDeviation="4.166666507720947"/><feColorMatrix type="matrix" values="0 0 0 0 0.9098039269447327 0 0 0 0 0.6000000238418579 0 0 0 0 0 0 0 0 1 0"/><feBlend mode="normal" in2="BackgroundImageFix" result="effect1_dropShadow"/><feBlend mode="normal" in="SourceGraphic" in2="effect1_dropShadow" result="shape"/></filter></defs><g><g><rect x="0" y="0" width="40" height="40" rx="6.666666507720947" fill="#F7A500" fill-opacity="1"/></g><g><path d="M10,23.9376C10,24.4345,10.221746,24.9055,10.604755,25.2222L19.35475,32.4555C19.971040000000002,32.9649,20.862299999999998,32.9649,21.4786,32.4555L30.2286,25.2222C30.6116,24.9055,30.8333,24.4345,30.8333,23.9376L30.8333,13.17924C30.8333,12.518799999999999,30.4433,11.92065,29.839,11.654219999999999L21.089,7.796439C20.6607,7.607583,20.1727,7.607583,19.744300000000003,7.796439L10.994299999999999,11.654219999999999C10.389983,11.92065,10,12.518799999999999,10,13.17924L10,23.9376Z" fill="url(#master_svg0_56_00435)" fill-opacity="1"/></g><g><path d="M11.666748046875,14.237408046875L11.666748046875,23.400148046875C11.666748046875,23.886748046875,11.879353046875,24.348948046875,12.248762046875001,24.665648046875L19.332098046875,30.737048046875C19.956248046875,31.272048046875,20.877248046875,31.272048046875,21.501398046875,30.737048046875L28.584748046875,24.665648046875C28.954148046875,24.348948046875,29.166748046875,23.886748046875,29.166748046875,23.400148046875L29.166748046875,14.237408046875C29.166748046875,13.585128046874999,28.786248046875,12.992798046875,28.193048046875,12.721608046875L21.109678046875,9.483517046875C20.669628046874998,9.282349046875,20.163868046875002,9.282349046875,19.723818046875,9.483517046875L12.640482046875,12.721608046875C12.047255046875,12.992798046875,11.666748046875,13.585128046874999,11.666748046875,14.237408046875Z" fill="#FFFFFF" fill-opacity="1"/></g><g><path d="M21.35114,18.197020000000002L23.515990000000002,16.0803L22.41113,15L20.0946,17.26504L17.77808,15L16.673222,16.0803L18.83806,18.197020000000002L16,18.197020000000002L16,19.72479L19.12492,19.72479L19.12492,21.11108L16,21.11108L16,22.638849999999998L19.12492,22.638849999999998L19.12492,24.1665L21.15942,24.1665L21.15942,22.638849999999998L24.33333,22.638849999999998L24.33333,21.11108L21.15942,21.11108L21.15942,19.72479L24.33333,19.72479L24.33333,18.197020000000002L21.35114,18.197020000000002Z" fill-rule="evenodd" fill="#F7A500" fill-opacity="1"/></g><g transform="matrix(0.7071068286895752,-0.7071068286895752,0.7071068286895752,0.7071068286895752,-8.570354980591219,15.975352060690057)"><path d="" fill="#F7A500" fill-opacity="1"/></g><g filter="url(#master_svg1_63_00941)"><ellipse cx="28.447711944580078" cy="26.666584968566895" rx="5.947711944580078" ry="5.8333330154418945" fill="#FFFFFF" fill-opacity="1"/></g><g><path d="M28.2535,23L27.416833,23Q27.375795,23,27.335545,23.00800613Q27.295296,23.0160123,27.257381,23.0317169Q27.219467,23.0474214,27.185345,23.070221Q27.151223,23.0930205,27.122205,23.122039Q27.0931867,23.151057,27.0703872,23.185179Q27.0475876,23.219301,27.031883,23.257215Q27.0161784,23.295129,27.00817231,23.335379Q27.000166178,23.375629,27.000166178,23.416667L27.000166178,27.58333Q27.000166178,27.62437,27.00817231,27.66462Q27.0161784,27.70487,27.031883,27.74278Q27.0475876,27.7807,27.0703872,27.81482Q27.0931867,27.84894,27.122205,27.87796Q27.151223,27.90698,27.185345,27.92978Q27.219467,27.95258,27.257381,27.96828Q27.295296,27.98399,27.335545,27.99199Q27.375795,28,27.416833,28L27.586589,28L28.2535,28L31.75326,28C31.98337,28,32.16992,27.81345,32.16992,27.58333L32.16992,26.74674C32.16992,26.51663,31.98337,26.33008,31.75325,26.33008L28.67017,26.33008L28.67017,23.416667Q28.67017,23.375629,28.66216,23.335379Q28.65415,23.295129,28.63845,23.257215Q28.62274,23.219301,28.59994,23.185179Q28.57715,23.151057,28.54813,23.122039Q28.51911,23.0930205,28.48499,23.070221Q28.45086,23.0474214,28.41295,23.0317169Q28.37504,23.0160123,28.334789999999998,23.00800613Q28.29454,23,28.2535,23Z" fill-rule="evenodd" fill="#F7A500" fill-opacity="1"/></g></g></svg>