<svg xmlns="http://www.w3.org/2000/svg"
  xmlns:xlink="http://www.w3.org/1999/xlink" fill="none" version="1.1" width="16" height="16" viewBox="0 0 16 16">
  <g>
    <g>
      <path d="M5,2.5L5,3.5L7.5,3.5L7.5,2.5L8.5,2.5L8.5,3.5L11,3.5L11,2.5L12,2.5L12,3.5L14,3.5C14.5523,3.5,15,3.90701,15,4.40909L15,12.5909C15,13.093,14.5523,13.5,14,13.5L2,13.5C1.447715,13.5,1,13.093,1,12.5909L1,4.40909C1,3.90701,1.447715,3.5,2,3.5L4,3.5L4,2.5L5,2.5ZM6,7.5C6,6.39543,6.89543,5.5,8,5.5C9.10457,5.5,10,6.39543,10,7.5C10,8.03237,9.792,8.51616,9.45255,8.874469999999999C10.35454,9.37455,10.97167,10.32594,10.99905,11.42376L11,11.5L10,11.5L9.99905,11.43771C9.96614,10.36196,9.08373,9.5,8,9.5C6.91627,9.5,6.03386,10.36196,6.00095,11.43771L6,11.5L5,11.5L5.00117,11.41553C5.03142,10.32117,5.64774,9.37327,6.54741,8.87477C6.2081,8.51638,6,8.03249,6,7.5ZM9,7.5Q9,7.59849,8.98078,7.69509Q8.96157,7.79169,8.92388,7.88268Q8.88619,7.97368,8.83147,8.05557Q8.77675,8.13746,8.70711,8.20711Q8.63746,8.27675,8.55557,8.33147Q8.47368,8.38619,8.38268,8.42388Q8.29169,8.46157,8.19509,8.48078Q8.09849,8.5,8,8.5Q7.90151,8.5,7.80491,8.48078Q7.70831,8.46157,7.61732,8.42388Q7.52632,8.38619,7.44443,8.33147Q7.36254,8.27675,7.29289,8.20711Q7.22325,8.13746,7.16853,8.05557Q7.11381,7.97368,7.07612,7.88268Q7.03843,7.79169,7.01921,7.69509Q7,7.59849,7,7.5Q7,7.40151,7.01921,7.30491Q7.03843,7.20831,7.07612,7.11732Q7.11381,7.02632,7.16853,6.94443Q7.22325,6.86254,7.29289,6.79289Q7.36254,6.72325,7.44443,6.66853Q7.52632,6.61381,7.61732,6.57612Q7.70831,6.53843,7.80491,6.51921Q7.90151,6.5,8,6.5Q8.09849,6.5,8.19509,6.51921Q8.29169,6.53843,8.38268,6.57612Q8.47368,6.61381,8.55557,6.66853Q8.63746,6.72325,8.70711,6.79289Q8.77675,6.86254,8.83147,6.94443Q8.88619,7.02632,8.92388,7.11732Q8.96157,7.20831,8.98078,7.30491Q9,7.40151,9,7.5Z" fill-rule="evenodd" fill="#2C68FF" fill-opacity="1"/>
    </g>
  </g>
</svg>