<svg xmlns="http://www.w3.org/2000/svg" xmlns:xlink="http://www.w3.org/1999/xlink" fill="none" version="1.1" width="40" height="40" viewBox="0 0 40 40"><defs><linearGradient x1="0" y1="0.7053571343421936" x2="0.39673912525177" y2="0.6508620977401733" id="master_svg0_56_00494"><stop offset="0%" stop-color="#FFFFFF" stop-opacity="1"/><stop offset="100%" stop-color="#FFFFFF" stop-opacity="0.5"/></linearGradient><linearGradient x1="0.0234375" y1="0.05288461595773697" x2="0.4453125" y2="0.3076923191547394" id="master_svg1_56_00508"><stop offset="0%" stop-color="#7DEDE5" stop-opacity="1"/><stop offset="100%" stop-color="#FFFFFF" stop-opacity="1"/></linearGradient><radialGradient cx="0" cy="0" r="1" gradientUnits="userSpaceOnUse" id="master_svg2_56_00511" gradientTransform="translate(28.755617022514343 46.063152010420595) rotate(128.99514213666748) scale(7.2100373419396675 -5.6717971636724025)"><stop offset="0%" stop-color="#7FEDE6" stop-opacity="1"/><stop offset="100%" stop-color="#FFFFFF" stop-opacity="1"/></radialGradient></defs><g><g><rect x="0" y="0" width="40" height="40" rx="6.666666507720947" fill="#23CBC6" fill-opacity="1"/></g><g><g transform="matrix(-1,0,0,1,65,0)"><rect x="32.5" y="18.333232879638672" width="18.333332061767578" height="14.166666030883789" rx="1.6666666269302368" fill="url(#master_svg0_56_00494)" fill-opacity="1"/></g><g transform="matrix(0,-1,1,0,-24.166748046875,40.833251953125)"><g><rect x="8.333251953125" y="32.5001220703125" width="25" height="19.16666603088379" rx="1.6666666269302368" fill="url(#master_svg1_56_00508)" fill-opacity="1"/></g><g><path d="M10 37.5001220703125C10 37.5001220703125 10 37.5001220703125 10 37.5001220703125L33.33333206176758 37.5001220703125C33.33333206176758 37.5001220703125 33.33333206176758 37.5001220703125 33.33333206176758 37.5001220703125L33.33333206176758 49.16678875684738C33.33333206176758 49.62702603740013 32.960236028855206 50.0001220703125 32.49999874830246 50.0001220703125L10.833333313465118 50.0001220703125C10.37309603291237 50.0001220703125 10 49.62702603740013 10 49.16678875684738Z" fill="#FFFFFF" fill-opacity="1"/></g><g><path d="M10 35.00008136034012C10 34.53984407978737 10.37309603291237 34.166748046875 10.833333313465118 34.166748046875L32.49999874830246 34.166748046875C32.960236028855206 34.166748046875 33.33333206176758 34.53984407978737 33.33333206176758 35.00008136034012L33.33333206176758 38.33341455459595C33.33333206176758 38.33341455459595 33.33333206176758 38.33341455459595 33.33333206176758 38.33341455459595L10 38.33341455459595C10 38.33341455459595 10 38.33341455459595 10 38.33341455459595Z" fill="#FFFFFF" fill-opacity="1"/></g><g><path d="M32.508631953125004,35.00012207031251Q31.872341953125,42.9668620703125,29.613771953125,45.8673220703125C27.355191953125,48.7678220703125,25.563291953125,49.7051220703125,23.333251953125,50.8322220703125C23.333251953125004,51.3538220703125,23.333251953125004,51.171222070312496,23.333251953125,51.6668220703125Q24.095884953125,51.6668220703125,31.658041953125,51.6657220703125C32.578591953125,51.6656220703125,33.333061953125,50.9192220703125,33.332841953125,49.9986220703125L33.329111953125,35.00012207031251L32.508631953125004,35.00012207031251Z" fill-rule="evenodd" fill="url(#master_svg2_56_00511)" fill-opacity="1"/></g><g transform="matrix(0,1,-1,0,54.166748046875,19.166748046875)"><rect x="17.5" y="36.666748046875" width="11.666666030883789" height="1.6666666269302368" rx="0.4166666567325592" fill="#23CBC6" fill-opacity="1"/></g><g transform="matrix(0,1,-1,0,50.833251953125,22.500244140625)"><rect x="14.16650390625" y="36.666748046875" width="11.666666030883789" height="1.6666666269302368" rx="0.4166666567325592" fill="#23CBC6" fill-opacity="1"/></g></g><g><path d="M19.517888046875,14.86370701171875L21.682738046875002,12.74698701171875L20.577878046875,11.66668701171875L18.261348046875,13.931727011718749L15.944828046875,11.66668701171875L14.839970046874999,12.74698701171875L17.004808046875,14.86370701171875L14.166748046875,14.86370701171875L14.166748046875,16.39147701171875L17.291668046875,16.39147701171875L17.291668046875,17.77776701171875L14.166748046875,17.77776701171875L14.166748046875,19.305537011718748L17.291668046875,19.305537011718748L17.291668046875,20.83318701171875L19.326168046875,20.83318701171875L19.326168046875,19.305537011718748L22.500078046875,19.305537011718748L22.500078046875,17.77776701171875L19.326168046875,17.77776701171875L19.326168046875,16.39147701171875L22.500078046875,16.39147701171875L22.500078046875,14.86370701171875L19.517888046875,14.86370701171875Z" fill-rule="evenodd" fill="#23CBC6" fill-opacity="1"/></g></g></g></svg>