<svg xmlns="http://www.w3.org/2000/svg" xmlns:xlink="http://www.w3.org/1999/xlink" fill="none" version="1.1" width="40" height="40" viewBox="0 0 40 40"><defs><linearGradient x1="0.11999999731779099" y1="0.1411290317773819" x2="0.5" y2="0.3709677457809448" id="master_svg0_56_00435"><stop offset="0%" stop-color="#F7D481" stop-opacity="1"/><stop offset="100%" stop-color="#FFFFFF" stop-opacity="1"/></linearGradient></defs><g><g><rect x="0" y="0" width="40" height="40" rx="6.666666507720947" fill="#F7A500" fill-opacity="1"/></g><g><g><path d="M5.833740234375,12L5.833740234375,28C5.833740234375,29.1046,6.729171234375,30,7.833740234375,30L21.950440234375,30C22.619540234375,30,23.100040234375,29.3547,23.034240234375,28.6887C23.011640234375,28.4601,23.000240234375,28.2303,23.000240234375,28C23.000240234375,24.134,26.134240234375,21,30.000240234375,21C30.836740234375,21,31.660940234375,21.1498,32.435440234375,21.4372C33.205440234375004,21.7229,34.167040234375,21.2113,34.167040234375,20.39L34.167040234375,12C34.167040234375,10.895431,33.271640234375,10,32.167040234375,10L7.833740234375,10C6.729171234375,10,5.833740234375,10.895431,5.833740234375,12ZM30.000240234375,33C32.761640234375,33,35.000240234375,30.7614,35.000240234375,28C35.000240234375,25.238599999999998,32.761640234375,23,30.000240234375,23C27.238840234375,23,25.000240234375,25.238599999999998,25.000240234375,28C25.000240234375,30.7614,27.238840234375,33,30.000240234375,33Z" fill-rule="evenodd" fill="url(#master_svg0_56_00435)" fill-opacity="1"/></g><g><path d="M29.58318521118164,24L28.74651821118164,24Q28.70548021118164,24,28.66523021118164,24.00800613Q28.62498121118164,24.0160123,28.58706621118164,24.0317169Q28.549152211181642,24.0474214,28.515030211181642,24.070221Q28.480908211181642,24.0930205,28.45189021118164,24.122039Q28.42287191118164,24.151057,28.40007241118164,24.185179Q28.37727281118164,24.219301,28.36156821118164,24.257215Q28.34586361118164,24.295129,28.33785752118164,24.335379Q28.32985138918164,24.375629,28.32985138918164,24.416667L28.32985138918164,28.58333Q28.32985138918164,28.62437,28.33785752118164,28.66462Q28.34586361118164,28.70487,28.36156821118164,28.74278Q28.37727281118164,28.7807,28.40007241118164,28.81482Q28.42287191118164,28.84894,28.45189021118164,28.87796Q28.480908211181642,28.90698,28.515030211181642,28.92978Q28.549152211181642,28.95258,28.58706621118164,28.96828Q28.62498121118164,28.98399,28.66523021118164,28.99199Q28.70548021118164,29,28.74651821118164,29L28.91627421118164,29L29.58318521118164,29L33.08294521118164,29C33.31305521118164,29,33.49960521118164,28.81345,33.49960521118164,28.58333L33.49960521118164,27.74674C33.49960521118164,27.51663,33.31305521118164,27.33008,33.08293521118164,27.33008L29.99985521118164,27.33008L29.99985521118164,24.416667Q29.99985521118164,24.375629,29.99184521118164,24.335379Q29.983835211181642,24.295129,29.96813521118164,24.257215Q29.95242521118164,24.219301,29.92962521118164,24.185179Q29.90683521118164,24.151057,29.87781521118164,24.122039Q29.848795211181642,24.0930205,29.81467521118164,24.070221Q29.78054521118164,24.0474214,29.74263521118164,24.0317169Q29.70472521118164,24.0160123,29.66447521118164,24.00800613Q29.624225211181642,24,29.58318521118164,24Z" fill-rule="evenodd" fill="#F7A500" fill-opacity="1"/></g><g><path d="M8.000244140625 13.666666626930237C8.000244140625 12.746192065824738 8.746436206449738 12 9.666910767555237 12L22.000244140625 12C22.000244140625 12 22.000244140625 12 22.000244140625 12L22.000244140625 26.333333373069763C22.000244140625 27.25380793417526 21.25405207480026 28 20.333577513694763 28L9.666910767555237 28C8.746436206449738 28 8.000244140625 27.25380793417526 8.000244140625 26.333333373069763Z" fill="#FFFFFF" fill-opacity="1"/></g><g><path d="M15.332548046875,20.69199C16.669458046875,20.54749,17.751928046875,19.4878,17.899538046875,18.17903C18.093528046875,16.45602,16.721478046875,15,15.000788046875,15C13.389748046874999,15,12.083758046875,16.27711,12.083758046875,17.85424L12.083768046875,18.10254C12.083768046875,19.787010000000002,13.572498046875001,20.8819,15.332548046875,20.69199ZM15.000788046875,21.77288C13.053768046875,21.77288,9.166748046875,22.86559,9.166748046875,25.035899999999998L9.166748046875,26.2593C9.166748046875,26.485,9.353718046875,26.6667,9.582862046875,26.6667L20.417348046875,26.6667C20.647848046874998,26.6667,20.833448046875,26.4836,20.833448046875,26.2593L20.833448046875,25.035899999999998C20.834848046875003,22.86696,16.947808046875,21.77288,15.000788046875,21.77288Z" fill="#EFA904" fill-opacity="1"/></g></g></g></svg>