<svg xmlns="http://www.w3.org/2000/svg" xmlns:xlink="http://www.w3.org/1999/xlink" fill="none" version="1.1" width="40" height="40" viewBox="0 0 40 40"><defs><linearGradient x1="0.11999999731779099" y1="0.1411290317773819" x2="0.5" y2="0.3709677457809448" id="master_svg0_63_8436"><stop offset="0%" stop-color="#23CBC6" stop-opacity="1"/><stop offset="100%" stop-color="#FFFFFF" stop-opacity="1"/></linearGradient></defs><g><g><rect x="0" y="0" width="40" height="40" rx="6.666666507720947" fill="#23CBC6" fill-opacity="1"/></g><g><path d="M5,12L5,28C5,29.1046,5.895431,30,7,30L33.3333,30L33.3333,12C33.3333,10.895431,32.4379,10,31.3333,10L7,10C5.895431,10,5,10.895431,5,12Z" fill="url(#master_svg0_63_8436)" fill-opacity="1"/></g><g><ellipse cx="29.16650390625" cy="28" rx="7" ry="7" fill="#23CBC6" fill-opacity="1"/></g><g><ellipse cx="29.16650390625" cy="28" rx="5" ry="5" fill="#FFFFFF" fill-opacity="1"/></g><g transform="matrix(0.7071067690849304,-0.7071067690849304,0.7071067690849304,0.7071067690849304,-13.79080167767097,28.487307889205113)"><rect x="27.4918212890625" y="30.890625" width="7.1605048179626465" height="1.6670337915420532" rx="0.4166666567325592" fill="#23CBC6" fill-opacity="1"/></g><g transform="matrix(0.7071067690849304,0.7071067690849304,-0.7071067690849304,0.7071067690849304,26.906436628116353,-10.53698516953591)"><rect x="26.1724853515625" y="27.21044921875" width="4.448606014251709" height="1.6666666269302368" rx="0.4166666567325592" fill="#23CBC6" fill-opacity="1"/></g><g><path d="M7.16650390625 13.666666626930237C7.16650390625 12.746192065824738 7.912695972074739 12 8.833170533180237 12L21.16650390625 12C21.16650390625 12 21.16650390625 12 21.16650390625 12L21.16650390625 26.333333373069763C21.16650390625 27.25380793417526 20.42031184042526 28 19.499837279319763 28L8.833170533180237 28C7.912695972074739 28 7.16650390625 27.25380793417526 7.16650390625 26.333333373069763Z" fill="#FFFFFF" fill-opacity="1"/></g><g><path d="M14.4988078125,20.69199C15.8357178125,20.54749,16.9181878125,19.4878,17.0657978125,18.17903C17.2597878125,16.45602,15.8877378125,15,14.1670478125,15C12.556007812499999,15,11.2500178125,16.27711,11.2500178125,17.85424L11.2500278125,18.10254C11.2500278125,19.787010000000002,12.738757812500001,20.8819,14.4988078125,20.69199ZM14.1670478125,21.77288C12.2200278125,21.77288,8.3330078125,22.86559,8.3330078125,25.035899999999998L8.3330078125,26.2593C8.3330078125,26.485,8.5199778125,26.6667,8.7491218125,26.6667L19.5836078125,26.6667C19.814107812499998,26.6667,19.9997078125,26.4836,19.9997078125,26.2593L19.9997078125,25.035899999999998C20.001107812500003,22.86696,16.1140678125,21.77288,14.1670478125,21.77288Z" fill="#23CBC6" fill-opacity="1"/></g></g></svg>