<svg xmlns="http://www.w3.org/2000/svg" xmlns:xlink="http://www.w3.org/1999/xlink" fill="none" version="1.1" width="40" height="40" viewBox="0 0 40 40"><defs><clipPath id="master_svg0_63_00982"><rect x="0" y="0" width="40" height="40" rx="0"/></clipPath><filter id="master_svg1_63_00982/56_00524" filterUnits="objectBoundingBox" color-interpolation-filters="sRGB" x="-9.999999761581421" y="-11.666666388511658" width="31.640857219696045" height="51.17714309692383"><feFlood flood-opacity="0" result="BackgroundImageFix"/><feColorMatrix in="SourceAlpha" type="matrix" values="0 0 0 0 0 0 0 0 0 0 0 0 0 0 0 0 0 0 127 0"/><feOffset dy="1.6666666269302368" dx="3.3333332538604736"/><feGaussianBlur stdDeviation="3.3333332538604736"/><feColorMatrix type="matrix" values="0 0 0 0 0.9098039269447327 0 0 0 0 0.6000000238418579 0 0 0 0 0 0 0 0 0.800000011920929 0"/><feBlend mode="normal" in2="BackgroundImageFix" result="effect1_dropShadow"/><feBlend mode="normal" in="SourceGraphic" in2="effect1_dropShadow" result="shape"/></filter></defs><g clip-path="url(#master_svg0_63_00982)"><g><rect x="0" y="0" width="40" height="40" rx="6.666666507720947" fill="#F7A500" fill-opacity="1"/></g><g><path d="M10 9.642799019813538C10 8.590828064619766 10.852790955244766 7.738037109375 11.904761910438538 7.738037109375L29.047619223594666 7.738037109375C30.099590178788436 7.738037109375 30.952381134033203 8.590828064619766 30.952381134033203 9.642799019813538L30.952381134033203 30.595180869102478C30.952381134033203 31.647151824296248 30.099590178788436 32.499942779541016 29.047619223594666 32.499942779541016L12.857142925262451 32.499942779541016C11.279186459553058 32.499942779541016 10 31.22075631998796 10 29.642799854278564Z" fill="#FFFFFF" fill-opacity="1"/></g><g><path d="M21.18258,10.833251953125L20.4451,10.926733753125L20.38662,11.751978953125L19.70579,11.366174953125L19.49908,11.903691953125L20.45651,12.619751953125L20.45651,13.936161953125L19.264780000000002,13.221631953125L19.32952,12.023991953125L19.31002,12.028971953125L18.069747,14.182891953125L18.89108,13.838081953125L19.986069999999998,14.575591953125L18.9937,15.106211953125001L17.874805,14.519651953124999L17.5757701,15.043761953125L18.352966,15.582431953124999L17.5,16.211521953125L18.05908,16.667051953125L18.7708,16.137581953125L18.87195,17.157831953125L19.38064,16.697321953124998L19.44979,15.764801953125L20.41457,15.124601953125001L20.3149,16.577781953125L19.40345,17.160901953125L19.77972,17.795351953125L20.419719999999998,17.293071953125L20.47269,18.333251953125L21.19729,18.210271953125L21.32014,17.385791953125L21.82441,17.784231953125L22.03885,17.171621953125L21.32014,16.483541953125L21.18258,15.247201953125L22.172,15.982791953125L22.23048,16.886201953125L22.8212,17.171621953125L22.91131,16.345231953125L23.73853,16.791181953125L24.00336,16.147921953125L23.13347,15.704271953125L23.871679999999998,15.205061953125L23.26625,14.805841953125L22.57071,15.292791953125L21.38929,14.575591953125L22.58763,13.903591953125L23.515259999999998,14.531141953125001L23.899630000000002,13.995161953125L23.087130000000002,13.598631953125L24.16667,13.035441953125L23.68005,12.481441953125L22.96759,12.834681953125L22.88189,11.948521953125L22.20106,12.225131953125L22.20106,13.156501953125L21.18258,13.903591953125L21.25577,12.714001953124999L22.22864,11.913651953125001L21.9914,11.286868953125L21.1377,11.796420953125L21.18258,10.833251953125Z" fill-rule="evenodd" fill="#F7A500" fill-opacity="1"/></g><g filter="url(#master_svg1_63_00982/56_00524)"><path d="M10,30.00001298828125L10,8.69045298828125C10,7.11250298828125,11.27919,5.83331298828125,12.85714,5.83331298828125L14.87895,5.83331298828125C14.93155,5.83331298828125,14.97419,5.87595258828125,14.97419,5.92855108828125L14.97419,27.50001298828125L12.5,27.50001298828125Q12.37718,27.50001298828125,12.25496,27.51211298828125Q12.13273,27.52411298828125,12.012270000000001,27.54811298828125Q11.89182,27.57201298828125,11.77429,27.60771298828125Q11.65676,27.64331298828125,11.54329,27.69031298828125Q11.42982,27.73731298828125,11.32151,27.79521298828125Q11.21319,27.85311298828125,11.11107,27.92141298828125Q11.00896,27.98961298828125,10.914017,28.06751298828125Q10.819078,28.14541298828125,10.732233,28.23231298828125Q10.645388,28.31911298828125,10.567474,28.41411298828125Q10.48956,28.50901298828125,10.421326,28.61111298828125Q10.353092,28.71321298828125,10.295197,28.82161298828125Q10.237301,28.92991298828125,10.190301,29.04331298828125Q10.143301,29.15681298828125,10.107649,29.27431298828125Q10.0719972,29.39191298828125,10.0480368,29.51231298828125Q10.0240764,29.63281298828125,10.0120382,29.75501298828125Q10,29.87721298828125,10,30.00001298828125ZM10.0237427,30.34381298828125L10,30.34381298828125L10,30.00001298828125Q10,30.17271298828125,10.0237427,30.34381298828125Z" fill-rule="evenodd" fill="#FFFFFF" fill-opacity="1"/></g><g><path d="M15.7139892578125,22.30945009765625L15.7139892578125,21.73801709765625Q15.7139892578125,21.67235609765625,15.7267990578125,21.60795609765625Q15.7396088578125,21.54355709765625,15.7647362578125,21.48289409765625Q15.7898635578125,21.42223209765625,15.8263432578125,21.36763709765625Q15.8628222578125,21.31304109765625,15.9092512578125,21.26661209765625Q15.9556802578125,21.22018309765625,16.0102752578125,21.18370409765625Q16.0648712578125,21.14722439765625,16.1255332578125,21.12209709765625Q16.1861962578125,21.09696969765625,16.2505952578125,21.08415989765625Q16.3149952578125,21.07135009765625,16.3806562578125,21.07135009765625L25.3449392578125,21.07135009765625Q25.4105992578125,21.07135009765625,25.4749992578125,21.08415989765625Q25.539399257812498,21.09696969765625,25.6000592578125,21.12209709765625Q25.6607292578125,21.14722439765625,25.7152892578125,21.18370409765625Q25.7698892578125,21.22018309765625,25.8163892578125,21.26661209765625Q25.8627892578125,21.31304109765625,25.899289257812498,21.36763609765625Q25.9356892578125,21.42223209765625,25.9608892578125,21.48289409765625Q25.9859892578125,21.54355709765625,25.9987892578125,21.60795609765625Q26.0115892578125,21.67235609765625,26.0115892578125,21.73801709765625L26.0115892578125,22.30945009765625Q26.0115892578125,22.37511009765625,25.9987892578125,22.43951009765625Q25.9859892578125,22.50390009765625,25.9608892578125,22.56457009765625Q25.9356892578125,22.62523009765625,25.899289257812498,22.67983009765625Q25.8627892578125,22.73442009765625,25.8163892578125,22.78085009765625Q25.7698892578125,22.82728009765625,25.7152892578125,22.86376009765625Q25.6607292578125,22.90024009765625,25.6000692578125,22.92536009765625Q25.539399257812498,22.95049009765625,25.4749992578125,22.96330009765625Q25.4105992578125,22.97611009765625,25.3449392578125,22.97611009765625L16.3806562578125,22.97611009765625Q16.3149952578125,22.97611009765625,16.2505952578125,22.96330009765625Q16.1861962578125,22.95049009765625,16.1255332578125,22.92536009765625Q16.0648712578125,22.90024009765625,16.0102762578125,22.86376009765625Q15.9556802578125,22.82728009765625,15.9092512578125,22.78085009765625Q15.8628222578125,22.73442009765625,15.8263432578125,22.67983009765625Q15.7898635578125,22.62523009765625,15.7647362578125,22.56457009765625Q15.7396088578125,22.50390009765625,15.7267990578125,22.43951009765625Q15.7139892578125,22.37511009765625,15.7139892578125,22.30945009765625ZM15.7139892578125,26.11950009765625L15.7139892578125,25.54808009765625Q15.7139892578125,25.48241009765625,15.7267990578125,25.41801009765625Q15.7396088578125,25.35362009765625,15.7647362578125,25.29295009765625Q15.7898635578125,25.23229009765625,15.8263432578125,25.17769009765625Q15.8628222578125,25.12310009765625,15.9092512578125,25.07667009765625Q15.9556802578125,25.03024009765625,16.0102752578125,24.99376009765625Q16.0648712578125,24.957280097656252,16.1255332578125,24.93216009765625Q16.1861962578125,24.90703009765625,16.2505952578125,24.89422009765625Q16.3149952578125,24.88141009765625,16.3806562578125,24.88141009765625L25.3449392578125,24.88141009765625Q25.4105992578125,24.88141009765625,25.4749992578125,24.89422009765625Q25.539399257812498,24.90703009765625,25.6000592578125,24.93216009765625Q25.6607292578125,24.957280097656252,25.7152892578125,24.99376009765625Q25.7698892578125,25.03024009765625,25.8163892578125,25.07667009765625Q25.8627892578125,25.12310009765625,25.899289257812498,25.17769009765625Q25.9356892578125,25.23229009765625,25.9608892578125,25.29295009765625Q25.9859892578125,25.35362009765625,25.9987892578125,25.41801009765625Q26.0115892578125,25.48241009765625,26.0115892578125,25.54808009765625L26.0115892578125,26.11950009765625Q26.0115892578125,26.18516009765625,25.9987892578125,26.24956009765625Q25.9859892578125,26.31396009765625,25.9608892578125,26.37463009765625Q25.9356892578125,26.43529009765625,25.899289257812498,26.48988009765625Q25.8627892578125,26.54448009765625,25.8163892578125,26.59091009765625Q25.7698892578125,26.63734009765625,25.7152892578125,26.67382009765625Q25.6607292578125,26.710290097656248,25.6000692578125,26.73542009765625Q25.539399257812498,26.76055009765625,25.4749992578125,26.77336009765625Q25.4105992578125,26.78617009765625,25.3449392578125,26.78617009765625L16.3806562578125,26.78617009765625Q16.3149952578125,26.78617009765625,16.2505952578125,26.77336009765625Q16.1861962578125,26.76055009765625,16.1255332578125,26.73542009765625Q16.0648712578125,26.71030009765625,16.0102762578125,26.67382009765625Q15.9556802578125,26.63734009765625,15.9092512578125,26.59091009765625Q15.8628222578125,26.54448009765625,15.8263432578125,26.48988009765625Q15.7898635578125,26.43529009765625,15.7647362578125,26.37463009765625Q15.7396088578125,26.31396009765625,15.7267990578125,26.24956009765625Q15.7139892578125,26.18516009765625,15.7139892578125,26.11950009765625Z" fill="#F5A400" fill-opacity="1"/></g></g></svg>