<svg xmlns="http://www.w3.org/2000/svg" xmlns:xlink="http://www.w3.org/1999/xlink" fill="none" version="1.1" width="40" height="40" viewBox="0 0 40 40"><defs><linearGradient x1="0.4363935589790344" y1="-4.354155924701786e-16" x2="0.4363935589790344" y2="1" id="master_svg0_63_7191"><stop offset="0%" stop-color="#96B3FF" stop-opacity="1"/><stop offset="100%" stop-color="#FFFFFF" stop-opacity="1"/></linearGradient><filter id="master_svg1_66_6833" filterUnits="objectBoundingBox" color-interpolation-filters="sRGB" x="-12" y="-9.5" width="46" height="50"><feFlood flood-opacity="0" result="BackgroundImageFix"/><feColorMatrix in="SourceAlpha" type="matrix" values="0 0 0 0 0 0 0 0 0 0 0 0 0 0 0 0 0 0 127 0"/><feOffset dy="2.5" dx="0"/><feGaussianBlur stdDeviation="3"/><feColorMatrix type="matrix" values="0 0 0 0 0 0 0 0 0 0.35686275362968445 0 0 0 0 0.7098039388656616 0 0 0 0.20000000298023224 0"/><feBlend mode="normal" in2="BackgroundImageFix" result="effect1_dropShadow"/><feBlend mode="normal" in="SourceGraphic" in2="effect1_dropShadow" result="shape"/></filter><radialGradient cx="0" cy="0" r="1" gradientUnits="userSpaceOnUse" id="master_svg2_63_8218" gradientTransform="translate(9.74762836843729 8.03829212486744) rotate(0) scale(13.060961924493313 8.070628092922028)"><stop offset="0%" stop-color="#95B3FF" stop-opacity="1"/><stop offset="100%" stop-color="#FFFFFF" stop-opacity="1"/></radialGradient><radialGradient cx="0" cy="0" r="1" gradientUnits="userSpaceOnUse" id="master_svg3_56_00400" gradientTransform="translate(27.337892055511475 29.30160003900528) rotate(139.2950716599013) scale(5.276500279983224 9.343757443058532)"><stop offset="0%" stop-color="#95B3FF" stop-opacity="1"/><stop offset="100%" stop-color="#FFFFFF" stop-opacity="1"/></radialGradient></defs><g><g><rect x="0" y="0" width="40" height="40" rx="6.666666507720947" fill="#2C68FE" fill-opacity="1"/></g><g><rect x="12" y="9" width="22" height="26" rx="2" fill="url(#master_svg0_63_7191)" fill-opacity="1"/></g><g filter="url(#master_svg1_66_6833)"><path d="M12.3057,6.999755859375L10.46667,6.999755859375C9.656649,6.999755859375,9,7.656404859375,9,8.466425859375L9,31.533055859375C9,32.343155859375,9.656649,32.999755859375,10.46667,32.999755859375L29.5333,32.999755859375C30.3434,32.999755859375,31,32.343155859375,31,31.533055859375L31,8.466425859375C31,7.656404859375,30.3434,6.999755859375,29.5333,6.999755859375L27.6943,6.999755859375C27.0989,6.999755859375,26.5667,7.378221859375,26.0621,7.694418859375C25.749,7.890647859375,25.3823,7.999755859375,25,7.999755859375L15,7.999755859375C14.61773,7.999755859375,14.25099,7.890647859375,13.93787,7.6944198593749995C13.43332,7.378221859375,12.90114,6.999755859375,12.3057,6.999755859375Z" fill-rule="evenodd" fill="url(#master_svg2_63_8218)" fill-opacity="1"/></g><g><path d="M12.6906,9L12,9C11.447715,9,11,9.447715,11,10L11,31C11,31.5523,11.447715,32,12,32L29,32C29.5523,32,30,31.5523,30,31L30,10C30,9.447715,29.5523,9,29,9L27.3094,9C26.9521,9,26.6303,9.212504,26.3699,9.457193C26.0042,9.801012,25.516199999999998,10,25,10L15,10C14.48375,10,13.99584,9.801012,13.63005,9.457193C13.36973,9.212504,13.04786,9,12.6906,9" fill-rule="evenodd" fill="#FFFFFF" fill-opacity="1"/></g><g><rect x="13" y="26" width="14" height="2" rx="0.4166666567325592" fill="#2C68FE" fill-opacity="1"/></g><g><path d="M21.35089,16.19727L23.515990000000002,14.0803L22.41113,13L20.09473,15.26492L17.77832,13L16.673466,14.0803L18.83856,16.19727L16,16.19727L16,17.72504L19,17.72504L19,19.11133L16,19.11133L16,20.6391L19,20.6391L19,24L21,24L21,20.6391L24.33333,20.6391L24.33333,19.11133L21,19.11133L21,17.72504L24.33333,17.72504L24.33333,16.19727L21.35089,16.19727Z" fill-rule="evenodd" fill="#2C68FE" fill-opacity="1"/></g><g><rect x="14" y="4" width="12" height="3" rx="1.5" fill="#FFFFFF" fill-opacity="1"/></g><g><path d="M30.34031,22.000000000000004Q29.83128,27.25805,28.02441,29.17236C26.21755,31.086660000000002,24.78403,31.70531,23,32.4492C23,32.7934,23.000000000000004,32.673,23,33Q23.642994,33,30.32786,32.9992C30.69794,32.9992,30.99991,32.6991,30.9998,32.329L30.99669,22.000000000000004L30.34031,22.000000000000004Z" fill-rule="evenodd" fill="url(#master_svg3_56_00400)" fill-opacity="1"/></g></g></svg>