<svg xmlns="http://www.w3.org/2000/svg" xmlns:xlink="http://www.w3.org/1999/xlink" fill="none" version="1.1" width="40.0001220703125" height="41.666748046875" viewBox="0 0 40.0001220703125 41.666748046875"><defs><filter id="master_svg0_63_00891" filterUnits="objectBoundingBox" color-interpolation-filters="sRGB" x="-10" y="-7.5" width="41.66666603088379" height="41.66666603088379"><feFlood flood-opacity="0" result="BackgroundImageFix"/><feColorMatrix in="SourceAlpha" type="matrix" values="0 0 0 0 0 0 0 0 0 0 0 0 0 0 0 0 0 0 127 0"/><feOffset dy="2.5" dx="0"/><feGaussianBlur stdDeviation="2.5"/><feColorMatrix type="matrix" values="0 0 0 0 0 0 0 0 0 0.35686275362968445 0 0 0 0 0.7098039388656616 0 0 0 0.20000000298023224 0"/><feBlend mode="normal" in2="BackgroundImageFix" result="effect1_dropShadow"/><feBlend mode="normal" in="SourceGraphic" in2="effect1_dropShadow" result="shape"/></filter><linearGradient x1="0.4363935589790344" y1="-4.354155924701786e-16" x2="0.4363935589790344" y2="1" id="master_svg1_56_00409"><stop offset="0%" stop-color="#96B3FF" stop-opacity="1"/><stop offset="100%" stop-color="#FFFFFF" stop-opacity="1"/></linearGradient><filter id="master_svg2_63_00893" filterUnits="objectBoundingBox" color-interpolation-filters="sRGB" x="-10" y="-7.5" width="41.66666603088379" height="41.66666603088379"><feFlood flood-opacity="0" result="BackgroundImageFix"/><feColorMatrix in="SourceAlpha" type="matrix" values="0 0 0 0 0 0 0 0 0 0 0 0 0 0 0 0 0 0 127 0"/><feOffset dy="2.5" dx="0"/><feGaussianBlur stdDeviation="2.5"/><feColorMatrix type="matrix" values="0 0 0 0 0 0 0 0 0 0.35686275362968445 0 0 0 0 0.7098039388656616 0 0 0 0.20000000298023224 0"/><feBlend mode="normal" in2="BackgroundImageFix" result="effect1_dropShadow"/><feBlend mode="normal" in="SourceGraphic" in2="effect1_dropShadow" result="shape"/></filter><radialGradient cx="0" cy="0" r="1" gradientUnits="userSpaceOnUse" id="master_svg3_56_00395" gradientTransform="translate(9.069796738029332 8.365446862514844) rotate(0) scale(12.863068184549356 9.39349936419228)"><stop offset="0%" stop-color="#95B3FF" stop-opacity="1"/><stop offset="100%" stop-color="#FFFFFF" stop-opacity="1"/></radialGradient><filter id="master_svg4_63_00893" filterUnits="objectBoundingBox" color-interpolation-filters="sRGB" x="-10" y="-7.5" width="41.66666603088379" height="41.66666603088379"><feFlood flood-opacity="0" result="BackgroundImageFix"/><feColorMatrix in="SourceAlpha" type="matrix" values="0 0 0 0 0 0 0 0 0 0 0 0 0 0 0 0 0 0 127 0"/><feOffset dy="2.5" dx="0"/><feGaussianBlur stdDeviation="2.5"/><feColorMatrix type="matrix" values="0 0 0 0 0 0 0 0 0 0.35686275362968445 0 0 0 0 0.7098039388656616 0 0 0 0.20000000298023224 0"/><feBlend mode="normal" in2="BackgroundImageFix" result="effect1_dropShadow"/><feBlend mode="normal" in="SourceGraphic" in2="effect1_dropShadow" result="shape"/></filter><mask id="master_svg5_63_00893" style="mask-type:alpha" maskUnits="userSpaceOnUse"><g filter="url(#master_svg4_63_00893)"><rect x="8.33349609375" y="7.5" width="21.66666603088379" height="21.66666603088379" rx="1.6666666269302368" fill="#FFFFFF" fill-opacity="1"/></g></mask><clipPath id="master_svg6_63_00895"><rect x="11.875" y="10" width="13" height="13" rx="0"/></clipPath><radialGradient cx="0" cy="0" r="1" gradientUnits="userSpaceOnUse" id="master_svg7_56_00400" gradientTransform="translate(25.467551272595244 23.563029940108095) rotate(134.038128746887) scale(7.252767703597171 10.684087446322689)"><stop offset="0%" stop-color="#95B3FF" stop-opacity="1"/><stop offset="100%" stop-color="#FFFFFF" stop-opacity="1"/></radialGradient></defs><g><g><rect x="0" y="0" width="40" height="40" rx="6.666666507720947" fill="#2C68FF" fill-opacity="1"/></g><g><g filter="url(#master_svg0_63_00891)"><path d="M12.50016609375,10L30.83349609375,10C31.75399609375,10,32.50019609375,10.746194,32.50019609375,11.66667L32.50009609375,30C32.50009609375,30.9205,31.75389609375,31.6667,30.83349609375,31.6667L12.50016609375,31.6667C11.57968809375,31.6667,10.83349609375,30.9205,10.83349609375,30L10.83349609375,11.66667C10.83349609375,10.746192,11.57968809375,10,12.50016609375,10" fill-rule="evenodd" fill="url(#master_svg1_56_00409)" fill-opacity="1"/></g><g mask="url(#master_svg5_63_00893)"><g filter="url(#master_svg2_63_00893)"><rect x="8.33349609375" y="7.5" width="21.66666603088379" height="21.66666603088379" rx="1.6666666269302368" fill="url(#master_svg3_56_00395)" fill-opacity="1"/></g><g><rect x="10" y="9.16650390625" width="18.333332061767578" height="16.66666603088379" rx="1.6666666269302368" fill="#FFFFFF" fill-opacity="1"/></g><g clip-path="url(#master_svg6_63_00895)"><g><path d="M20.3696871875,20.16882578125L21.936697187500002,20.84722578125C22.5934871875,21.13162578125,23.3414671875,20.71652578125,23.447667187500002,20.00872578125L24.8238671875,10.84101578125C24.8919671875,10.38766978125,24.4039671875,10.05796178125,24.0087671875,10.29027778125L14.4915171875,15.88485578125C13.7366271875,16.32859578125,13.7866871875,17.43633578125,14.5785171875,17.81018578125L15.2766071875,18.139775781250002C15.6756271875,18.32817578125,16.1488771875,18.25740578125,16.4753371875,17.960515781250002L21.673467187500002,13.23321578125C21.872237187499998,13.05244578125,22.1582671875,13.32117578125,21.9902471875,13.53082578125L17.7006671875,18.88325578125C17.5515271875,19.06935578125,17.4675271875,19.29924578125,17.461567187500002,19.53766578125L17.4032171875,21.87132578125C17.3980771875,22.07692578125,17.6543571875,22.17462578125,17.787397187499998,22.01782578125L19.1053771875,20.46402578125C19.415857187500002,20.097925781249998,19.9292171875,19.97812578125,20.3696871875,20.16882578125" fill="#2C68FF" fill-opacity="1" style="mix-blend-mode:passthrough"/></g></g><g><path d="M29.251849999999997,12.500000000000007Q28.61025,20.46674,26.33285,23.3672C24.05545,26.267699999999998,22.24862,27.205,20,28.3321C20.000000000000004,28.8537,20.000000000000004,28.6711,20,29.1667Q20.770583,29.1667,28.42582,29.1656C29.34636,29.1655,30.0831,28.4191,30.082900000000002,27.4985L30.0792,12.500000000000007L29.251849999999997,12.500000000000007Z" fill-rule="evenodd" fill="url(#master_svg7_56_00400)" fill-opacity="1"/></g></g><g><rect x="13.33349609375" y="23.5" width="11" height="1.6666666269302368" rx="0.4166666567325592" fill="#2C68FF" fill-opacity="1"/></g></g></g></svg>