<svg xmlns="http://www.w3.org/2000/svg" xmlns:xlink="http://www.w3.org/1999/xlink" fill="none" version="1.1" width="16.0467529296875" height="16.3818359375" viewBox="0 0 16.0467529296875 16.3818359375"><g><g transform="matrix(0.7071067690849304,-0.7071067690849304,0.7071067690849304,0.7071067690849304,-6.309869950186112,2.854516847655759)"><path d="M10.323871484375,9.0439453125C10.666471484375,9.0439453125,10.985171484375,9.2192963125,11.168571484375,9.5086493125L12.925371484375,12.2807353125C13.133671484375,12.6094553125,13.132371484375,13.0291753125,12.921971484375,13.3565853125L11.169271484375,16.0844953125C10.985271484375,16.3708353125,10.668271484375,16.5439453125,10.327971484375,16.5439453125L3.266941484375,16.5439453125C2.714651484375,16.5439453125,2.2669414843749998,16.0962253125,2.2669414843749998,15.5439453125L2.2669414843749998,10.0439453125C2.2669414843749998,9.4916603125,2.714651484375,9.0439453125,3.266941484375,9.0439453125L10.323871484375,9.0439453125ZM9.016941484375,12.0439653125C8.602721484375,12.0439653125,8.266941484375,12.379745312499999,8.266941484375,12.7939653125C8.266941484375,13.2081753125,8.602721484375,13.5439553125,9.016941484375,13.5439553125C9.431151484375,13.5439553125,9.766941484375,13.2081753125,9.766941484375,12.7939653125C9.766941484375,12.379745312499999,9.431151484375,12.0439653125,9.016941484375,12.0439653125ZM1.290771484375,12.2939353125L0.290771484375,12.2939353125L0.290771484375,17.5363653125L0.291995314375,17.5862753125C0.318001784375,18.1153753125,0.755222484375,18.5363653125,1.290771484375,18.5363653125L10.766971484375,18.5363653125L10.766971484375,17.5363653125L1.578261484375,17.5363653125Q1.395081484375,17.5283453125,1.341061484375,17.4748753125Q1.2870404843749998,17.421415312500002,1.290771484375,17.2518353125L1.290771484375,12.2939353125Z" fill-rule="evenodd" fill="#2C68FF" fill-opacity="1"/></g></g></svg>