<svg xmlns="http://www.w3.org/2000/svg"
  xmlns:xlink="http://www.w3.org/1999/xlink" fill="none" version="1.1" width="145" height="210" viewBox="0 0 145 210">
  <defs>
    <filter id="master_svg0_339_9008" filterUnits="objectBoundingBox" color-interpolation-filters="sRGB" x="-40" y="-40" width="145" height="96">
      <feFlood flood-opacity="0" result="BackgroundImageFix"/>
      <feBlend mode="normal" in="SourceGraphic" in2="BackgroundImageFix" result="shape"/>
      <feGaussianBlur stdDeviation="10" result="effect1_foregroundBlur"/>
    </filter>
    <linearGradient x1="0.5" y1="0" x2="0.5" y2="1" id="master_svg1_170_13919">
      <stop offset="0%" stop-color="#E1EDFF" stop-opacity="1"/>
      <stop offset="100%" stop-color="#4F77EC" stop-opacity="1"/>
    </linearGradient>
    <radialGradient cx="0" cy="0" r="1" gradientUnits="userSpaceOnUse" id="master_svg2_142_00398" gradientTransform="translate(106.6177175853378 126.45270834103655) rotate(112.3252453962782) scale(23.785970339938522 14.754887375358297)">
      <stop offset="69.64901685714722%" stop-color="#F2F6FF" stop-opacity="1"/>
      <stop offset="74.91124868392944%" stop-color="#F1F5FF" stop-opacity="1"/>
      <stop offset="98.57142567634583%" stop-color="#D3E4FB" stop-opacity="1"/>
    </radialGradient>
    <mask id="master_svg3_339_8882" style="mask-type:alpha" maskUnits="userSpaceOnUse">
      <g transform="matrix(-1,0,0,1,183.00204467773438,0)">
        <path d="M95.71009233886718,124.69929326171875C92.98627233886718,130.07879326171874,90.11383233886718,138.08189326171876,92.23853833886719,144.07749326171876C94.3647623388672,150.07319326171876,99.09532233886719,151.85609326171874,107.12542233886718,146.80619326171876C107.12542233886718,146.80619326171876,106.16622233886719,129.27889326171874,116.67542233886718,113.70965326171876L119.90802233886718,107.60809326171875L115.02242233886719,107.60809326171875C113.48762233886718,107.71332726171875,110.40172233886719,108.55498926171875,107.12542233886718,111.50934326171875C103.84902233886719,114.46369326171875,98.43392233886719,119.31989326171875,95.71009233886718,124.69929326171875Z" fill="#FFFFFF" fill-opacity="1"/>
      </g>
    </mask>
    <filter id="master_svg4_339_8884" filterUnits="objectBoundingBox" color-interpolation-filters="sRGB" x="-40.79999923706055" y="-40.79999923706055" width="109.3552417755127" height="128.1663818359375">
      <feFlood flood-opacity="0" result="BackgroundImageFix"/>
      <feBlend mode="normal" in="SourceGraphic" in2="BackgroundImageFix" result="shape"/>
      <feGaussianBlur stdDeviation="10.199999809265137" result="effect1_foregroundBlur"/>
    </filter>
    <filter id="master_svg5_339_8883" filterUnits="objectBoundingBox" color-interpolation-filters="sRGB" x="0" y="0" width="34.98314619064331" height="49.200881481170654">
      <feFlood flood-opacity="0" result="BackgroundImageFix"/>
      <feColorMatrix in="SourceAlpha" type="matrix" values="0 0 0 0 0 0 0 0 0 0 0 0 0 0 0 0 0 0 127 0"/>
      <feOffset dy="1.0199999809265137" dx="1.0199999809265137"/>
      <feGaussianBlur stdDeviation="0"/>
      <feColorMatrix type="matrix" values="0 0 0 0 0 0 0 0 0 0.26274511218070984 0 0 0 0 0.729411780834198 0 0 0 1 0"/>
      <feBlend mode="normal" in2="BackgroundImageFix" result="effect1_dropShadow"/>
      <feBlend mode="normal" in="SourceGraphic" in2="effect1_dropShadow" result="shape"/>
    </filter>
    <linearGradient x1="0.3516157567501068" y1="0.5870161652565002" x2="0.5189296007156372" y2="0.6557852625846863" id="master_svg6_142_00401">
      <stop offset="0%" stop-color="#3A5BDF" stop-opacity="1"/>
      <stop offset="100%" stop-color="#5882F1" stop-opacity="1"/>
    </linearGradient>
    <radialGradient cx="0" cy="0" r="1" gradientUnits="userSpaceOnUse" id="master_svg7_142_00398" gradientTransform="translate(128.22676452137296 126.45270834103655) rotate(112.3252453962782) scale(23.785970339938522 14.754887375358297)">
      <stop offset="69.64901685714722%" stop-color="#F2F6FF" stop-opacity="1"/>
      <stop offset="74.91124868392944%" stop-color="#F1F5FF" stop-opacity="1"/>
      <stop offset="98.57142567634583%" stop-color="#D3E4FB" stop-opacity="1"/>
    </radialGradient>
    <mask id="master_svg8_339_8906" style="mask-type:alpha" maskUnits="userSpaceOnUse">
      <g transform="matrix(-1,0,0,1,226.2201385498047,0)">
        <path d="M117.31913927490234,124.69929326171875C114.59531927490234,130.07879326171874,111.72287927490234,138.08189326171876,113.84758527490234,144.07749326171876C115.97380927490235,150.07319326171876,120.70436927490235,151.85609326171874,128.73446927490235,146.80619326171876C128.73446927490235,146.80619326171876,127.77526927490234,129.27889326171874,138.28446927490234,113.70965326171876L141.51706927490235,107.60809326171875L136.63146927490234,107.60809326171875C135.09666927490235,107.71332726171875,132.01076927490234,108.55498926171875,128.73446927490235,111.50934326171875C125.45806927490234,114.46369326171875,120.04296927490235,119.31989326171875,117.31913927490234,124.69929326171875Z" fill="#FFFFFF" fill-opacity="1"/>
      </g>
    </mask>
    <filter id="master_svg9_339_8904" filterUnits="objectBoundingBox" color-interpolation-filters="sRGB" x="-40.79999923706055" y="-40.79999923706055" width="109.3552417755127" height="128.1663818359375">
      <feFlood flood-opacity="0" result="BackgroundImageFix"/>
      <feBlend mode="normal" in="SourceGraphic" in2="BackgroundImageFix" result="shape"/>
      <feGaussianBlur stdDeviation="10.199999809265137" result="effect1_foregroundBlur"/>
    </filter>
    <filter id="master_svga_339_8905" filterUnits="objectBoundingBox" color-interpolation-filters="sRGB" x="0" y="0" width="34.98314619064331" height="49.200881481170654">
      <feFlood flood-opacity="0" result="BackgroundImageFix"/>
      <feColorMatrix in="SourceAlpha" type="matrix" values="0 0 0 0 0 0 0 0 0 0 0 0 0 0 0 0 0 0 127 0"/>
      <feOffset dy="1.0199999809265137" dx="1.0199999809265137"/>
      <feGaussianBlur stdDeviation="0"/>
      <feColorMatrix type="matrix" values="0 0 0 0 0 0 0 0 0 0.26274511218070984 0 0 0 0 0.729411780834198 0 0 0 1 0"/>
      <feBlend mode="normal" in2="BackgroundImageFix" result="effect1_dropShadow"/>
      <feBlend mode="normal" in="SourceGraphic" in2="effect1_dropShadow" result="shape"/>
    </filter>
    <linearGradient x1="0.3516157567501068" y1="0.5870161652565002" x2="0.5189296007156372" y2="0.6557852625846863" id="master_svgb_142_00401">
      <stop offset="0%" stop-color="#3A5BDF" stop-opacity="1"/>
      <stop offset="100%" stop-color="#5882F1" stop-opacity="1"/>
    </linearGradient>
    <mask id="master_svgc_339_8888" style="mask-type:alpha" maskUnits="userSpaceOnUse">
      <g>
        <path d="M59.591514184570315,107.78057861328125Q50.81999418457031,126.70077861328124,49.347604184570315,139.52537861328125C47.875204184570315,152.34997861328125,48.36641418457031,160.93487861328126,48.36641418457031,160.93487861328126C48.36641418457031,160.93487861328126,44.68406418457031,167.29387861328127,46.15646318457031,168.77687861328124C47.62965418457031,170.26057861328124,55.238054184570316,170.36797861328125,60.88291418457031,170.47397861328125C66.52851418457031,170.57997861328124,70.57811418457031,169.94317861328125,70.94641418457032,168.67147861328124C71.31391418457031,167.40057861328125,70.20971418457032,162.41717861328124,69.96421418457031,160.61677861328124C69.71871418457032,158.81567861328125,70.82401418457032,151.39507861328124,71.92811418457032,150.86627861328125C73.03221418457031,150.33547861328125,75.99591418457031,149.80597861328124,76.36421418457032,150.44287861328127C76.73171418457031,151.07767861328125,78.32771418457031,157.43727861328125,78.20411418457032,159.76857861328125C78.08211418457032,162.10117861328126,76.73171418457031,167.92997861328126,78.44961418457032,169.62647861328125C80.16761418457031,171.32157861328125,99.31271418457031,170.36797861328125,100.78511418457032,169.83717861328125C102.25751418457031,169.30837861328126,101.03061418457031,162.84267861328124,100.53951418457032,161.57107861328126C100.04851418457031,160.29937861328125,100.41601418457032,155.10537861328126,100.53951418457032,153.40887861328125C100.66151418457031,151.71317861328126,99.62061418457031,142.26657861328124,97.8395141845703,133.05907861328126C96.05841418457031,123.85147861328124,88.4867141845703,107.78057861328125,88.4867141845703,107.78057861328125C88.4867141845703,107.78057861328125,73.37251418457032,109.74097861328124,59.591514184570315,107.78057861328125L59.591514184570315,107.78057861328125Z" fill-rule="evenodd" fill="#FFFFFF" fill-opacity="1"/>
      </g>
    </mask>
    <filter id="master_svgd_339_8891" filterUnits="objectBoundingBox" color-interpolation-filters="sRGB" x="-40.79999923706055" y="-40.79999923706055" width="97.83553314208984" height="118.74630737304688">
      <feFlood flood-opacity="0" result="BackgroundImageFix"/>
      <feBlend mode="normal" in="SourceGraphic" in2="BackgroundImageFix" result="shape"/>
      <feGaussianBlur stdDeviation="10.199999809265137" result="effect1_foregroundBlur"/>
    </filter>
    <filter id="master_svge_339_8889" filterUnits="objectBoundingBox" color-interpolation-filters="sRGB" x="-40.79999923706055" y="-40.79999923706055" width="106.36025428771973" height="149.9388885498047">
      <feFlood flood-opacity="0" result="BackgroundImageFix"/>
      <feBlend mode="normal" in="SourceGraphic" in2="BackgroundImageFix" result="shape"/>
      <feGaussianBlur stdDeviation="10.199999809265137" result="effect1_foregroundBlur"/>
    </filter>
    <filter id="master_svgf_339_8890" filterUnits="objectBoundingBox" color-interpolation-filters="sRGB" x="-40.79999923706055" y="-40.79999923706055" width="106.86701774597168" height="149.9388885498047">
      <feFlood flood-opacity="0" result="BackgroundImageFix"/>
      <feBlend mode="normal" in="SourceGraphic" in2="BackgroundImageFix" result="shape"/>
      <feGaussianBlur stdDeviation="10.199999809265137" result="effect1_foregroundBlur"/>
    </filter>
    <filter id="master_svgg_339_8880" filterUnits="objectBoundingBox" color-interpolation-filters="sRGB" x="0" y="0" width="36.781551361083984" height="38.103939056396484">
      <feFlood flood-opacity="0" result="BackgroundImageFix"/>
      <feBlend mode="normal" in="SourceGraphic" in2="BackgroundImageFix" result="shape"/>
      <feColorMatrix in="SourceAlpha" type="matrix" result="hardAlpha" values="0 0 0 0 0 0 0 0 0 0 0 0 0 0 0 0 0 0 127 0"/>
      <feOffset dy="0" dx="0"/>
      <feGaussianBlur stdDeviation="5.099999904632568"/>
      <feComposite in2="hardAlpha" operator="arithmetic" k2="-1" k3="1"/>
      <feColorMatrix type="matrix" values="0 0 0 0 0 0 0 0 0 0.36021506786346436 0 0 0 0 1 0 0 0 1 0"/>
      <feBlend mode="normal" in2="shape" result="effect1_innerShadow"/>
    </filter>
    <radialGradient cx="0" cy="0" r="1" gradientUnits="userSpaceOnUse" id="master_svgh_142_00458" gradientTransform="translate(73.81558036804199 126.16470146179199) rotate(90) scale(19.051969528198242 18.390775680541992)">
      <stop offset="0%" stop-color="#51A2FD" stop-opacity="1"/>
      <stop offset="88.57142925262451%" stop-color="#3F61E2" stop-opacity="1"/>
    </radialGradient>
    <filter id="master_svgi_339_8886" filterUnits="objectBoundingBox" color-interpolation-filters="sRGB" x="0" y="0" width="33.96503829956055" height="5.916254043579102">
      <feFlood flood-opacity="0" result="BackgroundImageFix"/>
      <feBlend mode="normal" in="SourceGraphic" in2="BackgroundImageFix" result="shape"/>
      <feColorMatrix in="SourceAlpha" type="matrix" result="hardAlpha" values="0 0 0 0 0 0 0 0 0 0 0 0 0 0 0 0 0 0 127 0"/>
      <feOffset dy="0" dx="0"/>
      <feGaussianBlur stdDeviation="3"/>
      <feComposite in2="hardAlpha" operator="arithmetic" k2="-1" k3="1"/>
      <feColorMatrix type="matrix" values="0 0 0 0 0 0 0 0 0 0.14365717768669128 0 0 0 0 0.3988095223903656 0 0 0 1 0"/>
      <feBlend mode="normal" in2="shape" result="effect1_innerShadow"/>
    </filter>
    <linearGradient x1="0.5" y1="0" x2="0.5" y2="1" id="master_svgj_142_00446">
      <stop offset="0%" stop-color="#7E98EC" stop-opacity="1"/>
      <stop offset="56.36705756187439%" stop-color="#5479EC" stop-opacity="1"/>
      <stop offset="75%" stop-color="#3263E6" stop-opacity="1"/>
    </linearGradient>
    <mask id="master_svgk_339_8900" style="mask-type:alpha" maskUnits="userSpaceOnUse">
      <g>
        <path d="M12.354132652282715,44.65581729614258L12.354132652282715,81.66839729614259C12.354132652282715,82.76549729614257,13.243506652282715,83.65489729614258,14.340602652282715,83.65489729614258C16.226272652282717,83.65489729614258,18.038832652282714,82.75949729614257,19.049192652282713,81.16729729614258Q24.708232652282717,72.24979729614257,24.708232652282717,61.76499729614258Q24.708232652282717,51.81868729614258,19.906532652282714,45.179507296142575C18.644502652282714,43.43455129614258,16.543262652282714,42.62019729614258,14.389752652282715,42.62019729614258C13.265512652282714,42.62019729614258,12.354132652282715,43.53157729614258,12.354132652282715,44.65581729614258Z" fill="#FFFFFF" fill-opacity="1"/>
      </g>
    </mask>
    <linearGradient x1="0.5" y1="0" x2="0.5" y2="1" id="master_svgl_142_00442">
      <stop offset="0%" stop-color="#6786EA" stop-opacity="1"/>
      <stop offset="100%" stop-color="#1E43BE" stop-opacity="1"/>
    </linearGradient>
    <linearGradient x1="0.5" y1="0" x2="0.5" y2="1" id="master_svgm_142_00446">
      <stop offset="0%" stop-color="#7E98EC" stop-opacity="1"/>
      <stop offset="56.36705756187439%" stop-color="#5479EC" stop-opacity="1"/>
      <stop offset="75%" stop-color="#3263E6" stop-opacity="1"/>
    </linearGradient>
    <mask id="master_svgn_339_8877" style="mask-type:alpha" maskUnits="userSpaceOnUse">
      <g>
        <path d="M132.6458740234375,44.65580966674805L132.6458740234375,81.66838966674806C132.6458740234375,82.76548966674804,133.5352480234375,83.65488966674805,134.6323440234375,83.65488966674805C136.5180140234375,83.65488966674805,138.3305740234375,82.75948966674804,139.3409340234375,81.16728966674805Q144.9999740234375,72.24978966674804,144.9999740234375,61.76498966674805Q144.9999740234375,51.81867966674805,140.1982740234375,45.17949966674804C138.9362440234375,43.43454366674805,136.8350040234375,42.62018966674805,134.6814940234375,42.62018966674805C133.5572540234375,42.62018966674805,132.6458740234375,43.53156966674805,132.6458740234375,44.65580966674805Z" fill="#FFFFFF" fill-opacity="1"/>
      </g>
    </mask>
    <linearGradient x1="0.5" y1="0" x2="0.5" y2="1" id="master_svgo_142_00442">
      <stop offset="0%" stop-color="#6786EA" stop-opacity="1"/>
      <stop offset="100%" stop-color="#1E43BE" stop-opacity="1"/>
    </linearGradient>
    <radialGradient cx="0" cy="0" r="1" gradientUnits="userSpaceOnUse" id="master_svgp_142_00464" gradientTransform="translate(72.40896654129028 54.878150939941406) rotate(90) scale(56.949029497664014 73.1824714226829)">
      <stop offset="80.45453429222107%" stop-color="#F5F8FF" stop-opacity="1"/>
      <stop offset="98.5714316368103%" stop-color="#C3D4FF" stop-opacity="1"/>
    </radialGradient>
    <mask id="master_svgq_339_8869" style="mask-type:alpha" maskUnits="userSpaceOnUse">
      <g>
        <path d="M137.4638899421692,67.3034C137.4638899421692,97.6118,108.33788994216918,109.756,72.40898994216919,109.756C36.47998994216919,109.756,7.3538899421691895,97.6118,7.3538899421691895,67.3034C7.3538899421691895,36.995,15.61484994216919,0,72.40898994216919,0C126.1048899421692,0,137.4638899421692,36.995,137.4638899421692,67.3034Z" fill="#FFFFFF" fill-opacity="1"/>
      </g>
    </mask>
    <mask id="master_svgr_339_8872" style="mask-type:alpha" maskUnits="userSpaceOnUse">
      <g>
        <path d="M53.04430818557739,-3.494589296875Q56.40032818557739,1.6825907031250003,58.20740818557739,6.6008707031250005Q60.014498185577395,11.519270703124999,60.272648185577395,16.178670703125L82.99030818557739,16.178670703125Q82.92570818557739,11.260370703125,84.47470818557738,6.342070703125Q86.02360818557739,1.423730703125,89.18600818557739,-3.494589296875L87.1208081855774,-3.494589296875Q83.9584081855774,1.1648707031249996,82.40940818557739,5.824370703125Q80.86050818557739,10.483770703125,80.9250081855774,15.143270703125001L62.33788818557739,15.143270703125001Q62.07973818557739,10.483770703125,60.272648185577395,5.5654707031249995Q58.465568185577396,0.6471507031249999,55.109548185577395,-4.530029296875L53.04430818557739,-3.494589296875Z" fill="#FFFFFF" fill-opacity="1"/>
      </g>
    </mask>
    <filter id="master_svgs_339_8874" filterUnits="objectBoundingBox" color-interpolation-filters="sRGB" x="-10.199999809265137" y="-10.199999809265137" width="32.79144096374512" height="43.17961120605469">
      <feFlood flood-opacity="0" result="BackgroundImageFix"/>
      <feBlend mode="normal" in="SourceGraphic" in2="BackgroundImageFix" result="shape"/>
      <feGaussianBlur stdDeviation="2.549999952316284" result="effect1_foregroundBlur"/>
    </filter>
    <filter id="master_svgt_339_8871" filterUnits="objectBoundingBox" color-interpolation-filters="sRGB" x="-10.199999809265137" y="-10.199999809265137" width="45.18288230895996" height="22.24437177181244">
      <feFlood flood-opacity="0" result="BackgroundImageFix"/>
      <feBlend mode="normal" in="SourceGraphic" in2="BackgroundImageFix" result="shape"/>
      <feGaussianBlur stdDeviation="2.549999952316284" result="effect1_foregroundBlur"/>
    </filter>
    <filter id="master_svgu_339_8873" filterUnits="objectBoundingBox" color-interpolation-filters="sRGB" x="-10.199999809265137" y="-10.199999809265137" width="30.726201057434082" height="40.073299407958984">
      <feFlood flood-opacity="0" result="BackgroundImageFix"/>
      <feBlend mode="normal" in="SourceGraphic" in2="BackgroundImageFix" result="shape"/>
      <feGaussianBlur stdDeviation="2.549999952316284" result="effect1_foregroundBlur"/>
    </filter>
    <filter id="master_svgv_339_8867" filterUnits="objectBoundingBox" color-interpolation-filters="sRGB" x="-24" y="-24" width="57.698147773742676" height="135.6207275390625">
      <feFlood flood-opacity="0" result="BackgroundImageFix"/>
      <feBlend mode="normal" in="SourceGraphic" in2="BackgroundImageFix" result="shape"/>
      <feGaussianBlur stdDeviation="6" result="effect1_foregroundBlur"/>
    </filter>
    <filter id="master_svgw_339_8868" filterUnits="objectBoundingBox" color-interpolation-filters="sRGB" x="-144" y="-144" width="339.2679862976074" height="342.8776664733887">
      <feFlood flood-opacity="0" result="BackgroundImageFix"/>
      <feBlend mode="normal" in="SourceGraphic" in2="BackgroundImageFix" result="shape"/>
      <feGaussianBlur stdDeviation="36" result="effect1_foregroundBlur"/>
    </filter>
    <filter id="master_svgx_339_8885" filterUnits="objectBoundingBox" color-interpolation-filters="sRGB" x="0" y="0" width="107.39250946044922" height="85.94125366210938">
      <feFlood flood-opacity="0" result="BackgroundImageFix"/>
      <feBlend mode="normal" in="SourceGraphic" in2="BackgroundImageFix" result="shape"/>
      <feColorMatrix in="SourceAlpha" type="matrix" result="hardAlpha" values="0 0 0 0 0 0 0 0 0 0 0 0 0 0 0 0 0 0 127 0"/>
      <feOffset dy="0" dx="0"/>
      <feGaussianBlur stdDeviation="5.099999904632568"/>
      <feComposite in2="hardAlpha" operator="arithmetic" k2="-1" k3="1"/>
      <feColorMatrix type="matrix" values="0 0 0 0 0 0 0 0 0 0.26274511218070984 0 0 0 0 0.729411780834198 0 0 0 1 0"/>
      <feBlend mode="normal" in2="shape" result="effect1_innerShadow"/>
    </filter>
    <mask id="master_svgy_339_8865" style="mask-type:alpha" maskUnits="userSpaceOnUse">
      <g>
        <path d="M120.9421754852295,67.86383832702637C120.9421754852295,90.37983832702636,98.7507754852295,99.40193832702637,71.37637548522949,99.40193832702637C44.001975485229494,99.40193832702637,21.810575485229492,90.37983832702636,21.810575485229492,67.86383832702637C21.810575485229492,45.347838327026366,28.10464548522949,20.708738327026367,71.37637548522949,20.708738327026367C112.28777548522949,20.708738327026367,120.9421754852295,45.347838327026366,120.9421754852295,67.86383832702637Z" fill="#FFFFFF" fill-opacity="1"/>
      </g>
    </mask>
    <filter id="master_svgz_339_8855" filterUnits="objectBoundingBox" color-interpolation-filters="sRGB" x="-24" y="-24" width="62.04252815246582" height="59.14732646942139">
      <feFlood flood-opacity="0" result="BackgroundImageFix"/>
      <feBlend mode="normal" in="SourceGraphic" in2="BackgroundImageFix" result="shape"/>
      <feGaussianBlur stdDeviation="6" result="effect1_foregroundBlur"/>
    </filter>
    <filter id="master_svg10_339_8854" filterUnits="objectBoundingBox" color-interpolation-filters="sRGB" x="-24" y="-24" width="62.04252815246582" height="59.14732646942139">
      <feFlood flood-opacity="0" result="BackgroundImageFix"/>
      <feBlend mode="normal" in="SourceGraphic" in2="BackgroundImageFix" result="shape"/>
      <feGaussianBlur stdDeviation="6" result="effect1_foregroundBlur"/>
    </filter>
    <linearGradient x1="0.5" y1="0" x2="0.5" y2="1" id="master_svg11_142_00391">
      <stop offset="0%" stop-color="#197DFF" stop-opacity="1"/>
      <stop offset="100%" stop-color="#006FFF" stop-opacity="0"/>
    </linearGradient>
  </defs>
  <g>
    <g filter="url(#master_svg0_339_9008)">
      <ellipse cx="72.5" cy="172" rx="32.5" ry="8" fill="url(#master_svg1_170_13919)" fill-opacity="1"/>
    </g>
    <g transform="matrix(-1,0,0,1,126.18775939941406,0)" mask="url(#master_svg3_339_8882)">
      <g transform="matrix(-1,0,0,1,183.00204467773438,0)">
        <path d="M95.71009233886718,124.69929326171875C92.98627233886718,130.07879326171874,90.11383233886718,138.08189326171876,92.23853833886719,144.07749326171876C94.3647623388672,150.07319326171876,99.09532233886719,151.85609326171874,107.12542233886718,146.80619326171876C107.12542233886718,146.80619326171876,106.16622233886719,129.27889326171874,116.67542233886718,113.70965326171876L119.90802233886718,107.60809326171875L115.02242233886719,107.60809326171875C113.48762233886718,107.71332726171875,110.40172233886719,108.55498926171875,107.12542233886718,111.50934326171875C103.84902233886719,114.46369326171875,98.43392233886719,119.31989326171875,95.71009233886718,124.69929326171875Z" fill="url(#master_svg2_142_00398)" fill-opacity="1"/>
      </g>
      <g transform="matrix(-1,0,0,1,161.26183319091797,0)" style="opacity:0.6000000238418579;" filter="url(#master_svg4_339_8884)">
        <path d="M84.44682659545899,124.89469765625C81.49109759545898,131.82739765625,79.36660659545899,145.00759765625,81.49130859545899,151.00319765625C83.19545659545898,155.80869765625,86.07492659545899,153.83389765625,91.28541659545898,150.26049765625C92.57591659545898,149.37539765625002,94.00941659545899,148.39229765625,95.60351659545898,147.38979765625C95.60351659545898,147.38979765625,94.64431659545899,129.86259765625,105.15351659545898,114.29330765625L108.38611659545899,108.19175165625L103.50051659545898,108.19175165625C103.09831659545898,108.21932965625,102.45661659545898,108.06637665625,101.66951659545899,107.87878865625C99.45341659545899,107.35055815625,96.08501659545898,106.54769465625,93.66721659545898,108.72782765625C90.39088659545898,111.68217765625,87.40254659545899,117.96199765625,84.44682659545899,124.89469765625Z" fill="#7DBAFF" fill-opacity="1"/>
      </g>
      <g transform="matrix(-1,0,0,1,193.17115783691406,0)" filter="url(#master_svg5_339_8883)">
        <path d="M100.73369891845704,112.02746491699219C98.08291891845703,117.75766491699218,95.40327891845703,123.55016491699219,97.13557191845703,128.4384649169922C99.26179891845703,134.43406491699218,102.83014891845703,140.4234649169922,108.02067891845704,138.28576491699218C113.21117891845702,136.14796491699218,113.51567891845703,130.2715649169922,119.76527891845703,116.83786491699219L130.54867891845703,115.23396491699219L121.53277891845703,91.4513189169922C121.13057891845703,91.47889691699218,120.48877891845703,91.32594391699219,119.70177891845702,91.1383569169922C117.48557891845704,90.61012561699219,114.11717891845703,89.80726191699219,111.69947891845703,91.98739491699219C108.42307891845704,94.94174491699219,105.43478891845703,101.2215649169922,102.47905891845703,108.15426491699219C101.93316891845703,109.43466491699219,101.33416891845704,110.72946491699219,100.73369891845704,112.02746491699219Z" fill="url(#master_svg6_142_00401)" fill-opacity="1"/>
      </g>
    </g>
    <g mask="url(#master_svg8_339_8906)">
      <g transform="matrix(-1,0,0,1,226.2201385498047,0)">
        <path d="M117.31913927490234,124.69929326171875C114.59531927490234,130.07879326171874,111.72287927490234,138.08189326171876,113.84758527490234,144.07749326171876C115.97380927490235,150.07319326171876,120.70436927490235,151.85609326171874,128.73446927490235,146.80619326171876C128.73446927490235,146.80619326171876,127.77526927490234,129.27889326171874,138.28446927490234,113.70965326171876L141.51706927490235,107.60809326171875L136.63146927490234,107.60809326171875C135.09666927490235,107.71332726171875,132.01076927490234,108.55498926171875,128.73446927490235,111.50934326171875C125.45806927490234,114.46369326171875,120.04296927490235,119.31989326171875,117.31913927490234,124.69929326171875Z" fill="url(#master_svg7_142_00398)" fill-opacity="1"/>
      </g>
      <g transform="matrix(-1,0,0,1,204.47992706298828,0)" style="opacity:0.6000000238418579;" filter="url(#master_svg9_339_8904)">
        <path d="M106.05587353149414,124.89469765625C103.10014453149414,131.82739765625,100.97565353149415,145.00759765625,103.10035553149415,151.00319765625C104.80450353149413,155.80869765625,107.68397353149415,153.83389765625,112.89446353149414,150.26049765625C114.18496353149413,149.37539765625002,115.61846353149414,148.39229765625,117.21256353149414,147.38979765625C117.21256353149414,147.38979765625,116.25336353149414,129.86259765625,126.76256353149414,114.29330765625L129.99516353149414,108.19175165625L125.10956353149413,108.19175165625C124.70736353149414,108.21932965625,124.06566353149414,108.06637665625,123.27856353149414,107.87878865625C121.06246353149415,107.35055815625,117.69406353149414,106.54769465625,115.27626353149414,108.72782765625C111.99993353149414,111.68217765625,109.01159353149414,117.96199765625,106.05587353149414,124.89469765625Z" fill="#7DBAFF" fill-opacity="1"/>
      </g>
      <g transform="matrix(-1,0,0,1,236.38925170898438,0)" filter="url(#master_svga_339_8905)">
        <path d="M122.3427458544922,112.02746491699219C119.69196585449218,117.75766491699218,117.01232585449219,123.55016491699219,118.74461885449219,128.4384649169922C120.87084585449219,134.43406491699218,124.43919585449218,140.4234649169922,129.6297258544922,138.28576491699218C134.82022585449218,136.14796491699218,135.1247258544922,130.2715649169922,141.37432585449218,116.83786491699219L152.15772585449218,115.23396491699219L143.1418258544922,91.4513189169922C142.7396258544922,91.47889691699218,142.09782585449219,91.32594391699219,141.31082585449218,91.1383569169922C139.0946258544922,90.61012561699219,135.72622585449218,89.80726191699219,133.3085258544922,91.98739491699219C130.0321258544922,94.94174491699219,127.04383585449219,101.2215649169922,124.08810585449218,108.15426491699219C123.54221585449218,109.43466491699219,122.9432158544922,110.72946491699219,122.3427458544922,112.02746491699219Z" fill="url(#master_svgb_142_00401)" fill-opacity="1"/>
      </g>
    </g>
    <g mask="url(#master_svgc_339_8888)">
      <g>
        <path d="M59.591514184570315,107.78057861328125Q50.81999418457031,126.70077861328124,49.347604184570315,139.52537861328125C47.875204184570315,152.34997861328125,48.36641418457031,160.93487861328126,48.36641418457031,160.93487861328126C48.36641418457031,160.93487861328126,44.68406418457031,167.29387861328127,46.15646318457031,168.77687861328124C47.62965418457031,170.26057861328124,55.238054184570316,170.36797861328125,60.88291418457031,170.47397861328125C66.52851418457031,170.57997861328124,70.57811418457031,169.94317861328125,70.94641418457032,168.67147861328124C71.31391418457031,167.40057861328125,70.20971418457032,162.41717861328124,69.96421418457031,160.61677861328124C69.71871418457032,158.81567861328125,70.82401418457032,151.39507861328124,71.92811418457032,150.86627861328125C73.03221418457031,150.33547861328125,75.99591418457031,149.80597861328124,76.36421418457032,150.44287861328127C76.73171418457031,151.07767861328125,78.32771418457031,157.43727861328125,78.20411418457032,159.76857861328125C78.08211418457032,162.10117861328126,76.73171418457031,167.92997861328126,78.44961418457032,169.62647861328125C80.16761418457031,171.32157861328125,99.31271418457031,170.36797861328125,100.78511418457032,169.83717861328125C102.25751418457031,169.30837861328126,101.03061418457031,162.84267861328124,100.53951418457032,161.57107861328126C100.04851418457031,160.29937861328125,100.41601418457032,155.10537861328126,100.53951418457032,153.40887861328125C100.66151418457031,151.71317861328126,99.62061418457031,142.26657861328124,97.8395141845703,133.05907861328126C96.05841418457031,123.85147861328124,88.4867141845703,107.78057861328125,88.4867141845703,107.78057861328125C88.4867141845703,107.78057861328125,73.37251418457032,109.74097861328124,59.591514184570315,107.78057861328125L59.591514184570315,107.78057861328125Z" fill-rule="evenodd" fill="#F2F6FF" fill-opacity="1"/>
      </g>
      <g transform="matrix(1,7.43452233109565e-9,-7.43452233109565e-9,1,0.0000010613588301566779,-4.886727538178093e-7)" style="opacity:0.6000000238418579;" filter="url(#master_svgd_339_8891)">
        <ellipse cx="73.84798431396484" cy="161.3340187072754" rx="8.117767333984375" ry="18.57315444946289" fill="#7DBAFF" fill-opacity="1"/>
      </g>
      <g transform="matrix(1,7.43452233109565e-9,-7.43452233109565e-9,1,7.736466969276989e-7,-2.578855315960027e-7)" style="opacity:0.6000000238418579;" filter="url(#master_svge_339_8889)">
        <path d="M49.89047247924805,140.49588610839845C49.89047247924805,155.13778610839844,52.230772479248046,157.64548610839844,50.794072479248044,162.05818610839844C49.357272479248046,166.47088610839845,48.53207247924804,172.40028610839843,46.290472479248045,172.40028610839843C41.80711247924805,172.40028610839843,34.68757247924805,164.08478610839845,34.68757247924805,153.82708610839845C34.68757247924805,143.56938610839845,54.32767247924805,104.06138610839844,58.81097247924805,104.06138610839844C61.05257247924804,104.06138610839844,56.82157247924805,108.34055610839843,54.69257247924804,115.50368610839844C52.56357247924805,122.66668610839844,50.60037247924805,132.58428610839843,49.89047247924805,140.49588610839845Z" fill="#7DBAFF" fill-opacity="1"/>
      </g>
      <g transform="matrix(-1,7.43452233109565e-9,-7.43452233109565e-9,1,230.07971268770933,-8.552663786076664e-7)" style="opacity:0.6000000238418579;" filter="url(#master_svgf_339_8890)">
        <path d="M132.17895595703123,140.6253013671875C132.17895595703123,155.2672013671875,132.58305595703126,157.6455013671875,131.14635595703126,162.0582013671875C129.70955595703126,166.4709013671875,128.88435595703126,172.4003013671875,126.64275595703126,172.4003013671875C122.15939595703125,172.4003013671875,115.03985595703125,164.0848013671875,115.03985595703125,153.8271013671875C115.03985595703125,143.5694013671875,134.67995595703124,104.0614013671875,139.16325595703125,104.0614013671875C143.64655595703124,104.0614013671875,133.59875595703124,124.80220136718751,132.17895595703123,140.6253013671875Z" fill="#7DBAFF" fill-opacity="1"/>
      </g>
    </g>
    <g filter="url(#master_svgg_339_8880)">
      <path d="M92.2064046875,130.61143193359374C92.2064046875,140.12253193359373,83.97250468749999,145.21663193359376,73.8156046875,145.21663193359376C63.6586346875,145.21663193359376,55.4248046875,140.38143193359375,55.4248046875,130.61143193359374C55.4248046875,123.68893193359375,61.0472446875,107.11273193359375,73.8156046875,107.11273193359375C87.5596046875,107.11273193359375,92.2064046875,123.68893193359375,92.2064046875,130.61143193359374Z" fill="url(#master_svgh_142_00458)" fill-opacity="1"/>
    </g>
    <g filter="url(#master_svgi_339_8886)">
      <path d="M56.665283203125,106.91619873046875C56.665283203125,109.17330873046875,58.205103203125,111.15540873046875,60.422563203125,111.57656873046875Q67.034983203125,112.83244873046876,73.647583203125,112.83244873046876Q80.26008320312499,112.83244873046876,86.872883203125,111.57656873046875C89.090283203125,111.15542873046876,90.630283203125,109.17329873046874,90.630283203125,106.91619873046875Q82.138783203125,108.98706873046875,73.647583203125,108.98706873046875Q65.156293203125,108.98706873046875,56.665283203125,106.91619873046875Z" fill="#4C73F1" fill-opacity="1"/>
    </g>
    <g transform="matrix(-1,0,0,1,24.70826530456543,0)" mask="url(#master_svgk_339_8900)">
      <g>
        <path d="M12.354132652282715,44.65581729614258L12.354132652282715,81.66839729614259C12.354132652282715,82.76549729614257,13.243506652282715,83.65489729614258,14.340602652282715,83.65489729614258C16.226272652282717,83.65489729614258,18.038832652282714,82.75949729614257,19.049192652282713,81.16729729614258Q24.708232652282717,72.24979729614257,24.708232652282717,61.76499729614258Q24.708232652282717,51.81868729614258,19.906532652282714,45.179507296142575C18.644502652282714,43.43455129614258,16.543262652282714,42.62019729614258,14.389752652282715,42.62019729614258C13.265512652282714,42.62019729614258,12.354132652282715,43.53157729614258,12.354132652282715,44.65581729614258Z" fill="url(#master_svgj_142_00446)" fill-opacity="1"/>
      </g>
      <g>
        <path d="M8.610884189605713,41.821572760009765L8.610884189605713,85.66197276000977C8.610884189605713,86.68827276000977,9.442851189605713,87.52017276000976,10.469134189605713,87.52017276000976C12.312004189605712,87.52017276000976,14.064794189605713,86.63767276000976,14.924164189605712,85.00747276000976Q18.982984189605713,77.30787276000976,18.982984189605713,65.34267276000976Q18.982984189605713,51.327772760009765,15.250314189605714,40.123172760009766L10.309284189605712,40.123172760009766C9.371285189605713,40.123172760009766,8.610884189605713,40.88357376000977,8.610884189605713,41.821572760009765Z" fill="url(#master_svgl_142_00442)" fill-opacity="1"/>
      </g>
    </g>
    <g mask="url(#master_svgn_339_8877)">
      <g>
        <path d="M132.6458740234375,44.65580966674805L132.6458740234375,81.66838966674806C132.6458740234375,82.76548966674804,133.5352480234375,83.65488966674805,134.6323440234375,83.65488966674805C136.5180140234375,83.65488966674805,138.3305740234375,82.75948966674804,139.3409340234375,81.16728966674805Q144.9999740234375,72.24978966674804,144.9999740234375,61.76498966674805Q144.9999740234375,51.81867966674805,140.1982740234375,45.17949966674804C138.9362440234375,43.43454366674805,136.8350040234375,42.62018966674805,134.6814940234375,42.62018966674805C133.5572540234375,42.62018966674805,132.6458740234375,43.53156966674805,132.6458740234375,44.65580966674805Z" fill="url(#master_svgm_142_00446)" fill-opacity="1"/>
      </g>
      <g>
        <path d="M128.9026255607605,41.821565130615234L128.9026255607605,85.66196513061524C128.9026255607605,86.68826513061524,129.7345925607605,87.52016513061523,130.7608755607605,87.52016513061523C132.6037455607605,87.52016513061523,134.3565355607605,86.63766513061523,135.2159055607605,85.00746513061523Q139.2747255607605,77.30786513061523,139.2747255607605,65.34266513061523Q139.2747255607605,51.327765130615234,135.5420555607605,40.123165130615234L130.6010255607605,40.123165130615234C129.6630265607605,40.123165130615234,128.9026255607605,40.883566130615236,128.9026255607605,41.821565130615234Z" fill="url(#master_svgo_142_00442)" fill-opacity="1"/>
      </g>
    </g>
    <g mask="url(#master_svgq_339_8869)">
      <g>
        <path d="M137.4638899421692,67.3034C137.4638899421692,97.6118,108.33788994216918,109.756,72.40898994216919,109.756C36.47998994216919,109.756,7.3538899421691895,97.6118,7.3538899421691895,67.3034C7.3538899421691895,36.995,15.61484994216919,0,72.40898994216919,0C126.1048899421692,0,137.4638899421692,36.995,137.4638899421692,67.3034Z" fill="url(#master_svgp_142_00464)" fill-opacity="1"/>
      </g>
      <g mask="url(#master_svgr_339_8872)">
        <g>
          <path d="M53.04430818557739,-3.494589296875Q56.40032818557739,1.6825907031250003,58.20740818557739,6.6008707031250005Q60.014498185577395,11.519270703124999,60.272648185577395,16.178670703125L82.99030818557739,16.178670703125Q82.92570818557739,11.260370703125,84.47470818557738,6.342070703125Q86.02360818557739,1.423730703125,89.18600818557739,-3.494589296875L87.1208081855774,-3.494589296875Q83.9584081855774,1.1648707031249996,82.40940818557739,5.824370703125Q80.86050818557739,10.483770703125,80.9250081855774,15.143270703125001L62.33788818557739,15.143270703125001Q62.07973818557739,10.483770703125,60.272648185577395,5.5654707031249995Q58.465568185577396,0.6471507031249999,55.109548185577395,-4.530029296875L53.04430818557739,-3.494589296875Z" fill="#3EA3FD" fill-opacity="1"/>
        </g>
        <g filter="url(#master_svgs_339_8874)">
          <path d="M49.94644784927368,-3.494589296875L53.04430784927368,18.249570703125L62.337847849273686,18.249570703125L54.07692784927368,-4.530029296875L49.94644784927368,-3.494589296875Z" fill="#0C4AC9" fill-opacity="1"/>
        </g>
        <g filter="url(#master_svgt_339_8871)">
          <path d="M59.240028858184814,15.143264770507812L59.240028858184814,16.987634770507814L84.02292885818481,16.987634770507814L84.02292885818481,15.143264770507812L59.240028858184814,15.143264770507812Z" fill="#0C4AC9" fill-opacity="1"/>
        </g>
        <g transform="matrix(-1,0,0,1,176.3067865371704,0)" filter="url(#master_svgu_339_8873)">
          <path d="M88.1533932685852,-3.494589296875L94.3491132685852,15.143270703125001L98.4795932685852,12.036970703125L92.28387326858521,-4.530029296875L88.1533932685852,-3.494589296875Z" fill="#0C4AC9" fill-opacity="1"/>
        </g>
      </g>
      <g transform="matrix(0,1,-1,0,218.71384477615356,-16.359169483184814)" style="opacity:0.6000000238418579;" filter="url(#master_svgv_339_8867)">
        <path d="M127.23465712966919,144.98763764648436C127.23465712966919,169.18343764648438,121.32625712966919,188.79803764648437,119.22292712966919,188.79803764648437C117.1196001296692,188.79803764648437,124.3198371296692,171.07553764648438,124.3198371296692,146.8797376464844C124.3198371296692,122.68403764648437,115.76599712966919,101.17733764648438,117.86932612966919,101.17733764648438C119.97265712966919,101.17733764648438,127.23465712966919,120.79193764648437,127.23465712966919,144.98763764648436Z" fill="#1E43BE" fill-opacity="1"/>
      </g>
      <g transform="matrix(1,7.43452233109565e-9,-7.43452233109565e-9,1,1.8624671760392175e-7,-9.970602121711636e-8)" style="opacity:0.6000000238418579;" filter="url(#master_svgw_339_8868)">
        <ellipse cx="39.04521417617798" cy="52.49043846130371" rx="25.63399314880371" ry="27.438833236694336" fill="#55FFF4" fill-opacity="1"/>
      </g>
    </g>
    <g filter="url(#master_svgx_339_8885)">
      <path d="M125.07309185791016,69.1007169921875C125.07309185791016,93.6905169921875,101.03199185791016,103.5437169921875,71.37639185791016,103.5437169921875C41.720691857910154,103.5437169921875,17.680091857910156,93.6905169921875,17.680091857910156,69.1007169921875C17.680091857910156,44.510916992187504,24.498661857910157,17.6024169921875,71.37639185791016,17.6024169921875C115.69709185791015,17.6024169921875,125.07309185791016,44.510916992187504,125.07309185791016,69.1007169921875Z" fill="#668CFF" fill-opacity="1"/>
    </g>
    <g mask="url(#master_svgy_339_8865)">
      <g>
        <path d="M120.9421754852295,67.86383832702637C120.9421754852295,90.37983832702636,98.7507754852295,99.40193832702637,71.37637548522949,99.40193832702637C44.001975485229494,99.40193832702637,21.810575485229492,90.37983832702636,21.810575485229492,67.86383832702637C21.810575485229492,45.347838327026366,28.10464548522949,20.708738327026367,71.37637548522949,20.708738327026367C112.28777548522949,20.708738327026367,120.9421754852295,45.347838327026366,120.9421754852295,67.86383832702637Z" fill="#ECF5FE" fill-opacity="1"/>
      </g>
      <g>
        <g>
          <path d="M69.59511806488038,-22.779603958129883C69.59511806488038,-22.779603958129883,75.49141806488038,-15.441323958129882,67.43661806488038,-5.294403958129884C56.63961806488037,8.305396041870118,19.45373806488037,15.832596041870119,14.65599506488037,50.31719604187012C9.857478064880372,84.80039604187012,35.28781806488037,103.01539604187012,72.47441806488037,102.77239604187012C109.66101806488037,102.52939604187011,131.7331180648804,80.42939604187012,126.93411806488037,46.43099604187012C122.13611806488038,12.434596041870115,87.34841806488038,-17.922423958129883,69.59511806488038,-22.779603958129883L69.59511806488038,-22.779603958129883Z" fill-rule="evenodd" fill="#294892" fill-opacity="1"/>
        </g>
        <g>
          <path d="M119.39428579559326,66.39859706726074C119.39428579559326,86.16519706726075,97.78318579559325,102.18779706726075,71.12348579559327,102.18779706726075C44.464585795593266,102.18779706726075,22.85188579559326,86.16519706726075,22.85188579559326,66.39859706726074C22.85188579559326,46.635097067260745,44.464585795593266,30.610197067260742,71.12348579559327,30.610197067260742C97.78318579559325,30.610197067260742,119.39428579559326,46.635097067260745,119.39428579559326,66.39859706726074L119.39428579559326,66.39859706726074Z" fill-rule="evenodd" fill="#FFE0C7" fill-opacity="1"/>
        </g>
        <g>
          <g>
            <path d="M59.128309623718266,46.60449637390137C59.128309623718266,46.60449637390137,56.00216962371826,42.06178337390137,50.97436962371826,42.35812987390137C45.94569962371826,42.65511437390137,46.48864962371826,48.67764637390137,59.128309623718266,46.60449637390137L59.128309623718266,46.60449637390137Z" fill-rule="evenodd" fill="#151F3D" fill-opacity="1"/>
          </g>
          <g filter="url(#master_svgz_339_8855)">
            <path d="M46.65831899871826,84.3333576385498C45.78411899871826,87.1134076385498,42.013328998718265,88.3008076385498,38.236238998718264,86.9814076385498C34.45914899871826,85.6619076385498,32.106102998718264,82.3405276385498,32.98105299871826,79.5596476385498C33.855218998718264,76.7804206385498,37.62603899871826,75.5921526385498,41.40312899871826,76.91162563854981C45.18021899871826,78.2294476385498,47.53321899871826,81.55329763854981,46.65831899871826,84.3333576385498L46.65831899871826,84.3333576385498Z" fill-rule="evenodd" fill="#ED7C79" fill-opacity="1"/>
          </g>
          <g>
            <path d="M82.53259563446045,46.60449637390137C82.53259563446045,46.60449637390137,85.65792563446045,42.06178337390137,90.68670563446045,42.35812987390137C95.71549563446045,42.65511437390137,95.17159563446045,48.67764637390137,82.53259563446045,46.60449637390137L82.53259563446045,46.60449637390137Z" fill-rule="evenodd" fill="#151F3D" fill-opacity="1"/>
          </g>
          <g filter="url(#master_svg10_339_8854)">
            <path d="M93.83207003533936,84.3333576385498C94.70625403533936,87.1134076385498,98.47634403533935,88.3008076385498,102.25427403533935,86.9814076385498C106.03139403533936,85.6619076385498,108.38369403533936,82.3405276385498,107.50949403533936,79.5596476385498C106.63459403533936,76.7804206385498,102.86447403533936,75.5921526385498,99.08733403533935,76.91162563854981C95.30940403533936,78.2294476385498,92.95710803533936,81.55329763854981,93.83207003533936,84.3333576385498L93.83207003533936,84.3333576385498Z" fill-rule="evenodd" fill="#ED7C79" fill-opacity="1"/>
          </g>
          <g>
            <path d="M62.15983823309326,85.67152448913575C67.25424423309326,88.27143948913574,73.70263423309326,87.96531948913574,78.82133423309327,85.77356648913575C79.34893423309326,85.54907348913574,78.69993423309326,85.26768358913574,78.43283423309326,85.39631848913574C73.42453423309325,87.81874948913574,67.33666423309326,88.01293948913575,62.63005723309326,85.19841838913574C62.40782523309326,85.06607248913575,61.81398023309326,85.49403248913575,62.15983823309326,85.67152448913575L62.15983823309326,85.67152448913575Z" fill-rule="evenodd" fill="#AD6441" fill-opacity="1"/>
          </g>
          <g>
            <path d="M68.35049724578857,76.51514875183105L73.03133724578858,76.51514875183105C73.03133724578858,76.51514875183105,70.87023724578857,72.55491875183105,68.35049724578857,76.51514875183105L68.35049724578857,76.51514875183105Z" fill-rule="evenodd" fill="#AD6441" fill-opacity="1"/>
          </g>
          <g>
            <g>
              <path d="M57.95804822769165,66.39854626617432C57.95804822769165,74.50054626617433,53.76724822769165,81.06654626617431,48.596338227691646,81.06654626617431C43.42620822769165,81.06654626617431,39.23464822769165,74.50054626617433,39.23464822769165,66.39854626617432C39.23464822769165,58.29822626617432,43.42620822769165,51.731446266174316,48.596338227691646,51.731446266174316C53.76724822769165,51.731446266174316,57.95804822769165,58.29822626617432,57.95804822769165,66.39854626617432L57.95804822769165,66.39854626617432Z" fill-rule="evenodd" fill="#151F3D" fill-opacity="1"/>
            </g>
            <g>
              <path d="M57.95804822769165,69.3316493423462C57.95804822769165,76.7846493423462,53.76704822769165,82.82664934234619,48.59672822769165,82.82664934234619C43.42557822769165,82.82664934234619,39.23464822769165,76.7846493423462,39.23464822769165,69.3316493423462C39.23464822769165,61.880309342346195,43.42557822769165,55.83834934234619,48.59672822769165,55.83834934234619C53.76704822769165,55.83834934234619,57.95804822769165,61.880309342346195,57.95804822769165,69.3316493423462L57.95804822769165,69.3316493423462Z" fill-rule="evenodd" fill="#2C4992" fill-opacity="1"/>
            </g>
            <g>
              <path d="M55.6180424949646,67.865367237854C55.6180424949646,72.563867237854,52.8668624949646,76.372867237854,49.4744524949646,76.372867237854C46.0820324949646,76.372867237854,43.3308424949646,72.563867237854,43.3308424949646,67.865367237854C43.3308424949646,63.166817237854005,46.0820324949646,59.358567237854004,49.4744524949646,59.358567237854004C52.8668624949646,59.358567237854004,55.6180424949646,63.166817237854005,55.6180424949646,67.865367237854L55.6180424949646,67.865367237854Z" fill-rule="evenodd" fill="#151F3D" fill-opacity="1"/>
            </g>
            <g>
              <path d="M54.447575004730226,65.51851943511963C54.447575004730226,67.30163943511963,53.00672500473023,68.74578943511963,51.229495004730225,68.74578943511963C49.45226500473022,68.74578943511963,48.011415004730225,67.30163943511963,48.011415004730225,65.51851943511963C48.011415004730225,63.73539943511963,49.45226500473022,62.29206943511963,51.229495004730225,62.29206943511963C53.00672500473023,62.29206943511963,54.447575004730226,63.73539943511963,54.447575004730226,65.51851943511963L54.447575004730226,65.51851943511963Z" fill-rule="evenodd" fill="#FEFEFE" fill-opacity="1"/>
            </g>
          </g>
          <g>
            <g>
              <path d="M82.53259563446045,66.39854626617432C82.53259563446045,74.50054626617433,86.72340563446045,81.06654626617431,91.89428563446045,81.06654626617431C97.06439563446045,81.06654626617431,101.25599563446045,74.50054626617433,101.25599563446045,66.39854626617432C101.25599563446045,58.29822626617432,97.06439563446045,51.731446266174316,91.89428563446045,51.731446266174316C86.72340563446045,51.731446266174316,82.53259563446045,58.29822626617432,82.53259563446045,66.39854626617432L82.53259563446045,66.39854626617432Z" fill-rule="evenodd" fill="#151F3D" fill-opacity="1"/>
            </g>
            <g>
              <path d="M82.53259563446045,69.3316493423462C82.53259563446045,76.7846493423462,86.72430563446045,82.82664934234619,91.89388563446045,82.82664934234619C97.06429563446045,82.82664934234619,101.25599563446045,76.7846493423462,101.25599563446045,69.3316493423462C101.25599563446045,61.880309342346195,97.06429563446045,55.83834934234619,91.89388563446045,55.83834934234619C86.72430563446045,55.83834934234619,82.53259563446045,61.880309342346195,82.53259563446045,69.3316493423462L82.53259563446045,69.3316493423462Z" fill-rule="evenodd" fill="#2C4992" fill-opacity="1"/>
            </g>
            <g>
              <path d="M85.45813274383545,67.865367237854C85.45813274383545,72.563867237854,88.20857274383545,76.372867237854,91.60174274383544,76.372867237854C94.99415274383546,76.372867237854,97.74533274383545,72.563867237854,97.74533274383545,67.865367237854C97.74533274383545,63.166817237854005,94.99415274383546,59.358567237854004,91.60174274383544,59.358567237854004C88.20857274383545,59.358567237854004,85.45813274383545,63.166817237854005,85.45813274383545,67.865367237854L85.45813274383545,67.865367237854Z" fill-rule="evenodd" fill="#151F3D" fill-opacity="1"/>
            </g>
            <g>
              <path d="M87.21316862106323,65.51851943511963C87.21316862106323,67.30163943511963,88.65319862106323,68.74578943511963,90.43124862106323,68.74578943511963C92.20847862106324,68.74578943511963,93.64932862106323,67.30163943511963,93.64932862106323,65.51851943511963C93.64932862106323,63.73539943511963,92.20847862106324,62.29206943511963,90.43124862106323,62.29206943511963C88.65319862106323,62.29206943511963,87.21316862106323,63.73539943511963,87.21316862106323,65.51851943511963L87.21316862106323,65.51851943511963Z" fill-rule="evenodd" fill="#FEFEFE" fill-opacity="1"/>
            </g>
          </g>
        </g>
      </g>
    </g>
    <g>
      <g transform="matrix(0.9981706738471985,-0.060555338859558105,0.05610941722989082,0.9984200596809387,-2.8195544522145823,0.775425139377262)">
        <path d="M11.586109185302734,74.26152533874512C11.520061485302735,75.36042533874512,11.795803185302734,76.44722533874511,12.435472185302734,77.34322533874511Q17.579281185302733,84.54792533874512,22.358471185302733,84.54792533874512Q26.246971185302733,84.54792533874512,28.687071185302734,86.05412533874511C29.733571185302733,86.70012533874512,30.882771185302733,87.26162533874512,32.11267118530273,87.26162533874512C33.120271185302734,87.26162533874512,34.06707118530274,86.87952533874511,34.95837118530274,86.40972533874512Q35.91617118530273,85.90482533874513,36.712171185302736,85.90482533874513C37.02447118530273,85.90482533874513,37.46137118530274,85.95662533874511,37.969171185302734,86.01682533874512C39.583071185302735,86.20822533874511,41.91317118530273,86.48462533874512,43.236571185302736,85.45242533874512C44.300771185302736,84.62252533874512,47.64337118530273,85.14632533874511,50.37747118530273,85.57482533874511C52.11337118530273,85.84682533874512,53.60397118530273,86.08042533874512,54.110671185302735,85.90482533874513C54.361771185302736,85.81772533874512,54.83847118530274,85.54642533874511,55.497271185302736,85.17142533874511C58.261771185302734,83.59782533874511,64.23297118530274,80.19902533874512,70.20427118530273,80.92952533874512Q76.94697118530273,81.75432533874512,84.05137118530273,86.71632533874512C84.95697118530273,87.34882533874512,86.02517118530274,87.71392533874513,87.12977118530273,87.71392533874513L93.75047118530273,87.71392533874513C94.56947118530273,87.71392533874513,95.37647118530273,87.91122533874511,96.10317118530273,88.28902533874512L98.24067118530273,89.40042533874512C98.96727118530274,89.77822533874512,99.77427118530274,89.97552533874511,100.59327118530274,89.97552533874511L102.72227118530273,89.97552533874511C103.91387118530274,89.97552533874511,105.02737118530274,90.51442533874513,106.13617118530273,90.95072533874512Q107.39347118530273,91.44542533874511,108.48087118530273,90.88002533874513C108.93687118530273,90.64302533874512,109.39287118530274,90.34372533874512,109.85677118530273,90.03942533874512C111.16267118530273,89.18242533874512,112.53037118530274,88.28482533874512,114.13537118530273,88.61852533874512C114.96637118530273,88.79132533874511,115.47937118530274,89.09602533874511,115.91837118530273,89.35632533874511C116.62737118530274,89.77752533874511,117.14137118530273,90.08222533874512,118.48537118530274,89.52312533874512C120.65937118530273,88.61852533874512,126.31437118530273,87.26162533874512,128.05437118530273,82.73872533874513Q129.67337118530273,78.52942533874511,129.03237118530274,68.83622533874512C128.96837118530271,67.87612533874511,128.61837118530275,66.95162533874512,128.04237118530273,66.18122533874512L122.94437118530273,59.36639533874512C122.87137118530273,59.26824533874512,122.80437118530273,59.16899533874512,122.73237118530274,59.07004533874512Q120.83037118530274,56.46779533874512,111.52537118530273,55.14842533874511C110.23427118530273,54.965315338745114,109.07767118530273,54.798685338745116,108.03537118530274,54.64852533874512C101.35367118530273,53.685925338745115,99.37077118530273,53.400265338745115,96.73697118530274,53.79152533874512Q94.60557118530274,54.108135338745114,92.90057118530274,54.86799533874512C91.95787118530274,55.288115338745115,90.96537118530273,55.57602533874512,89.93437118530274,55.52991533874512L52.90707118530273,53.873875338745115C51.717271185302735,53.820665338745115,50.61097118530274,53.32710533874512,49.63877118530274,52.63908533874512Q46.793471185302735,50.62542533874512,43.67157118530273,50.62542533874512Q39.95877118530274,50.62542533874512,22.942971185302735,52.252855338745114C21.731271185302734,52.368745338745114,20.589781185302733,52.91686533874512,19.746061185302736,53.79421533874512L13.656391185302734,60.12661533874512C12.815931185302734,61.00062533874512,12.314339185302735,62.14542533874511,12.241592185302734,63.35572533874512L11.586109185302734,74.26152533874512Z" fill="url(#master_svg11_142_00391)" fill-opacity="1"/>
        <path d="M22.847771185302733,51.25740133874512Q20.590651185302733,51.47328033874512,19.025271185302735,53.10105533874512L12.935611185302735,59.43345533874512Q11.378195185302735,61.05292533874512,11.243393185302734,63.295725338745115L10.587910185302734,74.20152533874511Q10.461801185302734,76.29972533874512,11.621611185302735,77.92422533874512Q17.064521185302734,85.54792533874512,22.358471185302733,85.54792533874512Q25.963171185302734,85.54782533874513,28.161771185302733,86.90502533874512Q30.359571185302734,88.26162533874512,32.11267118530273,88.26162533874512Q33.589471185302735,88.26162533874512,35.424671185302735,87.29432533874513Q36.163571185302736,86.90482533874513,36.712171185302736,86.90482533874513Q36.965371185302736,86.90482533874513,37.85137118530274,87.00982533874512Q39.72187118530273,87.23172533874512,40.74967118530273,87.19272533874512Q42.72737118530273,87.11782533874512,43.85157118530273,86.24102533874512Q44.574071185302735,85.67752533874511,50.22267118530274,86.56272533874511Q51.92097118530273,86.82892533874511,52.59777118530273,86.90192533874512Q53.88627118530273,87.04092533874513,54.438171185302735,86.84962533874511Q54.776371185302736,86.73242533874512,55.99197118530273,86.04042533874511Q59.48687118530273,84.05112533874512,61.994871185302735,83.12442533874511Q66.45107118530274,81.47782533874512,70.08277118530273,81.92212533874512Q76.57847118530273,82.7167253387451,83.47877118530273,87.53612533874511Q85.16517118530274,88.71402533874512,87.12977118530273,88.71392533874513L93.75047118530273,88.71392533874513Q94.75267118530273,88.71392533874513,95.64187118530273,89.17632533874512L97.77937118530274,90.28762533874512Q99.10227118530274,90.97552533874511,100.59327118530274,90.97552533874511L102.72227118530273,90.97552533874511Q103.53927118530274,90.97552533874511,105.25927118530274,91.67572533874511Q105.59807118530273,91.81362533874511,105.77007118530274,91.88132533874511Q107.45097118530273,92.54262533874513,108.94217118530274,91.76732533874511Q109.44307118530273,91.50692533874512,110.40537118530274,90.87542533874512Q111.64637118530274,90.06092533874511,112.26337118530273,89.80752533874511Q113.16437118530274,89.43792533874512,113.93137118530274,89.59762533874512Q114.59937118530273,89.73642533874511,115.40737118530274,90.21632533874512Q116.23537118530274,90.70752533874511,116.81237118530274,90.79582533874512Q117.70137118530273,90.93202533874512,118.86937118530274,90.44652533874512Q119.17137118530273,90.32072533874512,120.00637118530274,90.01952533874513Q123.12937118530273,88.89272533874512,124.80637118530274,87.85002533874513Q127.89937118530274,85.92692533874512,128.98737118530272,83.09772533874511Q130.68537118530273,78.68302533874513,130.03037118530273,68.77022533874512Q129.91437118530274,67.01432533874512,128.84237118530274,65.58222533874512L123.74537118530273,58.767435338745116Q123.71237118530273,58.72357533874512,123.64237118530274,58.624295338745114Q123.57637118530273,58.53018533874511,123.53937118530274,58.479895338745116Q121.38837118530273,55.53694533874512,111.66637118530274,54.158325338745115Q110.37627118530274,53.975435338745115,108.17797118530274,53.65874533874512Q102.64257118530273,52.861295338745116,100.95397118530273,52.71600533874512Q98.55867118530273,52.509935338745116,96.58997118530273,52.802375338745115Q94.32347118530274,53.139075338745116,92.49347118530274,53.954595338745115Q91.08897118530274,54.580555338745114,89.97897118530274,54.53091533874512L52.95177118530273,52.87487533874512Q51.618771185302734,52.81525533874512,50.21647118530274,51.82282533874512Q47.111571185302736,49.62542533874512,43.67157118530273,49.62542533874512Q39.91107118530273,49.62542533874512,22.847771185302733,51.25740133874512ZM14.377181185302735,60.819725338745116L20.466851185302737,54.48737533874512Q21.518671185302736,53.39365533874512,23.038171185302737,53.248315338745115Q40.00647118530273,51.62542533874512,43.67157118530273,51.62542533874512Q46.47547118530274,51.62542533874512,49.06117118530273,53.45534533874512Q50.94277118530273,54.78701533874512,52.86247118530274,54.87287533874512L89.88967118530273,56.528915338745115Q91.47157118530274,56.59966533874512,93.30767118530274,55.781395338745114Q94.88777118530274,55.07718533874512,96.88387118530274,54.78067533874512Q98.62077118530273,54.522665338745114,100.78247118530274,54.708645338745114Q102.41407118530273,54.849025338745115,107.89277118530273,55.63830533874512Q110.09317118530274,55.95530533874512,111.38527118530273,56.138515338745115Q120.27237118530273,57.398635338745116,121.92537118530274,59.66019533874512Q121.95137118530273,59.696515338745115,122.00837118530274,59.776545338745116Q122.09437118530273,59.89886533874512,122.14437118530273,59.96534533874512L127.24137118530274,66.78012533874511Q127.95737118530273,67.73762533874512,128.03437118530275,68.90222533874513Q128.66137118530276,78.37582533874512,127.12137118530273,82.37962533874511Q126.27337118530274,84.58272533874512,123.75037118530274,86.15152533874512Q122.25237118530274,87.08302533874512,119.32737118530274,88.13822533874512Q118.44737118530273,88.45562533874511,118.10137118530274,88.59982533874512Q117.45037118530273,88.87032533874512,117.11437118530273,88.81882533874511Q116.92137118530273,88.78932533874512,116.42837118530274,88.49642533874513Q115.33337118530274,87.84622533874511,114.33937118530274,87.63952533874512Q112.97137118530273,87.35502533874512,111.50437118530273,87.95742533874511Q110.70967118530274,88.28362533874511,109.30807118530274,89.20332533874512Q108.43067118530273,89.77912533874512,108.01957118530274,89.99282533874512Q107.33607118530273,90.34822533874512,106.50237118530274,90.02022533874512Q106.34107118530274,89.95672533874512,106.01337118530273,89.82332533874512Q105.02167118530274,89.4196253387451,104.49257118530274,89.26052533874511Q103.54407118530274,88.97552533874511,102.72227118530273,88.97552533874511L100.59327118530274,88.97552533874511Q99.59117118530274,88.97552533874511,98.70197118530274,88.51312533874511L96.56447118530274,87.40182533874511Q95.24157118530273,86.71392533874513,93.75047118530273,86.71392533874513L87.12977118530273,86.71392533874513Q85.79447118530274,86.71392533874513,84.62397118530274,85.89642533874512Q77.31547118530274,80.79202533874512,70.32567118530272,79.93692533874511Q66.21267118530272,79.43372533874512,61.301571185302734,81.24842533874512Q58.639971185302734,82.23192533874511,55.00267118530274,84.30232533874512Q53.947171185302736,84.90302533874512,53.783171185302734,84.95992533874511Q53.51217118530273,85.05382533874513,50.532371185302736,84.58682533874511Q47.59967118530273,84.12732533874512,46.24237118530274,84.04362533874512Q43.623971185302736,83.88222533874512,42.621571185302734,84.66392533874512Q42.00647118530273,85.14372533874513,40.67397118530273,85.19422533874513Q39.802271185302736,85.22722533874511,38.08697118530273,85.02382533874513Q37.08357118530273,84.90482533874513,36.712171185302736,84.90482533874513Q35.66877118530273,84.90482533874513,34.492071185302734,85.52502533874511Q33.09467118530273,86.26162533874512,32.11267118530273,86.26162533874512Q30.927071185302733,86.26162533874512,29.212371185302736,85.20312533874511Q26.530771185302733,83.54792533874512,22.358471185302733,83.54792533874512Q18.094031185302732,83.54792533874512,13.249331185302735,76.76212533874512Q12.500641185302735,75.71352533874511,12.584311185302735,74.32152533874512L13.239791185302735,63.41572533874512Q13.330391185302734,61.908325338745115,14.377181185302735,60.819725338745116Z" fill-rule="evenodd" fill="#000000" fill-opacity="1"/>
      </g>
    </g>
    <g>
      <path d="M74.52358844238282,119.22897338867188L72.67417844238281,119.46459938867187L72.52751844238281,121.54467338867188L70.82015844238282,120.57223338867188L70.30176844238281,121.92708338867187L72.70276844238282,123.73194338867188L72.70276844238282,127.05002338867187L69.71419844238281,125.24903338867188L69.87653844238281,122.23031338867187L69.82765844238281,122.24286338867188L66.71732844238281,127.67192338867187L68.77703844238282,126.80281338867188L71.52302844238281,128.66175338867188L69.0343884423828,129.99917338867186L66.22845344238281,128.52076338867187L65.47854244238282,129.84177338867187L67.4275684423828,131.19957338867187L65.28852844238281,132.78517338867186L66.69057844238282,133.93337338867187L68.47541844238282,132.59887338867188L68.72907844238281,135.17047338867187L70.00475844238281,134.00967338867187L70.17816844238281,131.65927338867186L72.59761844238281,130.04557338867187L72.34764844238282,133.70837338867187L70.06194844238281,135.17817338867187L71.0055584423828,136.7773733886719L72.61052844238282,135.51137338867187L72.74335844238281,138.13317338867188L74.56048844238282,137.82317338867188L74.86856844238281,135.74497338867187L76.13312844238281,136.74937338867187L76.67092844238282,135.20517338867188L74.86856844238281,133.47087338867186L74.52358844238282,130.35457338867187L77.00482844238282,132.20867338867188L77.15152844238281,134.48577338867187L78.63282844238282,135.20517338867188L78.85882844238282,133.12227338867189L80.93332844238282,134.24627338867188L81.5974284423828,132.6248733886719L79.41602844238281,131.50667338867189L81.26722844238282,130.24837338867187L79.74902844238281,129.2421733886719L78.00472844238281,130.46947338867187L75.04197844238281,128.66175338867188L78.04712844238281,126.96794338867187L80.37342844238282,128.54973338867188L81.33732844238281,127.19874338867187L79.29972844238281,126.19926338867188L82.00702844238282,124.77971338867188L80.78672844238281,123.38333338867187L79.00002844238281,124.27369338867187L78.78502844238281,122.04007338867187L77.0777284423828,122.73729338867187L77.0777284423828,125.08486338867188L74.52358844238282,126.96794338867187L74.70714844238282,123.96950338867188L77.14692844238282,121.95219338867187L76.55192844238282,120.37234338867188L74.41105844238281,121.65669338867187L74.52358844238282,119.22897338867188Z" fill-rule="evenodd" fill="#FEFEFE" fill-opacity="1"/>
    </g>
    <g>
      <g>
        <path d="M72.62905979156494,73.00273916625977Q103.55875979156494,73.00274916625976,121.15045979156494,64.93951816625976L120.73375979156494,64.03046016625977Q103.34025979156495,72.00273916625977,72.62905979156494,72.00273916625977Q41.879559791564944,72.00274916625976,23.205678791564942,66.59332916625976L22.92744079156494,67.55383916625976Q41.73765979156494,73.00274916625976,72.62905979156494,73.00273916625977Z" fill-rule="evenodd" fill="#55FFF4" fill-opacity="1"/>
      </g>
      <g>
        <path d="M38.546260588989256,81.13060889282227L36.80371258898926,57.12140289282227L37.80108858898926,57.049014892822264L39.543640588989255,81.05820889282226L38.546260588989256,81.13060889282227Z" fill-rule="evenodd" fill="#55FFF4" fill-opacity="1"/>
      </g>
      <g>
        <path d="M36.93282060211182,81.81058530883789L35.12573560211182,57.21892840883789L36.123045602111816,57.14564220883789L37.93013060211182,81.7372853088379L36.93282060211182,81.81058530883789Z" fill-rule="evenodd" fill="#55FFF4" fill-opacity="1"/>
      </g>
      <g>
        <path d="M32.2940099979248,64.93786624243164L33.061372997924806,73.05213224243164L33.098220997924805,73.44177224243164L43.193425997924805,74.94941224243163L42.68221599792481,66.01544024243164L32.2940099979248,64.93786624243164ZM34.0200859979248,72.56835224243164L33.404441997924806,66.05841824243164L41.73247599792481,66.92229224243164L42.1248059979248,73.77873224243164L34.0200859979248,72.56835224243164Z" fill-rule="evenodd" fill="#55FFF4" fill-opacity="1"/>
      </g>
      <g>
        <path d="M39.79512455596924,53.480529071533205L24.563957655969237,52.2509480715332L24.48349145596924,53.247705071533204L39.71462455596924,54.477287071533205L60.53902455596924,55.946017071533205L64.42202455596924,63.7331670715332L78.29812455596924,63.7331670715332L83.34712455596923,55.9442070715332L117.18032455596924,52.9885700715332L117.09332455596923,51.9923640715332L82.77362455596923,54.990497071533206L77.75462455596923,62.7331670715332L65.04072455596923,62.7331670715332L61.17912455596924,54.9886770715332L39.79512455596924,53.480529071533205Z" fill-rule="evenodd" fill="#55FFF4" fill-opacity="1"/>
      </g>
      <g>
        <path d="M22.253397966918946,80.55033374633788L23.769607966918947,81.11043374633789L24.116147966918945,80.17243374633789L23.179877966918944,79.82653374633789L20.693044966918947,57.19693374633789L21.296787966918945,57.19693374633789L21.296787966918945,56.19693374633789L19.577130966918943,56.19693374633789L22.253397966918946,80.55033374633788Z" fill-rule="evenodd" fill="#55FFF4" fill-opacity="1"/>
      </g>
      <g>
        <ellipse cx="57.357826232910156" cy="58.314796566963196" rx="0.6455631256103516" ry="0.6972237825393677" fill-opacity="0" stroke-opacity="1" stroke="#55FFF4" fill="none" stroke-width="1"/>
      </g>
      <g>
        <ellipse cx="84.86748123168945" cy="58.314796566963196" rx="0.6455631256103516" ry="0.6972237825393677" fill-opacity="0" stroke-opacity="1" stroke="#55FFF4" fill="none" stroke-width="1"/>
      </g>
      <g>
        <path d="M52.66262626647949,57.07057571411133L55.30871626647949,57.07057571411133L55.30871626647949,58.07057571411133L52.66262626647949,58.07057571411133L52.66262626647949,57.07057571411133Z" fill-rule="evenodd" fill="#55FFF4" fill-opacity="1"/>
      </g>
      <g>
        <path d="M87.12632942199707,57.07057571411133L89.77241942199707,57.07057571411133L89.77241942199707,58.07057571411133L87.12632942199707,58.07057571411133L87.12632942199707,57.07057571411133Z" fill-rule="evenodd" fill="#55FFF4" fill-opacity="1"/>
      </g>
      <g>
        <path d="M51.61042315129394,65.1924560744629L64.35683445129395,65.51603007446289L64.33143445129394,66.51570807446289L51.58504575129395,66.19213407446288L51.61042315129394,65.1924560744629Z" fill-rule="evenodd" fill="#55FFF4" fill-opacity="1"/>
      </g>
      <g transform="matrix(-1,0,0,1,184.77248001098633,0)">
        <path d="M92.39892870549316,65.1924560744629L105.14534000549317,65.51603007446289L105.11994000549316,66.51570807446289L92.37355130549317,66.19213407446288L92.39892870549316,65.1924560744629Z" fill-rule="evenodd" fill="#55FFF4" fill-opacity="1"/>
      </g>
      <g>
        <path d="M55.552854629418945,66.4222005559082L64.36239202941894,66.7457745559082L64.32569202941895,67.74510055590821L55.516149429418945,67.4215265559082L55.552854629418945,66.4222005559082Z" fill-rule="evenodd" fill="#55FFF4" fill-opacity="1"/>
      </g>
      <g transform="matrix(-1,0,0,1,176.89874649047852,0)">
        <path d="M88.46772584523926,66.4222005559082L97.27726324523925,66.7457745559082L97.24056324523926,67.74510055590821L88.43102064523926,67.4215265559082L88.46772584523926,66.4222005559082Z" fill-rule="evenodd" fill="#55FFF4" fill-opacity="1"/>
      </g>
      <g>
        <rect x="66.07038307189941" y="65.54513931274414" width="1.5815510749816895" height="2.3651697635650635" rx="0" fill-opacity="0" stroke-opacity="1" stroke="#55FFF4" fill="none" stroke-width="1"/>
      </g>
      <g>
        <rect x="76.78381538391113" y="65.54513931274414" width="1.5815510749816895" height="2.3651697635650635" rx="0" fill-opacity="0" stroke-opacity="1" stroke="#55FFF4" fill="none" stroke-width="1"/>
      </g>
    </g>
  </g>
</svg>