<svg xmlns="http://www.w3.org/2000/svg" xmlns:xlink="http://www.w3.org/1999/xlink" fill="none" version="1.1" width="140" height="120" viewBox="0 0 140 120"><defs><clipPath id="master_svg0_4172_79213"><rect x="0" y="0" width="140" height="120" rx="0"/></clipPath><linearGradient x1="0.5" y1="0.5898107290267944" x2="0.5" y2="0.845537543296814" id="master_svg1_4069_53135"><stop offset="0%" stop-color="#E5EDFF" stop-opacity="0.984320342540741"/><stop offset="100%" stop-color="#FFFFFF" stop-opacity="0"/></linearGradient><linearGradient x1="0.7369412779808044" y1="0" x2="0.39143550395965576" y2="1" id="master_svg2_1352_88450"><stop offset="0%" stop-color="#DDEBFE" stop-opacity="1"/><stop offset="100%" stop-color="#3F74DB" stop-opacity="1"/></linearGradient><linearGradient x1="0.7369412779808044" y1="0" x2="0.39143550395965576" y2="1" id="master_svg3_1352_86885"><stop offset="0%" stop-color="#BFD6F7" stop-opacity="1"/><stop offset="100%" stop-color="#3F74DB" stop-opacity="1"/></linearGradient><linearGradient x1="0.5" y1="1.1680235862731934" x2="0.44103682041168213" y2="0" id="master_svg4_1352_88466"><stop offset="0%" stop-color="#BFD6F7" stop-opacity="1"/><stop offset="100%" stop-color="#3F74DB" stop-opacity="1"/></linearGradient><linearGradient x1="0.5" y1="0" x2="0.5" y2="1" id="master_svg5_4172_56553"><stop offset="0%" stop-color="#FFFFFF" stop-opacity="1"/><stop offset="100%" stop-color="#BFD6F7" stop-opacity="1"/></linearGradient><mask id="master_svg6_4172_79358"><g><path d="M38.69003,31.3718523979187L86.7178,31.3718523979187L86.7178,59.077452397918705Q86.1925,71.4420523979187,77.2778,79.31735239791871Q68.363,87.19265239791869,54.5815,87.4667523979187L29.625000000001624,87.4667523979187Q35.45621,71.0583523979187,37.03022,61.3183523979187Q38.60423,51.5782523979187,38.69003,31.3718523979187Z" fill-rule="evenodd" fill="#FFFFFF" fill-opacity="1"/></g></mask><linearGradient x1="0.5" y1="0.257845401763916" x2="0.9090566635131836" y2="1.1034361124038696" id="master_svg7_1352_88471"><stop offset="0%" stop-color="#F1F7FF" stop-opacity="1"/><stop offset="100%" stop-color="#3F74DB" stop-opacity="1"/></linearGradient><linearGradient x1="0.7369412779808044" y1="0" x2="0.39143550395965576" y2="1" id="master_svg8_1352_86885"><stop offset="0%" stop-color="#BFD6F7" stop-opacity="1"/><stop offset="100%" stop-color="#3F74DB" stop-opacity="1"/></linearGradient><filter id="master_svg9_4172_79328" filterUnits="objectBoundingBox" color-interpolation-filters="sRGB" x="-4" y="-4" width="96.75" height="23.30078125"><feFlood flood-opacity="0" result="BackgroundImageFix"/><feBlend mode="normal" in="SourceGraphic" in2="BackgroundImageFix" result="shape"/><feGaussianBlur stdDeviation="1" result="effect1_foregroundBlur"/></filter><linearGradient x1="0.32609838247299194" y1="0" x2="0.5794455409049988" y2="0.8349111676216125" id="master_svga_4172_57155"><stop offset="2.8571369126439095%" stop-color="#FFFFFF" stop-opacity="1"/><stop offset="25.161296129226685%" stop-color="#FBFBFB" stop-opacity="1"/><stop offset="60.848647356033325%" stop-color="#E0E0E0" stop-opacity="1"/><stop offset="100%" stop-color="#A6B0BF" stop-opacity="1"/></linearGradient><linearGradient x1="0.36140501499176025" y1="0.04279723018407822" x2="0.503443717956543" y2="0.7635290622711182" id="master_svgb_4172_57079"><stop offset="2.857145667076111%" stop-color="#FFFFFF" stop-opacity="1"/><stop offset="25.16128718852997%" stop-color="#FBFBFB" stop-opacity="1"/><stop offset="64.99999761581421%" stop-color="#DCDCDC" stop-opacity="1"/><stop offset="100%" stop-color="#A7B0BF" stop-opacity="1"/></linearGradient><linearGradient x1="0.1099194809794426" y1="0.25727054476737976" x2="0.27202722430229187" y2="0.7273536324501038" id="master_svgc_4172_58446"><stop offset="0%" stop-color="#4CA8FF" stop-opacity="1"/><stop offset="99.99994039535522%" stop-color="#0043BA" stop-opacity="1"/></linearGradient><linearGradient x1="0.3659665584564209" y1="0.06295561790466309" x2="0.31027597188949585" y2="0.5" id="master_svgd_4069_42893"><stop offset="0%" stop-color="#4CA8FF" stop-opacity="1"/><stop offset="100%" stop-color="#0043BA" stop-opacity="1"/></linearGradient><radialGradient cx="0" cy="0" r="1" gradientUnits="userSpaceOnUse" id="master_svge_4172_58640" gradientTransform="translate(59.36233495213858 74.22545657127694) rotate(30.286592294798012) scale(27.847227919868747 38.4251343860922)"><stop offset="0%" stop-color="#4DA9FF" stop-opacity="1"/><stop offset="100%" stop-color="#0043BA" stop-opacity="1"/></radialGradient><linearGradient x1="-0.6933704614639282" y1="-0.2925417125225067" x2="1" y2="0.7518675923347473" id="master_svgf_3572_079534"><stop offset="0%" stop-color="#005CF2" stop-opacity="1"/><stop offset="100%" stop-color="#1A43A2" stop-opacity="1"/></linearGradient><radialGradient cx="0" cy="0" r="1" gradientUnits="userSpaceOnUse" id="master_svgg_4172_57944" gradientTransform="translate(161.44919959601475 87.49158271430156) rotate(101.94412499561527) scale(22.372773727937584 30.26357949136742)"><stop offset="0%" stop-color="#FFECDE" stop-opacity="1"/><stop offset="31.003758311271667%" stop-color="#FFEADA" stop-opacity="1"/><stop offset="77.62669920921326%" stop-color="#FFE0C7" stop-opacity="1"/><stop offset="99.99976754188538%" stop-color="#D49C77" stop-opacity="1"/></radialGradient><mask id="master_svgh_4172_79337"><g transform="matrix(-0.9945219159126282,-0.10452846437692642,-0.10452846437692642,0.9945219159126282,295.6761759918246,15.495730129170127)"><path d="M163.0359054748535,107.34861347694397C173.8520054748535,108.48621347694397,181.63740547485352,105.68201347694396,181.5163054748535,98.70101347694397C181.3953054748535,91.71991347694397,177.18790547485352,81.41491347694397,164.05710547485353,80.03462447694397C150.92625547485352,78.65433347694398,144.9562824748535,88.23142347694397,144.11236957485352,96.27691347694397C143.2684574748535,104.32231347694398,152.2198254748535,106.21101347694398,163.0359054748535,107.34861347694397Z" fill-rule="evenodd" fill="#FFFFFF" fill-opacity="1"/></g></mask><filter id="master_svgi_4172_79338" filterUnits="objectBoundingBox" color-interpolation-filters="sRGB" x="-6.181458950042725" y="-6.181458950042725" width="18.48929786682129" height="17.39154577255249"><feFlood flood-opacity="0" result="BackgroundImageFix"/><feBlend mode="normal" in="SourceGraphic" in2="BackgroundImageFix" result="shape"/><feGaussianBlur stdDeviation="1.5453647375106812" result="effect1_foregroundBlur"/></filter><filter id="master_svgj_4172_79339" filterUnits="objectBoundingBox" color-interpolation-filters="sRGB" x="-6.181458950042725" y="-6.181458950042725" width="18.900487899780273" height="17.922399044036865"><feFlood flood-opacity="0" result="BackgroundImageFix"/><feBlend mode="normal" in="SourceGraphic" in2="BackgroundImageFix" result="shape"/><feGaussianBlur stdDeviation="1.5453647375106812" result="effect1_foregroundBlur"/></filter><radialGradient cx="0" cy="0" r="1" gradientUnits="userSpaceOnUse" id="master_svgk_4172_59046" gradientTransform="translate(91.6269359588623 90.81250023898423) rotate(72.63277304775939) scale(16.109408349678848 13.87070170661464)"><stop offset="0%" stop-color="#719DFF" stop-opacity="0.984320342540741"/><stop offset="37.48595714569092%" stop-color="#8EB1FF" stop-opacity="0.9875085353851318"/><stop offset="79.49417233467102%" stop-color="#EBF1FF" stop-opacity="0.997844398021698"/><stop offset="99.99994039535522%" stop-color="#FFFFFF" stop-opacity="1"/></radialGradient></defs><g clip-path="url(#master_svg0_4172_79213)"><g><path d="M126.638,120.00002314453126C134.966,114.91732314453125,139.875,106.11932314453125,139.875,90.91882314453125C139.875,52.54742314453125,108.591,21.44122314453125,70,21.44122314453125C31.4091,21.44122314453125,0.125,52.54742314453125,0.125,90.91882314453125C0.125,106.11932314453125,5.03431,114.91732314453125,13.3624,120.00002314453126L126.638,120.00002314453126Z" fill-rule="evenodd" fill="url(#master_svg1_4069_53135)" fill-opacity="1"/></g><g><g><g><rect x="34.51410675048828" y="27.216854333877563" width="54.9882926940918" height="70.6380615234375" rx="3.281644344329834" fill="url(#master_svg2_1352_88450)" fill-opacity="1"/></g><g><rect x="34.51410675048828" y="27.909419059753418" width="54.9882926940918" height="70.6380615234375" rx="3.281644344329834" fill="url(#master_svg3_1352_86885)" fill-opacity="1"/></g><g><rect x="38.674198150634766" y="31.371654987335205" width="48.02775192260742" height="62.32770538330078" rx="0" fill="url(#master_svg4_1352_88466)" fill-opacity="1"/></g><g><g><path d="M38.69003,31.3718523979187L86.7178,31.3718523979187L86.7178,59.077452397918705Q86.1925,71.4420523979187,77.2778,79.31735239791871Q68.363,87.19265239791869,54.5815,87.4667523979187L29.625000000001624,87.4667523979187Q35.45621,71.0583523979187,37.03022,61.3183523979187Q38.60423,51.5782523979187,38.69003,31.3718523979187Z" fill-rule="evenodd" fill="url(#master_svg5_4172_56553)" fill-opacity="1"/></g><g mask="url(#master_svg6_4172_79358)"></g></g><g><path d="M70.40851826171875,67.86500811157227Q68.82341826171876,86.01325811157227,54.43621826171875,87.53455811157227Q83.11031826171875,86.52475811157227,86.68781826171875,60.795658111572266Q84.02471826171875,70.13747811157226,70.40851826171875,67.86500811157227Z" fill-rule="evenodd" fill="url(#master_svg7_1352_88471)" fill-opacity="1"/></g><g><rect x="53.30741882324219" y="25.13916015625" width="18.793466567993164" height="9.695420265197754" rx="3.281644344329834" fill="url(#master_svg8_1352_86885)" fill-opacity="1"/></g></g><g style="opacity:0.15000000596046448;" filter="url(#master_svg9_4172_79328)"><ellipse cx="74" cy="101.349609375" rx="44.375" ry="7.650390625" fill="#092158" fill-opacity="1"/></g><g><g><path d="M39.2620921875,93.52466078125C37.5645431875,96.10336078125,38.2693577375,99.66285078125,39.790347187500004,100.44825078125Q41.3113271875,101.23365078125,51.6057671875,101.66935078125L49.1926671875,89.22705078125Q40.9596371875,90.94595078125,39.2620921875,93.52466078125Z" fill="url(#master_svga_4172_57155)" fill-opacity="1"/></g><g><path d="M44.9404296875,93.26207734375001Q44.9404296875,97.23157734375,46.8709696875,99.67707734375Q50.2116296875,103.90877734375,59.3330296875,103.57697734375L65.9577296875,95.32507734375Q74.7799296875,85.84769734375,72.7284296875,81.49402734375Q71.5813296875,79.05950734375,67.0340296875,78.22714334375C54.3547996875,75.90625734375,44.9404296875,82.42366734375,44.9404296875,93.26207734375001Z" fill="url(#master_svgb_4172_57079)" fill-opacity="1"/></g><g transform="matrix(0.9935049414634705,0.1137893795967102,-0.1137893795967102,0.9935049414634705,10.834545483929105,-4.983105960302055)"><path d="M49.3387998125,101.4050290625C48.2715698125,104.1131390625,50.4655428125,106.2551390625,53.9241628125,105.8676390625Q57.3827728125,105.4802390625,69.8567828125,102.7298390625L63.6678828125,92.4150390625L55.8168528125,96.4101590625Q50.4060328125,98.6969190625,49.3387998125,101.4050290625Z" fill="url(#master_svgc_4172_58446)" fill-opacity="1"/></g><g><path d="M94.9736328125,95.62505183125L95.7236328125,102.77072453125Q110.6801328125,105.09156453125,112.4852328125,102.77072453125C114.2903328125,100.44988453125,112.4853328125,96.61279453125,107.1953328125,96.05034453125Q101.9052728125,95.48789653125,94.9736328125,95.62505183125Z" fill="url(#master_svgd_4069_42893)" fill-opacity="1"/></g><g><g><g transform="matrix(0.9993908405303955,-0.03489949554204941,0.03489949554204941,0.9993908405303955,-1.752853160423399,1.9522207688997923)"><g><g transform="matrix(0.9998477101325989,0.017452405765652657,-0.017452405765652657,0.9998477101325989,1.0446864496608157,-0.9661559081740236)"><path d="M70.53304553556443,59.371577739715576Q75.19584553556442,65.66822773971558,70.36124553556442,69.14452773971557C65.52672553556442,72.62077773971558,61.398815535564424,76.02117773971557,58.83003553556442,80.61917773971558C56.26126553556442,85.21717773971558,54.604245535564424,91.07847773971558,57.16172553556442,97.36867773971558C59.71920553556442,103.65887773971558,66.73454553556442,106.80037773971557,79.91474553556442,107.05367773971557C93.09504553556442,107.30697773971558,98.54874553556442,105.74257773971559,102.28474553556443,101.26947773971557C106.02074553556443,96.79637773971558,105.13604553556442,87.84507773971558,102.58004553556442,81.38327773971558C101.05124553556442,77.51837773971558,99.27124553556442,74.76157773971558,97.05954553556442,72.47407773971557C93.96234553556442,69.27082773971557,91.69004553556442,67.21218773971557,87.53514553556442,64.53417773971557Q81.65564553556442,60.74456773971558,70.53304553556443,59.371577739715576Z" fill-rule="evenodd" fill="url(#master_svge_4172_58640)" fill-opacity="1"/></g></g><g transform="matrix(0.9833728671073914,-0.18159793317317963,0.18159793317317963,0.9833728671073914,-8.649232086484233,11.724255606529134)"><path d="M65.50434111602783,53.09463655948639L64.34201111602783,53.24311855948639L64.24984111602784,54.55389655948639L63.17679111602783,53.94110555948639L62.850991116027835,54.79487655948639L64.35999111602783,55.93222655948639L64.35999111602783,58.02314655948639L62.481721116027835,56.88822655948639L62.583751116027834,54.98595655948639L62.553021116027836,54.99386655948639L60.59823511602783,58.41503655948639L61.89273111602783,57.86735655948639L63.61853111602783,59.03878655948639L62.054471116027834,59.881606559486386L60.29098711602783,58.94993655948639L59.819682116027835,59.78241655948639L61.04461111602783,60.63800655948639L59.70026111602783,61.63722655948639L60.581423116027835,62.36076655948639L61.70316111602783,61.51977655948639L61.86259111602783,63.140336559486386L62.66433111602783,62.40884655948639L62.773311116027834,60.927676559486386L64.29390111602783,59.91081655948639L64.13680111602783,62.21897655948639L62.700271116027835,63.14513655948639L63.29332111602783,64.15293655948639L64.30201111602783,63.35513655948639L64.38549111602784,65.00723655948639L65.52753111602783,64.81193655948638L65.72115111602783,63.50233655948639L66.51593111602783,64.13523655948639L66.85391111602783,63.16223655948639L65.72115111602783,62.06927655948639L65.50434111602783,60.10554655948639L67.06376111602783,61.27392655948639L67.15594111602783,62.70884655948639L68.08695111602783,63.16223655948639L68.22898111602782,61.849596559486386L69.53276111602783,62.55793655948639L69.95016111602783,61.53620655948639L68.57913111602784,60.83152655948639L69.74266111602783,60.03860655948639L68.78841111602783,59.40451655948639L67.69217111602784,60.17795655948639L65.83013111602783,59.03878655948639L67.71884111602783,57.971416559486386L69.18087111602783,58.96819655948639L69.78666111602783,58.116856559486386L68.50609111602783,57.48702655948639L70.20756111602783,56.59248655948639L69.44058111602783,55.71254655948639L68.31768111602783,56.27361655948639L68.18261111602783,54.86607655948639L67.10956111602783,55.30543655948639L67.10956111602783,56.78477655948639L65.50434111602783,57.971416559486386L65.61970111602783,56.08192655948639L67.15304111602784,54.81069655948639L66.77912111602784,53.81513955948639L65.43361111602783,54.62448655948639L65.50434111602783,53.09463655948639Z" fill-rule="evenodd" fill="url(#master_svgf_3572_079534)" fill-opacity="1"/></g></g><g transform="matrix(-1,0,0,1,207.8132781982422,0)" mask="url(#master_svgh_4172_79337)"><g transform="matrix(-0.9945219159126282,-0.10452846437692642,-0.10452846437692642,0.9945219159126282,295.6761759918246,15.495730129170127)"><path d="M163.0359054748535,107.34861347694397C173.8520054748535,108.48621347694397,181.63740547485352,105.68201347694396,181.5163054748535,98.70101347694397C181.3953054748535,91.71991347694397,177.18790547485352,81.41491347694397,164.05710547485353,80.03462447694397C150.92625547485352,78.65433347694398,144.9562824748535,88.23142347694397,144.11236957485352,96.27691347694397C143.2684574748535,104.32231347694398,152.2198254748535,106.21101347694398,163.0359054748535,107.34861347694397Z" fill-rule="evenodd" fill="url(#master_svgg_4172_57944)" fill-opacity="1"/></g><g transform="matrix(0.9925461411476135,0.12186934053897858,-0.12186934053897858,0.9925461411476135,12.093360082486214,-12.360481296162277)" filter="url(#master_svgi_4172_79338)"><ellipse cx="110.155921459198" cy="95.19641041755676" rx="3.06318998336792" ry="2.5143139362335205" fill="#FF9492" fill-opacity="1"/></g><g transform="matrix(0.9902680516242981,0.13917310535907745,-0.13917310535907745,0.9902680516242981,14.450193273856797,-17.28755389435713)" filter="url(#master_svgj_4172_79339)"><ellipse cx="134.1056571006775" cy="97.45963978767395" rx="3.268784999847412" ry="2.779740571975708" fill="#FF9492" fill-opacity="1"/></g></g></g><g transform="matrix(-0.9682193994522095,0.2501022517681122,0.2501022517681122,0.9682193994522095,136.80459044619602,-17.3837991779842)"><path d="M88.86219567871093,92.28435890625Q88.91568567871094,92.24919790625,88.95894567871093,92.20201190625Q89.00219567871093,92.15482590625,89.03258567871094,92.09848590625Q89.06297567871094,92.04214590625,89.07864567871094,91.98008090625Q89.09431567871094,91.91801650625,89.09431567871094,91.85400390625Q89.09431567871094,91.80328080625,89.08442567871094,91.75353190625Q89.07452567871094,91.70378390625,89.05511567871093,91.65692190625Q89.03570567871094,91.61005990625,89.00752567871093,91.56788490625Q88.97934567871094,91.52571090625,88.94347567871094,91.48984390625Q88.90760567871094,91.45397690625,88.86543567871094,91.42579690625Q88.82326567871094,91.39761690625,88.77639567871094,91.37820590625Q88.72953567871093,91.35879490625,88.67978567871094,91.34889990625Q88.63003567871094,91.33900390625,88.57931567871094,91.33900390625Q88.42521567871094,91.33900390625,88.29643567871094,91.42364890625L88.29637567871094,91.42354790625Q84.95593567871094,93.61926390625,81.43558467871094,91.59384790625L81.43552367871094,91.59395390625Q81.31627367871094,91.52534390625,81.17869567871094,91.52534390625Q81.12797257871094,91.52534390625,81.07822367871094,91.53523990625Q81.02847567871093,91.54513490625,80.98161367871094,91.56454590625Q80.93475167871094,91.58395690625,80.89257667871094,91.61213690625Q80.85040267871094,91.64031690625,80.81453567871094,91.67618390625Q80.77866867871094,91.71205090625,80.75048867871094,91.75422520625Q80.72230867871093,91.79639990625,80.70289767871094,91.84326190625Q80.68348667871093,91.89012390625,80.67359167871093,91.93987240625Q80.66369567871094,91.98962090625,80.66369567871094,92.04034390625Q80.66369567871094,92.10824390625,80.68129367871094,92.17382290625Q80.69889267871093,92.23940190625,80.73288667871094,92.29817990625Q80.76688067871093,92.35695690625,80.81494667871094,92.40491490625Q80.86301367871094,92.45287290625,80.92186767871094,92.48673390625L80.92180667871094,92.48683890625Q84.99186567871094,94.82852390625,88.86226567871094,92.28445990625L88.86219567871093,92.28435890625Z" fill-rule="evenodd" fill="#001A52" fill-opacity="1"/></g><g transform="matrix(0.9826304912567139,0.18557283282279968,-0.18557295203208923,0.9826304912567139,18.607349456709926,-15.040975191193866)"><path d="M96.7101571875,92.29646796875Q96.8110371875,92.22388996875,96.8677171875,92.11329196875Q96.9243871875,92.00269296875,96.9243871875,91.87841796875Q96.9243871875,91.82769486875,96.9144971875,91.77794596875Q96.9045971875,91.72819796875,96.8851871875,91.68133596875Q96.8657771875,91.63447396875,96.8375971875,91.59229896875Q96.8094171875,91.55012496875,96.7735471875,91.51425796875Q96.7376871875,91.47839096875,96.6955071875,91.45021096875Q96.6533371875,91.42203096875,96.6064671875,91.40261996875Q96.5596071875,91.38320896875,96.5098571875,91.37331396875Q96.4601171875,91.36341796875,96.4093871875,91.36341796875Q96.2433871875,91.36341796875,96.1086271875,91.46036796875L96.1085571875,91.46026896875Q93.0978771875,93.62628796875,89.9258621875,91.62876896875L89.9257971875,91.62887196875Q89.8000131875,91.54966296875,89.6513671875,91.54966296875Q89.6006440875,91.54966296875,89.5508951875,91.55955796875Q89.5011471875,91.56945396875,89.4542851875,91.58886496875Q89.4074231875,91.60827496875,89.3652481875,91.63645596875Q89.3230741875,91.66463596875,89.2872071875,91.70050296875Q89.2513401875,91.73636896875,89.2231601875,91.77854376875Q89.1949801875,91.82071846875,89.1755691875,91.86758046875Q89.1561581875,91.91444246875,89.1462631875,91.96419096875Q89.1363671875,92.01393896875,89.1363671875,92.06466196875Q89.1363671875,92.12995096875,89.1526591875,92.19317296875Q89.1689501875,92.25639596875,89.2005031875,92.31355296875Q89.2320561875,92.37071096875,89.2768731875,92.41818696875Q89.3216901875,92.46566196875,89.3769371875,92.50045296875L89.3768721875,92.50055596875Q93.1361771875,94.86790796875,96.7102271875,92.29656696875L96.7101571875,92.29646796875Z" fill-rule="evenodd" fill="#001A52" fill-opacity="1"/></g><g transform="matrix(0.9659258127212524,0.258819043636322,-0.258819043636322,0.9659258127212524,25.548368413092703,-20.799349019663396)"><path d="M91.77680574151367,87.9232528125C91.77680988151367,88.4186728125,95.74268905151368,88.3134528125,95.74269905151367,87.9232528125C95.74269905151367,87.5330668125,95.23093905151367,86.6298828125,94.39942905151368,86.6298828125C93.56792905151367,86.6298828125,91.77680159151367,87.4278438125,91.77680574151367,87.9232528125Z" fill="#223365" fill-opacity="1"/></g><g transform="matrix(-0.9659258127212524,0.258819043636322,0.258819043636322,0.9659258127212524,131.37956398768256,-17.296446563858808)"><path d="M78.24262986871094,87.9232528125C78.24263400871094,88.4186728125,82.20851317871094,88.3134528125,82.20852317871093,87.9232528125C82.20852317871093,87.5330668125,81.69676317871094,86.6298828125,80.86525317871094,86.6298828125C80.03375317871094,86.6298828125,78.24262571871094,87.4278438125,78.24262986871094,87.9232528125Z" fill="#223365" fill-opacity="1"/></g><g transform="matrix(0.9969819188117981,-0.07763384282588959,0.07763384282588959,0.9969819188117981,-7.475046156840108,6.829062387652812)"><ellipse cx="86.6089653968811" cy="100.67081117630005" rx="2.5142388343811035" ry="1.1156353950500488" fill="#970300" fill-opacity="1"/></g><g transform="matrix(-0.94073086977005,0.3439881205558777,0.349113404750824,0.935284435749054,135.65328530695388,-23.775642579003943)"><path d="M86.92381286621094,95.793258515625Q88.74254286621094,95.227678515625,89.09100286621094,95.067662515625C88.96676286621094,94.762722515625,88.17909286621094,94.480005515625,87.60550086621093,94.793241515625Q87.03190986621094,95.106476515625,86.92381286621094,95.793258515625Z" fill-rule="evenodd" fill="#B46841" fill-opacity="1"/></g></g><g><path d="M85.3205075625,82.80450578125Q85.0582365625,84.88431578125,86.0720055625,86.78176578125C86.9451015625,88.41587578125,87.3910015625,90.41387578125,86.4668815625,92.01967578125L85.7988365625,93.18057578125Q95.8439015625,92.18717578125,97.4628015625,87.07271578125C99.0818015625,81.95826578125,96.8135015625,78.33007778125,92.5690315625,77.76365878125C88.3245815625,77.19723978125,85.7612995625,79.30902578125,85.3205075625,82.80450578125Z" fill="url(#master_svgk_4172_59046)" fill-opacity="1"/></g></g></g></g></svg>