<svg xmlns="http://www.w3.org/2000/svg" xmlns:xlink="http://www.w3.org/1999/xlink" fill="none" version="1.1" width="16" height="16" viewBox="0 0 16 16"><defs><clipPath id="master_svg0_61_00783"><rect x="0" y="0" width="16" height="16" rx="0"/></clipPath></defs><g clip-path="url(#master_svg0_61_00783)"><g><path d="M1.0390625,7.5078175C1.0390625,3.9265675,3.9421925,1.0234375,7.5234425,1.0234375C11.1046625,1.0234375,14.0078625,3.9265675,14.0078625,7.5078175C14.0078625,11.0890375,11.1046625,13.9922375,7.5234425,13.9922375C3.9421925,13.9922375,1.0390625,11.0890375,1.0390625,7.5078175ZM2.0359375,7.5078175C2.0359375,10.5343775,4.4984424999999995,12.9953375,7.5234425,12.9953375C10.5484425,12.9953375,13.0109625,10.5343775,13.0109625,7.5078175C13.0109625,4.4812475,10.5500025,2.0203125,7.5234425,2.0203125C4.4968725,2.0203125,2.0359375,4.4812475,2.0359375,7.5078175ZM5.0791025,6.0128875C5.3103525,4.8738275,6.3166025,4.0175775,7.5228525,4.0175775C8.8994125,4.0175775,10.0166025,5.1332075,10.0181625,6.5128875C10.0181625,7.7191375,9.1619125,8.7253875,8.022852499999999,8.9566375L8.022852499999999,10.0050775L7.0259725,10.0050775L7.0259725,8.009767499999999L8.022852499999999,8.009767499999999L8.022852499999999,7.9175775C8.600972500000001,7.7113275,9.0197225,7.1628875,9.0197225,6.5128875C9.0197225,5.6878875,8.3478525,5.0160175,7.5228525,5.0160175C6.8728525,5.0160175,6.3244125,5.4332075,6.1181625,6.0128875L5.0791025,6.0128875ZM8.0197225,11.0003875L7.0228525,11.0003875L7.0228525,11.9972375L8.0197225,11.9972375L8.0197225,11.0003875Z" fill-rule="evenodd" fill="#5A6074" fill-opacity="1"/></g></g></svg>