<svg xmlns="http://www.w3.org/2000/svg" xmlns:xlink="http://www.w3.org/1999/xlink" fill="none" version="1.1" width="32" height="32" viewBox="0 0 32 32"><defs><filter id="master_svg0_1132_13128/1132_13337" filterUnits="objectBoundingBox" color-interpolation-filters="sRGB" x="0" y="0" width="1" height="1"><feFlood flood-opacity="0" result="BackgroundImageFix"/><feBlend mode="normal" in="SourceGraphic" in2="BackgroundImageFix" result="shape"/><feGaussianBlur in="BackgroundImageFix" stdDeviation="2.3800010681152344"/><feComposite in2="SourceAlpha" operator="in" result="effect1_foregroundBlur"/><feBlend mode="normal" in="SourceGraphic" in2="effect1_foregroundBlur" result="shape"/></filter><linearGradient x1="0.04236947372555733" y1="0.02640617825090885" x2="0.5" y2="1" id="master_svg1_1132_13223"><stop offset="0%" stop-color="#EAA5A3" stop-opacity="1"/><stop offset="100%" stop-color="#FFFFFF" stop-opacity="0"/></linearGradient></defs><g><g><g><rect x="4" y="2.3333892822265625" width="20.99997901916504" height="24.49997901916504" rx="1.312498688697815" fill="#EC5A55" fill-opacity="1"/></g><g filter="url(#master_svg0_1132_13128/1132_13337)"><rect x="7.5" y="5.8335113525390625" width="20.99997901916504" height="24.49997901916504" rx="0.8749991655349731" fill="#FFDEC3" fill-opacity="0.18000000715255737"/><rect x="7.609374895691872" y="5.942886248230934" width="20.781229227781296" height="24.281229227781296" rx="0.7656242698431015" stroke="url(#master_svg1_1132_13223)" fill-opacity="0" fill="none" stroke-width="0.2187497913837433"/></g><g><path d="M23.299580798339846,18.670607177734375L23.299580798339846,21.162167177734375L22.035280798339844,21.162167177734375L22.035280798339844,15.041107177734375L26.356380798339845,15.041107177734375L26.356380798339845,16.082357177734377L23.299580798339846,16.082357177734377L23.299580798339846,17.644227177734376L25.969680798339844,17.644227177734376L25.969680798339844,18.670607177734375L23.299580798339846,18.670607177734375ZM11.168750798339843,21.177057177734376L11.168750798339843,18.953247177734376L12.321570798339843,18.953247177734376Q13.736370798339843,18.953247177734376,14.315360798339844,18.257597177734375Q14.716440798339843,17.775707177734375,14.716440798339843,16.959997177734376C14.716440798339843,16.399707177734374,14.528020798339844,15.948499177734375,14.151190798339844,15.606374177734375Q13.548750798339844,15.055999777734375,12.440570798339843,15.055999777734375L9.904380798339844,15.055999777734375L9.904380798339844,21.177057177734376L11.168750798339843,21.177057177734376ZM17.706220798339842,21.177057177734376Q19.40941079833984,21.177057177734376,20.168080798339844,20.433307177734374C20.668780798339846,19.942437177734377,20.919180798339845,19.146617177734374,20.919180798339845,18.045877177734376Q20.919180798339845,16.640187177734376,20.115980798339844,15.866686177734374Q19.275530798339844,15.055999677734375,17.639280798339843,15.055999777734375L15.712970798339843,15.055999777734375L15.712970798339843,21.177057177734376L17.706220798339842,21.177057177734376ZM11.169030798339843,17.986437177734373L12.210280798339843,17.986437177734373C12.983780798339843,17.976517177734376,13.373010798339845,17.646787177734375,13.377960798339844,16.997247177734376Q13.377960798339844,16.558437177734376,13.095340798339844,16.305557177734375Q12.790400798339844,16.037811177734376,12.210280798339843,16.037811177734376L11.169030798339843,16.037811177734376L11.169030798339843,17.986437177734373ZM17.609810798339844,20.143367177734376L16.977620798339842,20.143367177734376L16.977620798339842,16.089937177734374L17.602370798339845,16.089937177734374C18.251910798339843,16.089937177734374,18.750230798339842,16.273397177734374,19.097310798339844,16.640307177734375Q19.58818079833984,17.160937177734375,19.58818079833984,18.060867177734377Q19.58818079833984,20.143367177734376,17.609810798339844,20.143367177734376Z" fill-rule="evenodd" fill="#FFFFFF" fill-opacity="1"/><path d="M23.408980798339844,18.670607177734375L23.408980798339844,21.162167177734375Q23.408980798339844,21.183917177734376,23.40068079833984,21.204017177734375Q23.392380798339843,21.224117177734374,23.376980798339844,21.239507177734374Q23.361580798339844,21.254887177734375,23.341480798339845,21.263207177734376Q23.321380798339845,21.271537177734373,23.299580798339846,21.271537177734373L22.035280798339844,21.271537177734373Q22.01348079833984,21.271537177734373,21.993380798339842,21.263217177734376Q21.973280798339843,21.254887177734375,21.957880798339843,21.239507177734374Q21.942480798339844,21.224117177734374,21.934180798339845,21.204017177734375Q21.925880798339843,21.183917177734376,21.925880798339843,21.162167177734375L21.925880798339843,15.041107177734375Q21.925880798339843,15.019351177734375,21.934180798339845,14.999251177734376Q21.942480798339844,14.979151277734376,21.957880798339843,14.963767477734375Q21.973280798339843,14.948383677734375,21.993380798339842,14.940058177734375Q22.01348079833984,14.931732177734375,22.035280798339844,14.931732177734375L26.356380798339845,14.931732177734375Q26.378180798339844,14.931732177734375,26.398280798339844,14.940058177734375Q26.418380798339843,14.948383677734375,26.433780798339843,14.963767477734375Q26.449180798339842,14.979151277734376,26.457480798339844,14.999251177734376Q26.465780798339843,15.019351177734375,26.465780798339843,15.041107177734375L26.465780798339843,16.082357177734377Q26.465780798339843,16.104107177734374,26.457480798339844,16.124207177734377Q26.449180798339842,16.144307177734376,26.433780798339843,16.159697177734376Q26.418380798339843,16.175077177734376,26.398280798339844,16.183407177734374Q26.378180798339844,16.191727177734375,26.356380798339845,16.191727177734375L23.299580798339846,16.191727177734375L23.299580798339846,16.082357177734377L23.408980798339844,16.082357177734377L23.408980798339844,17.644227177734376L23.299580798339846,17.644227177734376L23.299580798339846,17.534857177734374L25.969680798339844,17.534857177734374Q25.991380798339843,17.534857177734374,26.011480798339843,17.543177177734375Q26.031580798339842,17.551507177734376,26.046980798339845,17.566887177734376Q26.062380798339845,17.582277177734376,26.070680798339843,17.602377177734375Q26.079080798339845,17.622477177734375,26.079080798339845,17.644227177734376L26.079080798339845,18.670607177734375Q26.079080798339845,18.692357177734376,26.070680798339843,18.712457177734375Q26.062380798339845,18.732557177734375,26.046980798339845,18.747947177734375Q26.031580798339842,18.763327177734375,26.011480798339843,18.771657177734376Q25.991380798339843,18.779977177734374,25.969680798339844,18.779977177734374L23.299580798339846,18.779977177734374L23.299580798339846,18.670607177734375L23.408980798339844,18.670607177734375ZM23.190280798339842,18.670607177734375Q23.190280798339842,18.648847177734375,23.198580798339844,18.628747177734375Q23.206880798339846,18.608647177734376,23.222280798339845,18.593267177734376Q23.237680798339845,18.577877177734376,23.257780798339844,18.569557177734374Q23.277880798339844,18.561227177734374,23.299580798339846,18.561227177734374L25.969680798339844,18.561227177734374L25.969680798339844,18.670607177734375L25.860280798339843,18.670607177734375L25.860280798339843,17.644227177734376L25.969680798339844,17.644227177734376L25.969680798339844,17.753607177734374L23.299580798339846,17.753607177734374Q23.277880798339844,17.753607177734374,23.257780798339844,17.745277177734376Q23.237680798339845,17.736957177734375,23.222280798339845,17.721567177734375Q23.206880798339846,17.706187177734375,23.198580798339844,17.686087177734375Q23.190280798339842,17.665987177734376,23.190280798339842,17.644227177734376L23.190280798339842,16.082357177734377Q23.190280798339842,16.060597177734376,23.198580798339844,16.040500177734376Q23.206880798339846,16.020400177734373,23.222280798339845,16.005016177734376Q23.237680798339845,15.989632177734375,23.257780798339844,15.981307177734376Q23.277880798339844,15.972981177734376,23.299580798339846,15.972981177734376L26.356380798339845,15.972981177734376L26.356380798339845,16.082357177734377L26.247080798339844,16.082357177734377L26.247080798339844,15.041107177734375L26.356380798339845,15.041107177734375L26.356380798339845,15.150482177734375L22.035280798339844,15.150482177734375L22.035280798339844,15.041107177734375L22.144580798339845,15.041107177734375L22.144580798339845,21.162167177734375L22.035280798339844,21.162167177734375L22.035280798339844,21.052787177734373L23.299580798339846,21.052787177734373L23.299580798339846,21.162167177734375L23.190280798339842,21.162167177734375L23.190280798339842,18.670607177734375ZM11.059380798339843,21.177057177734376L11.059380798339843,18.953247177734376Q11.059380798339843,18.931487177734375,11.067700798339844,18.911387177734376Q11.076030798339843,18.891287177734377,11.091410798339844,18.875907177734376Q11.106800798339844,18.860527177734376,11.126900798339843,18.852197177734375Q11.147000798339844,18.843867177734374,11.168750798339843,18.843867177734374L12.321570798339843,18.843867177734374Q13.685100798339844,18.843877177734374,14.231290798339844,18.187627177734374Q14.607060798339845,17.736147177734374,14.607060798339845,16.959997177734376Q14.607060798339845,16.167987177734375,14.077670798339843,15.687353177734375Q13.506310798339843,15.165375177734376,12.440570798339843,15.165374177734375L9.904380798339844,15.165374177734375L9.904380798339844,15.055999777734375L10.013755798339844,15.055999777734375L10.013755798339844,21.177057177734376L9.904380798339844,21.177057177734376L9.904380798339844,21.067677177734375L11.168750798339843,21.067677177734375L11.168750798339843,21.177057177734376L11.059380798339843,21.177057177734376ZM11.278130798339843,21.177057177734376Q11.278130798339843,21.198807177734373,11.269800798339844,21.218917177734376Q11.261480798339843,21.239017177734375,11.246090798339843,21.254397177734376Q11.230710798339844,21.269777177734376,11.210610798339843,21.278107177734377Q11.190510798339844,21.286427177734375,11.168750798339843,21.286427177734375L9.904380798339844,21.286427177734375Q9.882624798339844,21.286427177734375,9.862524798339845,21.278107177734377Q9.842424898339845,21.269777177734376,9.827041098339844,21.254397177734376Q9.811657298339844,21.239017177734375,9.803331798339844,21.218917177734376Q9.795005798339844,21.198807177734373,9.795005798339844,21.177057177734376L9.795005798339844,15.055999777734375Q9.795005798339844,15.034243737734375,9.803331798339844,15.014143777734375Q9.811657298339844,14.994043877734375,9.827041098339844,14.978660077734375Q9.842424898339845,14.963276177734375,9.862524798339845,14.954950577734374Q9.882624798339844,14.946624877734376,9.904380798339844,14.946624877734376L12.440570798339843,14.946624877734376Q13.591190798339843,14.946624977734375,14.224710798339844,15.525395177734374Q14.825810798339845,16.071127177734375,14.825810798339845,16.959997177734376Q14.825810798339845,17.815267177734377,14.399430798339843,18.327567177734373Q13.787640798339844,19.062617177734374,12.321570798339843,19.062617177734374L11.168750798339843,19.062617177734374L11.168750798339843,18.953247177734376L11.278130798339843,18.953247177734376L11.278130798339843,21.177057177734376ZM17.706220798339842,21.067677177734375Q19.364740798339845,21.067687177734374,20.091480798339845,20.355207177734375Q20.809880798339844,19.651047177734377,20.809880798339844,18.045877177734376Q20.809880798339844,16.686707177734377,20.040080798339844,15.945471177734374Q19.231380798339842,15.165374177734375,17.639280798339843,15.165374177734375L15.712970798339843,15.165374177734375L15.712970798339843,15.055999777734375L15.822350798339844,15.055999777734375L15.822350798339844,21.177057177734376L15.712970798339843,21.177057177734376L15.712970798339843,21.067677177734375L17.706220798339842,21.067677177734375ZM17.706220798339842,21.286427177734375L15.712970798339843,21.286427177734375Q15.691220798339844,21.286427177734375,15.671120798339844,21.278107177734377Q15.651020798339843,21.269777177734376,15.635630798339843,21.254397177734376Q15.620250798339843,21.239017177734375,15.611920798339844,21.218917177734376Q15.603600798339844,21.198807177734373,15.603600798339844,21.177057177734376L15.603600798339844,15.055999777734375Q15.603600798339844,15.034243737734375,15.611920798339844,15.014143777734375Q15.620250798339843,14.994043877734375,15.635630798339843,14.978660077734375Q15.651020798339843,14.963276177734375,15.671120798339844,14.954950577734374Q15.691220798339844,14.946624877734376,15.712970798339843,14.946624877734376L17.639280798339843,14.946624777734375Q19.319690798339842,14.946624677734375,20.191880798339845,15.787901177734375Q21.028580798339846,16.593677177734374,21.028580798339846,18.045877177734376Q21.028580798339846,19.742937177734376,20.244580798339843,20.511407177734377Q19.45409079833984,21.286437177734374,17.706220798339842,21.286427177734375ZM11.169030798339843,17.877057177734375L12.210280798339843,17.877057177734375Q13.261970798339844,17.863567177734375,13.268590798339844,16.996417177734376Q13.268590798339844,16.607337177734376,13.022410798339845,16.387067177734377Q12.749200798339844,16.147187177734374,12.210280798339843,16.147187177734374L11.169030798339843,16.147187177734374L11.169030798339843,16.037811177734376L11.278400798339844,16.037811177734376L11.278400798339844,17.986437177734373L11.169030798339843,17.986437177734373L11.169030798339843,17.877057177734375ZM11.169030798339843,18.095807177734375Q11.147270798339843,18.095807177734375,11.127170798339844,18.087487177734374Q11.107070798339844,18.079157177734373,11.091690798339844,18.063777177734377Q11.076300798339844,18.048387177734377,11.067980798339844,18.028287177734374Q11.059650798339844,18.008187177734374,11.059650798339844,17.986437177734373L11.059650798339844,16.037811177734376Q11.059650798339844,16.016055177734376,11.067980798339844,15.995955177734375Q11.076300798339844,15.975855177734376,11.091690798339844,15.960471177734375Q11.107070798339844,15.945088177734375,11.127170798339844,15.936762177734375Q11.147270798339843,15.928436177734374,11.169030798339843,15.928436177734374L12.210280798339843,15.928436177734374Q12.831610798339844,15.928436177734374,13.168270798339844,16.224047177734374Q13.487340798339844,16.509537177734376,13.487340798339844,16.998087177734376Q13.479080798339844,18.079547177734376,12.210280798339843,18.095807177734375L11.169030798339843,18.095807177734375ZM17.609810798339844,20.252747177734374L16.977620798339842,20.252747177734374Q16.955870798339845,20.252747177734374,16.935770798339846,20.244417177734377Q16.915670798339843,20.236087177734376,16.900280798339843,20.220707177734376Q16.884900798339842,20.205327177734375,16.876570798339845,20.185227177734376Q16.868250798339844,20.165127177734377,16.868250798339844,20.143367177734376L16.868250798339844,16.089937177734374Q16.868250798339844,16.068177177734373,16.876570798339845,16.048077177734374Q16.884900798339842,16.027979177734373,16.900280798339843,16.012595177734376Q16.915670798339843,15.997211177734375,16.935770798339846,15.988886177734376Q16.955870798339845,15.980560177734375,16.977620798339842,15.980560177734375L17.602370798339845,15.980560177734375Q18.623780798339844,15.980560177734375,19.176770798339845,16.565147177734374Q19.697550798339844,17.117497177734375,19.697560798339843,18.060867177734377Q19.697550798339844,19.145787177734377,19.172890798339843,19.698077177734376Q18.645950798339843,20.252747177734374,17.609810798339844,20.252747177734374ZM17.609810798339844,20.033997177734374Q18.552040798339846,20.033997177734374,19.014290798339843,19.547417177734374Q19.478810798339843,19.058447177734376,19.478810798339843,18.060867177734377Q19.478800798339844,17.204367177734376,19.017850798339843,16.715477177734375Q18.529590798339843,16.199307177734376,17.602370798339845,16.199307177734376L16.977620798339842,16.199307177734376L16.977620798339842,16.089937177734374L17.087000798339844,16.089937177734374L17.087000798339844,20.143367177734376L16.977620798339842,20.143367177734376L16.977620798339842,20.033997177734374L17.609810798339844,20.033997177734374Z" fill="#FFFFFF" fill-opacity="1"/></g></g></g></svg>