<svg xmlns="http://www.w3.org/2000/svg" xmlns:xlink="http://www.w3.org/1999/xlink" fill="none" version="1.1" width="32" height="32" viewBox="0 0 32 32"><defs><filter id="master_svg0_1047_28014/1132_13363" filterUnits="objectBoundingBox" color-interpolation-filters="sRGB" x="0" y="0" width="1" height="1"><feFlood flood-opacity="0" result="BackgroundImageFix"/><feBlend mode="normal" in="SourceGraphic" in2="BackgroundImageFix" result="shape"/><feGaussianBlur in="BackgroundImageFix" stdDeviation="2.3800010681152344"/><feComposite in2="SourceAlpha" operator="in" result="effect1_foregroundBlur"/><feBlend mode="normal" in="SourceGraphic" in2="effect1_foregroundBlur" result="shape"/></filter><linearGradient x1="0.04236947372555733" y1="0.02640617825090885" x2="0.5" y2="1" id="master_svg1_1132_13257"><stop offset="0%" stop-color="#98DDFE" stop-opacity="1"/><stop offset="100%" stop-color="#FFFFFF" stop-opacity="0"/></linearGradient></defs><g><g><g><rect x="3.75" y="1.999908447265625" width="20.99997901916504" height="24.49997901916504" rx="1.312498688697815" fill="#42B7F0" fill-opacity="1"/></g><g filter="url(#master_svg0_1047_28014/1132_13363)"><rect x="7.2724609375" y="5.818145751953125" width="20.99997901916504" height="24.49997901916504" rx="0.8749991655349731" fill="#4FC5FE" fill-opacity="0.18039216101169586"/><rect x="7.381835833191872" y="5.927520647644997" width="20.781229227781296" height="24.281229227781296" rx="0.7656242698431015" stroke="url(#master_svg1_1132_13257)" fill-opacity="0" fill="none" stroke-width="0.2187497913837433"/></g></g><g transform="matrix(0,1,-1,0,18.126861572265625,-4.308685302734375)"><path d="M13.6486234375,7.163633134765625L15.128743437499999,9.727268134765625C15.324693437499999,10.066668134765624,15.079753437499999,10.490908134765625,14.6878534375,10.490908134765625L11.7276234375,10.490908134765625C11.3357254375,10.490908134765625,11.0907894375,10.066668134765624,11.2867381375,9.727268134765625L12.7668534375,7.163633134765625C12.9628034375,6.824239634765625,13.4526734375,6.824239634765625,13.6486234375,7.163633134765625Z" fill="#FFFFFF" fill-opacity="1"/><path d="M13.2077434375,6.799997134765625Q12.8508334375,6.799997134765625,12.6723834375,7.109088134765625L11.1922626375,9.672728134765626Q11.0138094375,9.981818134765625,11.1922626375,10.290908134765624Q11.3707164375,10.599998134765626,11.7276234375,10.599998134765626L14.6878534375,10.599998134765626Q15.0447634375,10.599998134765626,15.2232134375,10.290908134765624Q15.401673437500001,9.981818134765625,15.2232134375,9.672728134765626L13.7431034375,7.109088134765625Q13.5646434375,6.799997134765625,13.2077434375,6.799997134765625ZM11.3812134375,9.781818134765626L12.8613334375,7.2181791347656254Q12.9768034375,7.018179134765625,13.2077434375,7.018179134765625Q13.4386834375,7.018179134765625,13.5541534375,7.2181791347656254L15.0342634375,9.781818134765626Q15.1497334375,9.981818134765625,15.0342634375,10.181818134765624Q14.9187934375,10.381818134765625,14.6878534375,10.381818134765625L11.7276234375,10.381818134765625Q11.4966834375,10.381818134765625,11.3812134375,10.181818134765624Q11.2657435375,9.981818134765625,11.3812134375,9.781818134765626Z" fill-rule="evenodd" fill="#FFFFFF" fill-opacity="1"/></g></g></svg>