<svg xmlns="http://www.w3.org/2000/svg" xmlns:xlink="http://www.w3.org/1999/xlink" fill="none" version="1.1" width="21" height="19" viewBox="0 0 21 19"><defs><clipPath id="master_svg0_63_62320"><rect x="0" y="3" width="16" height="16" rx="0"/></clipPath><linearGradient x1="0.5" y1="0" x2="0.5" y2="1" id="master_svg1_63_62301"><stop offset="0%" stop-color="#2A61FF" stop-opacity="1"/><stop offset="100%" stop-color="#2AF8FF" stop-opacity="1"/></linearGradient><clipPath id="master_svg2_63_62318"><rect x="12" y="0" width="9" height="9" rx="0"/></clipPath><linearGradient x1="0.5" y1="0" x2="0.5" y2="1" id="master_svg3_63_62301"><stop offset="0%" stop-color="#2A61FF" stop-opacity="1"/><stop offset="100%" stop-color="#2AF8FF" stop-opacity="1"/></linearGradient></defs><g><g clip-path="url(#master_svg0_63_62320)"><g><path d="M8.365652265625,4.36385821875C8.151622265625,3.74201421875,7.803432265625,3.74271721875,7.592072265625,4.36554521875L6.398442265625,7.881589218749999C6.187092265625,8.50441921875,5.504632265625,9.187299218749999,4.881802265625,9.39907921875L1.391915265625,10.585949218749999C0.769228265625,10.79772921875,0.767962265625,11.147889218749999,1.389102265625,11.36416921875L4.858042265625,12.57185921875C5.479182265625,12.78813921875,6.162482265625,13.47382921875,6.376512265625,14.09584921875L7.587152265625,17.615049218750002C7.801042265625,18.237049218750002,8.148242265625,18.23594921875,8.358482265625,17.61274921875L9.540432265625,14.10874921875C9.750522265625,13.48549921875,10.431712265625,12.80121921875,11.053972265625,12.58816921875L14.598572265625,11.37415921875C15.220872265625,11.16110921875,15.220172265625,10.81432921875,14.597072265625,10.60366921875L11.108572265625,9.423689218749999C10.485432265625,9.21288921875,9.800442265625,8.53169921875,9.586412265625,7.90985921875L8.365652265625,4.36385821875Z" fill="url(#master_svg1_63_62301)" fill-opacity="1" style="mix-blend-mode:passthrough"/></g></g><g clip-path="url(#master_svg2_63_62318)"><g><path d="M16.705665390625,0.7672009531249999C16.585265390625,0.417413453125,16.389415390625,0.417808953125,16.270525390625,0.768149953125L15.599115390625,2.745926953125C15.480225390625,3.096266953125,15.096345390625,3.480386953125,14.746005390625001,3.599506953125L12.782937390625,4.2671269531250005C12.432675390625,4.386256953125001,12.431963390625,4.583216953125,12.781355390625,4.704876953125L14.732635390625,5.384196953125C15.082025390625,5.505856953125,15.466375390625,5.891556953125,15.586775390625,6.241426953125L16.267755390625,8.221016953125C16.388065390625002,8.570886953125,16.583375390625,8.570256953125,16.701625390625,8.219676953125L17.366475390625,6.248696953125C17.484655390625,5.898126953125,17.867825390625,5.513216953125,18.217845390625,5.393376953125L20.211685390625,4.710496953125C20.561705390625,4.590656953125,20.561315390624998,4.395586953125,20.210815390625,4.277096953125L18.248535390625,3.613356953125C17.898035390625,3.494776953125,17.512735390625,3.111616953125,17.392345390625,2.761826953125L16.705665390625,0.7672009531249999Z" fill="url(#master_svg3_63_62301)" fill-opacity="1" style="mix-blend-mode:passthrough"/></g></g></g></svg>