<svg xmlns="http://www.w3.org/2000/svg" xmlns:xlink="http://www.w3.org/1999/xlink" fill="none" version="1.1" width="12" height="12.47314453125" viewBox="0 0 12 12.47314453125"><g><g><path d="M9.602290150604247,8.652559296875001Q9.361470150604248,9.017279296875,9.049360150604247,9.329399296875L7.893900150604248,10.522579296875C7.885060150604248,10.584459296875,7.938100150604248,10.637499296875,7.999980150604248,10.628659296875L10.189470150604247,10.681639296875C10.265950150604247,10.670709296875,10.297130150604248,10.577169296875,10.242500150604247,10.522539296875L9.712270150604247,9.992309296875Q10.091520150604248,9.613059296875,10.384640150604248,9.169109296875Q10.670530150604248,8.736119296875,10.865480150604249,8.255369296875Q11.056830150604249,7.783499296875,11.153860150604249,7.282319296875Q11.249930150604248,6.786119296875,11.249930150604248,6.280029296875Q11.249930150604248,5.773939296875,11.153860150604249,5.277739296875Q11.056830150604249,4.776559296875,10.865480150604249,4.304689296875Q10.670520150604247,3.823929296875,10.384640150604248,3.390939296875Q10.091500150604247,2.946979296875,9.712250150604248,2.567719296875Q9.332980150604248,2.188459296875,8.889020150604248,1.8953252968749998Q8.45603015060425,1.609439296875,7.975280150604248,1.414486296875Q7.503410150604248,1.223135296875,7.002230150604248,1.126100296875Q6.5060201506042485,1.030029296875,5.999930150604248,1.030029296875Q5.493850150604248,1.030029296875,4.997640150604248,1.126100096875Q4.496463150604248,1.223135296875,4.0245931506042485,1.414486296875Q3.968105750604248,1.437393296875,3.912277910504248,1.461554296875L4.321292150604248,2.306269296875Q4.348998150604248,2.294589296875,4.376899150604248,2.283269296875Q4.764229150604248,2.126199296875,5.175850150604248,2.046509296875Q5.5837701506042485,1.967529296875,5.999930150604248,1.967529296875Q6.416100150604247,1.967529296875,6.824020150604248,2.046509296875Q7.235640150604248,2.126199296875,7.622970150604248,2.283269296875Q8.017300150604248,2.443179296875,8.372460150604248,2.677679296875Q8.737200150604249,2.918499296875,9.049330150604249,3.230629296875Q9.361460150604248,3.542759296875,9.602290150604247,3.907499296875Q9.836780150604248,4.262659296875,9.996690150604248,4.656989296875Q10.15376015060425,5.044319296875,10.233460150604248,5.455939296875Q10.312430150604248,5.863859296875,10.312430150604248,6.280029296875Q10.312430150604248,6.696199296875,10.233460150604248,7.104119296875Q10.15376015060425,7.515739296875,9.996690150604248,7.903069296875Q9.836790150604248,8.297389296875,9.602290150604247,8.652559296875001Z" fill-rule="evenodd" fill="#2A61FF" fill-opacity="1"/></g><g transform="matrix(-0.981555700302124,0.1911763846874237,-0.1911763846874237,-0.981555700302124,16.832253444048547,21.247397000946876)"><path d="M7.5646283164062496,12.3729249453125L7.56709631640625,12.3729249453125Q7.98326231640625,12.3729249453125,8.39118431640625,12.4518989453125Q8.80280431640625,12.5315989453125,9.19013431640625,12.6886689453125Q9.584464316406251,12.8485689453125,9.939624316406249,13.0830689453125Q10.30436431640625,13.3238989453125,10.61649431640625,13.6360289453125Q10.92862431640625,13.9481589453125,11.16944431640625,14.3128989453125Q11.40394431640625,14.6680589453125,11.56385431640625,15.0623889453125Q11.72092431640625,15.449718945312501,11.80061431640625,15.8613389453125Q11.87959431640625,16.2692589453125,11.87959431640625,16.685428945312502Q11.87959431640625,17.1015889453125,11.80061431640625,17.5095089453125Q11.72092431640625,17.9211289453125,11.56385431640625,18.308458945312502Q11.40394431640625,18.7027889453125,11.16944431640625,19.0579489453125Q10.92863431640625,19.422668945312502,10.61652431640625,19.734788945312502L9.461064316406251,20.9279789453125C9.45222431640625,20.989848945312502,9.505264316406251,21.0428989453125,9.56713431640625,21.034058945312502L11.756634316406249,21.0870289453125C11.833114316406249,21.076108945312498,11.86429431640625,20.982558945312498,11.80966431640625,20.9279289453125L11.279434316406249,20.397708945312502Q11.65867431640625,20.0184589453125,11.95180431640625,19.574508945312502Q12.23768431640625,19.141518945312498,12.43264431640625,18.6607689453125Q12.62399431640625,18.188898945312502,12.72102431640625,17.6877189453125Q12.81709431640625,17.1915089453125,12.81709431640625,16.685428945312502Q12.81709431640625,16.1793389453125,12.72102431640625,15.6831389453125Q12.62399431640625,15.1819489453125,12.43264431640625,14.7100789453125Q12.23768431640625,14.2293289453125,11.95180431640625,13.796338945312499Q11.658664316406249,13.3523789453125,11.27940431640625,12.9731189453125Q10.90014431640625,12.5938489453125,10.456184316406251,12.3007209453125Q10.02319431640625,12.0148349453125,9.54243431640625,11.8198809453125Q9.07057431640625,11.6285309453125,8.56938431640625,11.5314958453125Q8.07318331640625,11.4354249833125,7.56709631640625,11.4354248043125Q7.47893561640625,11.4354248363125,7.39107441150625,11.4383402453125L7.5646283164062496,12.3729249453125Z" fill-rule="evenodd" fill="#2A61FF" fill-opacity="1"/></g></g></svg>