<svg xmlns="http://www.w3.org/2000/svg" xmlns:xlink="http://www.w3.org/1999/xlink" fill="none" version="1.1" width="18" height="18" viewBox="0 0 18 18"><g><g></g><g><path d="M13.54922,13.08006L9.92919,13.08006C9.679310000000001,13.08006,9.47716,13.28239,9.47716,13.53249C9.47716,13.78258,9.679310000000001,13.98492,9.92919,13.98492L13.54797,13.98492C13.79784,13.98492,14,13.78258,14,13.53249C14,13.28239,13.79784,13.08006,13.54922,13.08006ZM13.54922,11.36835L12.14792,11.36835C11.89804,11.36835,11.69589,11.570689999999999,11.69589,11.820789999999999C11.69589,12.07088,11.89804,12.27322,12.14792,12.27322L13.54797,12.27322C13.79784,12.27322,14,12.07088,14,11.820789999999999C14,11.570689999999999,13.79784,11.36835,13.54922,11.36835ZM13.82546,6.73596L11.25515,4.162121C11.150929999999999,4.0578107,11.01156,4,10.864650000000001,4C10.71648,4,10.57836,4.0578107,10.47414,4.162121L4.161998,10.48234C4.0577794,10.586649999999999,3.99876401,10.72992,4.0000197345,10.87696L4.0175987,13.4332C4.02011,13.73357,4.266217,13.97989,4.566317,13.98241L7.11905,14L7.12282,14C7.268470000000001,14,7.41036,13.94093,7.51332,13.83788L13.82421,7.51891C14.0402,7.3015,14.0402,6.9508600000000005,13.82546,6.73596ZM6.97842,13.09262L4.919154,13.0788L4.905342,11.01646L9.27374,6.64296L11.346820000000001,8.71786L6.97842,13.09262ZM11.98594,8.07943L9.91287,6.0032700000000006L10.864650000000001,5.05065L12.93772,7.1255500000000005L11.98594,8.07943Z" fill-opacity="1" style="mix-blend-mode:passthrough"/></g></g></svg>