<svg xmlns="http://www.w3.org/2000/svg" xmlns:xlink="http://www.w3.org/1999/xlink" fill="none" version="1.1" width="49" height="44" viewBox="0 0 49 44"><defs><filter id="master_svg0_164_08813" filterUnits="objectBoundingBox" color-interpolation-filters="sRGB" x="0" y="0" width="1" height="1"><feFlood flood-opacity="0" result="BackgroundImageFix"/><feBlend mode="normal" in="SourceGraphic" in2="BackgroundImageFix" result="shape"/><feColorMatrix in="SourceAlpha" type="matrix" result="hardAlpha" values="0 0 0 0 0 0 0 0 0 0 0 0 0 0 0 0 0 0 127 0"/><feOffset dy="-1.2000000476837158" dx="1.2000000476837158"/><feGaussianBlur stdDeviation="0"/><feComposite in2="hardAlpha" operator="arithmetic" k2="-1" k3="1"/><feColorMatrix type="matrix" values="0 0 0 0 1 0 0 0 0 0.6797496676445007 0 0 0 0 0.17699114978313446 0 0 0 1 0"/><feBlend mode="normal" in2="shape" result="effect1_innerShadow"/></filter><linearGradient x1="0.5" y1="0" x2="0.5" y2="1" id="master_svg1_63_92944"><stop offset="0%" stop-color="#FAAD14" stop-opacity="1"/><stop offset="100%" stop-color="#FFD12A" stop-opacity="1"/></linearGradient><clipPath id="master_svg2_164_08815"><rect x="21" y="16" width="28" height="28" rx="0"/></clipPath><filter id="master_svg3_164_08816" filterUnits="objectBoundingBox" color-interpolation-filters="sRGB" x="0" y="0" width="1" height="1"><feFlood flood-opacity="0" result="BackgroundImageFix"/><feBlend mode="normal" in="SourceGraphic" in2="BackgroundImageFix" result="shape"/><feColorMatrix in="SourceAlpha" type="matrix" result="hardAlpha" values="0 0 0 0 0 0 0 0 0 0 0 0 0 0 0 0 0 0 127 0"/><feOffset dy="0.800000011920929" dx="0.5"/><feGaussianBlur stdDeviation="0"/><feComposite in2="hardAlpha" operator="arithmetic" k2="-1" k3="1"/><feColorMatrix type="matrix" values="0 0 0 0 1 0 0 0 0 1 0 0 0 0 1 0 0 0 0.800000011920929 0"/><feBlend mode="normal" in2="shape" result="effect1_innerShadow"/><feGaussianBlur in="BackgroundImageFix" stdDeviation="20"/><feComposite in2="SourceAlpha" operator="in" result="effect2_foregroundBlur"/><feBlend mode="normal" in="SourceGraphic" in2="effect2_foregroundBlur" result="shape"/></filter><clipPath id="master_svg4_164_08817"><rect x="29.5" y="24" width="11" height="11" rx="0"/></clipPath></defs><g><g filter="url(#master_svg0_164_08813)"><path d="M0,35L0,6Q0,5.85271,0.00722726,5.70559Q0.0144545,5.55848,0.0288916,5.4119Q0.0433288,5.26531,0.0649409,5.11962Q0.0865531,4.97392,0.115288,4.82946Q0.144023,4.685,0.179812,4.54212Q0.215601,4.39924,0.258358,4.25829Q0.301114,4.11734,0.350736,3.97866Q0.400357,3.83998,0.456723,3.7039Q0.513089,3.56782,0.576064,3.43467Q0.63904,3.30152,0.708472,3.17162Q0.777905,3.04172,0.853628,2.91538Q0.929351,2.78905,1.01118,2.66658Q1.09301,2.54411,1.18075,2.4258Q1.2685,2.3075,1.36194,2.19364Q1.45538,2.07978,1.55429,1.97065Q1.65321,1.86151,1.75736,1.75736Q1.86151,1.65321,1.97065,1.55429Q2.07978,1.45538,2.19364,1.36194Q2.3075,1.2685,2.4258,1.18075Q2.54411,1.09301,2.66658,1.01118Q2.78905,0.929351,2.91538,0.853628Q3.04172,0.777905,3.17162,0.708472Q3.30152,0.63904,3.43467,0.576064Q3.56782,0.513089,3.7039,0.456723Q3.83998,0.400357,3.97866,0.350736Q4.11734,0.301114,4.25829,0.258358Q4.39924,0.215601,4.54212,0.179812Q4.685,0.144023,4.82946,0.115288Q4.97392,0.0865531,5.11962,0.0649409Q5.26532,0.0433288,5.4119,0.0288916Q5.55848,0.0144545,5.70559,0.00722726Q5.85271,0,6,0L29,0Q29.1473,0,29.2944,0.00722726Q29.4415,0.0144545,29.5881,0.0288916Q29.7347,0.0433288,29.8804,0.0649409Q30.0261,0.0865531,30.1705,0.115288Q30.315,0.144023,30.4579,0.179812Q30.6008,0.215601,30.7417,0.258358Q30.8827,0.301114,31.0213,0.350736Q31.16,0.400357,31.2961,0.456723Q31.4322,0.513089,31.5653,0.576064Q31.6985,0.63904,31.8284,0.708472Q31.9583,0.777905,32.0846,0.853628Q32.2109,0.929351,32.3334,1.01118Q32.4559,1.09301,32.5742,1.18075Q32.6925,1.2685,32.8064,1.36194Q32.9202,1.45538,33.0294,1.55429Q33.1385,1.65321,33.2426,1.75736Q33.3468,1.86151,33.4457,1.97065Q33.5446,2.07978,33.6381,2.19364Q33.7315,2.3075,33.8192,2.4258Q33.907,2.54411,33.9888,2.66658Q34.0706,2.78905,34.1464,2.91538Q34.2221,3.04172,34.2915,3.17162Q34.361,3.30152,34.4239,3.43467Q34.4869,3.56782,34.5433,3.7039Q34.5996,3.83998,34.6493,3.97866Q34.6989,4.11734,34.7416,4.25829Q34.7844,4.39924,34.8202,4.54212Q34.856,4.685,34.8847,4.82946Q34.9134,4.97392,34.9351,5.11962Q34.9567,5.26532,34.9711,5.4119Q34.9855,5.55848,34.9928,5.70559Q35,5.85271,35,6L35,35Q35,35.1473,34.9928,35.2944Q34.9855,35.4415,34.9711,35.5881Q34.9567,35.7347,34.9351,35.8804Q34.9134,36.0261,34.8847,36.1705Q34.856,36.315,34.8202,36.4579Q34.7844,36.6008,34.7416,36.7417Q34.6989,36.8827,34.6493,37.0213Q34.5996,37.16,34.5433,37.2961Q34.4869,37.4322,34.4239,37.5653Q34.361,37.6985,34.2915,37.8284Q34.2221,37.9583,34.1464,38.0846Q34.0706,38.2109,33.9888,38.3334Q33.907,38.4559,33.8192,38.5742Q33.7315,38.6925,33.6381,38.8064Q33.5446,38.9202,33.4457,39.0294Q33.3468,39.1385,33.2426,39.2426Q33.1385,39.3468,33.0293,39.4457Q32.9202,39.5446,32.8064,39.6381Q32.6925,39.7315,32.5742,39.8192Q32.4559,39.907,32.3334,39.9888Q32.2109,40.0706,32.0846,40.1464Q31.9583,40.2221,31.8284,40.2915Q31.6985,40.361,31.5653,40.4239Q31.4322,40.4869,31.2961,40.5433Q31.16,40.5996,31.0213,40.6493Q30.8827,40.6989,30.7417,40.7416Q30.6008,40.7844,30.4579,40.8202Q30.315,40.856,30.1705,40.8847Q30.0261,40.9134,29.8804,40.9351Q29.7347,40.9567,29.5881,40.9711Q29.4415,40.9855,29.2944,40.9928Q29.1473,41,29,41L6,41Q5.85271,41,5.70559,40.9928Q5.55848,40.9855,5.4119,40.9711Q5.26531,40.9567,5.11962,40.9351Q4.97392,40.9134,4.82946,40.8847Q4.685,40.856,4.54212,40.8202Q4.39924,40.7844,4.25829,40.7416Q4.11734,40.6989,3.97866,40.6493Q3.83998,40.5996,3.7039,40.5433Q3.56782,40.4869,3.43467,40.4239Q3.30152,40.361,3.17162,40.2915Q3.04172,40.2221,2.91538,40.1464Q2.78905,40.0706,2.66658,39.9888Q2.54411,39.907,2.4258,39.8192Q2.3075,39.7315,2.19364,39.6381Q2.07978,39.5446,1.97065,39.4457Q1.86151,39.3468,1.75736,39.2426Q1.65321,39.1385,1.55429,39.0294Q1.45538,38.9202,1.36194,38.8064Q1.2685,38.6925,1.18075,38.5742Q1.09301,38.4559,1.01118,38.3334Q0.929351,38.2109,0.853628,38.0846Q0.777905,37.9583,0.708472,37.8284Q0.63904,37.6985,0.576064,37.5653Q0.513089,37.4322,0.456723,37.2961Q0.400357,37.16,0.350736,37.0213Q0.301114,36.8827,0.258358,36.7417Q0.215601,36.6008,0.179812,36.4579Q0.144023,36.315,0.115288,36.1705Q0.0865531,36.0261,0.0649409,35.8804Q0.0433288,35.7347,0.0288916,35.5881Q0.0144545,35.4415,0.00722726,35.2944Q0,35.1473,0,35Z" fill="url(#master_svg1_63_92944)" fill-opacity="1"/></g><g clip-path="url(#master_svg2_164_08815)"><g filter="url(#master_svg3_164_08816)"><path d="M45.411,21.6303921875L36.1034,17.2189921875C36.0686,17.2022501875,36.0327,17.1877531875,35.996,17.1755921875C35.3471,16.9557921875,34.6315,16.9557921875,33.98256,17.1755921875C33.946020000000004,17.1879121875,33.91004,17.2024721875,33.87518,17.2189921875L24.57106,21.6303921875C24.22232,21.7958721875,24,22.1474121875,24,22.5332521875L24,29.4104421875C24,33.2029421875,25.66348,36.5980421875,28.72346,38.999042187499995L33.83556,42.6215421875C34.1734,42.8609421875,34.5773,42.9893421875,34.9914,42.989042187500004C35.3963,42.989042187500004,35.8013,42.8667421875,36.1463,42.6215421875L41.297799999999995,38.9698421875C44.3185,36.5982421875,45.9821,33.2034421875,45.9821,29.410642187500002L45.9821,22.5332521875C45.9824,22.1472721875,45.7599,21.7958721875,45.411,21.6303921875Z" fill="#FFE39B" fill-opacity="1" style="mix-blend-mode:passthrough"/></g><g clip-path="url(#master_svg4_164_08817)"><g><path d="M36.23572703125,25.9564328125C36.25986703125,25.8662328125,36.27125703125,25.7731028125,36.26957703125,25.6797428125C36.26922703125,24.9790088125,35.70107703125,24.4111328125,35.00033703125,24.4111328125C34.29960603125,24.4111328944564,33.73145270325,24.9790088125,33.73111078125,25.6797428125C33.72947690125,25.7731028125,33.74086884125,25.8662228125,33.76495683125,25.9564328125L34.30649503125,30.7592028125C34.32477003125,31.129092812499998,34.62999903125,31.4196128125,35.00033703125,31.4196128125C35.37068703125,31.4196128125,35.67590703125,31.129092812499998,35.69418703125,30.7592028125L36.23572703125,25.9564328125ZM35.00880703125,32.3423628125C35.62944703125,32.3277928125,36.14305703125,32.8217728125,36.15266703125,33.4425128125C36.16228703125,34.0632528125,35.66421703125,34.5729328125,35.04341703125,34.577532812499996C34.42262203125,34.582232812499996,33.91696603125,34.0801028125,33.91726503125,33.4592828125C33.91068403125,32.8496028125,34.39913603125,32.3497928125,35.00880703125,32.3423628125Z" fill="#FFFFFF" fill-opacity="1" style="mix-blend-mode:passthrough"/></g></g></g><g><rect x="6" y="8" width="18" height="3" rx="1.5" fill="#FFFFFF" fill-opacity="0.8999999761581421"/></g><g><rect x="6" y="17" width="12" height="3" rx="1.5" fill="#FFFFFF" fill-opacity="0.8999999761581421"/></g></g></svg>