<svg xmlns="http://www.w3.org/2000/svg"
  xmlns:xlink="http://www.w3.org/1999/xlink" fill="none" version="1.1" width="16" height="16" viewBox="0 0 16 16">
  <defs>
    <clipPath id="master_svg0_339_03435">
      <rect x="0" y="0" width="16" height="16" rx="0"/>
    </clipPath>
  </defs>
  <g clip-path="url(#master_svg0_339_03435)">
    <g>
      <path d="M3.2188260937499997,14L3.20549609375,14.0133L3.19149609375,14L1.99482909375,14C1.62947709375,13.9996,1.3334960142771,13.7034,1.33349609375,13.338L1.33349609375,2.662C1.33603477375,2.297704,1.63053609375,2.00290553,1.99482909375,2L14.00549609375,2C14.37079609375,2,14.66679609375,2.2966670000000002,14.66679609375,2.662L14.66679609375,13.338C14.66429609375,13.7023,14.36979609375,13.9971,14.00549609375,14L3.2188260937499997,14ZM13.33349609375,10L13.33349609375,3.33333L2.66682609375,3.33333L2.66682609375,12.6667L9.33349609375,6L13.33349609375,10ZM13.33349609375,11.88533L9.33349609375,7.88533L4.5521660937499995,12.6667L13.33349609375,12.6667L13.33349609375,11.88533ZM5.33349609375,7.33333C4.5971160937499995,7.33333,4.00016609375,6.73638,4.00016609375,6C4.00016609375,5.2636199999999995,4.5971160937499995,4.66667,5.33349609375,4.66667C6.06987609375,4.66667,6.66682609375,5.2636199999999995,6.66682609375,6C6.66682609375,6.73638,6.06987609375,7.33333,5.33349609375,7.33333Z" fill="#8A99A8" fill-opacity="1"/>
    </g>
  </g>
</svg>