<svg xmlns="http://www.w3.org/2000/svg"
  xmlns:xlink="http://www.w3.org/1999/xlink" fill="none" version="1.1" width="24" height="24" viewBox="0 0 24 24">
  <g>
    <g>
      <path d="M3.4050000000000002,3.75C2.560004,3.75,1.875,4.437191,1.875,5.28488L1.875,18.7151C1.875,19.5628,2.560004,20.25,3.4050000000000002,20.25L20.595,20.25C21.44,20.25,22.125,19.5628,22.125,18.7151L22.125,7.97093C22.125,7.12324,21.44,6.43605,20.595,6.43605L13.3311,6.43605L10.44643,3.75L3.4050000000000002,3.75ZM16.125,9.75C17.1643,9.75,18,10.585709999999999,18,11.625C18,12.66429,17.1643,13.5,16.125,13.5C15.0857,13.5,14.25,12.66429,14.25,11.625C14.25,10.585709999999999,15.0857,9.75,16.125,9.75ZM12,18L12,16.5938C12,15.2775,14.7461,14.625,16.125,14.625C17.5039,14.625,20.25,15.2775,20.25,16.5938L20.25,18L12,18Z" fill-rule="evenodd" fill="#FFFFFF" fill-opacity="1"/>
    </g>
  </g>
</svg>