<svg xmlns="http://www.w3.org/2000/svg" xmlns:xlink="http://www.w3.org/1999/xlink" fill="none" version="1.1" width="16" height="16" viewBox="0 0 16 16"><g><g></g><g><path d="M8.25008,1.75C9.42156,1.75,10.50343,2.1346220000000002,11.37686,2.78475L11.5063,2.88424C12.7208,3.84808,13.5,5.3389500000000005,13.5,7.01217C13.5017,8.08605,13.1741,9.13446,12.5617,10.01521C12.266,9.88478,11.9749,9.74386,11.68916,9.59272C11.66089,9.57782,11.63314,9.56198,11.60594,9.545200000000001C10.87272,9.06091,10.25824,8.81162,9.69593,8.81162C9.10187,8.81162,8.57405,9.10068,8.288,9.60563C8.0917,9.9503,8.033529999999999,10.36177,8.090499999999999,10.75C7.40344,10.64825,6.89535,10.50553,6.52162,10.32424C6.13634,10.13749,5.92772,9.9495,5.597659999999999,9.52328L5.37085,9.22586L5.26698,9.09221L5.17188,8.973220000000001C5.15659,8.954419999999999,5.14154,8.93609,5.12666,8.91816L5.03897,8.814820000000001C4.98122,8.748370000000001,4.92422,8.68608,4.86387,8.62344L4.77034,8.52866L4.72074,8.48003C4.12789,7.905,3.58925,7.58512,3.02557,7.53468C3.0085100000000002,7.36104,3,7.18665,3,7.01217C3,4.10605,5.3506599999999995,1.75,8.25008,1.75ZM7.75,3.75L6.75,3.75L7.25048,4.75L6.25,4.75L6.25,5.75L7.75,5.75L7.75,6.25L6.25,6.25L6.25,7.25L7.74975,7.25L7.75,8.25L8.75,8.25L8.75,7.25L10.25,7.25L10.25,6.25L8.75,6.25L8.75,5.75L10.25,5.75L10.25,4.75L9.24873,4.75L9.75,3.75L8.75,3.75L8.25,4.75L7.75,3.75ZM4.05837,8.99754C3.5357700000000003,8.48754,3.11043,8.25,2.719844,8.25C2.417446,8.25,2.156487,8.39522,1.98474,8.65869C1.6306289999999999,9.20309,1.74878038,10.18523,1.877205,10.48449C2.488652,11.9096,3.46314,12.8408,4.39886,13.4433L4.53223,13.5271C4.57657,13.5543,4.62078,13.5808,4.66481,13.6066L4.79634,13.6818C4.839980000000001,13.7062,4.88341,13.7299,4.92657,13.7529L5.05522,13.82L5.18205,13.883L5.3067899999999995,13.9423L5.42917,13.9979L5.54895,14.0498L5.72316,14.1212L5.83527,14.1645L5.99676,14.2235L6.14944,14.2756L6.29245,14.3211L6.38198,14.348L6.5069,14.3833L6.6198,14.4131L6.7198,14.4376L6.85541,14.4678L6.98262,14.492L7.03227,14.4986L7.06899,14.5L13.2482,14.5L13.2981,14.4988C13.8268,14.4728,14.2477,14.0362,14.2482,13.501L14.25,11.7567L14.2484,11.71708C14.2312,11.50764,14.0792,11.33206,13.8723,11.28925C13.6818,11.24982,13.4879,11.19853,13.2955,11.13965L13.1515,11.09414C13.1276,11.08634,13.1038,11.07844,13.0799,11.07045L12.9377,11.02143L12.7973,10.97057L12.6591,10.91828L12.4569,10.83802L12.2625,10.7568L12.1379,10.70278L12.0179,10.64933L11.9029,10.59686L11.74104,10.52086L11.50326,10.40476L11.31192,10.30731L11.08636,10.18709L11.0014,10.13078C10.39584,9.73313,9.9154,9.53952,9.534749999999999,9.53952C9.199480000000001,9.53952,8.92003,9.69339,8.769169999999999,9.96135C8.57396,10.30677,8.63715,10.76801,8.79965,11.04532L8.84714,11.12286L8.906500000000001,11.21544L8.97549,11.32007L9.09217,11.49301L9.17551,11.61461L8.92834,11.59752L8.69176,11.57828C8.576080000000001,11.56812,8.46426,11.55717,8.35614,11.54545L8.14478,11.521C8.007100000000001,11.50403,7.8758,11.48573,7.75049,11.46615L7.56698,11.43584L7.39216,11.40368C7.30688,11.38713,7.22474,11.36991,7.1456,11.35204L6.99124,11.31542C6.74045,11.25296,6.52162,11.18343,6.32867,11.10779L6.21595,11.06167C6.1611,11.03826,6.10846,11.01431,6.05788,10.98986L5.9594,10.94028L5.86611,10.8894L5.77772,10.83726L5.69392,10.7839C5.6531199999999995,10.75693,5.6139399999999995,10.72952,5.5762,10.7017L5.50262,10.64552C5.4787099999999995,10.62661,5.4553899999999995,10.60753,5.43262,10.58829L5.3659,10.53005L5.30217,10.47085L5.24113,10.41075L5.1825,10.34978L5.0984300000000005,10.2568L5.01812,10.16213L4.96619,10.09816L4.85599,9.95677L4.68127,9.72545L4.5435300000000005,9.5461C4.40213,9.36566,4.24741,9.182179999999999,4.05837,8.99754Z" fill-rule="evenodd" fill="#1677ff" fill-opacity="1"/></g></g></svg>