<svg xmlns="http://www.w3.org/2000/svg" xmlns:xlink="http://www.w3.org/1999/xlink" fill="none" version="1.1" width="16" height="16" viewBox="0 0 16 16"><g><g><path d="M2.75875,5.0381599999999995C2.342907,4.83197,2.342907,4.24253,2.75875,4.03634L7.74779,1.5592518C7.90634,1.4802494,8.09367,1.4802494,8.252220000000001,1.5592518L13.2412,4.03634C13.6571,4.24253,13.6571,4.83197,13.2412,5.0381599999999995L8.252220000000001,7.51525C8.09367,7.59425,7.90634,7.59425,7.74779,7.51525L2.75875,5.0381599999999995ZM1.75,11.44665C1.75,11.6512,1.862284,11.8389,2.042842,11.9369L6.64819,14.4308C7.02228,14.6342,7.47932,14.3647,7.47932,13.9411L7.47932,9.005980000000001C7.47932,8.80203,7.36703,8.613769999999999,7.18648,8.51628L2.581129,6.02182C2.2064719999999998,5.81899,1.75,6.08849,1.75,6.51208L1.75,11.44665ZM9.35803,14.4279L13.9549,11.9379C14.1372,11.8393,14.25,11.6499,14.25,11.44426L14.25,6.51866C14.25,6.09171,13.7902,5.82052,13.4132,6.02503L8.81579,8.51501C8.6341,8.613620000000001,8.52069,8.803,8.52069,9.00863L8.52069,13.9342C8.52069,14.3612,8.980550000000001,14.6324,9.35803,14.4279ZM5.79278,10.708L2.78537,9.063130000000001L2.78537,7.80518L5.79278,9.49344L5.79278,10.708Z" fill-rule="evenodd" fill="#707B8C" fill-opacity="1"/></g></g></svg>