<svg xmlns="http://www.w3.org/2000/svg" xmlns:xlink="http://www.w3.org/1999/xlink" fill="none" version="1.1" width="16" height="16" viewBox="0 0 16 16"><g><g><path d="M11.25,1.75C11.8023,1.75,12.25,2.197715,12.25,2.75L12.25,13.25L13.2373,13.25L13.2373,4.75L14.2373,4.75L14.2373,13.75C14.2373,14.0136,14.0333,14.2295,13.7746,14.2486L13.7373,14.25L2.75,14.25C2.197715,14.25,1.75,13.8023,1.75,13.25L1.75,2.75C1.75,2.197715,2.197715,1.75,2.75,1.75L11.25,1.75ZM5.5,4.75L6.5,4.75L7,5.75L7.5,4.75L8.5,4.75L7.99873,5.75L9,5.75L9,6.75L7.5,6.75L7.5,7.25L9,7.25L9,8.25L7.5,8.25L7.5,9.25L6.5,9.25L6.49975,8.25L5,8.25L5,7.25L6.5,7.25L6.5,6.75L5,6.75L5,5.75L6.00048,5.75L5.5,4.75ZM9,12.25L9,11.25L5,11.25L5,12.25L9,12.25Z" fill-rule="evenodd" fill="#1677ff" fill-opacity="1"/></g></g></svg>