<svg xmlns="http://www.w3.org/2000/svg" xmlns:xlink="http://www.w3.org/1999/xlink" fill="none" version="1.1" width="16" height="16" viewBox="0 0 16 16"><g><g><path d="M1,8.25C1,12.1158,4.13425,15.25,8,15.25C11.8658,15.25,15,12.1158,15,8.25C15,4.38425,11.8658,1.25,8,1.25C4.13425,1.25,1,4.38425,1,8.25ZM8,14.25C4.6916,14.25,2,11.5584,2,8.25C2,4.9416,4.6916,2.25,8,2.25C11.3084,2.25,14,4.9416,14,8.25C14,11.5584,11.3084,14.25,8,14.25ZM3,8.25C3,11.00688,5.24312,13.25,8,13.25C10.75688,13.25,13,11.00688,13,8.25C13,5.49312,10.75688,3.25,8,3.25C5.24312,3.25,3,5.49312,3,8.25ZM7.5,6L8,7L8.5,6L9.5,6L8.99873,7L10,7L10,8L8.5,8L8.5,8.5L10,8.5L10,9.5L8.5,9.5L8.5,10.5L7.5,10.5L7.5,9.5L6,9.5L6,8.5L7.5,8.5L7.5,8L6,8L6,7L7.00048,7L6.5,6L7.5,6Z" fill-rule="evenodd" fill="#1677ff" fill-opacity="1"/></g></g></svg>