<svg xmlns="http://www.w3.org/2000/svg" xmlns:xlink="http://www.w3.org/1999/xlink" fill="none" version="1.1" width="16" height="16" viewBox="0 0 16 16"><g><g><path d="M12.6789,2.334312L8.178889999999999,1.5161301C8.0606,1.4946233,7.9394,1.4946233,7.82111,1.5161301L3.321115,2.334312C2.845624,2.420765,2.5,2.8349,2.5,3.31818L2.5,10.66298C2.5,11.01663,2.686799,11.34399,2.9912710000000002,11.5239L7.49127,14.183C7.80508,14.3684,8.19492,14.3684,8.50873,14.183L13.0087,11.5239C13.3132,11.34399,13.5,11.01663,13.5,10.66298L13.5,3.31818C13.5,2.8349,13.1544,2.420765,12.6789,2.334312ZM6.5,5L7.5,5L8,6L8.5,5L9.5,5L8.99873,6L10,6L10,7L8.5,7L8.5,7.5L10,7.5L10,8.5L8.5,8.5L8.5,9.5L7.5,9.5L7.49975,8.5L6,8.5L6,7.5L7.5,7.5L7.5,7L6,7L6,6L7.00048,6L6.5,5Z" fill-rule="evenodd" fill="#1677ff" fill-opacity="1"/></g></g></svg>