<svg xmlns="http://www.w3.org/2000/svg" xmlns:xlink="http://www.w3.org/1999/xlink" fill="none" version="1.1" width="16" height="16" viewBox="0 0 16 16"><g><g><path d="M14,2.5C14.5523,2.5,15,2.947715,15,3.5L15,12.5C15,13.0523,14.5523,13.5,14,13.5L2,13.5C1.447715,13.5,1,13.0523,1,12.5L1,3.5C1,2.947715,1.447715,2.5,2,2.5L14,2.5ZM13.5,4.5L2.5,4.5L2.5,5.5L13.5,5.5L13.5,4.5ZM5,7L6,7L5.49873,8L6.5,8L6.5,9L5,9L5,9.5L6.5,9.5L6.5,10.5L5,10.5L5,11.5L4,11.5L3.99975,10.5L2.5,10.5L2.5,9.5L4,9.5L4,9L2.5,9L2.5,8L3.50048,8L3,7L4,7L4.5,8L5,7ZM13.5,7.75L8,7.75L8,8.75L13.5,8.75L13.5,7.75ZM13.5,9.75L8,9.75L8,10.75L13.5,10.75L13.5,9.75Z" fill-rule="evenodd" fill="#1677ff" fill-opacity="1"/></g></g></svg>