<svg xmlns="http://www.w3.org/2000/svg" xmlns:xlink="http://www.w3.org/1999/xlink" fill="none" version="1.1" width="16" height="16" viewBox="0 0 16 16"><g><g><path d="M4.25,1C3.283502,1,2.5,1.783502,2.5,2.75L2.5,13.25C2.5,14.2165,3.283502,15,4.25,15L12.5,15C12.9783,15,13.3781,14.6642,13.4767,14.2156C13.0933,13.8641,12.875,13.3777,12.875,12.875C12.875,12.3618,13.1025,11.8662,13.5,11.5134L13.5,2C13.5,1.447715,13.0523,1,12.5,1L4.25,1ZM4.5,2L7,2L7,6L6.06908,5.33343C5.99554,5.2798,5.89386,5.24879,5.78687,5.24737C5.67989,5.24595,5.576560000000001,5.27424,5.5000800000000005,5.32588L4.5,5.99216L4.5,2ZM3.5,12.75C3.5,13.4393,3.94006,14,4.48086,14L12.49447,14C11.96816,13.4509,11.73874,12.3998,12.49492,11.5L4.48086,11.5C3.94006,11.5,3.5,12.0607,3.5,12.75Z" fill-rule="evenodd" fill="#1677ff" fill-opacity="1"/></g></g></svg>