<svg xmlns="http://www.w3.org/2000/svg" xmlns:xlink="http://www.w3.org/1999/xlink" fill="none" version="1.1" width="16" height="16" viewBox="0 0 16 16"><g><g><path d="M12.5,2.75C12.5,2.197715,12.0523,1.75,11.5,1.75L4.5,1.75C3.94772,1.75,3.5,2.197715,3.5,2.75L3.5,11.74975L1.75,11.75L8,14.25L14.25,11.75L12.5,11.74975L12.5,2.75ZM6.5,4.75L7.5,4.75L8,5.75L8.5,4.75L9.5,4.75L8.99873,5.75L10,5.75L10,6.75L8.5,6.75L8.5,7.25L10,7.25L10,8.25L8.5,8.25L8.5,9.25L7.5,9.25L7.49975,8.25L6,8.25L6,7.25L7.5,7.25L7.5,6.75L6,6.75L6,5.75L7.00048,5.75L6.5,4.75Z" fill-rule="evenodd" fill="#1677ff" fill-opacity="1"/></g></g></svg>