<svg xmlns="http://www.w3.org/2000/svg"
  xmlns:xlink="http://www.w3.org/1999/xlink" fill="none" version="1.1" width="16" height="16" viewBox="0 0 16 16">
  <g>
    <g>
      <path d="M12,2L12,1L4,1L4,2L12,2ZM13.5,4C13.5,3.44772,13.0523,3,12.5,3L3.5,3C2.947715,3,2.5,3.44772,2.5,4L2.5,14C2.5,14.5523,2.947715,15,3.5,15L12.5,15C13.0523,15,13.5,14.5523,13.5,14L13.5,4ZM6.94039,6.22168L4.13562,9.08925L4.85051,9.78849L6.94792,7.64366L9.06565,9.76115L11.89025,6.93655L11.18314,6.22945L9.065349999999999,8.346879999999999L6.94039,6.22168ZM4,12L12,12L12,13L4,13L4,12Z" fill-rule="evenodd" fill="#1677ff" fill-opacity="1"/>
    </g>
  </g>
</svg>