<svg xmlns="http://www.w3.org/2000/svg" xmlns:xlink="http://www.w3.org/1999/xlink" fill="none" version="1.1" width="16" height="16" viewBox="0 0 16 16"><g><g><path d="M13.0204,1.5L2.9795920000000002,1.5C2.438578,1.5,2,1.947715,2,2.5L2,13.5C2,14.0523,2.438578,14.5,2.9795920000000002,14.5L13.0204,14.5C13.5614,14.5,14,14.0523,14,13.5L14,2.5C14,1.947715,13.5614,1.5,13.0204,1.5ZM9.95338,3.4904200000000003L10.50958,4.04662C10.64236,4.179399999999999,10.64236,4.39468,10.50958,4.52745L7.20139,7.83565L5.5,8.5L6.16435,6.79861L9.47255,3.4904200000000003C9.60533,3.35764,9.820599999999999,3.35764,9.95338,3.4904200000000003ZM5,9.91L5,9.59Q5,9.55651,5.00653,9.52367Q5.01307,9.490829999999999,5.02588,9.45989Q5.0387,9.42895,5.0573,9.40111Q5.0759,9.37326,5.09958,9.34958Q5.12326,9.3259,5.15111,9.3073Q5.17895,9.288689999999999,5.20989,9.27588Q5.24083,9.263069999999999,5.27367,9.25653Q5.306509999999999,9.25,5.34,9.25L10.66,9.25Q10.69349,9.25,10.72633,9.25653Q10.75917,9.263069999999999,10.79011,9.27588Q10.82105,9.288689999999999,10.84889,9.3073Q10.87674,9.3259,10.90042,9.34958Q10.9241,9.37326,10.9427,9.40111Q10.9613,9.42895,10.97412,9.45989Q10.98693,9.490829999999999,10.99347,9.52367Q11,9.55651,11,9.59L11,9.91Q11,9.94349,10.99347,9.97633Q10.98693,10.00917,10.97412,10.04011Q10.9613,10.07105,10.9427,10.09889Q10.9241,10.12674,10.90042,10.15042Q10.87674,10.17409,10.84889,10.1927Q10.82105,10.2113,10.79011,10.22412Q10.75917,10.23693,10.72633,10.24347Q10.69349,10.25,10.66,10.25L5.34,10.25Q5.306509999999999,10.25,5.27367,10.24347Q5.24083,10.23693,5.20989,10.22412Q5.17895,10.2113,5.15111,10.1927Q5.12326,10.17409,5.09958,10.15042Q5.0759,10.12674,5.0573,10.09889Q5.0387,10.07105,5.02588,10.04011Q5.01307,10.00917,5.00653,9.97633Q5,9.94349,5,9.91ZM5,11.84L5,12.16Q5,12.1935,5.00653,12.2263Q5.01307,12.2592,5.02588,12.2901Q5.0387,12.321,5.0573,12.3489Q5.0759,12.3767,5.09958,12.4004Q5.12326,12.4241,5.15111,12.4427Q5.17895,12.4613,5.20989,12.4741Q5.24083,12.4869,5.27367,12.4935Q5.306509999999999,12.5,5.34,12.5L10.66,12.5Q10.69349,12.5,10.72633,12.4935Q10.75917,12.4869,10.79011,12.4741Q10.82105,12.4613,10.84889,12.4427Q10.87674,12.4241,10.90042,12.4004Q10.9241,12.3767,10.9427,12.3489Q10.9613,12.321,10.97412,12.2901Q10.98693,12.2592,10.99347,12.2263Q11,12.1935,11,12.16L11,11.84Q11,11.8065,10.99347,11.7737Q10.98693,11.7408,10.97412,11.7099Q10.9613,11.6789,10.9427,11.6511Q10.9241,11.6233,10.90042,11.5996Q10.87674,11.5759,10.84889,11.5573Q10.82105,11.5387,10.79011,11.5259Q10.75917,11.5131,10.72633,11.5065Q10.69349,11.5,10.66,11.5L5.34,11.5Q5.306509999999999,11.5,5.27367,11.5065Q5.24083,11.5131,5.20989,11.5259Q5.17895,11.5387,5.15111,11.5573Q5.12326,11.5759,5.09958,11.5996Q5.0759,11.6233,5.0573,11.6511Q5.0387,11.6789,5.02588,11.7099Q5.01307,11.7408,5.00653,11.7737Q5,11.8065,5,11.84Z" fill-rule="evenodd" fill="#1677ff" fill-opacity="1"/></g></g></svg>