<svg xmlns="http://www.w3.org/2000/svg" xmlns:xlink="http://www.w3.org/1999/xlink" fill="none" version="1.1" width="16" height="16" viewBox="0 0 16 16"><g><g><path d="M15,3.5C15,2.947715,14.5523,2.5,14,2.5L2,2.5C1.447715,2.5,1,2.947715,1,3.5L1,6C2.10457,6,3,6.89543,3,8C3,9.104569999999999,2.10457,10,1,10L1,12.5C1,13.0523,1.447715,13.5,2,13.5L14,13.5C14.5523,13.5,15,13.0523,15,12.5L15,10C13.8954,10,13,9.104569999999999,13,8C13,6.89543,13.8954,6,15,6L15,3.5ZM3.5,3.5L4.5,3.5L4.5,5.5L3.5,5.5L3.5,3.5ZM12.5,3.5L11.5,3.5L11.5,5.5L12.5,5.5L12.5,3.5ZM6.5,5.75L7.5,5.75L8,6.75L8.5,5.75L9.5,5.75L8.99873,6.75L10,6.75L10,7.75L8.5,7.75L8.5,8.25L10,8.25L10,9.25L8.5,9.25L8.5,10.25L7.5,10.25L7.49975,9.25L6,9.25L6,8.25L7.5,8.25L7.5,7.75L6,7.75L6,6.75L7.00048,6.75L6.5,5.75ZM4.5,10.5L3.5,10.5L3.5,12.5L4.5,12.5L4.5,10.5ZM11.5,10.5L12.5,10.5L12.5,12.5L11.5,12.5L11.5,10.5Z" fill-rule="evenodd" fill="#707B8C" fill-opacity="1"/></g></g></svg>