<svg xmlns="http://www.w3.org/2000/svg"
  xmlns:xlink="http://www.w3.org/1999/xlink" fill="none" version="1.1" width="21" height="24" viewBox="0 0 21 24">
  <defs>
    <filter id="master_svg0_63_00533" filterUnits="objectBoundingBox" color-interpolation-filters="sRGB" x="0" y="0" width="21" height="24">
      <feFlood flood-opacity="0" result="BackgroundImageFix"/>
      <feBlend mode="normal" in="SourceGraphic" in2="BackgroundImageFix" result="shape"/>
      <feGaussianBlur stdDeviation="0" result="effect1_foregroundBlur"/>
    </filter>
  </defs>
  <g filter="url(#master_svg0_63_00533)">
    <path d="M11.6001,0L9.27708,0.299142L9.09286,2.93993L6.94825,1.70535L6.2971,3.42542L9.31299,5.7168L9.31299,9.9293L5.55906,7.64283L5.76298,3.81038L5.70157,3.82632L1.7947,10.7188L4.3819,9.61545L7.83112,11.9755L4.70516,13.6735L1.18063,11.7965L0.238676,13.4736L2.68684,15.1974L0,17.2105L1.7611,18.6682L4.00303,16.9738L4.32166,20.2387L5.92403,18.765L6.14185,15.781L9.18091,13.7323L8.86692,18.3825L5.99586,20.2485L7.18113,22.2787L9.19713,20.6714L9.36397,24L11.6465,23.6065L12.0334,20.9681L13.6219,22.2432L14.2974,20.2828L12.0334,18.0809L11.6001,14.1246L14.7168,16.4785L14.901,19.3694L16.7618,20.2828L17.0456,17.6383L19.6514,19.0654L20.4856,17.0069L17.7454,15.5872L20.0708,13.9898L18.1637,12.7123L15.9727,14.2705L12.2513,11.9755L16.026,9.82509L18.9481,11.8333L20.1588,10.1181L17.5994,8.8492L21,7.047L19.4671,5.27421L17.2229,6.40458L16.9529,3.56886L14.8083,4.45403L14.8083,7.43441L11.6001,9.82509L11.8307,6.01839L14.8952,3.45729L14.1479,1.45157L11.4588,3.08214L11.6001,0Z" fill-rule="evenodd" fill="#569ADE" fill-opacity="1"/>
  </g>
</svg>