<svg xmlns="http://www.w3.org/2000/svg" xmlns:xlink="http://www.w3.org/1999/xlink" fill="none" version="1.1" width="24" height="24" viewBox="0 0 24 24"><g><g></g><g><path d="M12.1875,1.5C10.99561,1.5,9.933150000000001,2.251275,9.53585,3.375L5.25,3.375C4.421573,3.375,3.75,4.04657,3.75,4.875L3.75,21C3.75,21.8284,4.421573,22.5,5.25,22.5L18.75,22.5C19.578400000000002,22.5,20.25,21.8284,20.25,21L20.25,4.875C20.25,4.04657,19.578400000000002,3.375,18.75,3.375L14.8392,3.375C14.4419,2.251275,13.37939,1.5,12.1875,1.5ZM12.19156,3.375C11.671610000000001,3.375,11.2501,3.78473,11.2501,4.29016C11.24647,4.5394000000000005,11.344100000000001,4.7799700000000005,11.521799999999999,4.95969C11.690909999999999,5.14436,11.93314,5.25,12.18749,5.25C12.44183,5.25,12.68406,5.14436,12.85317,4.95969C13.02975,4.77928,13.1272,4.53916,13.12488,4.29016C13.12896,4.04784,13.03077,3.81448,12.85317,3.6444C12.67861,3.47035,12.43748,3.3746799999999997,12.18749,3.38028L12.19156,3.375ZM10.51205,8.65831C10.96115,8.39003,11.47474,8.248899999999999,11.99787,8.25001C12.52284,8.24858,13.03834,8.389700000000001,13.48937,8.65831C13.9464,8.9237,14.3262,9.303930000000001,14.591,9.76129C15.1363,10.67877,15.1363,11.821,14.591,12.7385C14.3257,13.1951,13.946,13.5748,13.48937,13.8401C12.57219,14.3866,11.42923,14.3866,10.51205,13.8401C10.05434,13.5757,9.674,13.1958,9.40903,12.7385C8.86366,11.821,8.86366,10.67877,9.40903,9.76129C9.67397,9.30354,10.05428,8.92324,10.51205,8.65831ZM18,18.8283L18,20.25L6,20.25L6,18.8353Q6,17.9045,7.1034299999999995,17.1378Q8.039290000000001,16.491300000000003,9.55172,16.109299999999998C10.34883,15.8848,11.171759999999999,15.764,12,15.75C12.82792,15.7619,13.65082,15.8803,14.4483,16.1022C15.4556,16.357799999999997,16.2712,16.7006,16.8951,17.130699999999997Q18,17.8974,18,18.8283Z" fill-rule="evenodd" fill="#7BD9D7" fill-opacity="1"/></g></g></svg>