<svg xmlns="http://www.w3.org/2000/svg" xmlns:xlink="http://www.w3.org/1999/xlink" fill="none" version="1.1" width="24" height="24" viewBox="0 0 24 24"><g><g><path d="M14.7,2.625C15.0728,2.625,15.375,2.927208,15.375,3.3L15.375,8.7C15.375,9.072790000000001,15.0728,9.375,14.7,9.375L12.75,9.375L12.75,11.25L18,11.25C18.395400000000002,11.25,18.7193,11.55595,18.7479,11.94403L18.75,12L18.75,14.625L20.7,14.625C21.0728,14.625,21.375,14.9272,21.375,15.3L21.375,20.7C21.375,21.0728,21.0728,21.375,20.7,21.375L15.3,21.375C14.9272,21.375,14.625,21.0728,14.625,20.7L14.625,15.3C14.625,14.9272,14.9272,14.625,15.3,14.625L17.25,14.625L17.25,12.75L6.75,12.75L6.75,14.625L8.7,14.625C9.072790000000001,14.625,9.375,14.9272,9.375,15.3L9.375,20.7C9.375,21.0728,9.072790000000001,21.375,8.7,21.375L3.3,21.375C2.927208,21.375,2.625,21.0728,2.625,20.7L2.625,15.3C2.625,14.9272,2.927208,14.625,3.3,14.625L5.25,14.625L5.25,12C5.25,11.60461,5.55595,11.28069,5.94403,11.25206L6,11.25L11.25,11.25L11.25,9.375L9.3,9.375C8.927209999999999,9.375,8.625,9.072790000000001,8.625,8.7L8.625,3.3C8.625,2.927208,8.927209999999999,2.625,9.3,2.625L14.7,2.625Z" fill-rule="evenodd" fill="#FAAD14" fill-opacity="1"/></g></g></svg>