<svg xmlns="http://www.w3.org/2000/svg" xmlns:xlink="http://www.w3.org/1999/xlink" fill="none" version="1.1" width="24" height="24" viewBox="0 0 24 24"><g><g><path d="M18,3L18,1.5L6,1.5L6,3L18,3ZM20.25,6C20.25,5.17157,19.578400000000002,4.5,18.75,4.5L5.25,4.5C4.421573,4.5,3.75,5.17157,3.75,6L3.75,21C3.75,21.8284,4.421573,22.5,5.25,22.5L18.75,22.5C19.578400000000002,22.5,20.25,21.8284,20.25,21L20.25,6ZM10.41059,9.332519999999999L6.20343,13.6339L7.27577,14.6827L10.42188,11.46549L13.59847,14.6417L17.8354,10.40483L16.7747,9.34417L13.59803,12.5203L10.41059,9.332519999999999ZM6,18L18,18L18,19.5L6,19.5L6,18Z" fill-rule="evenodd" fill="#FF8801" fill-opacity="1"/></g></g></svg>