<svg xmlns="http://www.w3.org/2000/svg" xmlns:xlink="http://www.w3.org/1999/xlink" fill="none" version="1.1" width="24" height="24" viewBox="0 0 24 24"><g><g><path d="M21,3.75C21.8284,3.75,22.5,4.421573,22.5,5.25L22.5,18.75C22.5,19.578400000000002,21.8284,20.25,21,20.25L3,20.25C2.171573,20.25,1.5,19.578400000000002,1.5,18.75L1.5,5.25C1.5,4.421573,2.171573,3.75,3,3.75L21,3.75ZM20.25,6.75L3.75,6.75L3.75,8.25L20.25,8.25L20.25,6.75ZM7.5,10.5L9,10.5L8.248090000000001,12L9.75,12L9.75,13.5L7.5,13.5L7.5,14.25L9.75,14.25L9.75,15.75L7.5,15.75L7.5,17.25L6,17.25L5.99963,15.75L3.75,15.75L3.75,14.25L6,14.25L6,13.5L3.75,13.5L3.75,12L5.25073,12L4.5,10.5L6,10.5L6.75,12L7.5,10.5ZM20.25,11.625L12,11.625L12,13.125L20.25,13.125L20.25,11.625ZM20.25,14.625L12,14.625L12,16.125L20.25,16.125L20.25,14.625Z" fill-rule="evenodd" fill="#722ED1" fill-opacity="1"/></g></g></svg>