<svg xmlns="http://www.w3.org/2000/svg" xmlns:xlink="http://www.w3.org/1999/xlink" fill="none" version="1.1" width="24" height="24" viewBox="0 0 24 24"><g><g><path d="M7.5,5.25L7.5,3.75L6,3.75L6,5.25L3,5.25C2.171573,5.25,1.5,5.86052,1.5,6.61364L1.5,18.886400000000002C1.5,19.639499999999998,2.171573,20.25,3,20.25L21,20.25C21.8284,20.25,22.5,19.639499999999998,22.5,18.886400000000002L22.5,6.61364C22.5,5.86052,21.8284,5.25,21,5.25L18,5.25L18,3.75L16.5,3.75L16.5,5.25L12.75,5.25L12.75,3.75L11.25,3.75L11.25,5.25L7.5,5.25ZM16.125,10.5L12,14.7074L13.0222,15.75L16.1249,12.58488L19.2278,15.75L20.25,14.7074L16.125,10.5ZM4.5,10.875L10.875,10.875L10.875,12.375L4.5,12.375L4.5,10.875ZM4.5,14.625L9,14.625L9,16.125L4.5,16.125L4.5,14.625Z" fill-rule="evenodd" fill="#626BE7" fill-opacity="1"/></g></g></svg>