<svg xmlns="http://www.w3.org/2000/svg"
  xmlns:xlink="http://www.w3.org/1999/xlink" fill="#626BE7" fill-opacity="1" version="1.1" width="24" height="24" viewBox="0 0 24 24">
  <defs>
    <clipPath id="master_svg0_42_3663">
      <rect x="2" y="2" width="20" height="20" rx="0"/>
    </clipPath>
  </defs>
  <g>
    <g>
      <g clip-path="url(#master_svg0_42_3663)">
        <g>
          <path d="M21.08838828125,7.62260078125L14.17838828125,10.93760078125L11.46462828125,15.70450078125C11.40950828125,15.81040078125,11.32188828125,15.89580078125,11.21462828125,15.94820078125L9.84962828125,16.61950078125C9.767348281250001,16.638300781250003,9.68190828125,16.638300781250003,9.59962828125,16.61950078125C9.46487828125,16.61970078125,9.33466828125,16.57080078125,9.233378281250001,16.48200078125C9.05324828125,16.32260078125,8.98182828125,16.07320078125,9.050258281249999,15.84260078125L9.89962828125,12.92385078125L8.23462828125,13.75323078125L8.10087828125,13.75323078125C6.94275828125,14.19070078125,5.64462828125,13.89448078125,4.77087828125,12.99323078125L2.19025428125,10.50635078125C2.04615298125,10.36795078125,1.97792188125,10.16838078125,2.00712886125,9.970730781250001C2.03491798125,9.77435078125,2.16031928125,9.60542078125,2.34025428125,9.52198078125L3.52275828125,8.95198078125C3.66650828125,8.88948078125,3.82837828125,8.88948078125,3.97212828125,8.95198078125L6.56900828125,10.23010078125L10.33337828125,8.070730781249999L6.92212828125,6.34385078125C6.71716828125,6.23577078125,6.58892828125,6.02307078125,6.58900828125,5.79135078125C6.58460828125,5.55830078125,6.71407828125,5.34333078125,6.92212828125,5.2382307812499995L8.45150828125,4.49572978125C8.57550828125,4.45223378125,8.710628281249999,4.45223378125,8.83462828125,4.49572978125L14.56208828125,5.99823078125L17.69208828125,4.49573078125C18.59218828125,4.01249078125,19.67458828125,4.01249078125,20.57458828125,4.49573078125C21.28088828125,4.56135578125,21.85648828125,5.11073078125,21.97778828125,5.83573078125C22.09898828125,6.56073078125,21.73528828125,7.27948078125,21.09088828125,7.58698078125L21.08838828125,7.6219807812500004L21.08838828125,7.62260078125ZM19.89588828125,20.17450078125L4.06150828125,20.17450078125C3.61043828125,20.16210078125,3.25118828125,19.792900781249998,3.25118828125,19.341700781249997C3.25118828125,18.89040078125,3.61043828125,18.521200781250002,4.06150828125,18.50890078125L19.89588828125,18.50890078125C20.34698828125,18.521200781250002,20.70618828125,18.89040078125,20.70618828125,19.341700781249997C20.70618828125,19.792900781249998,20.34698828125,20.16210078125,19.89588828125,20.17450078125Z" style="mix-blend-mode:passthrough"/>
        </g>
      </g>
    </g>
  </g>
</svg>