<svg xmlns="http://www.w3.org/2000/svg" xmlns:xlink="http://www.w3.org/1999/xlink" fill="none" version="1.1" width="24" height="24" viewBox="0 0 24 24"><g><g><path d="M19.7812,3.190625L21.3438,8.65937Q21.3641,8.73125,21.375,8.875L21.375,19.8187C21.375,20.6781,20.6781,21.375,19.8187,21.375L4.18125,21.375C3.321875,21.375,2.625,20.6781,2.625,19.8187L2.625,8.875Q2.6359375,8.73125,2.6546875,8.65937L4.21719,3.190625C4.31406,2.85625,4.61875,2.625,4.96875,2.625L19.0312,2.625C19.3813,2.625,19.6859,2.85625,19.7812,3.190625ZM5.6070899999999995,4.125L4.5,7.875L19.5,7.875L18.392899999999997,4.125L5.6070899999999995,4.125ZM7.875,12L7.875,13.5L16.125,13.5L16.125,12L7.875,12ZM9.75,16.5L9.75,15L14.25,15L14.25,16.5L9.75,16.5Z" fill-rule="evenodd" fill="#7BD9D7" fill-opacity="1"/></g></g></svg>