<svg xmlns="http://www.w3.org/2000/svg" xmlns:xlink="http://www.w3.org/1999/xlink" fill="none" version="1.1" width="24" height="24" viewBox="0 0 24 24"><g><g><path d="M19.0183,3.5014700000000003L12.26833,2.2741951C12.0909,2.24193496,11.9091,2.24193496,11.731670000000001,2.2741951L4.98167,3.5014700000000003C4.268436,3.63115,3.75,4.25234,3.75,4.97727L3.75,15.9945C3.75,16.524900000000002,4.030198,17.016,4.486906,17.285899999999998L11.23691,21.2745C11.70762,21.5526,12.29238,21.5526,12.76309,21.2745L19.5131,17.285899999999998C19.9698,17.016,20.25,16.524900000000002,20.25,15.9945L20.25,4.97727C20.25,4.25234,19.7316,3.63115,19.0183,3.5014700000000003ZM9.75,7.5L11.25,7.5L12,9L12.75,7.5L14.25,7.5L13.49809,9L15,9L15,10.5L12.75,10.5L12.75,11.25L15,11.25L15,12.75L12.75,12.75L12.75,14.25L11.25,14.25L11.24963,12.75L9,12.75L9,11.25L11.25,11.25L11.25,10.5L9,10.5L9,9L10.50073,9L9.75,7.5Z" fill-rule="evenodd" fill="#FF8801" fill-opacity="1"/></g></g></svg>