<svg xmlns="http://www.w3.org/2000/svg" xmlns:xlink="http://www.w3.org/1999/xlink" fill="none" version="1.1" width="24" height="24" viewBox="0 0 24 24"><g><g><path d="M6.73229,2.625C7.09223,2.625,7.3983,2.879982,7.46769,3.227601L7.47704,3.286368L7.75535,5.625L19.8753,5.625C20.7036,5.625,21.375,6.29657,21.375,7.125C21.375,7.20938,21.3679,7.29361,21.3537,7.3768L20.4599,12.6268C20.3372,13.3477,19.7126,13.875,18.9815,13.875L8.73715,13.875L8.91562,15.3747L20.2518,15.375L20.2518,16.875L8.24967,16.875C7.88974,16.875,7.58367,16.619999999999997,7.51427,16.272399999999998L7.50493,16.2136L6.066,4.12475L2.625,4.125L2.625,2.625L6.73229,2.625ZM9,21.375C9.82843,21.375,10.5,20.7034,10.5,19.875C10.5,19.0466,9.82843,18.375,9,18.375C8.17157,18.375,7.5,19.0466,7.5,19.875C7.5,20.7034,8.17157,21.375,9,21.375ZM18.75,21.375C19.5784,21.375,20.25,20.7034,20.25,19.875C20.25,19.0466,19.5784,18.375,18.75,18.375C17.921599999999998,18.375,17.25,19.0466,17.25,19.875C17.25,20.7034,17.921599999999998,21.375,18.75,21.375Z" fill-rule="evenodd" fill="#626BE7" fill-opacity="1"/></g></g></svg>