<svg xmlns="http://www.w3.org/2000/svg" xmlns:xlink="http://www.w3.org/1999/xlink" fill="none" version="1.1" width="24" height="24" viewBox="0 0 24 24"><g><g><path d="M18.75,4.125C18.75,3.296573,18.078400000000002,2.625,17.25,2.625L6.75,2.625C5.92157,2.625,5.25,3.296573,5.25,4.125L5.25,17.6246L2.625,17.625L12,21.375L21.375,17.625L18.75,17.6246L18.75,4.125ZM9.75,7.125L11.25,7.125L12,8.625L12.75,7.125L14.25,7.125L13.4981,8.625L15,8.625L15,10.125L12.75,10.125L12.75,10.875L15,10.875L15,12.375L12.75,12.375L12.75,13.875L11.25,13.875L11.24963,12.375L9,12.375L9,10.875L11.25,10.875L11.25,10.125L9,10.125L9,8.625L10.50073,8.625L9.75,7.125Z" fill-rule="evenodd" fill="#FF8801" fill-opacity="1"/></g></g></svg>