<svg xmlns="http://www.w3.org/2000/svg" xmlns:xlink="http://www.w3.org/1999/xlink" fill="none" version="1.1" width="24" height="24" viewBox="0 0 24 24"><g><g><path d="M16.875,2.625C17.703400000000002,2.625,18.375,3.296573,18.375,4.125L18.375,19.875L19.8559,19.875L19.8559,7.125L21.3559,7.125L21.3559,20.625C21.3559,21.0204,21.0499,21.3443,20.6619,21.3729L20.6059,21.375L4.125,21.375C3.296573,21.375,2.625,20.7034,2.625,19.875L2.625,4.125C2.625,3.296573,3.296573,2.625,4.125,2.625L16.875,2.625ZM8.25,7.125L9.75,7.125L10.5,8.625L11.25,7.125L12.75,7.125L11.99809,8.625L13.5,8.625L13.5,10.125L11.25,10.125L11.25,10.875L13.5,10.875L13.5,12.375L11.25,12.375L11.25,13.875L9.75,13.875L9.74963,12.375L7.5,12.375L7.5,10.875L9.75,10.875L9.75,10.125L7.5,10.125L7.5,8.625L9.00073,8.625L8.25,7.125ZM13.5,18.375L13.5,16.875L7.5,16.875L7.5,18.375L13.5,18.375Z" fill-rule="evenodd" fill="#1A8CFF" fill-opacity="1"/></g></g></svg>