<svg xmlns="http://www.w3.org/2000/svg"
  xmlns:xlink="http://www.w3.org/1999/xlink" fill="none" version="1.1" width="24" height="24" viewBox="0 0 24 24">
  <defs>
    <clipPath id="master_svg0_42_3667">
      <rect x="2" y="2" width="20" height="20" rx="0"/>
    </clipPath>
  </defs>
  <g>
    <g>
      <g></g>
      <g clip-path="url(#master_svg0_42_3667)">
        <g>
          <path d="M2.5701484205,8.693006562499999L2.5701484205,9.4273865625L2.5837422375,9.4273865625C2.7301489375,13.0330065625,5.0053359375,16.1041765625,8.222145937499999,17.474576562499998L8.222145937499999,17.5073765625L8.5981459375,17.5073765625L8.5981459375,18.2417765625C8.5981459375,19.0529765625,9.2733359375,19.7113765625,10.1061459375,19.7113765625L13.8741359375,19.7113765625C14.7061359375,19.7113765625,15.3813359375,19.0529765625,15.3813359375,18.2417765625L15.3813359375,17.5073765625L15.6853359375,17.5073765625C18.9413359375,16.1521765625,21.2485359375,13.0601965625,21.3957359375,9.4273965625L21.4093359375,9.4273965625L21.4093359375,8.6929965625L2.5693359375,8.6929965625L2.5701484205,8.693006562499999ZM17.2325359375,8.3249965625L20.4621359375,5.1778065625C20.5361359375,5.1069365625,20.5361359375,4.9886745625,20.4621359375,4.9178045625L20.1957359375,4.6578045625C20.1213359375,4.5861755625,20.0037359375,4.5861755625,19.9293359375,4.6578045625L16.167735937499998,8.3257765625L17.2333359375,8.3257765625L17.2325359375,8.3249965625ZM16.6493359375,4.4601955625C16.7017359375,4.3721005625,16.6705359375,4.2580755625,16.580535937500002,4.2089925625L16.2541359375,4.0257893625C16.164235937500003,3.9749200625,16.050135937500002,4.0046784525,15.9965359375,4.0929924625L13.4893359375,8.326586562500001L14.3597359375,8.326586562500001L16.6493359375,4.4593985625L16.6493359375,4.4601955625Z" fill="#02D5B8" fill-opacity="1" style="mix-blend-mode:passthrough"/>
        </g>
      </g>
    </g>
  </g>
</svg>