<svg xmlns="http://www.w3.org/2000/svg" xmlns:xlink="http://www.w3.org/1999/xlink" fill="none" version="1.1" width="24" height="24" viewBox="0 0 24 24"><g><g><path d="M20.625,3C21.4534,3,22.125,3.671573,22.125,4.5L22.125,12.98219C21.2172,12.11128,20.008,11.625,18.75,11.625C16.0576,11.625,13.875,13.8076,13.875,16.5C13.875,17.5871,14.2384,18.6431,14.9074,19.5L2.625,19.5C1.796573,19.5,1.125,18.828400000000002,1.125,18L1.125,4.5C1.125,3.671573,1.796573,3,2.625,3L20.625,3ZM3.375,5.25L11.625,11.625L19.875,5.25L3.375,5.25ZM21.178,13.9676C19.86,12.64954,17.7231,12.64954,16.405099999999997,13.9676C15.087,15.2856,15.087,17.4225,16.405099999999997,18.7405C17.5408,19.8763,19.2846,20.0333,20.5886,19.2117L22.019,20.6422L23.0797,19.5815L21.6492,18.1511C22.4708,16.847099999999998,22.3138,15.1033,21.178,13.9676ZM17.4657,17.6799C16.7335,16.9476,16.7335,15.7605,17.4657,15.0282C18.198,14.296,19.3851,14.296,20.1174,15.0282C20.8496,15.7605,20.8496,16.9476,20.1174,17.6799C19.3851,18.412100000000002,18.198,18.412100000000002,17.4657,17.6799Z" fill-rule="evenodd" fill="#1A8CFF" fill-opacity="1"/></g></g></svg>