<svg xmlns="http://www.w3.org/2000/svg" xmlns:xlink="http://www.w3.org/1999/xlink" fill="none" version="1.1" width="24" height="24" viewBox="0 0 24 24"><g><g><path d="M4.69066,6.86838L7.5005,6.86838C7.53746,4.31141,9.621749999999999,2.25,12.1875,2.25C14.7533,2.25,16.8375,4.31141,16.874499999999998,6.86838L19.6843,6.86838C20.0891,6.8685,20.4247,7.1817,20.4525,7.58526L21.3732,20.9274C21.3878,21.1401,21.3135,21.3495,21.1679,21.5054C21.0223,21.6613,20.8184,21.7499,20.605,21.75L3.769989,21.75C3.5565670000000003,21.7499,3.35274,21.6613,3.207126,21.5054C3.0615114,21.3495,2.9871649,21.1401,3.00181983,20.9274L3.9224930000000002,7.58526C3.950287,7.1817,4.2859,6.8685,4.69066,6.86838ZM12.1875,3.75C13.9248,3.75,15.3375,5.139889999999999,15.3743,6.86838L9.00073,6.86838C9.037510000000001,5.139889999999999,10.45019,3.75,12.1875,3.75ZM12.29932,16.154600000000002C10.51806,16.154600000000002,8.909469999999999,15.1449,8.08645,13.5591L6.7550799999999995,14.2501L6.818379999999999,14.369C7.91382,16.3763,9.99464,17.654600000000002,12.29932,17.654600000000002C14.643,17.654600000000002,16.7556,16.332700000000003,17.8355,14.2656L16.506,13.571L16.4486,13.6778C15.6079,15.1954,14.0355,16.154600000000002,12.29932,16.154600000000002Z" fill-rule="evenodd" fill="#FAAD14" fill-opacity="1"/></g></g></svg>