<svg xmlns="http://www.w3.org/2000/svg" xmlns:xlink="http://www.w3.org/1999/xlink" fill="none" version="1.1" width="24" height="24" viewBox="0 0 24 24"><defs><clipPath id="master_svg0_42_4652"><rect x="2" y="2" width="20" height="20" rx="0"/></clipPath></defs><g><g><g></g><g clip-path="url(#master_svg0_42_4652)"><g><path d="M18.228503906249998,4.5998871875Q17.91810390625,4.0134866875,17.03880390625,4.0999866875L12.10700390625,4.0999868875L11.84440390625,4.0999868875L6.91260390625,4.0999868875Q6.03320390625,4.0134868875,5.72280390625,4.5998871875Q5.41240390625,5.1862871875,3.29150390625,10.6349871875L3.29150390625,18.5321671875Q3.58900390625,19.3987671875,4.75290390625,19.3987671875Q5.91690390625,19.3987671875,6.16250390625,18.5321671875L6.16250390625,17.3165671875L11.90030390625,17.3165671875L12.05100390625,17.3165671875L17.78880390625,17.3165671875L17.78880390625,18.5321671875Q18.034503906250002,19.3987671875,19.19850390625,19.3987671875Q20.36250390625,19.3987671875,20.65980390625,18.5321671875L20.65980390625,10.6349871875C20.66000390625,10.6349871875,18.539003906250002,5.1863871875,18.228503906249998,4.5998871875Z" fill="#722ED1" fill-opacity="1" style="mix-blend-mode:passthrough"/></g><g><path d="M8.87068203125,13.43314375Q8.87068203125,13.52062375,8.86211203125,13.60769375Q8.85353203125,13.69475375,8.83646203125,13.780563749999999Q8.81939203125,13.86636375,8.794002031249999,13.950083750000001Q8.76860203125,14.03380375,8.73512203125,14.11462375Q8.70165203125,14.19545375,8.66041203125,14.27260375Q8.61916203125,14.349763750000001,8.57056203125,14.42250375Q8.52196203125,14.49524375,8.46646203125,14.56287375Q8.41096203125,14.63049375,8.34910203125,14.69236375Q8.28723203125,14.75422375,8.21961203125,14.80972375Q8.15198203125,14.86522375,8.07924203125,14.91382375Q8.006502031250001,14.96242375,7.92934203125,15.00366375Q7.85219203125,15.04491375,7.77136203125,15.07838375Q7.690542031250001,15.11186375,7.60682203125,15.137263749999999Q7.52310203125,15.16265375,7.43730203125,15.17972375Q7.35149203125,15.19679375,7.26443203125,15.20537375Q7.17736203125,15.21394375,7.08988203125,15.21394375Q7.00239203125,15.21394375,6.91533203125,15.20537375Q6.82827203125,15.19679375,6.74246203125,15.17972375Q6.65666203125,15.16265375,6.57294203125,15.137263749999999Q6.48922203125,15.11186375,6.4084020312500005,15.07838375Q6.32757203125,15.04491375,6.25041803125,15.00367375Q6.17326303125,14.96242375,6.10052203125,14.91382375Q6.02778103125,14.86522375,5.96015403125,14.80972375Q5.89252703125,14.75422375,5.83066603125,14.69236375Q5.76880503125,14.63049375,5.71330503125,14.56287375Q5.65780503125,14.49524375,5.60920003125,14.42250375Q5.56059603125,14.349763750000001,5.51935603125,14.27260375Q5.47811603125,14.19545375,5.44463703125,14.11462375Q5.41115803125,14.03380375,5.38576233125,13.950083750000001Q5.36036673125,13.86636375,5.34329923125,13.780563749999999Q5.32623173125,13.69475375,5.31765669125,13.60769375Q5.30908164978,13.52062375,5.30908164978,13.43314375Q5.30908164978,13.34565375,5.31765669125,13.25859375Q5.32623173125,13.17153375,5.34329923125,13.08572375Q5.36036673125,12.99992375,5.38576233125,12.91620375Q5.41115803125,12.83248375,5.44463703125,12.75166375Q5.47811603125,12.67083375,5.51935603125,12.59368075Q5.56059603125,12.51652575,5.60920003125,12.44378375Q5.65780503125,12.37104275,5.71330503125,12.30341575Q5.76880503125,12.23578875,5.83066603125,12.17392775Q5.89252703125,12.11206675,5.96015403125,12.05656675Q6.02778103125,12.00106675,6.10052203125,11.95246275Q6.17326303125,11.90385875,6.25041803125,11.86261875Q6.32757203125,11.82137775,6.4084020312500005,11.78789875Q6.48922203125,11.75441975,6.57294203125,11.72902435Q6.65666203125,11.70362885,6.74246203125,11.68656135Q6.82827203125,11.66949385,6.91533203125,11.66091879Q7.00239203125,11.65234375,7.08988203125,11.65234375Q7.17736203125,11.65234375,7.26443203125,11.66091879Q7.35149203125,11.66949385,7.43730203125,11.68656135Q7.52310203125,11.70362885,7.60682203125,11.72902435Q7.690542031250001,11.75441975,7.77136203125,11.78789875Q7.85219203125,11.82137775,7.92934203125,11.86261875Q8.006502031250001,11.90385875,8.07924203125,11.95246275Q8.15198203125,12.00106675,8.21961203125,12.05656675Q8.28723203125,12.11206675,8.34910203125,12.17392775Q8.41096203125,12.23578875,8.46646203125,12.30341575Q8.52196203125,12.37104275,8.57056203125,12.44378375Q8.61916203125,12.51652575,8.66040203125,12.59368075Q8.70165203125,12.67083375,8.73512203125,12.75166375Q8.76860203125,12.83248375,8.794002031249999,12.91620375Q8.81939203125,12.99992375,8.83646203125,13.08572375Q8.85353203125,13.17153375,8.86211203125,13.25859375Q8.87068203125,13.34565375,8.87068203125,13.43314375Z" fill="#FFFFFF" fill-opacity="1" style="mix-blend-mode:passthrough"/></g><g><path d="M17.34044765625,9.28730375Q17.11294765625,9.28730375,12.31184765625,9.28730375L11.63964765625,9.28730375Q6.83854765625,9.28730375,6.61104765625,9.28730375Q6.45454785625,9.28730375,6.44384765625,9.09900375Q7.4253476562500005,6.10099975,7.5320476562500005,5.87689975Q7.6387476562500005,5.65279925,7.91264765625,5.68849945L11.81044765625,5.68849945L12.14124765625,5.68849945L16.038947656250002,5.68849945Q16.31284765625,5.65279965,16.41964765625,5.87689975Q16.52624765625,6.10099975,17.50784765625,9.09900375Q17.49714765625,9.28730375,17.34044765625,9.28730375Z" fill="#FFFFFF" fill-opacity="1" style="mix-blend-mode:passthrough"/></g><g><path d="M18.6426546875,13.399940625Q18.6426546875,13.487430625,18.6340846875,13.574490625Q18.6255046875,13.661550625,18.6084346875,13.747360624999999Q18.5913646875,13.833160625,18.5659746875,13.916880625000001Q18.5405746875,14.000600625,18.5070946875,14.081420625Q18.4736246875,14.162250625,18.4323846875,14.239400625Q18.3911346875,14.316560625000001,18.3425346875,14.389300625Q18.2939346875,14.462040625,18.2384346875,14.529670625Q18.1829346875,14.597290625,18.1210746875,14.659160625Q18.0592046875,14.721020625,17.9915846875,14.776520625Q17.9239546875,14.832020625,17.8512146875,14.880620625Q17.7784746875,14.929230625,17.701314687500002,14.970470625Q17.6241646875,15.011710625,17.5433346875,15.045180625Q17.4625146875,15.078660625,17.3787946875,15.104060624999999Q17.2950746875,15.129460625,17.2092746875,15.146520625Q17.1234646875,15.163590625,17.0364046875,15.172170625Q16.9493346875,15.180740625,16.8618546875,15.180740625Q16.7743646875,15.180740625,16.6873046875,15.172170625Q16.600244687500002,15.163590625,16.5144346875,15.146520625Q16.4286346875,15.129460625,16.3449146875,15.104060624999999Q16.2611946875,15.078660625,16.1803746875,15.045180625Q16.0995446875,15.011710625,16.0223916875,14.970470625Q15.9452366875,14.929230625,15.8724946875,14.880620625Q15.7997536875,14.832020625,15.7321266875,14.776520625Q15.6644996875,14.721020625,15.6026386875,14.659160625Q15.5407776875,14.597290625,15.4852776875,14.529670625Q15.4297776875,14.462040625,15.3811736875,14.389300625Q15.3325696875,14.316560625000001,15.2913296875,14.239400625Q15.2500886875,14.162250625,15.2166096875,14.081420625Q15.1831306875,14.000600625,15.1577352875,13.916880625000001Q15.1323397875,13.833160625,15.1152722875,13.747360624999999Q15.0982047875,13.661550625,15.0896297275,13.574490625Q15.0810546875,13.487430625,15.0810546875,13.399940625Q15.0810546875,13.312460625,15.0896297275,13.225390625Q15.0982047875,13.138330625,15.1152722875,13.052520625Q15.1323397875,12.966720625,15.1577352875,12.883000625Q15.1831306875,12.799280625,15.2166096875,12.718460625Q15.2500886875,12.637630625,15.2913296875,12.560477625Q15.3325696875,12.483322625,15.3811736875,12.410581625Q15.4297776875,12.337839625,15.4852776875,12.270213625Q15.5407776875,12.202586625,15.6026386875,12.140724625Q15.6644996875,12.078863625,15.7321266875,12.023363625Q15.7997536875,11.967863625,15.8724946875,11.919259625Q15.9452366875,11.870655625,16.0223916875,11.829415625Q16.0995446875,11.788174625,16.1803746875,11.754695625Q16.2611946875,11.721216625,16.3449146875,11.695821325Q16.4286346875,11.670425725,16.5144346875,11.653358225Q16.600244687500002,11.636290725,16.6873046875,11.627715665Q16.7743646875,11.619140625,16.8618546875,11.619140625Q16.9493346875,11.619140625,17.0364046875,11.627715665Q17.1234646875,11.636290725,17.2092746875,11.653358225Q17.2950746875,11.670425725,17.3787946875,11.695821325Q17.4625146875,11.721216625,17.5433346875,11.754695625Q17.6241646875,11.788174625,17.701314687500002,11.829415625Q17.7784746875,11.870655625,17.8512146875,11.919259625Q17.9239546875,11.967863625,17.9915846875,12.023363625Q18.0592046875,12.078863625,18.1210746875,12.140724625Q18.1829346875,12.202586625,18.2384346875,12.270213625Q18.2939346875,12.337839625,18.3425346875,12.410581625Q18.3911346875,12.483322625,18.4323746875,12.560477625Q18.4736246875,12.637630625,18.5070946875,12.718460625Q18.5405746875,12.799280625,18.5659746875,12.883000625Q18.5913646875,12.966720625,18.6084346875,13.052520625Q18.6255046875,13.138330625,18.6340846875,13.225390625Q18.6426546875,13.312460625,18.6426546875,13.399940625Z" fill="#FFFFFF" fill-opacity="1" style="mix-blend-mode:passthrough"/></g></g></g></g></svg>