<svg xmlns="http://www.w3.org/2000/svg"
  xmlns:xlink="http://www.w3.org/1999/xlink" fill="none" version="1.1" width="24" height="24" viewBox="0 0 24 24">
  <g>
    <g>
      <path d="M5.25,7.125L7.5,7.125L7.5,10.125L9,10.125L9,7.125L15,7.125L15,10.125L16.5,10.125L16.5,7.125L18.75,7.125C19.578400000000002,7.125,20.25,7.79657,20.25,8.625L20.25,19.875C20.25,20.7034,19.578400000000002,21.375,18.75,21.375L5.25,21.375C4.421573,21.375,3.75,20.7034,3.75,19.875L3.75,8.625C3.75,7.79657,4.421573,7.125,5.25,7.125ZM16.5,7.125L15,7.125C15,5.46815,13.65685,4.125,12,4.125C10.374410000000001,4.125,9.050799999999999,5.41794,9.00143,7.03156L9,7.125L7.5,7.125C7.5,4.6397200000000005,9.51472,2.625,12,2.625C14.447,2.625,16.4379,4.5782,16.4986,7.01063L16.5,7.125Z" fill-rule="evenodd" fill="#626BE7" fill-opacity="1"/>
    </g>
  </g>
</svg>