<svg xmlns="http://www.w3.org/2000/svg" xmlns:xlink="http://www.w3.org/1999/xlink" fill="none" version="1.1" width="24" height="24" viewBox="0 0 24 24"><g><g><path d="M22.5,5.25C22.5,4.421573,21.8284,3.75,21,3.75L3,3.75C2.171573,3.75,1.5,4.421573,1.5,5.25L1.5,9C3.15685,9,4.5,10.34315,4.5,12C4.5,13.65685,3.15685,15,1.5,15L1.5,18.75C1.5,19.578400000000002,2.171573,20.25,3,20.25L21,20.25C21.8284,20.25,22.5,19.578400000000002,22.5,18.75L22.5,15C20.8431,15,19.5,13.65685,19.5,12C19.5,10.34315,20.8431,9,22.5,9L22.5,5.25ZM5.25,5.25L6.75,5.25L6.75,8.25L5.25,8.25L5.25,5.25ZM18.75,5.25L17.25,5.25L17.25,8.25L18.75,8.25L18.75,5.25ZM9.75,8.625L11.25,8.625L12,10.125L12.75,8.625L14.25,8.625L13.4981,10.125L15,10.125L15,11.625L12.75,11.625L12.75,12.375L15,12.375L15,13.875L12.75,13.875L12.75,15.375L11.25,15.375L11.24963,13.875L9,13.875L9,12.375L11.25,12.375L11.25,11.625L9,11.625L9,10.125L10.50073,10.125L9.75,8.625ZM6.75,15.75L5.25,15.75L5.25,18.75L6.75,18.75L6.75,15.75ZM17.25,15.75L18.75,15.75L18.75,18.75L17.25,18.75L17.25,15.75Z" fill-rule="evenodd" fill="#626BE7" fill-opacity="1"/></g></g></svg>