<svg xmlns="http://www.w3.org/2000/svg" xmlns:xlink="http://www.w3.org/1999/xlink" fill="none" version="1.1" width="24" height="24" viewBox="0 0 24 24"><g><g><path d="M7.5,2.25L7.5,3.375C7.5,3.58211,7.66789,3.75,7.875,3.75L16.125,3.75C16.3321,3.75,16.5,3.58211,16.5,3.375L16.5,2.25C16.5,2.042893,16.3321,1.875,16.125,1.875L7.875,1.875C7.66789,1.875,7.5,2.042893,7.5,2.25ZM6.75,2.625L6.75,3.75C6.75,4.164210000000001,7.085789999999999,4.5,7.5,4.5L16.5,4.5C16.9142,4.5,17.25,4.164210000000001,17.25,3.75L17.25,2.625L19.125,2.625C19.9534,2.625,20.625,3.29657,20.625,4.125L20.625,20.25C20.625,21.0784,19.9534,21.75,19.125,21.75L4.875,21.75C4.046573,21.75,3.375,21.0784,3.375,20.25L3.375,4.125C3.375,3.29657,4.046573,2.625,4.875,2.625L6.75,2.625ZM6,8.25L18,8.25L18,9.75L6,9.75L6,8.25ZM18,12.375L6,12.375L6,13.875L18,13.875L18,12.375ZM6,16.5L18,16.5L18,18L6,18L6,16.5Z" fill-rule="evenodd" fill="#FAAD14" fill-opacity="1"/></g></g></svg>