<svg xmlns="http://www.w3.org/2000/svg" xmlns:xlink="http://www.w3.org/1999/xlink" fill="none" version="1.1" width="24" height="24" viewBox="0 0 24 24"><g><g><path d="M2.625,3.75L2.625,10.5C2.625,11.12132,3.12868,11.625,3.75,11.625L10.5,11.625C11.12132,11.625,11.625,11.12132,11.625,10.5L11.625,3.75C11.625,3.12868,11.12132,2.625,10.5,2.625L3.75,2.625C3.12868,2.625,2.625,3.12868,2.625,3.75ZM13.125,3.375L13.125,5.625C13.125,6.039210000000001,13.4608,6.375,13.875,6.375L20.625,6.375C21.0392,6.375,21.375,6.039210000000001,21.375,5.625L21.375,3.375C21.375,2.960786,21.0392,2.625,20.625,2.625L13.875,2.625C13.4608,2.625,13.125,2.960786,13.125,3.375ZM13.125,8.625L13.125,10.875C13.125,11.28921,13.4608,11.625,13.875,11.625L20.625,11.625C21.0392,11.625,21.375,11.28921,21.375,10.875L21.375,8.625C21.375,8.21079,21.0392,7.875,20.625,7.875L13.875,7.875C13.4608,7.875,13.125,8.21079,13.125,8.625ZM2.625,14.4375L2.625,20.0625C2.625,20.7874,3.212626,21.375,3.9375,21.375L20.0625,21.375C20.7874,21.375,21.375,20.7874,21.375,20.0625L21.375,14.4375C21.375,13.7126,20.7874,13.125,20.0625,13.125L3.9375,13.125C3.212626,13.125,2.625,13.7126,2.625,14.4375Z" fill-rule="evenodd" fill="#626BE7" fill-opacity="1"/></g></g></svg>