<svg xmlns="http://www.w3.org/2000/svg" xmlns:xlink="http://www.w3.org/1999/xlink" fill="none" version="1.1" width="24" height="24" viewBox="0 0 24 24"><g><g><path d="M12.26833,2.2986091625L19.0183,3.5258840625000003C19.7316,3.6555640625,20.25,4.2767540625,20.25,5.0016840625L20.25,16.018914062500002C20.25,16.549314062500002,19.9698,17.0404140625,19.5131,17.310314062499998L12.76309,21.2989140625C12.29238,21.5770140625,11.70762,21.5770140625,11.23691,21.2989140625L4.486906,17.310314062499998C4.030198,17.0404140625,3.75,16.549314062500002,3.75,16.018914062500002L3.75,5.0016840625C3.75,4.2767540625,4.268436,3.6555640625,4.98167,3.5258840625000003L11.731670000000001,2.2986091625C11.9091,2.2663490225,12.0909,2.2663490225,12.26833,2.2986091625ZM9.375,5.2497840625L7.875,5.2497840625L7.875,7.4997840625L6.375,7.4997840625L6.375,8.9997840625L7.875,8.9997840625L7.875,11.0859140625L6.37819,11.9478740625L6.37819,13.6832140625L7.02632,13.3055140625L7.875,12.8289140625L7.875,15.5563140625L6.7668800000000005,14.8772140625L6.40243,14.6404140625L6.3889,16.4048140625L8.23312,17.5350140625L8.2819,17.5626140625C8.75723,17.8093140625,9.33503,17.4857140625,9.37302,16.9515140625L9.375,16.8955140625L9.375,11.9874140625L10.50769,11.3518640625L10.50769,9.5705440625L9.375,10.2222840625L9.375,8.9997840625L10.5,8.9997840625L10.5,7.4997840625L9.375,7.4997840625L9.375,5.2497840625ZM16.875,5.2497840625L11.625,5.2497840625L11.56903,5.2519440625C11.19943,5.2805040625,10.90432,5.5896640625,10.87706,5.9768640625L10.875,6.035504062499999L10.875,12.7141140625L10.87706,12.7727140625C10.90432,13.1599140625,11.19943,13.4691140625,11.56903,13.4976140625L11.625,13.4998140625L13.5,13.4998140625L13.5,17.6248140625L15,17.6248140625L15,13.4998140625L16.875,13.4998140625L16.930999999999997,13.4976140625C17.3006,13.4691140625,17.5957,13.1599140625,17.6229,12.7727140625L17.625,12.7141140625L17.625,6.035504062499999L17.6229,5.9768640625C17.5957,5.5896640625,17.3006,5.2805040625,16.930999999999997,5.2519440625L16.875,5.2497840625ZM13.5,6.7497840625L13.5,8.6247840625L12.375,8.6247840625L12.375,6.7497840625L13.5,6.7497840625ZM16.125,6.7497840625L16.125,8.6247840625L15,8.6247840625L15,6.7497840625L16.125,6.7497840625ZM13.5,10.1247840625L13.5,11.9997840625L12.375,11.9997840625L12.375,10.1247840625L13.5,10.1247840625ZM16.125,10.1247840625L16.125,11.9997840625L15,11.9997840625L15,10.1247840625L16.125,10.1247840625Z" fill-rule="evenodd" fill="#9AE392" fill-opacity="1"/></g></g></svg>