<svg xmlns="http://www.w3.org/2000/svg" xmlns:xlink="http://www.w3.org/1999/xlink" fill="none" version="1.1" width="24" height="24" viewBox="0 0 24 24"><g><g><path d="M19.8966,2.625L19.9894,2.625C20.1327,2.625,20.25,2.5030099999999997,20.25,2.353916L20.25,1.771084C20.25,1.621988,20.1327,1.5,19.9894,1.5L17.1356,1.5C16.9923,1.5,16.875,1.621988,16.875,1.771084L16.875,2.353916C16.875,2.5030099999999997,16.9923,2.625,17.1356,2.625L17.228099999999998,2.625L16.9107,7.37932C16.878999999999998,7.8575,16.6614,8.3104,16.298099999999998,8.65376L15.9369,8.99923C15.5757,9.340489999999999,15.375,9.7976,15.375,10.27578L15.375,19.9742C15.375,20.7473,16.0552,21.375,16.8916,21.375L20.2334,21.375C21.0719,21.375,21.75,20.7473,21.75,19.9742L21.75,10.27578C21.75,9.88944,21.6179,9.51421,21.375,9.2041L21.375,9L21.2794,9C21.2945,9.045020000000001,21.3078,9.09055,21.3194,9.136510000000001C21.2784,9.088940000000001,21.2346,9.04311,21.1881,8.99923L20.8248,8.65587C20.4615,8.31251,20.2439,7.85961,20.2122,7.38143L19.8966,2.625ZM2.25,9L14.3453,9C14.2826,9.18732,14.25,9.383759999999999,14.25,9.58354L14.25,20.2145C14.25,20.6777,14.4772,21.0934,14.8359,21.375L3.81522,21.375C2.9507719999999997,21.375,2.25,20.6742,2.25,19.8098L2.25,9Z" fill-rule="evenodd" fill="#7BD9D7" fill-opacity="1"/></g></g></svg>