<svg xmlns="http://www.w3.org/2000/svg"
  xmlns:xlink="http://www.w3.org/1999/xlink" fill="none" version="1.1" width="20.710693359375" height="20" viewBox="0 0 20.710693359375 20">
  <g>
    <g>
      <path d="M1.29443359375,10.3125C1.29443359375,15.1447,5.35145359375,19.0625,10.35534359375,19.0625C15.35923359375,19.0625,19.41623359375,15.1447,19.41623359375,10.3125C19.41623359375,5.480309999999999,15.35923359375,1.5625,10.35534359375,1.5625C5.35145359375,1.5625,1.29443359375,5.480309999999999,1.29443359375,10.3125ZM10.35534359375,17.8125C6.07290359375,17.8125,2.5888535937499997,14.448,2.5888535937499997,10.3125C2.5888535937499997,6.177,6.07290359375,2.8125,10.35534359375,2.8125C14.63783359375,2.8125,18.12183359375,6.177,18.12183359375,10.3125C18.12183359375,14.448,14.63783359375,17.8125,10.35534359375,17.8125ZM3.88326359375,10.3125C3.88326359375,13.7586,6.78680359375,16.5625,10.35534359375,16.5625C13.92393359375,16.5625,16.82743359375,13.7586,16.82743359375,10.3125C16.82743359375,6.86641,13.92393359375,4.0625,10.35534359375,4.0625C6.78680359375,4.0625,3.88326359375,6.86641,3.88326359375,10.3125ZM9.70813359375,7.5L10.35534359375,8.75L11.00255359375,7.5L12.29693359375,7.5L11.64813359375,8.75L12.94413359375,8.75L12.94413359375,10L11.00255359375,10L11.00255359375,10.625L12.94413359375,10.625L12.94413359375,11.875L11.00255359375,11.875L11.00255359375,13.125L9.70813359375,13.125L9.70813359375,11.875L7.76651359375,11.875L7.76651359375,10.625L9.70813359375,10.625L9.70813359375,10L7.76651359375,10L7.76651359375,8.75L9.06155359375,8.75L8.41372359375,7.5L9.70813359375,7.5Z" fill-rule="evenodd" fill="#9AE392" fill-opacity="1"/>
    </g>
  </g>
</svg>