<svg xmlns="http://www.w3.org/2000/svg" xmlns:xlink="http://www.w3.org/1999/xlink" fill="none" version="1.1" width="24" height="24" viewBox="0 0 24 24"><g><g><path d="M17.692511718749998,2.625C17.99361171875,2.625,18.26331171875,2.80473,18.38111171875,3.077743L18.40251171875,3.133563L21.33521171875,11.75856C21.36541171875,11.8476,21.37811171875,11.93726,21.37531171875,12.02433L21.37511171875,19.875C21.37511171875,20.7034,20.70351171875,21.375,19.87511171875,21.375L4.12510171875,21.375C3.29667571875,21.375,2.62510341375,20.7034,2.62510341375,19.875L2.62487721475,12.02433C2.62282067875,11.95903,2.62940370875,11.89227,2.64559581875,11.82541L2.66502701875,11.75856L5.59765171875,3.133563C5.694581718749999,2.848497,5.9515917187500005,2.6509505,6.24797171875,2.62737071L6.30773171875,2.625L17.692511718749998,2.625ZM19.57771171875,11.25L17.15521171875,4.125L6.84460171875,4.125L4.42210171875,11.25L7.50010171875,11.25L8.18541171875,13.2387C8.38560171875,13.8196,8.91851171875,14.2172,9.52712171875,14.2481L9.60357171875,14.25L14.39661171875,14.25C15.01111171875,14.25,15.56061171875,13.8757,15.78801171875,13.3103L15.81481171875,13.2387L16.50011171875,11.25L19.57771171875,11.25ZM12.00011171875,7.125L11.25011171875,5.625L9.75011171875,5.625L10.50011171875,7.125L9.00011171875,7.125L9.00011171875,8.625L11.25011171875,8.625L11.25011171875,9.375L9.00011171875,9.375L9.00011171875,10.875L11.25011171875,10.875L11.25011171875,12.375L12.75011171875,12.375L12.75011171875,10.875L15.00011171875,10.875L15.00011171875,9.375L12.75011171875,9.375L12.75011171875,8.625L15.00011171875,8.625L15.00011171875,7.125L13.50011171875,7.125L14.25011171875,5.625L12.75011171875,5.625L12.00011171875,7.125Z" fill-rule="evenodd" fill="#7BD9D7" fill-opacity="1"/></g></g></svg>