<svg xmlns="http://www.w3.org/2000/svg"
  xmlns:xlink="http://www.w3.org/1999/xlink" fill="none" version="1.1" width="24" height="24" viewBox="0 0 24 24">
  <g>
    <g>
      <g>
        <path d="M18.0567,4.158939999999999C18.0601,4.1060300000000005,18.0617,4.05302,18.0617,4C18.0617,2.61929,16.9424,1.5,15.5617,1.5C14.181,1.5,13.0617,2.61929,13.0617,4C13.0617,5.3807100000000005,14.181,6.5,15.5617,6.5C16.2265,6.5,16.863799999999998,6.23528,17.332900000000002,5.76434C19.2898,7.24925,20.5548,9.6065,20.5548,12.2617Q20.5548,12.4371,20.4762,13.0069L22.1861,13.2127Q22.2722,12.5032,22.2722,12.2592C22.2744,8.90424,20.6056,5.94135,18.0567,4.158939999999999ZM2.66439,11.5832C1.939503,12.0413,1.5,12.839,1.5,13.6965C1.5,15.0772,2.61929,16.1965,4,16.1965C5.3807100000000005,16.1965,6.5,15.0772,6.5,13.6965C6.5,12.4791,5.62304,11.43869,4.42318,11.23261C4.799110000000001,8.24058,6.79242,5.75515,9.49473,4.68655Q9.89702,4.52746,10.73882,4.27011L10.30616,2.5892Q9.54692,2.82537,9.11191,2.98381C5.5397,4.28491,2.93279,7.61133,2.66439,11.5832ZM12.75,15.375C14.5104,15.375,15.9375,13.9479,15.9375,12.1875C15.9375,10.42709,14.5104,9,12.75,9C10.98959,9,9.5625,10.42709,9.5625,12.1875C9.5625,13.9479,10.98959,15.375,12.75,15.375ZM19.5074,20.0445C20.8881,20.0445,22.0074,18.9252,22.0074,17.5445C22.0074,16.163800000000002,20.8881,15.0445,19.5074,15.0445C18.1267,15.0445,17.0074,16.163800000000002,17.0074,17.5445C17.0074,17.9716,17.116799999999998,18.3917,17.3253,18.7645C15.9707,19.7897,14.2861,20.3974,12.4582,20.3974C10.32742,20.3974,8.39031,19.5698,6.94363,18.2192Q6.7125,18.0034,6.289,17.533L4.94431,18.6386Q5.48934,19.2124,5.56326,19.2856C7.33636,21.0422,9.77054,22.1257,12.4557,22.1257C14.8129,22.1257,16.976100000000002,21.2911,18.6687,19.8996C18.9379,19.9955,19.2216,20.0445,19.5074,20.0445Z" fill-rule="evenodd" fill="#1A8CFF" fill-opacity="1"/>
      </g>
    </g>
  </g>
</svg>