<svg xmlns="http://www.w3.org/2000/svg" xmlns:xlink="http://www.w3.org/1999/xlink" fill="none" version="1.1" width="24" height="24" viewBox="0 0 24 24"><g><g><path d="M7.5,3.75L7.5,5.25L11.25,5.25L11.25,3.75L12.75,3.75L12.75,5.25L16.5,5.25L16.5,3.75L18,3.75L18,5.25L21,5.25C21.8284,5.25,22.5,5.86052,22.5,6.61364L22.5,18.886400000000002C22.5,19.639499999999998,21.8284,20.25,21,20.25L3,20.25C2.171573,20.25,1.5,19.639499999999998,1.5,18.886400000000002L1.5,6.61364C1.5,5.86052,2.171573,5.25,3,5.25L6,5.25L6,3.75L7.5,3.75ZM9,11.25C9,9.59315,10.34315,8.25,12,8.25C13.6569,8.25,15,9.59315,15,11.25C15,12.04855,14.688,12.77423,14.1788,13.31171C15.5318,14.0618,16.4575,15.4889,16.4986,17.1356L16.5,17.25L15,17.25L14.9986,17.156599999999997C14.9492,15.5429,13.6256,14.25,12,14.25C10.37441,14.25,9.050799999999999,15.5429,9.00143,17.156599999999997L9,17.25L7.5,17.25L7.50175,17.1233C7.54713,15.4818,8.47161,14.0599,9.82112,13.31216C9.312149999999999,12.77457,9,12.04874,9,11.25ZM13.5,11.25Q13.5,11.32369,13.4928,11.39703Q13.4856,11.47036,13.4712,11.542629999999999Q13.4568,11.61491,13.4354,11.68543Q13.414,11.75594,13.3858,11.82402Q13.3576,11.89211,13.3229,11.95709Q13.2881,12.02208,13.2472,12.08335Q13.2063,12.14463,13.1595,12.20159Q13.1128,12.25855,13.0607,12.31066Q13.0086,12.36277,12.9516,12.40952Q12.8946,12.45626,12.8334,12.4972Q12.7721,12.53814,12.7071,12.57288Q12.6421,12.60762,12.574,12.63582Q12.5059,12.66402,12.4354,12.68541Q12.3649,12.7068,12.2926,12.72118Q12.2204,12.73555,12.147,12.74278Q12.0737,12.75,12,12.75Q11.9263,12.75,11.853,12.74278Q11.7796,12.73555,11.7074,12.72118Q11.6351,12.7068,11.5646,12.68541Q11.49405,12.66402,11.42597,12.63582Q11.35789,12.60762,11.2929,12.57288Q11.22791,12.53814,11.16664,12.4972Q11.10537,12.45626,11.04841,12.40952Q10.99145,12.36277,10.93934,12.31066Q10.88723,12.25855,10.84048,12.20159Q10.79373,12.14463,10.75279,12.08335Q10.71185,12.02208,10.67712,11.95709Q10.64238,11.89211,10.61418,11.82402Q10.58598,11.75594,10.56459,11.68543Q10.5432,11.61491,10.52882,11.542629999999999Q10.51444,11.47036,10.50722,11.39703Q10.5,11.32369,10.5,11.25Q10.5,11.17631,10.50722,11.10297Q10.51444,11.02964,10.52882,10.957360000000001Q10.5432,10.88509,10.56459,10.81457Q10.58598,10.744060000000001,10.61418,10.67597Q10.64238,10.607890000000001,10.67712,10.5429Q10.71185,10.477920000000001,10.75279,10.416640000000001Q10.79373,10.35537,10.84048,10.29841Q10.88723,10.24145,10.93934,10.18934Q10.99145,10.137229999999999,11.04841,10.09048Q11.10537,10.04374,11.16664,10.002790000000001Q11.22791,9.96185,11.2929,9.92712Q11.35789,9.89238,11.42597,9.864180000000001Q11.49405,9.83598,11.5646,9.814589999999999Q11.6351,9.793199999999999,11.7074,9.77882Q11.7796,9.76445,11.853,9.75722Q11.9263,9.75,12,9.75Q12.0737,9.75,12.147,9.75722Q12.2204,9.76445,12.2926,9.77882Q12.3649,9.793199999999999,12.4354,9.814589999999999Q12.5059,9.83598,12.574,9.864180000000001Q12.6421,9.89238,12.7071,9.92712Q12.7721,9.96185,12.8334,10.002790000000001Q12.8946,10.04374,12.9516,10.09048Q13.0086,10.137229999999999,13.0607,10.18934Q13.1128,10.24145,13.1595,10.29841Q13.2063,10.35537,13.2472,10.416640000000001Q13.2881,10.477920000000001,13.3229,10.5429Q13.3576,10.607890000000001,13.3858,10.67597Q13.414,10.744060000000001,13.4354,10.81457Q13.4568,10.88509,13.4712,10.957360000000001Q13.4856,11.02964,13.4928,11.10297Q13.5,11.17631,13.5,11.25Z" fill-rule="evenodd" fill="#722ED1" fill-opacity="1"/></g></g></svg>