<svg xmlns="http://www.w3.org/2000/svg" xmlns:xlink="http://www.w3.org/1999/xlink" fill="none" version="1.1" width="24" height="24" viewBox="0 0 24 24"><g><g><path d="M19.875,4.125C19.875,3.296573,19.203400000000002,2.625,18.375,2.625L4.875,2.625C4.046573,2.625,3.375,3.296573,3.375,4.125L3.375,19.5C3.375,20.3284,4.046573,21,4.875,21L11.40577,21C11.41556,20.9701,11.42884,20.9412,11.44544,20.9138L13.13466,18.1241C12.62693,17.5305,12.41325,16.744,12.41777,15.4963C12.42599,13.2286,14.2829,11.37719,16.631,11.256L16.8751,11.25L17.104799999999997,11.256L17.261,11.2656C17.6678,11.29925,18.0673,11.3857,18.447499999999998,11.52237L18.4934,11.53797C18.7589,11.63682,19.012999999999998,11.7594,19.2521,11.90393L19.382,11.98432C19.556,12.09678,19.7207,12.22026,19.875,12.35373L19.875,4.125ZM8.25,5.25L6.75,5.25L7.50073,6.75L6,6.75L6,8.25L8.25,8.25L8.25,9L6,9L6,10.5L8.24962,10.5L8.25,12L9.75,12L9.75,10.5L12,10.5L12,9L9.75,9L9.75,8.25L12,8.25L12,6.75L10.498090000000001,6.75L11.25,5.25L9.75,5.25L9,6.75L8.25,5.25ZM17.176099999999998,12.38L17.2941,12.388C17.604100000000003,12.41604,17.9085,12.48809,18.1981,12.60197L18.2331,12.61497C18.4354,12.6974,18.628999999999998,12.7995,18.8111,12.9199L18.9101,12.9869C19.217100000000002,13.2039,19.486,13.4701,19.7061,13.7748C19.8171,13.9274,19.9158,14.0886,20.0011,14.2568C20.2531,14.7527,20.3961,15.3157,20.3961,15.9126C20.3961,16.5106,20.2531,17.072499999999998,20.0031,17.5664L20.0021,17.5684C19.9065,17.7563,19.7944,17.935299999999998,19.6671,18.1034L20.9542,20.4281C21.048,20.5965,20.9935,20.8088,20.8302,20.9111C20.7847,20.9386,20.7332,20.9547,20.6802,20.9581L19.5041,21.0321C19.3962,21.0395,19.298299999999998,21.0982,19.2411,21.1901L18.5911,22.2149C18.5293,22.3174,18.417,22.3786,18.2973,22.3748C18.1777,22.3711,18.0694,22.3031,18.0141,22.197L17.0001,20.3671L16.4981,21.273L15.9861,22.197C15.9303,22.3025,15.8222,22.3701,15.7028,22.3738C15.5834,22.3775,15.4713,22.3169,15.4091,22.2149L14.759,21.1901C14.7018,21.0982,14.604,21.0395,14.496,21.0321L13.31902,20.9581C13.12843,20.9416,12.9866,20.7749,13.00101,20.5841C13.00411,20.5294,13.01949,20.4761,13.04602,20.4281L14.333,18.1034C13.8574,17.4726,13.6014,16.7035,13.604,15.9136C13.604,14.0238,15.0251,12.48099,16.8141,12.38L17.0001,12.375L17.1751,12.38L17.176099999999998,12.38ZM17.0001,13.9089C16.2855,13.9089,15.6253,14.29,15.268,14.9088C14.9107,15.5275,14.9107,16.2898,15.268,16.9086C15.6253,17.5273,16.2855,17.9084,17.0001,17.9084C18.1047,17.9084,19.0001,17.0131,19.0001,15.9087C19.0001,14.8042,18.1047,13.9089,17.0001,13.9089ZM16.9717,21L16.8751,20.8406L16.7785,21L16.9717,21Z" fill-rule="evenodd" fill="#FF4119" fill-opacity="1"/></g></g></svg>