<svg xmlns="http://www.w3.org/2000/svg" xmlns:xlink="http://www.w3.org/1999/xlink" fill="none" version="1.1" width="24" height="24" viewBox="0 0 24 24"><g><g></g><g><path d="M12.37512,2.625C14.1323,2.625,15.7551,3.201934,17.0653,4.17712L17.2594,4.32636C19.0812,5.77211,20.25,8.008420000000001,20.25,10.51825C20.2525,12.12907,19.7611,13.7017,18.8426,15.0228C18.399,14.8272,17.962400000000002,14.6158,17.5337,14.3891C17.491300000000003,14.3667,17.4497,14.343,17.4089,14.3178C16.3091,13.5914,15.3874,13.2174,14.5439,13.2174C13.6528,13.2174,12.8611,13.651,12.432,14.4084C12.13755,14.9255,12.05029,15.5427,12.13575,16.125C11.10515,15.9724,10.34302,15.7583,9.78243,15.4864C9.204519999999999,15.2062,8.89157,14.9243,8.39649,14.2849L8.056280000000001,13.8388L7.90047,13.6383L7.75781,13.4598C7.73488,13.4316,7.7123,13.4041,7.68999,13.3772L7.55845,13.2222C7.47183,13.1226,7.38633,13.0291,7.29581,12.9352L7.15551,12.793L7.08111,12.72C6.1918299999999995,11.8575,5.3838799999999996,11.37769,4.53835,11.30202C4.51276,11.04155,4.5,10.77998,4.5,10.51825C4.5,6.159079999999999,8.02599,2.625,12.37512,2.625ZM11.625,5.625L10.125,5.625L10.87573,7.125L9.375,7.125L9.375,8.625L11.625,8.625L11.625,9.375L9.375,9.375L9.375,10.875L11.62463,10.875L11.625,12.375L13.125,12.375L13.125,10.875L15.375,10.875L15.375,9.375L13.125,9.375L13.125,8.625L15.375,8.625L15.375,7.125L13.8731,7.125L14.625,5.625L13.125,5.625L12.375,7.125L11.625,5.625ZM6.08756,13.4963C5.30365,12.7313,4.66564,12.375,4.07977,12.375C3.62617,12.375,3.23473,12.59283,2.97711,12.988C2.445944,13.8046,2.62317057,15.2778,2.815808,15.7267C3.73298,17.8644,5.194710000000001,19.2612,6.5983,20.1649L6.79835,20.2907C6.86486,20.3315,6.93117,20.3712,6.99722,20.4099L7.19452,20.5228C7.25998,20.5593,7.32511,20.5949,7.38985,20.6294L7.58284,20.7299L7.77308,20.8246L7.96018,20.9135L8.14376,20.9968L8.32343,21.0747L8.58473,21.1817L8.7529,21.2468L8.99514,21.3353L9.22417,21.4134L9.43868,21.4816L9.57297,21.5219L9.760349999999999,21.575L9.9297,21.6196L10.079699999999999,21.6564L10.28312,21.7016L10.47393,21.738L10.5484,21.7478L10.60349,21.75L19.8723,21.75L19.9471,21.7482C20.7402,21.7092,21.3715,21.0543,21.3723,20.2515L21.375,17.6351L21.3726,17.5756C21.3468,17.261499999999998,21.1188,16.9981,20.8084,16.9339C20.5228,16.8747,20.2319,16.797800000000002,19.9432,16.7095L19.7273,16.641199999999998C19.6914,16.6295,19.6556,16.6177,19.6199,16.6057L19.4066,16.5321L19.1959,16.4559L18.9886,16.3774L18.6854,16.256999999999998L18.393700000000003,16.135199999999998L18.2068,16.0542L18.0268,15.974L17.8544,15.8953L17.6116,15.7813L17.2549,15.6071L16.9679,15.461L16.6295,15.2806L16.5021,15.1962C15.5938,14.5997,14.8731,14.3093,14.3021,14.3093C13.7992,14.3093,13.38,14.5401,13.1538,14.942C12.8609,15.4601,12.9557,16.152,13.1995,16.567999999999998L13.2707,16.6843L13.3597,16.8232L13.4632,16.9801L13.6383,17.2395L13.7633,17.4219L13.3925,17.3963L13.0376,17.3674C12.8641,17.3522,12.6964,17.3358,12.53421,17.318199999999997L12.21717,17.2815C12.01065,17.256,11.8137,17.2286,11.62574,17.199199999999998L11.35047,17.1538L11.08824,17.1055C10.96031,17.0807,10.83712,17.0549,10.7184,17.028100000000002L10.48686,16.973100000000002C10.110669999999999,16.8794,9.782440000000001,16.775100000000002,9.493,16.6617L9.32393,16.5925C9.24165,16.5574,9.16269,16.5215,9.08682,16.4848L8.93911,16.4104L8.79917,16.3341L8.66657,16.2559L8.54088,16.1759C8.47968,16.1354,8.4209,16.0943,8.36431,16.052500000000002L8.25394,15.9683C8.218060000000001,15.9399,8.18309,15.9113,8.14893,15.8824L8.04885,15.7951L7.95325,15.7063L7.8617,15.6161L7.77376,15.5247L7.64765,15.3852L7.52719,15.2432L7.44928,15.1472L7.28398,14.9351L7.02191,14.5882L6.8153,14.3191C6.6032,14.0485,6.3711199999999995,13.7733,6.08756,13.4963Z" fill-rule="evenodd" fill="#7BD9D7" fill-opacity="1"/></g></g></svg>