<svg t="1725350715218" class="icon" viewBox="0 0 1024 1024" version="1.1"
  xmlns="http://www.w3.org/2000/svg" p-id="5775" width="32" height="32">
  <path d="M709.08536099 591.25406026m-48.02736988 0a48.02736987 48.02736987 0 1 0 96.05473976 0 48.02736987 48.02736987 0 1 0-96.05473976 0Z" fill="#0a55ee" p-id="5776"></path>
  <path d="M709.08536099 543.22669037c26.53803457 0 48.02736987 21.48933531 48.02736988 48.02736989s-21.48933531 48.02736987-48.02736988 48.02736987-48.02736987-21.48933531-48.02736988-48.02736987c-0.12945383-26.53803457 21.48933531-48.02736987 48.02736988-48.02736989m0-30.0332879c-43.10812445 0-78.06065778 35.08198717-78.06065778 78.06065779 0 43.10812445 35.08198717 78.06065778 78.06065778 78.06065777 43.10812445 0 78.06065778-35.08198717 78.06065777-78.06065777 0-42.97867061-35.08198717-78.06065778-78.06065777-78.06065779z" fill="#4C466D" p-id="5777"></path>
  <path d="M845.21413826 682.92900625c-160.87961633 0-291.19210554-130.31248923-291.19210554-291.19210554 0-63.27931575 20.1993296-121.91099815 54.69906955-169.81737278 13.04912445-18.23302318 0.35751025-43.79500666-21.98688091-43.97376181h-0.53626537c-204.8533781 0-369.12934189 173.74998562-353.75640079 381.82095608 13.22787956 177.50384334 159.09206501 319.0779057 336.95341862 327.30064164 131.74253024 6.07767442 248.64838478-59.70421316 314.60902747-161.59463684 12.33410393-19.12679883-1.96630643-43.9737618-24.66820784-42.90123101-4.82638849 0.35751025-9.47402183 0.35751025-14.12165519 0.35751026z" fill="#49DAF2" p-id="5778"></path>
  <path d="M586.01920085 178.12452128h0.5362654c22.34439115 0 35.03600534 25.7407386 21.98688087 43.97376177-34.32098481 47.72761949-54.69906955 106.35930192-54.69906953 169.81737279 0 160.87961633 130.31248923 291.19210554 291.19210553 291.19210553 4.64763334 0 9.29526674-0.17875514 13.94290008-0.35751024h1.43004102c21.98688091 0 35.39351559 24.13194244 23.2381668 42.901231-63.27931575 97.42154544-172.85620997 161.95214709-297.80604531 161.95214712-5.541409 0-11.26157314-0.17875514-16.80298213-0.35751027-177.68259844-8.22273595-323.72553905-149.79679831-336.95341866-327.30064166-15.19418599-208.24972556 149.08177779-381.82095606 353.93515593-381.82095604m0-41.47119002c-109.75564935 0-215.57868586 46.11882336-290.2983299 126.73738665-75.79217481 81.69109407-112.97324167 188.05039596-104.75050574 299.5935966 7.15020517 95.99150439 49.51517082 186.08408955 119.2296712 253.65352841 69.71450041 67.74819399 161.05837143 107.43183268 257.04987586 111.90071089 6.25642953 0.35751025 12.51285904 0.35751025 18.76928858 0.35751026 134.78136747 0 259.19493741-67.56943885 332.48454037-180.90019078 13.76414495-21.27186037 14.83667573-48.44264003 2.86008209-70.7870312-12.15534879-22.34439115-35.39351559-36.10853612-60.95549909-36.10853607h-3.39634744c-3.93261282 0.17875514-8.04398081 0.35751025-11.97659366 0.35751025-137.82020466 0-249.89967068-112.07946604-249.89967068-249.89967068 0-52.55400799 16.26671677-102.96295444 46.83384387-145.50667522 15.19418599-21.27186037 17.33924754-48.80015029 5.36265386-72.03831708-11.79783853-23.05941166-35.21476046-37.35982201-60.95549907-37.35982203h-0.35751025z" fill="#4C466D" p-id="5779"></path>
  <path d="M553.84327759 391.73690071c0-54.52031441 15.01543085-105.46552627 40.93492459-149.08177778-3.03883719-0.17875514-5.89891926-0.17875514-8.93775647-0.17875513-160.34335093 0-290.29832989 129.95497897-290.29832987 290.29832986s129.95497897 290.29832989 290.29832987 290.2983299c105.46552627 0 197.88192806-56.30786571 248.64838479-140.50153157-155.69571759-5.36265388-280.64555292-133.53008155-280.64555291-290.83459528z" fill="#38C9F1" p-id="5780"></path>
  <path d="M553.84327759 391.73690071c0-26.45575913 3.57510257-51.83898747 10.18904234-76.14968506-110.29191474 11.08281802-196.45188704 104.03548522-196.45188704 217.36623717 0 120.65971222 97.77905571 218.43876796 218.43876796 218.43876793 68.99947988 0 130.49124436-31.99716813 170.53239329-82.04860431-117.44211993-37.71733228-202.70831655-147.65173676-202.70831655-277.60671573z" fill="#49BCEA" p-id="5781"></path>
  <path d="M391.92768591 520.57572908a51.83898747 51.83898747 0 1 0 20.02953548-101.72482672 51.83898747 51.83898747 0 1 0-20.02953548 101.72482672Z" fill="#D7F7FF" p-id="5782"></path>
  <path d="M401.90141772 418.01390471c3.39634746 0 6.61393978 0.35751025 10.01028726 1.07253077 28.0645553 5.541409 46.29757847 32.71218864 40.75616945 60.77674394-4.82638849 24.66820784-26.45575913 41.82870022-50.76645671 41.82870024-3.39634746 0-6.61393978-0.35751025-10.01028724-1.07253076-28.0645553-5.541409-46.29757847-32.71218864-40.75616945-60.77674395 4.82638849-24.84696295 26.45575913-41.82870022 50.76645669-41.82870024m0-41.47119c-44.33127206 0-82.76362483 31.63965788-91.34387104 75.25590944-10.01028723 50.40894644 23.05941166 99.566607 73.46835812 109.5768942 5.89891926 1.25128592 11.97659365 1.78755127 18.05426806 1.78755131 44.33127206 0 82.76362483-31.63965788 91.34387105-75.25590943 10.01028723-50.40894644-23.05941166-99.566607-73.46835814-109.57689422-6.07767442-1.25128592-12.15534879-1.78755127-18.05426805-1.7875513z" fill="#4C466D" p-id="5783"></path>
  <path d="M446.59020004 443.93339846c0.35751025 4.64763334 0.35751025 9.29526674-0.53626539 14.1216552-5.541409 28.0645553-32.71218864 46.29757847-60.77674394 40.75616948-15.19418599-3.03883719-27.52828992-12.51285904-34.67849509-25.02571809 1.78755127 22.52314628 18.05426803 42.18621047 41.47119002 46.83384385 28.0645553 5.541409 55.41409006-12.69161419 60.77674391-40.75616948 2.50257182-12.87036929-0.17875514-25.38322837-6.25642951-35.92978096z" fill="#C1E6EA" p-id="5784"></path>
  <path d="M523.6801335 696.96945121a30.20961686 30.20961686 0 1 0 11.67238282-59.28101932 30.20961686 30.20961686 0 1 0-11.67238282 59.28101932Z" fill="#D7F7FF" p-id="5785"></path>
  <path d="M529.53258001 637.16769315c1.96630643 0 3.93261282 0.17875514 5.89891926 0.53626541 16.44547188 3.21759233 27.17077964 19.12679883 23.77443217 35.57227072-2.86008207 14.47916546-15.55169626 24.48945268-29.67335143 24.48945269-1.96630643 0-3.93261282-0.17875514-5.89891928-0.53626537-16.44547188-3.21759233-27.17077964-19.12679883-23.77443218-35.57227074 2.86008207-14.47916546 15.55169626-24.48945268 29.67335146-24.48945271m0-41.47118998c-34.14222967 0-63.63682601 24.31069759-70.25076581 57.91666188-3.75385772 18.76928857 0.17875514 37.89608739 10.72530778 53.80529389 10.72530775 15.9092065 26.81326939 26.63451427 45.76131306 30.38837199 4.64763334 0.89377566 9.29526674 1.43004102 13.9429001 1.43004104 34.14222967 0 63.63682601-24.31069759 70.2507658-57.91666189 3.75385772-18.76928857-0.17875514-37.89608739-10.72530776-53.80529391-10.72530775-15.9092065-26.81326939-26.63451427-45.7613131-30.38837197-4.64763334-0.89377566-9.29526674-1.43004102-13.94290007-1.43004103z" fill="#4C466D" p-id="5786"></path>
  <path d="M555.63082888 652.36187915c0.17875514 2.68132694 0.17875514 5.36265388-0.35751026 8.22273593-3.21759233 16.44547188-19.12679883 27.17077964-35.57227072 23.77443221-8.93775647-1.78755127-16.08796163-7.32896029-20.19932962-14.65792059 1.07253078 13.22787956 10.54655263 24.66820784 24.13194245 27.34953475 16.44547188 3.21759233 32.3546784-7.50771545 35.57227071-23.77443217 1.60879617-7.50771545 0-14.83667573-3.57510256-20.91435013z" fill="#C1E6EA" p-id="5787"></path>
  <path d="M595.67197783 844.7023982c-32.71218864 0-65.24562217-5.00514362-96.88528005-14.65792059-37.89608739-11.79783853-72.93209274-29.85210659-104.03548523-53.98404901-23.23816681-18.05426803-43.79500666-39.1473733-61.49176446-62.74305039-6.79269492-9.11651158-5.00514362-22.16563603 4.2901231-28.95833092 9.11651158-6.79269492 22.16563603-5.00514362 28.95833094 4.29012309 15.37294112 20.55683987 33.42720918 38.96861817 53.62653877 54.69906953 27.17077964 21.09310527 57.73790673 37.00231174 90.80760566 47.19135415 28.95833093 8.93775647 58.81043753 13.22787956 88.66254411 12.87036929h0.35751027c11.26157314 0 20.55683987 9.11651158 20.73559497 20.37808475 0.17875514 11.44032827-8.93775647 20.91435011-20.37808471 21.09310524-1.43004102-0.17875514-3.03883719-0.17875514-4.64763337-0.17875514zM661.45386539 837.37343792c-9.47402183 0-18.05426803-6.61393978-20.19932962-16.26671678-2.50257182-11.08281802 4.64763334-22.16563603 15.73045139-24.66820784 6.97145003-1.60879617 13.94290009-3.39634746 20.73559499-5.36265385 10.9040629-3.21759233 22.52314628 2.86008207 25.74073861 13.94290007 3.21759233 10.9040629-2.86008207 22.52314628-13.94290009 25.74073861-7.86522569 2.32381667-15.73045138 4.46887824-23.59567705 6.07767438-1.60879617 0.5362654-3.03883719 0.5362654-4.46887823 0.53626541z" fill="#4C466D" p-id="5788"></path>
  <path d="M967.73410766 492.73969778c-0.12945383 13.07483653-18.64135111 74.69485827-43.49648593 74.56540445 24.98458864 0.12945383 42.59030914 57.99531457 42.46085532 75.08321974 0.12945383-17.21735902 20.45370469-74.69485827 43.49648593-74.56540443-23.04278124-0.12945383-42.59030914-59.80766815-42.46085532-75.08321976z" fill="#FFFFFF" p-id="5789"></path>
  <path d="M966.56902321 657.40496593c-8.41449876 0-15.01664395-6.73159902-15.01664395-15.01664396v-0.12945382c0.12945383-17.86462815-17.73517431-59.93712197-27.57366518-60.0665758-8.28504494 0-14.88719013-6.73159902-14.88719012-15.01664396v-0.12945381c0-8.28504494 6.73159902-14.88719013 15.01664395-14.88719013h0.12945382c9.70903703 0 28.22093431-45.17938569 28.47984198-59.67821432 0-8.28504494 6.73159902-14.88719013 15.01664395-14.88719013h0.12945382c7.89668347 0 14.36937482 6.2137837 14.88719014 14.11046717v0.90617678c-0.12945383 13.59265185 17.6057205 57.47749925 27.703119 60.0665758 0.38836148 0 0.77672297 0 1.16508444 0.12945384 7.76722963 0.64726914 13.72210569 7.1199605 13.59265186 15.01664395 0 8.28504494-6.99050667 14.7577363-15.2755516 14.88719011-9.5795832 1.68289975-28.35038815 43.75539358-28.47984198 59.67821432 0.12945383 8.41449876-6.60214518 15.01664395-14.88719013 15.01664396z m-13.59265184-90.0998637c5.69596839 6.47269136 10.48576 14.36937482 14.36937481 22.65441974 4.66033778-9.19122173 9.45012939-16.6995437 14.62828247-22.52496592-5.04869925-5.95487605-9.83849086-13.72210569-14.36937482-23.17223507-4.01306864 8.41449876-8.93231408 16.57008987-14.62828246 23.04278125z" fill="#4C466D" p-id="5790"></path>
  <path d="M171.4636168 775.20794864c-63.8207368 0-113.9193679-9.45012939-143.17593284-28.6092958-18.12353581-11.9097521-28.60929581-27.31475753-30.9394647-45.69720098-8.67340642-66.40981333 34.95253333-115.99062914 155.3445926-176.96338173 7.37886815-3.75416098 16.44063605-0.77672297 20.19479704 6.60214518 3.75416098 7.37886815 0.77672297 16.44063605-6.60214519 20.19479704-123.24004347 62.26729086-144.72937876 103.56306173-139.1628642 146.28282468 1.29453827 9.45012939 6.99050667 17.47626667 17.6057205 24.46677334 61.36111408 40.26014025 249.45752494 27.96202667 447.39242667-29.25656494C749.47495506 617.92154864 894.85160298 507.62688791 886.56655804 443.93560495c-5.17815309-39.48341728-70.42288197-58.6425837-179.29355063-52.81716148-8.15559111 0.51781531-15.27555161-5.82542222-15.79336691-14.11046717s5.82542222-15.40500543 14.11046716-15.79336691c164.53581431-8.93231408 205.31376987 37.92997136 210.62137679 78.83738074 11.9097521 91.26494815-159.22820741 206.73776197-415.93514667 280.91480493-123.62840494 35.85871013-239.61903408 54.24115358-328.81272098 54.24115358z" fill="#1296db" p-id="5791"></path>
  <path d="M94.82695111 299.07677235c-0.12945383 17.6057205-24.85513482 99.93835457-58.25422221 99.80890074 33.39908741 0.25890765 57.08913778 77.54284247 56.83023013 100.58562371 0.12945383-23.04278124 27.44421136-99.93835457 58.25422222-99.80890075-30.81001086-0.12945383-56.95968395-80.00246518-56.83023014-100.5856237z" fill="#FFFFFF" p-id="5792"></path>
  <path d="M93.40295903 514.48794075s-0.12945383 0 0 0c-8.41449876 0-15.01664395-6.73159902-15.01664397-15.01664395v-0.12945383c0.12945383-22.78387358-23.56059653-85.3100721-41.94304-85.43952594-8.28504494 0-14.88719013-6.73159902-14.88719011-15.01664394v-0.12945383c0-8.28504494 6.73159902-14.88719013 15.01664395-14.88719012h0.12945383c6.08432987 0 16.95845136-10.61521383 27.83257283-34.43471803 9.83849086-21.61878914 15.27555161-44.66157037 15.27555161-50.48699258 0-8.28504494 6.73159902-14.88719013 15.01664394-14.88719014h0.12945384c8.28504494 0 14.88719013 6.86105283 14.88719011 15.14609779-0.12945383 21.74824297 26.79694222 85.3100721 41.94304 85.43952592 8.28504494 0 14.88719013 6.73159902 14.88719013 15.01664395v0.12945383c0 8.28504494-6.73159902 14.88719013-15.01664394 14.88719012h-0.12945384c-4.53088395 0-15.40500543 8.67340642-27.05584987 32.75181828-10.48576 21.61878914-16.05227457 44.14375506-16.1817284 52.16989233 0 8.15559111-6.73159902 14.88719013-14.88719011 14.88719014z m-25.2434963-115.60226766c10.87412148 11.00357531 19.5475279 26.79694222 26.02021925 42.71976296 1.03563061-2.45962272 2.20071506-4.91924543 3.3657995-7.37886814 7.24941431-15.01664395 15.14609778-26.79694222 23.56059656-35.08198716-10.87412148-11.26248297-19.80643555-27.44421136-26.53803457-43.62593977-0.9061768 2.07126124-1.81235358 4.2719763-2.71853038 6.34323755-7.37886815 16.05227457-15.27555161 28.35038815-23.69005036 37.02379456z" fill="#4C466D" p-id="5793"></path>
  <path d="M694.06871705 271.63256098c0.77672297 18.12353581-20.71261235 104.59869235-55.14733037 106.02268445 34.56417185-1.4239921 62.78510617 77.28393482 63.82073679 101.10343902-1.03563061-23.81950419 23.30168889-104.72814617 55.14733036-106.02268445-31.84564148 1.29453827-62.91456-80.00246518-63.82073678-101.10343902z" fill="#FFFFFF" p-id="5794"></path>
  <path d="M702.61266964 493.64587458c-8.02613728 0-14.62828247-6.34323753-15.01664394-14.36937483-0.38836148-8.80286025-6.73159902-32.3634568-17.73517433-53.72333827-12.68647506-24.72568098-24.46677333-33.14017975-30.55110322-32.88127209-8.54395259 0.25890765-15.27555161-6.08432987-15.66391309-14.36937481v-0.64726915c0-8.02613728 6.34323753-14.62828247 14.36937482-15.01664395 19.02971259-0.77672297 41.55467852-71.9763279 40.77795555-90.35877135-0.38836148-8.28504494 6.08432987-15.27555161 14.36937483-15.6639131 8.41449876-0.25890765 15.27555161 6.08432987 15.66391308 14.36937483 0.9061768 23.17223506 31.45728 86.73406419 47.89791606 86.73406419h0.25890765c8.41449876-0.38836148 15.27555161 6.08432987 15.66391308 14.36937482v0.64726913c0 8.02613728-6.34323753 14.62828247-14.36937481 15.01664395-16.95845136 0.64726914-41.81358617 66.53926717-40.77795557 90.35877136v0.64726914c0 8.02613728-6.34323753 14.62828247-14.3693748 15.01664394 0-0.12945383-0.25890765-0.12945383-0.51781531-0.12945381z m-31.97509531-117.80298272c9.32067555 8.28504494 17.99408197 20.32425086 26.02021926 35.98816395 1.29453827 2.58907653 2.71853037 5.30760691 4.01306864 8.15559111 6.47269136-17.21735902 15.27555161-34.30526419 26.27912691-46.34447012-12.16865975-11.3919368-22.52496592-28.22093431-30.42164939-45.17938569-6.2137837 17.47626667-14.7577363 35.08198717-25.89076542 47.38010075z" fill="#4C466D" p-id="5795"></path>
  <path d="M151.65718125 762.90983506m-44.53211655 0a44.53211653 44.53211653 0 1 0 89.06423308 0 44.53211653 44.53211653 0 1 0-89.06423308 0Z" fill="#f30cd2" p-id="5796"></path>
  <path d="M151.65718125 718.37771853c24.59622717 0 44.53211653 19.93588939 44.53211653 44.53211653s-19.93588939 44.53211653-44.53211653 44.53211656-44.53211653-19.93588939-44.53211655-44.53211656 19.93588939-44.53211653 44.53211655-44.53211653m0-30.03328792c-41.16631703 0-74.56540445 33.39908741-74.56540445 74.56540445S110.4908642 837.47523951 151.65718125 837.47523951s74.56540445-33.39908741 74.56540445-74.56540445c0-41.0368632-33.39908741-74.56540445-74.56540445-74.56540445z" fill="#4C466D" p-id="5797"></path>
</svg>