<svg xmlns="http://www.w3.org/2000/svg"
  xmlns:xlink="http://www.w3.org/1999/xlink" fill="none" version="1.1" width="20" height="20" viewBox="0 0 20 20">
  <g>
    <g>
      <path d="M4.10728390625,15.89240390625C7.36165390625,19.14680390625,12.63800390625,19.14680390625,15.89240390625,15.89240390625C19.14680390625,12.63800390625,19.14680390625,7.36166390625,15.89240390625,4.10729390625C12.63800390625,0.85292390625,7.36165390625,0.85292390625,4.10728390625,4.10729390625C0.85291090625,7.36166390625,0.85291090625,12.63800390625,4.10728390625,15.89240390625ZM16.11810390625,12.64770390625Q15.61310390625,13.81470390625,14.71390390625,14.71390390625Q13.81470390625,15.61310390625,12.64770390625,16.11810390625Q11.38055390625,16.66650390625,9.99983390625,16.66650390625Q8.61912390625,16.66650390625,7.35198390625,16.11810390625Q6.18496390625,15.61310390625,5.2857939062499995,14.71390390625Q4.38661390625,13.81470390625,3.88155390625,12.64770390625Q3.33317390625,11.38056390625,3.33317390625,9.99985390625Q3.33317390625,8.619143906249999,3.88155390625,7.35200390625Q4.38661390625,6.18498390625,5.2857939062499995,5.28580390625Q6.18496390625,4.38663390625,7.35198390625,3.88157390625Q8.61912390625,3.33318390625,9.99983390625,3.33318390625Q11.38055390625,3.33318390625,12.64770390625,3.88157390625Q13.81470390625,4.38663390625,14.71390390625,5.28580390625Q15.61310390625,6.18497390625,16.11810390625,7.35200390625Q16.66650390625,8.619143906249999,16.66650390625,9.99985390625Q16.66650390625,11.38056390625,16.11810390625,12.64770390625ZM9.99983390625,8.82133390625L11.76760390625,7.05357390625L12.94610390625,8.23208390625L11.17835390625,9.99985390625L12.94610390625,11.76760390625L11.76760390625,12.94610390625L9.99983390625,11.17836390625L8.232073906250001,12.94610390625L7.05355390625,11.76760390625L8.82132390625,9.99985390625L7.05355390625,8.23208390625L8.232073906250001,7.05357390625L9.99983390625,8.82133390625Z" fill-rule="evenodd" fill="#E34D59" fill-opacity="1"/>
    </g>
  </g>
</svg>