<svg xmlns="http://www.w3.org/2000/svg"
  xmlns:xlink="http://www.w3.org/1999/xlink" fill="none" version="1.1" width="20" height="20" viewBox="0 0 20 20">
  <g>
    <g>
      <path d="M9.99983390625,18.33320390625C14.60220390625,18.33320390625,18.33320390625,14.60220390625,18.33320390625,9.99983390625C18.33320390625,5.39746390625,14.60220390625,1.66650390625,9.99983390625,1.66650390625C5.39746390625,1.66650390625,1.66650390625,5.39746390625,1.66650390625,9.99983390625C1.66650390625,14.60220390625,5.39746390625,18.33320390625,9.99983390625,18.33320390625ZM16.19840390625,7.54587390625Q16.66650390625,8.72821390625,16.66650390625,9.99983390625Q16.66650390625,11.27146390625,16.19840390625,12.45380390625Q15.69020390625,13.73760390625,14.71390390625,14.71390390625Q13.73760390625,15.69020390625,12.45380390625,16.19840390625Q11.27146390625,16.66650390625,9.99983390625,16.66650390625Q8.72821390625,16.66650390625,7.54587390625,16.19840390625Q6.26210390625,15.69020390625,5.2857939062499995,14.71390390625Q4.30948390625,13.73760390625,3.80124390625,12.45380390625Q3.33317390625,11.27146390625,3.33317390625,9.99983390625Q3.33317390625,8.72821390625,3.80124390625,7.54587390625Q4.30948390625,6.26210390625,5.2857939062499995,5.2857939062499995Q6.26210390625,4.30948390625,7.54587390625,3.80124390625Q8.72821390625,3.33317390625,9.99983390625,3.33317390625Q11.27146390625,3.33317390625,12.45380390625,3.80124390625Q13.73760390625,4.30948390625,14.71390390625,5.2857939062499995Q15.69020390625,6.26210390625,16.19840390625,7.54587390625ZM13.24070390625,6.75893390625L14.41930390625,7.93744390625L10.29448390625,12.06220390625L9.11596390625,13.24070390625L5.580433906250001,9.70520390625L6.75894390625,8.52669390625L9.11597390625,10.88371390625L13.24070390625,6.75893390625Z" fill-rule="evenodd" fill="#2C68FF" fill-opacity="1"/>
    </g>
  </g>
</svg>