<svg t="1724292871920" class="icon" viewBox="0 0 1024 1024" version="1.1"
  xmlns="http://www.w3.org/2000/svg" p-id="5866" width="32" height="32">
  <path d="M51.2 51.2m153.6 0l609.28 0q153.6 0 153.6 153.6l0 609.28q0 153.6-153.6 153.6l-609.28 0q-153.6 0-153.6-153.6l0-609.28q0-153.6 153.6-153.6Z" fill="#F19149" opacity=".2" p-id="5867"></path>
  <path d="M800.16896 624.68608h-4.88448V420.97152A281.7792 281.7792 0 0 0 514.47296 138.24a281.77408 281.77408 0 0 0-280.81152 282.73152v203.71456h-14.9504a54.54848 54.54848 0 0 0-54.89664 49.99168 53.40672 53.40672 0 0 0 53.07392 57.11872h585.10336a53.40672 53.40672 0 0 0 53.07904-57.11872 54.54848 54.54848 0 0 0-54.90176-49.99168zM391.87456 793.088c0 56.832 54.272 102.912 121.216 102.912 66.94912 0 121.216-46.08 121.216-102.912h-242.432z" fill="#F19149" p-id="5868"></path>
</svg>