<svg xmlns="http://www.w3.org/2000/svg"
  xmlns:xlink="http://www.w3.org/1999/xlink" fill="none" version="1.1" width="16" height="16" viewBox="0 0 16 16">
  <g>
    <g>
      <path d="M8.5625,1.5L8.5625,2.4047799999999997C11.19749,2.68545,13.25,4.91553,13.25,7.625L13.25,10.25L13.25,11.375L14.125,11.375C14.194,11.375,14.25,11.431,14.25,11.5L14.25,12.375C14.25,12.444,14.194,12.5,14.125,12.5L1.875,12.5C1.8059644,12.5,1.75,12.444,1.75,12.375L1.75,11.5C1.75,11.431,1.8059644,11.375,1.875,11.375L2.75,11.375L2.75,7.625C2.75,4.91553,4.80251,2.68545,7.4375,2.4047799999999997L7.4375,1.5C7.4375,1.4309644,7.49346,1.375,7.5625,1.375L8.4375,1.375C8.506540000000001,1.375,8.5625,1.4309644,8.5625,1.5ZM12.125,7.625L12.125,11.375L3.875,11.375L3.875,7.625Q3.875,6.03594,4.9399,4.85882Q5.99774,3.6895,7.55666,3.52345L8,3.47623L8.44334,3.52345Q10.00226,3.6895,11.0601,4.85882Q12.125,6.03594,12.125,7.625ZM9.875,13.5C9.94404,13.5,10,13.556,10,13.625L10,14.5C10,14.569,9.94404,14.625,9.875,14.625L6.125,14.625C6.05596,14.625,6,14.569,6,14.5L6,13.625C6,13.556,6.05596,13.5,6.125,13.5L9.875,13.5Z" fill-rule="evenodd" fill="#2C68FF" fill-opacity="1"/>
    </g>
  </g>
</svg>