<svg xmlns="http://www.w3.org/2000/svg" xmlns:xlink="http://www.w3.org/1999/xlink" fill="none" version="1.1" width="20" height="20" viewBox="0 0 20 20"><defs><clipPath id="master_svg0_862_22399"><rect x="0" y="0" width="20" height="20" rx="0"/></clipPath></defs><g clip-path="url(#master_svg0_862_22399)"><g><path d="M3.5,17L13.5,17L16,17L16.375,14L17,14L17,3L6,3L6,14L7,14L10.25,14L13.5,14L13.5,14.5L4,14.5L3.5,17Z" fill="#B5FEC4" fill-opacity="1"/></g><g><path d="M5,1.6666666269302368L5,13.333366626930237L2.5,13.333366626930237L2.5,15.833366626930237C2.5,17.216666626930238,3.61667,18.333366626930236,5,18.333366626930236L15,18.333366626930236C16.3833,18.333366626930236,17.5,17.216666626930238,17.5,15.833366626930237L17.5,1.6666666269302368L5,1.6666666269302368ZM12.5,16.666666626930237L5,16.666666626930237C4.54167,16.666666626930237,4.16667,16.291666626930237,4.16667,15.833366626930237L4.16667,14.999966626930236L12.5,14.999966626930236L12.5,16.666666626930237ZM15.8333,15.833366626930237C15.8333,16.291666626930237,15.4583,16.666666626930237,15,16.666666626930237C14.5417,16.666666626930237,14.1667,16.291666626930237,14.1667,15.833366626930237L14.1667,13.333366626930237L6.66667,13.333366626930237L6.66667,4.166666626930237L15.8333,4.166666626930237L15.8333,15.833366626930237Z" fill="#2BD077" fill-opacity="1"/></g><g><path d="M7.5,5.8333330154418945L12.5,5.8333330154418945L12.5,7.500003015441894L7.5,7.500003015441894L7.5,5.8333330154418945ZM13.33333,5.8333330154418945L15,5.8333330154418945L15,7.500003015441894L13.33333,7.500003015441894L13.33333,5.8333330154418945ZM7.5,8.333333015441895L12.5,8.333333015441895L12.5,10.000003015441894L7.5,10.000003015441894L7.5,8.333333015441895ZM13.33333,8.333333015441895L15,8.333333015441895L15,10.000003015441894L13.33333,10.000003015441894L13.33333,8.333333015441895Z" fill="#2BD077" fill-opacity="1"/></g></g></svg>