<svg t="1693539673656" class="icon" viewBox="0 0 1024 1024" version="1.1"
  xmlns="http://www.w3.org/2000/svg" p-id="4922" width="200" height="200">
  <path d="M892.745143 54.857143c50.944 0 76.397714 25.453714 76.397714 76.397714v611.108572c0 50.944-25.453714 76.434286-76.397714 76.434285H281.636571c-50.944 0-76.434286-25.453714-76.434285-76.434285V131.291429c0-50.944 25.490286-76.397714 76.434285-76.397715h611.108572z m-481.755429 353.572571l-137.654857 105.874286a28.269714 28.269714 0 0 0 17.261714 50.578286h69.741715l0.073143 188.708571c0 11.702857 9.508571 21.138286 21.174857 21.138286h110.445714c11.702857 0 21.174857-9.472 21.174857-21.138286v-188.708571h69.814857a28.269714 28.269714 0 0 0 17.261715-50.578286l-137.654858-105.874286a42.313143 42.313143 0 0 0-51.638857 0z" fill="#40A0FF" p-id="4923"></path>
  <path d="M742.4 205.238857c50.907429 0 76.361143 25.453714 76.361143 76.361143v611.145143c0 50.944-25.453714 76.397714-76.397714 76.397714H131.291429c-50.944 0-76.397714-25.453714-76.397715-76.397714V281.636571c0-50.944 25.453714-76.434286 76.397715-76.434285h611.108571z m-331.410286 203.190857l-137.654857 105.874286a28.269714 28.269714 0 0 0 17.261714 50.578286h69.741715l0.073143 188.708571c0 11.702857 9.508571 21.138286 21.174857 21.138286h110.445714c11.702857 0 21.174857-9.472 21.174857-21.138286v-188.708571h69.814857a28.269714 28.269714 0 0 0 17.261715-50.578286l-137.654858-105.874286a42.313143 42.313143 0 0 0-51.638857 0z" fill="#3889FF" p-id="4924"></path>
</svg>