<svg t="1693539708206" class="icon" viewBox="0 0 1024 1024" version="1.1"
  xmlns="http://www.w3.org/2000/svg" p-id="5227" width="200" height="200">
  <path d="M773.2736 205.4144l148.3264 153.6V942.08a30.72 30.72 0 0 1-30.72 30.72H133.12a30.72 30.72 0 0 1-30.72-30.72V81.92c0-16.896 13.824-30.72 30.72-30.72h492.032l148.1216 154.2144z m66.8672 480.9216l-31.5392-31.488a15.872 15.872 0 0 0-22.3744 0l-144.5376 144.128-61.1328-60.928a15.872 15.872 0 0 0-22.3744 0l-31.2832 31.232a15.7696 15.7696 0 0 0 0 22.272l103.2704 103.0656a15.8208 15.8208 0 0 0 11.776 4.608 15.8208 15.8208 0 0 0 11.776-4.608l186.4192-185.9584a15.7696 15.7696 0 0 0 0-22.3232z m-147.1488-172.8512H269.9264c-10.3936 0-18.8416 6.8608-18.8416 15.36v46.08c0 8.3968 8.448 15.36 18.8416 15.36h423.1168c10.3936 0 18.8416-6.912 18.8416-15.36v-46.08c0-8.4992-8.448-15.36-18.8416-15.36h-0.0512z m-220.9792-184.32H255.7952c-2.56 0-4.7104 3.4304-4.7104 7.68v53.76c0 8.3968 4.1984 15.36 9.4208 15.36H472.064c5.2224 0 9.4208-6.912 9.4208-15.36v-46.08c0-8.4992-4.1984-15.36-9.4208-15.36z" fill="#3388FF" p-id="5228"></path>
  <path d="M624.8448 51.8144l146.5344 151.6544L921.6 359.0144h-266.0352a30.72 30.72 0 0 1-30.72-30.72v-276.48z" fill="#63F3F7" p-id="5229"></path>
</svg>