<svg t="1693545690925" class="icon" viewBox="0 0 1097 1024" version="1.1"
  xmlns="http://www.w3.org/2000/svg" p-id="5235" width="200" height="200">
  <path d="M313.070933 204.8a68.266667 68.266667 0 0 1 48.264534 20.002133l96.529066 96.529067A68.266667 68.266667 0 0 0 506.129067 341.333333H887.466667a68.266667 68.266667 0 0 1 68.266666 68.266667v477.866667a68.266667 68.266667 0 0 1-68.266666 68.266666H68.266667a68.266667 68.266667 0 0 1-68.266667-68.266666V273.066667a68.266667 68.266667 0 0 1 68.266667-68.266667h244.804266z m325.905067 319.010133a13.653333 13.653333 0 0 0-13.1072 10.0352l-0.546133 3.618134v77.141333H436.770133l-6.144 0.6144a34.133333 34.133333 0 0 0 0 67.1744l6.144 0.546133 188.552534-0.068266v76.663466a13.653333 13.653333 0 0 0 17.271466 13.175467l4.027734-1.8432 166.5024-111.2064a13.653333 13.653333 0 0 0 3.208533-19.729067l-3.208533-3.003733-166.570667-110.7968a13.653333 13.653333 0 0 0-7.509333-2.321067z" fill="#3699FF" p-id="5236"></path>
  <path d="M136.533333 0h682.666667a68.266667 68.266667 0 0 1 68.266667 68.266667v200.493333a27.306667 27.306667 0 0 1-27.306667 27.306667H541.218133a68.266667 68.266667 0 0 1-48.059733-19.797334L395.400533 156.330667A68.266667 68.266667 0 0 0 347.3408 136.533333H81.92a13.653333 13.653333 0 0 1-13.653333-13.653333V68.266667a68.266667 68.266667 0 0 1 68.266666-68.266667z" fill="#3699FF" opacity=".478" p-id="5237"></path>
</svg>