<svg xmlns="http://www.w3.org/2000/svg"
  xmlns:xlink="http://www.w3.org/1999/xlink" fill="none" version="1.1" width="204.606689453125" height="44.000244140625" viewBox="0 0 204.606689453125 44.000244140625">
  <defs>
    <filter id="master_svg0_63_00779" filterUnits="objectBoundingBox" color-interpolation-filters="sRGB" x="-8" y="-6" width="209.79310607910156" height="48">
      <feFlood flood-opacity="0" result="BackgroundImageFix"/>
      <feColorMatrix in="SourceAlpha" type="matrix" values="0 0 0 0 0 0 0 0 0 0 0 0 0 0 0 0 0 0 127 0"/>
      <feOffset dy="2" dx="0"/>
      <feGaussianBlur stdDeviation="2"/>
      <feColorMatrix type="matrix" values="0 0 0 0 0 0 0 0 0 0 0 0 0 0 0 0 0 0 0.10000000149011612 0"/>
      <feBlend mode="normal" in2="BackgroundImageFix" result="effect1_dropShadow"/>
      <feBlend mode="normal" in="SourceGraphic" in2="effect1_dropShadow" result="shape"/>
    </filter>
    <clipPath id="master_svg1_63_00783/46_11300">
      <rect x="103.79310607910156" y="6.9638671875" width="96" height="26" rx="0"/>
    </clipPath>
  </defs>
  <g filter="url(#master_svg0_63_00779)">
    <g>
      <g>
        <g>
          <g>
            <g>
              <path d="M40.30353896484375,8.495133479248047C40.39173896484375,8.998875479248047,39.995338964843754,9.370842479248047,39.60393896484375,9.738112479248047C39.40883896484375,9.921172479248046,39.21503896484375,10.103062479248047,39.08303896484375,10.299522479248047C38.91921896484375,10.265742479248047,38.65593896484375,10.429982479248046,38.62316896484375,10.692082479248047C39.329438964843746,11.395122479248046,38.78039896484375,11.921892479248047,38.22128896484375,12.458372479248048C37.94478896484375,12.723682479248048,37.66580896484375,12.991362479248046,37.53493896484375,13.283922479248048C37.53493896484375,13.283922479248048,37.50217896484375,13.382932479248048,37.47057896484375,13.448172479248047C37.56887896484375,13.612412479248047,37.83215896484375,13.646192479248047,37.99597896484375,13.514562479248047L38.06266896484375,13.448172479248047C38.06266896484375,13.448172479248047,38.45700896484375,12.792342479248047,38.91921896484375,12.857582479248048C39.051438964843754,12.530252479248047,39.28193896484375,12.497632479248047,39.61073896484375,12.465012479248047C39.96943896484375,12.778492479248047,39.866938964843754,13.246952479248048,39.76643896484375,13.706172479248046C39.63583896484375,14.303252479248048,39.50873896484375,14.884692479248047,40.40293896484375,15.089472479248048C40.49033896484375,15.220802479248047,40.46113896484375,15.352132479248047,40.43203896484375,15.483112479248046C40.417438964843754,15.548472479248048,40.40293896484375,15.613752479248046,40.40293896484375,15.678902479248046C39.74303896484375,16.433732479248047,38.55763896484375,16.204252479248048,38.09426896484375,17.189742479248046C38.30825896484375,17.373922479248044,38.56258896484375,17.303412479248045,38.809738964843746,17.234892479248046C38.82206896484375,17.231472479248048,38.83437896484375,17.228062479248045,38.84666896484375,17.224682479248045C38.89346896484375,17.211872479248047,39.66923896484375,16.877552479248045,39.99803896484375,16.791352479248047C40.28713896484375,16.716802479248045,40.56913896484375,16.613122479248048,40.80083896484375,16.399952479248046C40.833538964843754,16.369672479248045,40.99033896484375,16.300942479248047,41.03953896484375,16.29977247924805C41.10403896484375,16.296472479248045,41.17153896484375,16.291742479248047,41.24103896484375,16.286882479248046C41.73523896484375,16.252242479248046,42.32673896484375,16.21079247924805,42.64373896484375,16.630602479248047C42.77483896484375,16.729612479248047,42.74203896484375,16.95909247924805,42.67653896484375,17.090722479248047C42.31263896484375,17.549682479248048,41.687738964843746,17.385432479248045,41.22673896484375,17.616082479248046C40.50123896484375,17.877012479248044,39.710238964843754,17.977192479248046,39.28193896484375,18.73087247924805C39.34393896484375,18.91687247924805,39.51453896484375,19.079572479248046,39.68843896484375,19.245372479248047C39.97403896484375,19.517772479248045,40.26863896484375,19.798672479248047,40.10573896484375,20.205572479248048C39.18363896484375,20.82997247924805,38.32712896484375,21.19107247924805,37.33835896484375,21.747872479248045C37.33835896484375,22.260672479248047,37.32454896484375,22.803472479248047,37.31050896484375,23.355572479248046C37.27599896484375,24.712372479248046,37.24004896484375,26.126072479248048,37.40388896484375,27.292672479248047C37.39304896484375,27.303472479248047,37.38193896484375,27.314672479248046,37.37059896484375,27.326072479248047C37.20793896484375,27.490072479248045,36.99547896484375,27.704172479248047,36.81061896484375,27.491872479248048C36.51340896484375,27.325272479248046,36.57776896484375,27.129572479248047,36.41511896484375,26.900072479248045C36.26767896484375,25.574472479248048,36.33320896484375,24.117272479248047,36.20214896484375,22.811372479248046L36.17289896484375,22.536472479248047C36.16587896484375,22.482872479248044,36.07811896484375,22.251072479248045,35.95641896484375,22.219672479248047C35.65051896484375,22.059072479248044,35.32073896484375,22.204572479248046,34.99478896484375,22.34837247924805C34.86440896484375,22.405872479248046,34.73462896484375,22.463072479248048,34.60724896484375,22.500372479248046C34.39076896484375,22.55277247924805,34.10642896484375,22.724072479248047,33.962498964843746,22.73107247924805C33.65943896484375,22.743872479248047,33.33764896484375,22.73107247924805,33.38327896484375,22.305872479248045C33.23626896484375,21.81177247924805,33.54102896484375,21.562872479248046,33.84574896484375,21.313972479248047C33.90240896484375,21.26767247924805,33.95906896484375,21.221472479248046,34.01281896484375,21.173572479248048C34.18599896484375,21.01747247924805,34.36502896484375,20.896372479248047,34.43640896484375,20.82997247924805C34.66926896484375,20.600472479248047,34.96413896484375,20.403572479248048,35.06360896484375,20.042472479248048C34.89861896484375,19.913172479248047,34.63532896484375,19.845672479248044,34.43640896484375,19.945872479248045C33.18552896484375,20.66687247924805,31.63509896484375,21.059472479248047,30.31751896484375,21.716472479248047C30.20314896484375,21.73537247924805,30.06652896484375,21.81497247924805,29.92456596484375,21.897772479248047C29.57706196484375,22.100472479248047,29.19753296484375,22.321772479248047,29.03387306484375,21.716472479248047C28.99574636484375,21.64117247924805,29.00120849484375,21.555272479248046,29.00654587484375,21.471372479248046C29.01054556484375,21.408472479248047,29.01447526484375,21.34667247924805,28.99993896484375,21.291272479248047C30.38421896484375,20.437372479248047,31.90071896484375,19.715172479248046,33.28498896484375,18.763472479248048C33.226018964843746,18.35457247924805,33.41014896484375,18.050172479248047,33.59764896484375,17.740152479248046C33.72638896484375,17.527292479248047,33.85670896484375,17.311812479248047,33.91101896484375,17.05810247924805C33.73716896484375,16.827182479248044,33.46769896484375,16.913152479248048,33.21735896484375,16.993002479248048C32.89817896484375,17.094822479248045,32.61011896484375,17.186712479248047,32.59109896484375,16.599152479248048C32.28496896484375,15.898472479248046,32.73877896484375,15.581282479248046,33.19069896484375,15.265432479248048C33.56446896484375,15.004202479248047,33.93693896484375,14.743872479248047,33.87707896484375,14.268242479248046C33.71325896484375,13.841892479248047,33.54826896484375,13.350322479248046,33.54826896484375,12.890192479248046C32.88948896484375,12.234372479248048,32.32898896484375,11.381682479248047,32.69172896484375,10.463762479248047C33.74602896484375,9.544682479248047,34.56863896484375,8.724613479248047,35.92014896484375,8.691997479248046C35.98684896484375,8.888860479248047,36.15066896484375,9.051942479248048,36.31681896484375,9.215022479248047C36.46105896484375,9.244662479248047,36.59245896484375,9.179032479248047,36.71418896484375,9.118242479248046C36.86995896484375,9.040442479248046,37.00988896484375,8.970560479248046,37.14059896484375,9.118342479248048C37.15956896484375,9.289592479248046,37.05701896484375,9.339482479248048,36.94161896484375,9.395622479248047C36.85763896484375,9.436472479248046,36.76685896484375,9.480642479248047,36.71115896484375,9.577302479248047C35.95290896484375,10.659462479248047,34.70202896484375,11.612332479248046,33.94260896484375,12.562862479248047C34.06619896484375,12.889262479248046,34.22682896484375,12.772312479248047,34.40203896484375,12.644752479248048C34.50884896484375,12.566982479248047,34.62106896484375,12.485282479248047,34.73362896484375,12.497632479248047C36.11789896484375,11.448082479248047,37.20495896484375,10.036262479248046,38.02990896484375,8.691997479248046C38.24998896484375,8.271326479248048,38.55121896484375,8.257858479248046,38.86606896484375,8.243781479248048C39.11703896484375,8.232560479248047,39.37663896484375,8.220952479248046,39.61073896484375,8.002392989248047C39.92863896484375,7.972099479248047,40.12373896484375,8.244393479248046,40.28513896484375,8.469540479248046C40.291338964843746,8.478146479248046,40.29743896484375,8.486684479248046,40.30353896484375,8.495133479248047ZM54.80853896484375,13.144242479248046C54.724138964843746,14.102582479248046,54.770638964843755,15.020212479248046,54.81723896484375,15.940702479248046C54.86683896484375,16.921132479248048,54.91663896484375,17.904742479248046,54.80853896484375,18.944172479248046C54.82533896484375,19.02347247924805,54.81693896484375,19.092072479248046,54.808438964843745,19.162072479248046C54.799738964843755,19.23387247924805,54.79083896484375,19.30707247924805,54.80853896484375,19.394972479248047C54.790338964843755,19.666272479248047,54.81923896484375,19.881272479248047,54.84633896484375,20.083472479248044C54.87143896484375,20.270072479248046,54.89503896484375,20.44577247924805,54.87883896484375,20.644872479248047C54.903738964843754,20.919072479248047,54.97263896484375,21.231172479248045,55.04443896484375,21.556272479248047C55.272738964843754,22.590372479248046,55.53033896484375,23.756672479248046,54.494938964843755,24.258272479248046C53.75783896484375,23.724772479248045,53.020638964843755,23.190072479248045,52.313838964843754,22.533072479248048C52.285738964843745,22.505172479248046,52.00373896484375,22.195272479248047,51.85163896484375,22.022872479248047C51.68783896484375,21.839972479248047,51.52863896484375,21.64077247924805,51.52863896484375,21.443972479248046C51.07313896484375,21.239272479248047,50.59293896484375,21.422972479248045,50.12963896484375,21.60007247924805C49.493238964843755,21.84347247924805,48.88883896484375,22.074572479248047,48.42433896484375,21.270372479248046C48.13093896484375,20.84817247924805,48.42503896484375,20.524772479248046,48.70693896484375,20.214872479248047C49.02773896484375,19.86207247924805,49.33273896484375,19.526772479248045,48.73793896484375,19.08277247924805C48.599838964843755,19.014072479248046,48.599838964843755,18.804372479248045,48.49333896484375,18.66687247924805C48.607238964843745,18.553572479248047,48.79853896484375,18.51767247924805,48.98973896484375,18.481772479248047C49.327138964843755,18.41837247924805,49.66413896484375,18.355172479248047,49.574538964843754,17.866642479248046C49.15683896484375,17.519502479248047,48.66883896484375,17.379722479248045,48.07673896484375,17.379722479248045C47.726938964843754,17.415832479248046,47.37703896484375,17.728022479248047,47.274038964843754,18.075172479248046C47.369938964843755,18.90317247924805,47.27393896484375,19.687672479248047,47.17523896484375,20.493872479248047C47.09573896484375,21.143872479248046,47.01443896484375,21.807972479248047,47.030638964843746,22.52027247924805C46.99433896484375,22.728772479248047,46.78373896484375,22.868572479248044,46.610538964843755,22.728772479248047C46.150338964843755,21.973672479248044,46.19043896484375,21.12897247924805,46.23143896484375,20.26277247924805C46.25273896484375,19.814172479248047,46.27423896484375,19.359872479248047,46.22673896484375,18.90917247924805C46.22673896484375,18.547372479248047,46.272038964843745,18.17157247924805,46.31753896484375,17.793892479248047C46.41603896484375,16.97534247924805,46.515638964843745,16.148172479248046,46.15773896484375,15.435552479248047C45.24973896484375,16.616732479248046,45.21573896484375,18.318572479248047,44.72543896484375,19.74327247924805C44.37793896484375,20.887172479248047,44.09833896484375,22.06947247924805,43.506238964843746,23.110872479248044C43.01703896484375,22.763772479248047,42.11023896484375,22.693872479248046,42.04003896484375,21.895972479248044C41.99133896484375,21.680672479248045,42.09923896484375,21.528272479248045,42.20813896484375,21.374172479248045C42.22243896484375,21.354072479248046,42.23663896484375,21.333872479248047,42.25063896484375,21.31347247924805C42.27283896484375,21.282072479248047,42.38873896484375,21.13177247924805,42.38873896484375,21.13177247924805C43.19143896484375,20.192872479248045,43.01703896484375,18.90917247924805,43.22653896484375,17.693072479248045C43.33783896484375,17.07970247924805,43.18373896484375,16.516492479248047,43.033638964843746,15.967622479248046C42.85223896484375,15.304212479248047,42.67653896484375,14.661772479248047,42.98193896484375,13.977132479248047L44.51603896484375,11.615932479248047C45.17953896484375,12.136632479248046,45.63353896484375,13.108132479248047,45.59843896484375,14.047022479248046C45.24973896484375,14.636452479248046,44.51603896484375,14.672562479248047,44.13343896484375,15.298092479248048C44.24123896484375,15.394282479248048,44.32923896484375,15.543712479248047,44.41903896484375,15.696062479248047C44.61943896484375,16.036362479248048,44.82853896484375,16.391212479248047,45.28593896484375,16.199702479248046C46.33203896484375,15.123362479248048,46.47013896484375,13.803562479248047,46.64333896484375,12.380092479248047C46.76853896484375,12.196042479248046,46.965138964843746,12.084212479248047,47.11963896484375,11.958412479248047C47.22723896484375,11.872202479248047,47.42263896484375,11.732422479248047,47.46243896484375,11.720772479248048C47.65123896484375,11.663632479248047,47.84293896484375,11.587492479248047,48.03843896484375,11.509862479248048C48.492538964843746,11.329542479248047,48.966838964843745,11.141162479248047,49.471538964843745,11.163962479248047L49.85533896484375,11.824442479248047C49.463438964843746,12.506122479248047,49.47813896484375,13.319442479248046,49.49283896484375,14.129032479248046C49.50423896484375,14.762392479248046,49.515638964843745,15.393452479248047,49.33233896484375,15.957412479248047C49.30633896484375,16.111562479248047,49.45113896484375,16.189312479248045,49.58513896484375,16.261262479248046C49.63243896484375,16.286642479248044,49.678338964843746,16.311292479248046,49.71493896484375,16.33832247924805C50.02973896484375,16.305712479248047,50.23913896484375,16.094872479248046,50.48373896484375,15.957412479248047C50.569838964843754,15.367592479248046,50.581838964843755,14.760582479248047,50.593838964843755,14.156262479248046C50.61573896484375,13.051492479248047,50.63743896484375,11.955722479248047,51.110938964843754,10.990402479248047C51.18623896484375,11.049052479248047,51.25953896484375,11.121842479248047,51.33443896484375,11.196102479248047C51.57023896484375,11.430072479248047,51.82083896484375,11.678672479248046,52.19213896484375,11.546042479248047C52.59433896484375,11.532612479248048,52.99673896484375,11.221592479248047,53.38653896484375,10.920262479248047C54.04463896484375,10.411602479248046,54.66693896484375,9.930582479248047,55.19233896484375,10.955452479248047L54.80853896484375,13.144242479248046ZM53.41253896484375,12.066722479248046L52.401638964843755,12.623532479248047C52.38553896484375,12.953942479248047,52.61373896484375,13.134762479248046,52.84233896484375,13.315902479248047C53.09403896484375,13.515382479248046,53.34633896484375,13.715252479248047,53.273338964843745,14.115732479248047C53.02883896484375,14.533922479248048,52.57593896484375,14.359192479248048,52.26243896484375,14.568872479248046C52.23863896484375,14.773032479248048,52.41093896484375,14.888352479248047,52.58143896484375,15.002472479248047C52.67073896484375,15.062202479248047,52.75943896484375,15.121602479248047,52.81933896484375,15.193242479248047C52.84763896484375,15.209262479248046,52.878638964843745,15.228072479248047,52.91173896484375,15.248122479248046C53.16493896484375,15.401452479248047,53.537038964843745,15.626872479248046,53.69223896484375,15.228182479248048C53.609238964843755,14.815482479248047,53.64143896484375,14.386132479248047,53.67363896484375,13.957612479248047C53.72253896484375,13.304812479248046,53.77143896484375,12.653922479248047,53.41253896484375,12.066722479248046ZM48.07663896484375,13.004412479248046C47.93613896484375,13.249032479248047,48.00633896484375,13.596162479248047,48.24973896484375,13.768562479248047C48.52843896484375,13.934632479248048,48.58513896484375,13.660332479248048,48.63153896484375,13.435842479248047C48.64343896484375,13.378462479248046,48.65463896484375,13.324332479248046,48.66863896484375,13.281652479248047C48.72593896484375,12.965272479248046,48.44753896484375,12.983192479248046,48.21203896484375,12.998342479248047C48.164038964843755,13.001432479248047,48.11783896484375,13.004412479248046,48.07663896484375,13.004412479248046ZM35.04411896484375,14.805852479248047C35.07391896484375,14.756642479248047,35.10305896484375,14.708532479248046,35.12897896484375,14.662032479248047C35.14620896484375,14.657242479248048,35.165288964843754,14.651702479248048,35.18584896484375,14.645732479248046C35.44033896484375,14.571852479248047,35.92239896484375,14.431902479248047,35.95270896484375,14.827442479248047C35.82282896484375,15.286402479248046,35.55722896484375,15.843212479248047,34.89847896484375,15.614892479248047C34.70518896484375,15.365522479248046,34.88426896484375,15.069802479248047,35.04411896484375,14.805852479248047ZM37.50217896484375,16.236852479248046C37.20497896484375,16.17278247924805,36.777908964843746,16.236852479248046,36.64568896484375,15.875742479248046C36.84342896484375,15.352712479248048,37.20497896484375,14.696892479248046,37.86372896484375,14.793572479248047C37.73423896484375,14.966492479248046,37.74398896484375,15.202532479248047,37.75382896484375,15.440742479248048C37.76638896484375,15.744932479248046,37.77909896484375,16.052622479248047,37.50217896484375,16.236852479248046ZM47.69283896484375,14.949782479248046C47.447138964843745,15.158292479248047,47.517338964843745,15.505422479248047,47.447138964843745,15.783832479248048C47.376938964843745,16.094852479248047,47.552438964843745,16.408202479248047,47.86603896484375,16.373252479248045C48.21473896484375,16.23463247924805,48.38903896484375,15.887502479248047,48.38903896484375,15.540372479248047C48.51363896484375,15.136902479248047,48.08063896484375,15.038552479248047,47.78863896484375,14.972242479248047C47.75443896484375,14.964462479248047,47.72213896484375,14.957122479248046,47.69283896484375,14.949782479248046ZM51.35173896484375,16.868402479248047C51.49583896484375,16.537162479248046,51.62983896484375,16.229132479248047,52.15683896484375,16.442902479248048L52.19193896484375,16.61646247924805C52.371238964843755,16.774962479248046,52.65343896484375,16.729392479248048,52.953838964843754,16.680872479248045C53.17893896484375,16.644512479248046,53.41423896484375,16.606512479248046,53.624238964843755,16.651412479248044C53.75653896484375,17.538262479248047,53.70323896484375,18.384172479248047,53.649638964843746,19.233672479248046C53.60473896484375,19.947372479248045,53.55953896484375,20.663572479248046,53.624238964843755,21.408772479248046C53.23923896484375,21.685972479248047,52.819138964843745,21.582272479248047,52.43533896484375,21.408772479248046C52.05393896484375,20.78437247924805,52.40143896484375,20.090072479248047,51.52853896484375,19.776772479248045C51.28393896484375,19.742972479248046,51.18093896484375,19.500672479248045,51.11073896484375,19.324772479248047C51.12173896484375,19.29187247924805,51.13393896484375,19.257372479248048,51.14653896484375,19.221772479248045C51.25313896484375,18.92007247924805,51.39013896484375,18.532372479248046,51.11073896484375,18.283372479248047C50.866238964843745,18.074872479248047,50.65553896484375,17.76270247924805,50.796038964843746,17.450512479248047C51.118638964843754,17.404332479248048,51.23833896484375,17.129182479248048,51.35173896484375,16.868402479248047ZM35.65687896484375,17.416912479248047L35.29532896484375,17.416912479248047C35.19703896484375,17.123372479248047,35.55741896484375,17.024352479248044,35.85461896484375,17.058132479248044C35.88854896484375,17.189762479248046,35.82302896484375,17.416912479248047,35.65687896484375,17.416912479248047ZM35.28325896484375,18.084372479248046C35.37789896484375,18.024372479248047,35.47641896484375,17.961792479248047,35.52570896484375,17.87698247924805C35.82290896484375,17.87698247924805,35.78897896484375,18.106472479248048,35.82290896484375,18.239272479248047C35.62399896484375,18.468772479248045,35.39231896484375,18.501372479248047,35.09629896484375,18.468772479248045C34.97162896484375,18.282172479248047,35.12180896484375,18.186872479248045,35.28325896484375,18.084372479248046ZM37.89883896484375,19.420572479248047C37.69875896484375,19.517172479248046,37.37113896484375,19.747872479248045,37.502188964843754,20.011072479248046L37.93042896484375,20.042572479248047C38.12816896484375,19.977372479248046,38.19369896484375,19.780472479248047,38.22762896484375,19.584772479248045C38.22762896484375,19.411172479248044,38.075658964843754,19.415772479248048,37.94987896484375,19.419472479248046C37.932188964843746,19.419972479248045,37.91499896484375,19.420572479248047,37.89883896484375,19.420572479248047ZM35.77528896484375,35.78587247924804C35.36808896484375,35.884872479248045,34.91523896484375,36.00017247924805,34.18623896484375,36.00017247924805C32.75749896484375,36.00017247924805,31.10760896484375,35.28147247924805,31.10760896484375,33.26387247924805C31.10760896484375,31.405972479248046,32.41230896484375,30.48107247924805,34.178048964843754,30.48107247924805C34.72333896484375,30.48107247924805,35.25340896484375,30.603372479248048,35.76826896484375,30.75707247924805L35.65242896484375,31.910372479248046C35.19139896484375,31.658672479248047,34.74673896484375,31.536372479248048,34.255278964843754,31.536372479248048C33.24193896484375,31.536372479248048,32.58197896484375,32.27027247924805,32.58197896484375,33.26387247924805C32.58197896484375,34.31117247924804,33.32618896484375,34.944772479248044,34.36995896484375,34.944772479248044C34.839178964843754,34.944772479248044,35.31425896484375,34.82247247924805,35.70625896484375,34.66987247924804L35.77528896484375,35.78587247924804ZM38.94139896484375,30.573072479248047L36.39165896484375,30.573072479248047L36.39165896484375,35.90817247924805L37.82040896484375,35.90817247924805L37.82040896484375,33.79857247924805L38.11995896484375,33.79857247924805C38.648858964843754,33.79857247924805,38.83374896484375,34.02687247924805,39.12513896484375,34.94487247924805L39.43163896484375,35.90817247924805L40.92123896484375,35.90817247924805L40.40053896484375,34.45557247924805C40.13143896484375,33.806772479248046,40.10103896484375,33.40017247924804,39.63993896484375,33.27907247924804L39.63993896484375,33.26397247924805C40.33153896484375,33.103172479248045,40.66853896484375,32.62907247924805,40.66853896484375,31.918472479248045C40.66853896484375,31.000572479248046,39.89273896484375,30.573072479248047,38.94139896484375,30.573072479248047ZM38.19596896484375,32.78987247924805L37.82036896484375,32.78987247924805L37.82036896484375,31.581872479248048L38.19596896484375,31.581872479248048C38.74121896484375,31.581872479248048,39.240838964843746,31.673872479248047,39.240838964843746,32.17007247924805C39.240838964843746,32.774672479248046,38.65696896484375,32.78987247924805,38.19596896484375,32.78987247924805ZM60.718538964843745,30.552272479248046L58.168738964843755,30.552272479248046L58.168738964843755,35.887472479248046L59.59753896484375,35.887472479248046L59.59753896484375,33.777872479248046L59.897038964843745,33.777872479248046C60.42593896484375,33.777872479248046,60.61083896484375,34.00617247924805,60.90223896484375,34.924072479248046L61.20873896484375,35.887472479248046L62.69833896484375,35.887472479248046L62.17763896484375,34.43487247924804C61.90853896484375,33.785972479248045,61.87813896484375,33.37947247924805,61.41703896484375,33.25827247924805L61.41703896484375,33.243172479248045C62.10863896484375,33.08237247924805,62.44563896484375,32.60827247924804,62.44563896484375,31.897772479248047C62.44563896484375,30.979872479248048,61.66983896484375,30.552272479248046,60.718538964843745,30.552272479248046ZM59.97303896484375,32.769072479248045L59.59743896484375,32.769072479248045L59.59743896484375,31.561072479248047L59.97303896484375,31.561072479248047C60.51833896484375,31.561072479248047,61.01793896484375,31.653172479248045,61.01793896484375,32.14937247924804C61.01793896484375,32.75397247924805,60.43403896484375,32.769072479248045,59.97303896484375,32.769072479248045ZM48.80753896484375,30.552272479248046L52.58473896484375,30.552272479248046L52.58473896484375,31.561072479248047L50.23633896484375,31.561072479248047L50.23633896484375,32.661872479248046L52.454838964843745,32.661872479248046L52.454838964843745,33.67067247924805L50.23633896484375,33.67067247924805L50.23633896484375,34.87747247924805L52.66903896484375,34.87747247924805L52.66903896484375,35.887472479248046L48.80753896484375,35.887472479248046L48.80753896484375,30.552272479248046ZM53.488238964843745,30.552272479248046L57.26663896484375,30.552272479248046L57.26663896484375,31.561072479248047L54.91693896484375,31.561072479248047L54.91693896484375,32.661872479248046L57.13553896484375,32.661872479248046L57.13553896484375,33.67067247924805L54.91693896484375,33.67067247924805L54.91693896484375,34.87747247924805L57.34963896484375,34.87747247924805L57.34963896484375,35.887472479248046L53.488238964843745,35.887472479248046L53.488238964843745,30.552272479248046ZM48.310138964843745,34.367272479248044C48.310138964843745,35.473872479248044,47.36673896484375,35.96897247924805,46.18193896484375,35.96897247924805L44.12693896484375,35.96897247924805L44.12693896484375,30.552272479248046L46.028338964843755,30.552272479248046C47.15463896484375,30.552272479248046,48.05413896484375,30.850772479248047,48.05413896484375,31.891872479248047C48.05413896484375,32.372472479248046,47.78353896484375,32.896672479248046,47.34473896484375,33.06407247924805L47.34473896484375,33.09317247924805C47.893238964843746,33.23877247924805,48.310138964843745,33.64647247924805,48.310138964843745,34.367272479248044ZM45.977138964843746,32.700172479248046L45.43593896484375,32.700172479248046L45.43593896484375,31.542572479248047L45.977138964843746,31.542572479248047C46.52563896484375,31.542572479248047,46.78153896484375,31.702772479248047,46.78153896484375,32.08857247924804C46.78153896484375,32.45987247924805,46.53293896484375,32.700172479248046,45.977138964843746,32.700172479248046ZM46.08683896484375,34.97167247924804L45.43593896484375,34.97167247924804L45.43593896484375,33.66117247924805L46.08683896484375,33.66117247924805C46.72303896484375,33.66117247924805,47.03753896484375,33.83597247924804,47.03753896484375,34.28007247924805C47.03753896484375,34.745972479248046,46.71573896484375,34.97167247924804,46.08683896484375,34.97167247924804ZM68.04733896484376,23.327372479248048L68.04733896484376,20.85737247924805L70.34173896484376,20.85737247924805L70.35503896484374,19.476272479248045L68.04733896484376,19.476272479248045L68.04733896484376,17.73669247924805L66.52663896484376,17.73669247924805L66.52663896484376,19.476272479248045L64.37893896484374,19.476272479248045C65.19263896484375,18.905272479248048,65.77953896484375,18.241272479248046,66.16643896484375,17.564062479248047L69.82143896484375,17.564062479248047L69.82143896484375,12.424882479248048L66.59333896484375,12.424882479248048C66.79333896484374,12.026492479248047,67.02013896484375,11.574992479248047,67.22023896484376,11.083652479248046L65.35273896484375,10.937572479248047C65.29933896484374,11.375792479248046,65.16593896484375,11.933542479248047,65.03253896484375,12.424882479248048L62.91153896484375,12.424882479248048L62.91153896484375,17.564062479248047L64.39223896484376,17.564062479248047C64.00543896484375,18.015572479248046,63.49853896484375,18.440472479248047,62.83153896484375,18.812372479248047C63.09833896484375,18.97167247924805,63.45853896484375,19.23727247924805,63.72523896484375,19.476272479248045L62.28463896484375,19.476272479248045L62.28463896484375,20.85737247924805L66.52663896484376,20.85737247924805L66.52663896484376,23.327372479248048L68.04733896484376,23.327372479248048ZM76.92993896484376,22.756372479248046L76.92993896484376,23.327372479248048L75.50263896484375,23.327372479248048L75.50263896484375,14.297322479248047L77.65023896484375,14.297322479248047L77.65023896484375,13.075602479248047L75.15573896484375,13.075602479248047L75.15573896484375,12.371792479248047L74.22193896484376,13.659902479248046C73.74173896484375,13.301352479248047,72.74133896484375,12.703772479248048,72.06093896484376,12.305392479248047L72.95473896484376,11.136792479248047C73.62173896484376,11.495342479248047,74.64883896484375,12.013242479248046,75.15573896484375,12.358512479248047L75.15573896484375,11.641412479248046L83.99993896484375,11.641412479248046L83.99993896484375,13.075602479248047L81.33203896484375,13.075602479248047L81.33203896484375,14.297322479248047L83.63973896484376,14.297322479248047L83.63973896484376,23.314172479248047L82.13233896484374,23.314172479248047L82.13233896484374,22.756372479248046L76.92993896484376,22.756372479248046ZM59.77653896484375,19.861472479248047L59.77653896484375,21.04337247924805L58.335838964843745,21.04337247924805L58.335838964843745,12.079662479248046L62.07093896484375,12.079662479248046L62.07093896484375,19.861472479248047L59.77653896484375,19.861472479248047ZM79.03753896484375,14.297472479248047L79.91793896484376,14.297472479248047L79.91793896484376,13.075752479248047L79.03753896484375,13.075752479248047L79.03753896484375,14.297472479248047ZM59.77653896484375,18.41407247924805L60.616938964843754,18.41407247924805L60.616938964843754,13.527172479248048L59.77653896484375,13.527172479248048L59.77653896484375,18.41407247924805ZM64.35203896484376,14.416922479248047L65.57913896484375,14.416922479248047C65.59253896484375,14.270842479248046,65.59253896484375,14.138052479248046,65.59253896484375,14.018532479248048L65.59253896484375,13.659982479248047L64.35203896484376,13.659982479248047L64.35203896484376,14.416922479248047ZM68.31383896484374,14.416922479248047L67.01993896484376,14.416922479248047C67.03333896484375,14.284122479248047,67.03333896484375,14.164602479248046,67.03333896484375,14.045092479248048L67.03333896484375,13.659982479248047L68.31383896484374,13.659982479248047L68.31383896484374,14.416922479248047ZM73.82183896484375,17.112552479248045L74.75563896484374,15.797872479248046C74.22203896484375,15.479162479248046,73.18153896484375,14.974542479248047,72.48783896484375,14.655832479248048L71.62073896484375,15.824432479248047C72.31443896484376,16.209542479248046,73.34163896484375,16.767282479248045,73.82183896484375,17.112552479248045ZM64.35203896484376,16.329272479248047L65.15233896484375,16.329272479248047C65.25903896484374,16.076962479248046,65.35243896484374,15.824652479248048,65.40573896484375,15.572342479248046L64.35203896484376,15.572342479248046L64.35203896484376,16.329272479248047ZM66.69993896484375,16.329272479248047L68.31383896484374,16.329272479248047L68.31383896484374,15.572342479248046L66.89993896484376,15.572342479248046C66.84663896484375,15.824652479248048,66.77993896484375,16.076962479248046,66.69993896484375,16.329272479248047ZM76.92983896484375,19.104472479248045L82.13233896484374,19.104472479248045L82.13233896484374,18.24137247924805L81.13183896484375,18.24137247924805C80.10473896484375,18.24137247924805,79.86453896484375,17.882792479248046,79.86453896484375,16.767312479248048L79.86453896484375,15.665112479248048L79.10423896484374,15.665112479248048L79.10423896484374,16.010382479248047C79.10423896484374,16.953222479248048,78.78403896484375,18.015572479248046,77.46343896484376,18.706172479248046C77.37003896484376,18.573372479248047,77.14333896484375,18.360872479248044,76.92983896484375,18.174972479248048L76.92983896484375,19.104472479248045ZM76.92983896484375,15.665112479248048L76.92983896484375,17.657042479248048C77.74353896484375,17.139142479248047,77.90363896484375,16.52828247924805,77.90363896484375,15.983822479248047L77.90363896484375,15.665112479248048L76.92983896484375,15.665112479248048ZM81.97353896484375,17.006222479248045L81.31853896484375,17.006342479248048C81.09183896484376,17.006342479248048,81.06513896484375,16.993062479248046,81.06513896484375,16.727472479248046L81.06513896484375,15.665112479248048L82.13223896484375,15.665112479248048L82.13223896484375,16.979782479248048C82.09883896484375,17.001922479248044,82.05623896484374,17.005612479248047,81.97353896484375,17.006222479248045ZM73.27483896484375,23.128372479248046C73.90183896484375,21.840272479248046,74.58213896484375,20.286572479248047,75.11573896484376,18.865672479248047L73.84843896484375,17.97590247924805C73.23483896484376,19.529572479248046,72.40773896484376,21.202872479248047,71.83413896484376,22.238672479248045L73.27483896484375,23.128372479248046ZM76.92983896484375,21.402072479248048L82.13233896484374,21.402072479248048L82.13233896484374,20.432672479248048L76.92983896484375,20.432672479248048L76.92983896484375,21.402072479248048Z" fill-rule="evenodd" fill="#FFFFFF" fill-opacity="1"/>
            </g>
            <g>
              <path d="M6,4.000072479248047L27.5,4.000072479248047L27.5,25.500072479248047L6,25.500072479248047L6,4.000072479248047Z" fill-rule="evenodd" fill="#FFFFFF" fill-opacity="1"/>
            </g>
            <g>
              <path d="M27.5,4.000072479248047L6,4.000072479248047L6,25.500072479248047L10.459620000000001,25.500072479248047C10.45723,25.346472479248046,10.49654,25.192772479248045,10.577539999999999,25.052272479248046L13.94131,19.226672479248045C14.10688,18.940872479248046,14.40585,18.778872479248047,14.71555,18.777672479248046C15.02643,18.777672479248046,15.32898,18.93847247924805,15.49574,19.226672479248045L18.8583,25.052272479248046C18.9393,25.192772479248045,18.979799999999997,25.346472479248046,18.979799999999997,25.500072479248047L19.8779,25.500072479248047C19.8779,25.346472479248046,19.9161,25.192772479248045,19.9982,25.052272479248046L23.3608,19.226672479248045C23.5264,18.940872479248046,23.8266,18.778872479248047,24.1351,18.777672479248046C24.4459,18.777672479248046,24.7497,18.93847247924805,24.9164,19.226672479248045L27.5,23.703972479248048L27.5,18.778872479248047C27.1903,18.778872479248047,26.8902,18.61807247924805,26.7222,18.32867247924805L24.1386,13.853802479248047L21.5539,18.32867247924805C21.307299999999998,18.75977247924805,20.7546,18.906272479248045,20.326999999999998,18.658572479248047C19.897,18.41087247924805,19.750500000000002,17.859372479248044,19.9982,17.432972479248047L23.3608,11.607442479248046C23.5264,11.321582479248047,23.8266,11.159602479248047,24.1351,11.158402479248046C24.4459,11.158402479248046,24.7497,11.319202479248048,24.9164,11.607442479248046L27.5,16.085872479248046L27.5,4.000072479248047ZM14.85626,13.853912479248047L17.482100000000003,18.328772479248045C17.7337,18.75997247924805,18.294,18.906472479248045,18.7284,18.658672479248047C19.1652,18.410972479248045,19.3141,17.859472479248048,19.0624,17.433072479248047L15.64642,11.607552479248046C15.47701,11.319312479248048,15.16966,11.158522479248047,14.85384,11.158522479248047C14.53923,11.159712479248046,14.23551,11.321692479248046,14.06731,11.607552479248046L10.65015,17.433072479248047C10.39967,17.859472479248048,10.54729,18.410972479248045,10.98412,18.658672479248047C11.42216,18.906472479248045,11.97878,18.75997247924805,12.23046,18.328772479248045L14.85626,13.853912479248047ZM12.49561,25.499972479248047L17.218400000000003,25.499972479248047L14.8564,21.474172479248047L12.49561,25.499972479248047ZM24.4266,21.474172479248047L22.0646,25.499972479248047L26.7886,25.499972479248047L24.4266,21.474172479248047Z" fill-rule="evenodd" fill="#F99D35" fill-opacity="1"/>
            </g>
          </g>
        </g>
        <g clip-path="url(#master_svg1_63_00783/46_11300)">
          <g>
            <path d="M115.18600607910156,12.447007187499999C114.28030607910156,15.0846971875,112.85020607910157,17.2615671875,110.89578607910157,18.9776671875L111.81738607910157,20.4712671875C113.50168607910156,18.8187671875,114.80460607910156,16.816667187500002,115.72620607910156,14.4649971875L115.72620607910156,20.2647671875C115.72620607910156,20.7413671875,115.56730607910157,20.979767187500002,115.24950607910156,20.979767187500002C114.64570607910156,20.979767187500002,114.02600607910156,20.947967187499998,113.37456607910156,20.8844671875L113.74002607910157,22.4574671875L115.82160607910156,22.4574671875C116.80670607910156,22.4574671875,117.31520607910156,21.8536671875,117.31520607910156,20.6778671875L117.31520607910156,12.447007187499999L118.96770607910156,12.447007187499999L118.96770607910156,10.9057171875L117.31520607910156,10.9057171875L117.31520607910156,7.9184601875L115.72620607910156,7.9184601875L115.72620607910156,10.9057171875L111.67437607910156,10.9057171875L111.67437607910156,12.447007187499999L115.18600607910156,12.447007187499999ZM110.94345607910157,8.4110371875L105.00071607910157,8.4110371875L105.00071607910157,18.5962671875L106.49434607910156,18.5962671875L106.49434607910156,9.9364471875L109.46571607910157,9.9364471875L109.46571607910157,18.5962671875L110.94345607910157,18.5962671875L110.94345607910157,8.4110371875ZM107.30471607910157,10.873937187500001L107.30471607910157,16.0698571875C107.25704607910156,17.4045671875,107.03459607910156,18.4850671875,106.63735607910156,19.3272671875C106.22422607910156,20.0899671875,105.42973607910156,20.7413671875,104.25390607910157,21.2657671875L105.14372607910157,22.664067187500002C106.35133607910156,22.1237671875,107.24116607910156,21.3452671875,107.78140607910156,20.3441671875C108.33754607910156,19.2795671875,108.63944607910156,17.8494671875,108.70300607910156,16.0698571875L108.70300607910156,10.873937187500001L107.30471607910157,10.873937187500001ZM109.32270607910156,19.0094671875L108.28987607910156,20.0263671875C109.16380607910156,20.8526671875,109.84706607910157,21.6471671875,110.32375607910156,22.3780671875L111.48369607910156,21.2180671875C110.89578607910157,20.4871671875,110.18074607910157,19.7562671875,109.32270607910156,19.0094671875ZM124.86280607910156,7.8390111875C124.22720607910156,9.364417187499999,122.98780607910156,10.6514771875,121.14460607910156,11.700197187499999L122.14570607910156,13.0190371875C122.74950607910156,12.6376871875,123.32150607910157,12.2404471875,123.84580607910156,11.8114271875C124.44970607910156,12.3040071875,125.10110607910156,12.7648071875,125.80030607910156,13.1938271875C124.17950607910156,13.7658571875,122.33630607910156,14.194877187500001,120.27070607910156,14.449107187500001L121.03340607910157,16.0062971875C123.54390607910156,15.6249471875,125.73670607910157,15.0052471875,127.62760607910155,14.1630971875C129.59790607910156,15.0846971875,131.80660607910156,15.6726071875,134.26950607910157,15.9586271875L135.01630607910155,14.4173271875C132.98240607910157,14.226657187499999,131.12330607910155,13.8294071875,129.45490607910156,13.2256071875C130.75780607910156,12.462897187500001,131.87010607910156,11.5412971875,132.80760607910156,10.4608071875L132.80760607910156,9.1260771875L126.05450607910156,9.1260771875C126.22930607910156,8.8082771875,126.38820607910156,8.4587071875,126.54710607910157,8.0932471875L124.86280607910156,7.8390111875ZM127.61170607910157,12.4311171875C126.65830607910156,11.9544371875,125.76850607910157,11.3824071875,124.94220607910157,10.7150371875L124.97400607910157,10.6832571875L130.34470607910157,10.6832571875C129.53430607910155,11.350627187499999,128.62860607910156,11.9226571875,127.61170607910157,12.4311171875ZM126.40410607910157,15.0688071875C126.38820607910156,15.6090571875,126.34050607910156,16.117527187500002,126.24520607910156,16.6100971875L121.38290607910156,16.6100971875L121.38290607910156,18.1037671875L125.73670607910157,18.1037671875C125.64140607910156,18.2626671875,125.54600607910156,18.4373671875,125.43480607910156,18.6121671875C124.65620607910157,19.676767187499998,122.97190607910156,20.5824671875,120.39780607910157,21.3293671875L121.49420607910156,22.6799671875C124.44970607910156,21.726567187500002,126.30870607910157,20.5507671875,127.07140607910156,19.1365671875C127.26210607910156,18.8187671875,127.42100607910156,18.4691671875,127.54810607910156,18.1037671875L131.71120607910157,18.1037671875C131.67940607910157,19.4225671875,131.55230607910156,20.2329671875,131.34580607910158,20.5507671875C131.15510607910156,20.8526671875,130.69430607910155,21.0115671875,129.94750607910157,21.0274671875C129.40720607910157,21.0115671875,128.72400607910157,20.979767187500002,127.88180607910157,20.9320671875L128.29500607910157,22.4256671875C129.08940607910156,22.489267187499998,129.75680607910155,22.5210671875,130.31290607910157,22.5210671875C131.42520607910157,22.5210671875,132.20380607910155,22.2350671875,132.64870607910157,21.6788671875C133.09360607910156,21.1227671875,133.33200607910157,19.438467187500002,133.36380607910155,16.6100971875L127.92950607910156,16.6100971875C127.99300607910156,16.133407187499998,128.04070607910157,15.6090571875,128.04070607910157,15.0688071875L126.40410607910157,15.0688071875ZM141.78530607910156,14.051867187500001C141.24500607910156,14.3378771875,140.68890607910157,14.592117187500001,140.14860607910157,14.846347187500001L140.14860607910157,12.2404471875L141.75350607910156,12.2404471875L141.75350607910156,10.6673671875L140.14860607910157,10.6673671875L140.14860607910157,7.9661271875L138.51200607910155,7.9661271875L138.51200607910155,10.6673671875L136.39870607910157,10.6673671875L136.39870607910157,12.2404471875L138.51200607910155,12.2404471875L138.51200607910155,15.4819371875C137.71750607910155,15.7520571875,136.90710607910157,15.9745171875,136.08090607910157,16.1492971875L136.49400607910155,17.7859671875C137.16140607910157,17.5793671875,137.84460607910157,17.3568671875,138.51200607910155,17.1026671875L138.51200607910155,20.5189671875C138.51200607910155,20.9002671875,138.32130607910156,21.0909671875,137.97170607910158,21.0909671875C137.55860607910157,21.0909671875,137.12960607910156,21.0432671875,136.66880607910156,20.979767187500002L137.05010607910157,22.5687671875L138.55970607910155,22.5687671875C139.60840607910157,22.5687671875,140.14860607910157,22.0125671875,140.14860607910157,20.9320671875L140.14860607910157,16.4512071875C140.68890607910157,16.2128571875,141.24500607910156,15.9586271875,141.78530607910156,15.7043871875L141.78530607910156,14.051867187500001ZM143.93040607910157,15.6090571875L144.53420607910158,15.6090571875C144.77250607910156,17.0391671875,145.39220607910156,18.3738671875,146.37740607910155,19.6132671875C145.77360607910157,20.2488671875,145.02680607910156,20.789067187500002,144.13690607910155,21.2180671875L144.93140607910158,22.6799671875C145.91660607910157,22.2032671875,146.77460607910155,21.5994671875,147.50550607910156,20.8526671875C148.17290607910155,21.4882671875,148.95150607910156,22.0920671875,149.85720607910156,22.664067187500002L150.96950607910156,21.3769671875C150.00020607910156,20.8526671875,149.15810607910157,20.2805671875,148.44300607910156,19.6608671875C149.18980607910157,18.5168671875,149.68240607910155,17.1344671875,149.92080607910157,15.5296071875L149.92080607910157,14.099537187500001L143.93040607910157,14.099537187500001L143.93040607910157,9.9205571875L148.23650607910156,9.9205571875C148.20470607910156,10.7150371875,148.12520607910156,11.2076171875,148.02990607910158,11.4141871875C147.93460607910157,11.573077187500001,147.79160607910157,11.668417187500001,147.63270607910155,11.716087187500001C147.44200607910156,11.747867187499999,147.17190607910157,11.763757187500001,146.80640607910158,11.763757187500001C146.44090607910155,11.763757187500001,146.13900607910156,11.747867187499999,145.90070607910155,11.747867187499999L146.34560607910157,13.1620471875L147.55320607910156,13.1620471875C148.63370607910156,13.1620471875,149.28520607910156,12.8601471875,149.50760607910155,12.2563371875C149.71420607910156,11.620747187500001,149.82540607910155,10.3336871875,149.82540607910155,8.4269271875L142.35730607910156,8.4269271875L142.35730607910156,22.6322671875L143.93040607910157,22.6322671875L143.93040607910157,15.6090571875ZM145.99600607910156,15.6090571875L148.36360607910157,15.6090571875C148.14110607910158,16.6577671875,147.77570607910155,17.5952671875,147.28310607910157,18.421567187500003C146.63160607910157,17.563467187500002,146.20260607910157,16.6259871875,145.99600607910156,15.6090571875ZM158.40580607910155,8.4110371875L152.54260607910157,8.4110371875L152.54260607910157,18.5962671875L154.03620607910156,18.5962671875L154.03620607910156,9.9364471875L156.95990607910156,9.9364471875L156.95990607910156,18.5962671875L158.40580607910155,18.5962671875L158.40580607910155,8.4110371875ZM154.78300607910157,10.873937187500001L154.78300607910157,16.0857471875C154.73530607910158,17.4045671875,154.54470607910156,18.4850671875,154.19510607910155,19.3272671875C153.81370607910156,20.0899671875,153.11460607910158,20.7413671875,152.08180607910157,21.2657671875L152.97160607910155,22.664067187500002C154.06800607910156,22.1237671875,154.86250607910156,21.361067187499998,155.35500607910157,20.3600671875C155.86350607910157,19.2954671875,156.13360607910155,17.8653671875,156.18130607910155,16.0857471875L156.18130607910155,10.873937187500001L154.78300607910157,10.873937187500001ZM156.76920607910156,18.9617671875L155.70460607910155,19.9945671875C156.53090607910156,20.9002671875,157.15060607910158,21.7424671875,157.59550607910157,22.5369671875L158.78720607910157,21.3452671875C158.23110607910155,20.566667187500002,157.56370607910156,19.7721671875,156.76920607910156,18.9617671875ZM162.48950607910155,15.9109571875C163.22040607910156,18.7869671875,164.30090607910157,20.979767187500002,165.71510607910156,22.4733671875L166.84330607910155,21.1863671875C165.60390607910156,19.9469671875,164.61870607910157,18.1831671875,163.91960607910156,15.9109571875L166.50960607910156,15.9109571875L166.50960607910156,14.3219871875L161.44080607910155,14.3219871875L161.44080607910155,7.9343491875L159.82000607910157,7.9343491875L159.82000607910157,14.3219871875L158.83490607910156,14.3219871875L158.83490607910156,15.9109571875L159.82000607910157,15.9109571875L159.82000607910157,20.4871671875C159.82000607910157,20.7731671875,159.67700607910155,20.9956671875,159.39100607910157,21.138667187499998L160.07430607910158,22.6163671875C161.37720607910157,22.2032671875,162.53720607910157,21.6947671875,163.55410607910156,21.0591671875L163.26810607910156,19.5814671875C162.66430607910155,19.962867187500002,162.06050607910157,20.2805671875,161.44080607910155,20.534867187499998L161.44080607910155,15.9109571875L162.48950607910155,15.9109571875ZM165.04770607910157,8.5858271875C164.09430607910156,10.2383471875,162.93440607910156,11.4777471875,161.59970607910157,12.3040071875L162.48950607910155,13.5751771875C163.95130607910156,12.7171371875,165.22250607910155,11.3824071875,166.31890607910157,9.6027671875L165.04770607910157,8.5858271875ZM174.75630607910156,22.5687671875C175.78910607910154,22.5687671875,176.31350607910156,22.0284671875,176.31350607910156,20.9638671875L176.31350607910156,17.0549671875C177.52110607910157,16.9596771875,178.63340607910158,16.8643371875,179.65030607910157,16.7531071875C179.99990607910155,17.2774671875,180.33360607910157,17.7859671875,180.61960607910157,18.2943671875L181.93840607910158,17.388667187499998C181.23930607910157,16.228747187499998,180.22230607910154,14.878127187499999,178.90350607910156,13.336837187499999L177.68000607910156,14.099537187500001C178.02960607910157,14.544447187500001,178.37910607910158,14.9893571875,178.71280607910157,15.4342671875C177.15560607910157,15.6249471875,175.32830607910157,15.7838371875,173.26270607910158,15.9268471875C175.07410607910157,14.878127187499999,177.21920607910158,13.2891671875,179.68210607910157,11.1758371875L178.15670607910158,10.429027187500001C177.45750607910156,11.0646071875,176.79020607910155,11.652527187499999,176.13870607910155,12.192777187499999C175.09000607910156,12.2722271875,174.02540607910157,12.3516771875,172.97670607910158,12.4152371875C173.81880607910156,11.8114271875,174.62920607910155,11.048727187499999,175.39190607910155,10.1588971875C177.71180607910156,10.0000071875,179.71390607910155,9.7457671875,181.41410607910154,9.3961971875L180.60370607910156,8.0137971875C177.42580607910156,8.6017171875,173.56460607910157,8.9036171875,169.02010607910157,8.9036171875L169.49680607910156,10.3336871875C170.83160607910156,10.3336871875,172.10270607910155,10.3019071875,173.34210607910157,10.2701271875C172.51590607910157,11.1917271875,171.83260607910157,11.7796471875,171.27650607910158,12.049767187499999C170.92690607910157,12.2086671875,170.56140607910157,12.3040071875,170.16420607910158,12.3516771875L170.49790607910157,13.797637187500001C171.86440607910157,13.7181871875,173.18320607910158,13.6387371875,174.42260607910157,13.5433971875C173.08790607910157,14.5126671875,171.86440607910157,15.2276971875,170.76800607910155,15.7043871875C170.33900607910158,15.8632871875,169.86230607910156,15.9586271875,169.33790607910157,16.0062971875L169.79870607910158,17.4522671875C171.54660607910157,17.3727671875,173.15150607910158,17.2774671875,174.64510607910157,17.1821671875L174.64510607910157,20.5507671875C174.64510607910157,20.8844671875,174.48620607910158,21.0591671875,174.18430607910156,21.0591671875C173.65990607910157,21.0591671875,173.11970607910155,21.0115671875,172.56350607910156,20.947967187499998L172.94490607910154,22.5687671875L174.75630607910156,22.5687671875ZM178.44270607910158,17.722367187499998L177.34630607910157,18.7869671875C179.01470607910156,20.042267187500002,180.30180607910157,21.2180671875,181.20750607910156,22.298567187499998L182.38330607910154,21.1227671875C181.31870607910156,19.9945671875,179.99990607910155,18.8664671875,178.44270607910158,17.722367187499998ZM171.97560607910157,17.8335671875C170.92690607910157,18.9935671875,169.65570607910155,20.010467187499998,168.13030607910156,20.8844671875L169.16310607910157,22.2350671875C170.75210607910157,21.2816671875,172.07100607910155,20.1534671875,173.13560607910156,18.8664671875L171.97560607910157,17.8335671875ZM189.31120607910157,18.6439671875C187.84940607910156,19.3431671875,186.13330607910154,19.9151671875,184.17890607910158,20.3441671875L184.38540607910156,21.9966671875C186.22860607910155,21.551767187499998,187.86530607910157,20.947967187499998,189.31120607910157,20.2170671875L189.31120607910157,18.6439671875ZM186.45110607910158,7.8390111875C185.91080607910158,9.5233171875,185.27530607910157,11.0646071875,184.54430607910155,12.462897187500001C184.32190607910155,12.7806971875,184.08350607910157,12.9872571875,183.82930607910157,13.0984871875L184.24240607910156,14.623897187499999C184.97340607910155,14.5126671875,185.70430607910157,14.401437187500001,186.40340607910156,14.3060971875C185.70430607910157,15.5137171875,185.13220607910156,16.3558671875,184.68730607910157,16.8325571875C184.49670607910156,17.0232671875,184.24240607910156,17.1821671875,183.94050607910157,17.309267187499998L184.38540607910156,18.8346671875C185.92670607910156,18.5962671875,187.56340607910158,18.1196671875,189.31120607910157,17.388667187499998L189.31120607910157,15.8632871875C188.34200607910157,16.2923071875,187.38860607910158,16.6418771875,186.45110607910158,16.8961171875C187.27740607910158,15.7679471875,188.31020607910156,14.0359771875,189.54960607910158,11.700197187499999L188.07180607910158,11.1281671875C187.76990607910156,11.716087187500001,187.48390607910156,12.2722271875,187.22970607910156,12.7806971875C186.75300607910157,12.8601471875,186.27630607910157,12.9236971875,185.79960607910158,12.9713671875C186.56230607910157,11.795537187499999,187.30910607910158,10.3019071875,188.04010607910158,8.4587071875L186.45110607910158,7.8390111875ZM189.75610607910156,15.1323671875C192.06010607910156,14.9575771875,194.18940607910156,14.7192371875,196.14380607910158,14.4332171875C196.36620607910157,14.7827871875,196.57280607910155,15.1482571875,196.76350607910155,15.4978271875L198.05050607910158,14.592117187500001C197.49440607910157,13.5910671875,196.69990607910157,12.4152371875,195.66710607910156,11.0646071875L194.39590607910156,11.8590971875L195.25400607910154,13.0508171875C194.07810607910156,13.2414971875,192.88640607910156,13.4003871875,191.67880607910155,13.5116171875C192.12370607910157,12.9078071875,192.63220607910156,12.0815471875,193.20420607910157,11.001057187499999L198.03460607910156,11.001057187499999L198.03460607910156,9.4279771875L194.58660607910156,9.4279771875C194.39590607910156,8.8241671875,194.20520607910157,8.2680271875,194.01460607910155,7.7913431875L192.33030607910155,8.0773571875C192.55270607910157,8.4904871875,192.74340607910156,8.9512871875,192.91820607910157,9.4279771875L189.10470607910156,9.4279771875L189.10470607910156,11.001057187499999L191.47220607910157,11.001057187499999C190.75720607910156,12.3516771875,190.16930607910155,13.1938271875,189.72440607910156,13.5433971875C189.66080607910158,13.5751771875,189.54960607910158,13.6228471875,189.40660607910155,13.6705171875L189.75610607910156,15.1323671875ZM190.88430607910158,15.5454971875C190.82070607910157,17.2774671875,190.61420607910156,18.5168671875,190.26460607910155,19.263667187499998C189.89910607910156,20.0263671875,189.27950607910157,20.6937671875,188.38960607910155,21.2657671875L189.45420607910157,22.6004671875C190.53470607910157,21.8695671875,191.29740607910156,20.9956671875,191.75820607910157,19.9945671875C192.17140607910156,19.0570671875,192.40970607910157,17.5793671875,192.50510607910155,15.5454971875L190.88430607910158,15.5454971875ZM196.76350607910155,22.330367187500002C197.52620607910154,22.2668671875,198.03460607910156,22.0920671875,198.25710607910156,21.7742671875C198.47960607910156,21.4246671875,198.60670607910157,20.5030671875,198.60670607910157,18.9776671875L197.19250607910158,18.4691671875C197.19250607910158,19.2000671875,197.16070607910154,19.788067187499998,197.12890607910157,20.2170671875C197.09720607910157,20.614267187499998,196.95420607910157,20.8367671875,196.68400607910155,20.8685671875L195.84190607910156,20.8685671875C195.66710607910156,20.8208671875,195.58760607910156,20.6778671875,195.58760607910156,20.4394671875L195.58760607910156,15.3548171875L194.01460607910155,15.3548171875L194.01460607910155,20.7731671875C194.01460607910155,21.8060671875,194.60250607910154,22.330367187500002,195.79420607910157,22.330367187500002L196.76350607910155,22.330367187500002Z" fill="#FFFFFF" fill-opacity="1"/>
          </g>
          <g>
            <path d="M104.17414007910156,28.1828371875L104.17414007910156,31.9638671875L106.94310607910157,31.9638671875L106.94310607910157,31.5880071875L104.60862307910156,31.5880071875L104.60862307910156,30.2000771875L106.72758607910156,30.2000771875L106.72758607910156,29.8242071875L104.60862307910156,29.8242071875L104.60862307910156,28.5586971875L106.85344607910156,28.5586971875L106.85344607910156,28.1828371875L104.17414007910156,28.1828371875ZM107.60448607910156,28.1828371875L108.89758607910156,30.0000771875L107.50448607910157,31.9638671875L108.03896607910156,31.9638671875L109.16138607910156,30.3431771875L110.29069607910156,31.9638671875L110.82517607910157,31.9638671875L109.42172607910156,30.0000771875L110.72517607910156,28.1828371875L110.19069607910156,28.1828371875L109.16138607910156,29.6552471875L108.14069607910156,28.1828371875L107.60448607910156,28.1828371875ZM111.54517607910157,28.1828371875L111.54517607910157,31.9638671875L111.97965607910156,31.9638671875L111.97965607910156,30.4173171875L113.08655607910157,30.4173171875C113.95550607910157,30.4173171875,114.39520607910157,30.0414571875,114.39520607910157,29.2948971875C114.39520607910157,28.5535271875,113.96070607910156,28.1828371875,113.09172607910156,28.1828371875L111.54517607910157,28.1828371875ZM111.97965607910156,28.5586971875L113.06413607910156,28.5586971875C113.36758607910156,28.5586971875,113.59000607910156,28.6173171875,113.73827607910157,28.7448971875C113.88650607910157,28.8552471875,113.96070607910156,29.0414571875,113.96070607910156,29.2948971875C113.96070607910156,29.5500771875,113.88650607910157,29.734557187500002,113.74345607910156,29.8569671875C113.59517607910156,29.9776571875,113.37276607910157,30.0414571875,113.06413607910156,30.0414571875L111.97965607910156,30.0414571875L111.97965607910156,28.5586971875ZM115.23070607910157,28.1828371875L115.23070607910157,31.9638671875L117.99970607910156,31.9638671875L117.99970607910156,31.5880071875L115.66520607910157,31.5880071875L115.66520607910157,30.2000771875L117.78410607910156,30.2000771875L117.78410607910156,29.8242071875L115.66520607910157,29.8242071875L115.66520607910157,28.5586971875L117.91000607910156,28.5586971875L117.91000607910156,28.1828371875L115.23070607910157,28.1828371875ZM118.91620607910156,28.1828371875L118.91620607910156,31.9638671875L119.35070607910157,31.9638671875L119.35070607910157,28.8552471875L119.36620607910156,28.8552471875L121.51620607910156,31.9638671875L121.96100607910157,31.9638671875L121.96100607910157,28.1828371875L121.52650607910157,28.1828371875L121.52650607910157,31.2604171875L121.51100607910156,31.2604171875L119.37140607910156,28.1828371875L118.91620607910156,28.1828371875ZM124.31380607910157,28.1086971875C123.92240607910156,28.1086971875,123.59830607910156,28.193177187499998,123.35000607910156,28.3621471875C123.06900607910157,28.5431771875,122.93100607910156,28.8017971875,122.93100607910156,29.1311071875C122.93100607910156,29.4483471875,123.07410607910157,29.6914571875,123.36550607910156,29.8621471875C123.48790607910156,29.9259371875,123.77930607910156,30.031107187499998,124.23450607910156,30.1690371875C124.65860607910156,30.2914571875,124.92760607910157,30.3811071875,125.03450607910156,30.4448971875C125.28280607910156,30.5776571875,125.41030607910156,30.7621471875,125.41030607910156,31.0000771875C125.41030607910156,31.2017971875,125.31550607910157,31.3604171875,125.12410607910157,31.4776571875C124.93450607910157,31.5931771875,124.67930607910156,31.6517971875,124.37240607910157,31.6517971875C124.03280607910156,31.6517971875,123.77930607910156,31.5776571875,123.60340607910156,31.4397271875C123.41380607910156,31.286277187499998,123.29650607910156,31.0431771875,123.26030607910155,30.7138671875L122.83100607910157,30.7138671875C122.86210607910157,31.1811071875,123.02590607910156,31.5259371875,123.32410607910157,31.753527187499998C123.57760607910157,31.943177187499998,123.92760607910157,32.0397271875,124.37240607910157,32.0397271875C124.82240607910157,32.0397271875,125.17760607910157,31.943177187499998,125.44140607910157,31.7586971875C125.70690607910156,31.5673171875,125.83970607910156,31.3017971875,125.83970607910156,30.9742071875C125.83970607910156,30.6293871875,125.68100607910156,30.3655871875,125.36720607910156,30.1742071875C125.20860607910157,30.0793871875,124.88100607910157,29.9569671875,124.38280607910156,29.8086971875C124.01720607910156,29.7035271875,123.78450607910156,29.6242071875,123.68970607910157,29.5707671875C123.47240607910156,29.4535271875,123.36550607910156,29.3000771875,123.36550607910156,29.1104171875C123.36550607910156,28.8931771875,123.45520607910156,28.7328371875,123.63620607910156,28.6276571875C123.79480607910156,28.5328371875,124.01210607910156,28.4897271875,124.29310607910156,28.4897271875C124.60000607910156,28.4897271875,124.83790607910156,28.5535271875,125.00860607910155,28.6914571875C125.17240607910156,28.8242071875,125.27760607910156,29.0242071875,125.32590607910157,29.3000771875L125.75520607910155,29.3000771875C125.71720607910156,28.9035271875,125.57410607910157,28.6017971875,125.32070607910157,28.4000771875C125.07590607910157,28.2035271875,124.73790607910156,28.1086971875,124.31380607910157,28.1086971875ZM126.61830607910156,28.1828371875L126.61830607910156,31.9638671875L129.38720607910156,31.9638671875L129.38720607910156,31.5880071875L127.05280607910156,31.5880071875L127.05280607910156,30.2000771875L129.17170607910157,30.2000771875L129.17170607910157,29.8242071875L127.05280607910156,29.8242071875L127.05280607910156,28.5586971875L129.29760607910157,28.5586971875L129.29760607910157,28.1828371875L126.61830607910156,28.1828371875ZM132.33410607910156,28.1828371875L132.33410607910156,31.9638671875L132.76860607910157,31.9638671875L132.76860607910157,28.9552471875L132.78410607910155,28.9552471875L134.09280607910156,31.9638671875L134.48410607910157,31.9638671875L135.79280607910155,28.9552471875L135.80830607910156,28.9552471875L135.80830607910156,31.9638671875L136.24280607910157,31.9638671875L136.24280607910157,28.1828371875L135.70310607910156,28.1828371875L134.29970607910155,31.4086971875L134.28240607910158,31.4086971875L132.87380607910157,28.1828371875L132.33410607910156,28.1828371875ZM138.34030607910157,28.1828371875L136.85240607910157,31.9638671875L137.31790607910156,31.9638671875L137.71970607910157,30.9052471875L139.45760607910157,30.9052471875L139.86100607910157,31.9638671875L140.33170607910156,31.9638671875L138.84380607910157,28.1828371875L138.34030607910157,28.1828371875ZM137.85760607910157,30.5397271875L138.58340607910156,28.6483471875L138.60410607910157,28.6483471875L139.31970607910156,30.5397271875L137.85760607910157,30.5397271875ZM141.02930607910156,28.1828371875L141.02930607910156,31.9638671875L141.46380607910157,31.9638671875L141.46380607910157,28.8552471875L141.47930607910155,28.8552471875L143.62930607910155,31.9638671875L144.07410607910157,31.9638671875L144.07410607910157,28.1828371875L143.63970607910156,28.1828371875L143.63970607910156,31.2604171875L143.62410607910158,31.2604171875L141.48450607910155,28.1828371875L141.02930607910156,28.1828371875ZM146.26310607910156,28.1828371875L144.77520607910157,31.9638671875L145.24070607910156,31.9638671875L145.64240607910156,30.9052471875L147.38030607910156,30.9052471875L147.78380607910157,31.9638671875L148.25450607910156,31.9638671875L146.76650607910156,28.1828371875L146.26310607910156,28.1828371875ZM145.78030607910156,30.5397271875L146.50620607910156,28.6483471875L146.52690607910156,28.6483471875L147.24240607910156,30.5397271875L145.78030607910156,30.5397271875ZM150.56760607910155,28.1086971875C150.01070607910157,28.1086971875,149.57100607910155,28.3052471875,149.24860607910156,28.7017971875C148.94170607910155,29.0673171875,148.79340607910157,29.5276571875,148.79340607910157,30.0897271875C148.79340607910157,30.6517971875,148.94690607910155,31.1121471875,149.25380607910157,31.4673171875C149.58140607910155,31.8483471875,150.04860607910155,32.0397271875,150.64690607910157,32.0397271875C150.95900607910156,32.0397271875,151.25030607910156,31.9966271875,151.52620607910157,31.9121471875C151.78480607910157,31.8276571875,152.00720607910156,31.7155871875,152.18830607910155,31.5673171875L152.18830607910155,30.0207671875L150.57280607910155,30.0207671875L150.57280607910155,30.396627187500002L151.75900607910157,30.396627187500002L151.75900607910157,31.3604171875C151.62620607910156,31.4448971875,151.46760607910156,31.5190371875,151.28310607910157,31.572487187500002C151.09170607910156,31.6259371875,150.89520607910157,31.6569671875,150.68830607910155,31.6569671875C150.19690607910155,31.6569671875,149.82620607910155,31.5086971875,149.57620607910155,31.2173171875C149.34350607910156,30.943177187499998,149.22620607910156,30.5655871875,149.22620607910156,30.0897271875C149.22620607910156,29.6017971875,149.34350607910156,29.2155871875,149.58660607910156,28.9293871875C149.83140607910155,28.6380071875,150.15380607910157,28.4948971875,150.56760607910155,28.4948971875C150.90030607910157,28.4948971875,151.17100607910157,28.5742071875,151.37790607910156,28.7380071875C151.57280607910155,28.8931771875,151.70030607910155,29.1104171875,151.75900607910157,29.3948971875L152.19340607910158,29.3948971875C152.12450607910156,28.9828371875,151.96070607910156,28.6707671875,151.69520607910155,28.4535271875C151.41410607910157,28.2190371875,151.03830607910157,28.1086971875,150.56760607910155,28.1086971875ZM153.18930607910156,28.1828371875L153.18930607910156,31.9638671875L155.95830607910156,31.9638671875L155.95830607910156,31.5880071875L153.62380607910157,31.5880071875L153.62380607910157,30.2000771875L155.74280607910157,30.2000771875L155.74280607910157,29.8242071875L153.62380607910157,29.8242071875L153.62380607910157,28.5586971875L155.86860607910157,28.5586971875L155.86860607910157,28.1828371875L153.18930607910156,28.1828371875ZM156.87480607910157,28.1828371875L156.87480607910157,31.9638671875L157.30930607910156,31.9638671875L157.30930607910156,28.9552471875L157.32480607910156,28.9552471875L158.63340607910158,31.9638671875L159.02480607910155,31.9638671875L160.33340607910156,28.9552471875L160.34900607910157,28.9552471875L160.34900607910157,31.9638671875L160.78340607910155,31.9638671875L160.78340607910155,28.1828371875L160.24380607910155,28.1828371875L158.84030607910157,31.4086971875L158.82310607910156,31.4086971875L157.41450607910156,28.1828371875L156.87480607910157,28.1828371875ZM161.77410607910156,28.1828371875L161.77410607910156,31.9638671875L164.54310607910156,31.9638671875L164.54310607910156,31.5880071875L162.20860607910157,31.5880071875L162.20860607910157,30.2000771875L164.32760607910157,30.2000771875L164.32760607910157,29.8242071875L162.20860607910157,29.8242071875L162.20860607910157,28.5586971875L164.45340607910157,28.5586971875L164.45340607910157,28.1828371875L161.77410607910156,28.1828371875ZM165.45970607910158,28.1828371875L165.45970607910158,31.9638671875L165.89410607910156,31.9638671875L165.89410607910156,28.8552471875L165.90970607910157,28.8552471875L168.05970607910155,31.9638671875L168.50450607910156,31.9638671875L168.50450607910156,28.1828371875L168.07000607910157,28.1828371875L168.07000607910157,31.2604171875L168.05450607910154,31.2604171875L165.91480607910157,28.1828371875L165.45970607910158,28.1828371875ZM169.29520607910155,28.1828371875L169.29520607910155,28.5586971875L170.62970607910157,28.5586971875L170.62970607910157,31.9638671875L171.05900607910155,31.9638671875L171.05900607910155,28.5586971875L172.39340607910157,28.5586971875L172.39340607910157,28.1828371875L169.29520607910155,28.1828371875ZM176.46280607910157,28.1086971875C176.07140607910156,28.1086971875,175.74720607910155,28.193177187499998,175.49900607910155,28.3621471875C175.21790607910157,28.5431771875,175.08000607910157,28.8017971875,175.08000607910157,29.1311071875C175.08000607910157,29.4483471875,175.22310607910157,29.6914571875,175.51450607910158,29.8621471875C175.63690607910155,29.9259371875,175.92830607910156,30.031107187499998,176.38340607910158,30.1690371875C176.80760607910156,30.2914571875,177.07650607910156,30.3811071875,177.18340607910156,30.4448971875C177.43170607910156,30.5776571875,177.55930607910156,30.7621471875,177.55930607910156,31.0000771875C177.55930607910156,31.2017971875,177.46450607910157,31.3604171875,177.27310607910158,31.4776571875C177.08340607910156,31.5931771875,176.82830607910157,31.6517971875,176.52140607910155,31.6517971875C176.18170607910156,31.6517971875,175.92830607910156,31.5776571875,175.75240607910155,31.4397271875C175.56280607910156,31.286277187499998,175.44550607910156,31.0431771875,175.40930607910155,30.7138671875L174.98000607910154,30.7138671875C175.01100607910155,31.1811071875,175.17480607910156,31.5259371875,175.47310607910157,31.753527187499998C175.72650607910157,31.943177187499998,176.07650607910156,32.0397271875,176.52140607910155,32.0397271875C176.97140607910154,32.0397271875,177.32650607910156,31.943177187499998,177.59030607910157,31.7586971875C177.85590607910154,31.5673171875,177.98860607910154,31.3017971875,177.98860607910154,30.9742071875C177.98860607910154,30.6293871875,177.83000607910157,30.3655871875,177.51620607910155,30.1742071875C177.35760607910157,30.0793871875,177.03000607910155,29.9569671875,176.53170607910158,29.8086971875C176.16620607910156,29.7035271875,175.93340607910156,29.6242071875,175.83860607910157,29.5707671875C175.62140607910158,29.4535271875,175.51450607910158,29.3000771875,175.51450607910158,29.1104171875C175.51450607910158,28.8931771875,175.60410607910157,28.7328371875,175.78520607910156,28.6276571875C175.94380607910156,28.5328371875,176.16100607910158,28.4897271875,176.44210607910156,28.4897271875C176.74900607910155,28.4897271875,176.98690607910157,28.5535271875,177.15760607910158,28.6914571875C177.32140607910156,28.8242071875,177.42650607910156,29.0242071875,177.47480607910157,29.3000771875L177.90410607910155,29.3000771875C177.86620607910157,28.9035271875,177.72310607910157,28.6017971875,177.46970607910157,28.4000771875C177.22480607910157,28.2035271875,176.88690607910155,28.1086971875,176.46280607910157,28.1086971875ZM178.41210607910156,28.1828371875L179.92070607910156,30.4293871875L179.92070607910156,31.9638671875L180.35520607910155,31.9638671875L180.35520607910155,30.4293871875L181.86550607910158,28.1828371875L181.34140607910155,28.1828371875L180.13790607910158,30.0259371875L178.93620607910157,28.1828371875L178.41210607910156,28.1828371875ZM183.83380607910158,28.1086971875C183.44240607910154,28.1086971875,183.11830607910156,28.193177187499998,182.87000607910156,28.3621471875C182.58900607910158,28.5431771875,182.45100607910155,28.8017971875,182.45100607910155,29.1311071875C182.45100607910155,29.4483471875,182.59410607910155,29.6914571875,182.88550607910156,29.8621471875C183.00790607910156,29.9259371875,183.29930607910157,30.031107187499998,183.75450607910156,30.1690371875C184.17860607910154,30.2914571875,184.44760607910155,30.3811071875,184.55450607910154,30.4448971875C184.80280607910157,30.5776571875,184.93030607910157,30.7621471875,184.93030607910157,31.0000771875C184.93030607910157,31.2017971875,184.83550607910155,31.3604171875,184.64410607910156,31.4776571875C184.45450607910158,31.5931771875,184.19930607910158,31.6517971875,183.89240607910156,31.6517971875C183.55280607910157,31.6517971875,183.29930607910157,31.5776571875,183.12340607910156,31.4397271875C182.93380607910154,31.286277187499998,182.81650607910154,31.0431771875,182.78030607910156,30.7138671875L182.35100607910158,30.7138671875C182.38210607910156,31.1811071875,182.54590607910154,31.5259371875,182.84410607910155,31.753527187499998C183.09760607910158,31.943177187499998,183.44760607910155,32.0397271875,183.89240607910156,32.0397271875C184.34240607910158,32.0397271875,184.69760607910155,31.943177187499998,184.96140607910155,31.7586971875C185.22690607910158,31.5673171875,185.35970607910156,31.3017971875,185.35970607910156,30.9742071875C185.35970607910156,30.6293871875,185.20100607910155,30.3655871875,184.88720607910156,30.1742071875C184.72860607910155,30.0793871875,184.40100607910156,29.9569671875,183.90270607910156,29.8086971875C183.53720607910157,29.7035271875,183.30450607910154,29.6242071875,183.20960607910155,29.5707671875C182.99240607910156,29.4535271875,182.88550607910156,29.3000771875,182.88550607910156,29.1104171875C182.88550607910156,28.8931771875,182.97520607910155,28.7328371875,183.15620607910157,28.6276571875C183.31480607910157,28.5328371875,183.53210607910157,28.4897271875,183.81310607910154,28.4897271875C184.12000607910156,28.4897271875,184.35790607910155,28.5535271875,184.52860607910156,28.6914571875C184.69240607910154,28.8242071875,184.79760607910157,29.0242071875,184.84590607910155,29.3000771875L185.27520607910157,29.3000771875C185.23720607910155,28.9035271875,185.09410607910155,28.6017971875,184.84070607910155,28.4000771875C184.59590607910155,28.2035271875,184.25790607910156,28.1086971875,183.83380607910158,28.1086971875ZM185.84690607910156,28.1828371875L185.84690607910156,28.5586971875L187.18140607910158,28.5586971875L187.18140607910158,31.9638671875L187.61070607910156,31.9638671875L187.61070607910156,28.5586971875L188.94520607910158,28.5586971875L188.94520607910158,28.1828371875L185.84690607910156,28.1828371875ZM189.71340607910156,28.1828371875L189.71340607910156,31.9638671875L192.48240607910157,31.9638671875L192.48240607910157,31.5880071875L190.14790607910157,31.5880071875L190.14790607910157,30.2000771875L192.26690607910155,30.2000771875L192.26690607910155,29.8242071875L190.14790607910157,29.8242071875L190.14790607910157,28.5586971875L192.39270607910157,28.5586971875L192.39270607910157,28.1828371875L189.71340607910156,28.1828371875ZM193.39900607910158,28.1828371875L193.39900607910158,31.9638671875L193.83340607910156,31.9638671875L193.83340607910156,28.9552471875L193.84890607910157,28.9552471875L195.15760607910158,31.9638671875L195.54900607910156,31.9638671875L196.85760607910157,28.9552471875L196.87310607910155,28.9552471875L196.87310607910155,31.9638671875L197.30760607910156,31.9638671875L197.30760607910156,28.1828371875L196.76790607910158,28.1828371875L195.36450607910155,31.4086971875L195.34720607910157,31.4086971875L193.93860607910156,28.1828371875L193.39900607910158,28.1828371875Z" fill="#FFFFFF" fill-opacity="1"/>
          </g>
        </g>
      </g>
    </g>
  </g>
</svg>