<svg xmlns="http://www.w3.org/2000/svg"
  xmlns:xlink="http://www.w3.org/1999/xlink" fill="none" version="1.1" width="24" height="24" viewBox="0 0 24 24">
  <defs>
    <clipPath id="master_svg0_339_9873">
      <rect x="0" y="0" width="24" height="24" rx="0"/>
    </clipPath>
  </defs>
  <g clip-path="url(#master_svg0_339_9873)">
    <g>
      <path d="M4,9L4,13Q4,13.19651,4.0192611,13.39207Q4.0385222,13.58763,4.0768589,13.78036Q4.115196,13.97309,4.172239,14.16114Q4.229282,14.34918,4.304482,14.53073Q4.379682,14.71228,4.472315,14.88559Q4.564948,15.0589,4.6741209999999995,15.2223Q4.783295,15.3857,4.907958,15.5376Q5.03262,15.6895,5.17157,15.8284Q5.31052,15.9674,5.4624299999999995,16.092Q5.61433,16.2167,5.77772,16.3259Q5.94111,16.4351,6.1144099999999995,16.5277Q6.28772,16.6203,6.46927,16.6955Q6.6508199999999995,16.770699999999998,6.83886,16.8278Q7.02691,16.8848,7.21964,16.923099999999998Q7.41237,16.9615,7.60793,16.9807Q7.80349,17,8,17L10.00002,17L11.21904,18.523899999999998C11.61935,19.0244,12.38046,19.0244,12.7808,18.524L14,17L16,17Q16.1965,17,16.3921,16.9807Q16.587600000000002,16.9615,16.7804,16.923099999999998Q16.973100000000002,16.8848,17.161099999999998,16.8278Q17.3492,16.770699999999998,17.5307,16.6955Q17.7123,16.6203,17.8856,16.5277Q18.0589,16.4351,18.2223,16.3259Q18.3857,16.2167,18.537599999999998,16.092Q18.689500000000002,15.9674,18.828400000000002,15.8284Q18.967399999999998,15.6895,19.092,15.5376Q19.2167,15.3857,19.3259,15.2223Q19.4351,15.0589,19.5277,14.88559Q19.6203,14.71228,19.6955,14.53073Q19.770699999999998,14.34918,19.8278,14.16114Q19.8848,13.97309,19.923099999999998,13.78036Q19.9615,13.58763,19.9807,13.39207Q20,13.19651,20,13L20,9Q20,8.80349,19.9807,8.60793Q19.9615,8.41237,19.923099999999998,8.21964Q19.8848,8.02691,19.8278,7.83886Q19.770699999999998,7.6508199999999995,19.6955,7.46927Q19.6203,7.28772,19.5277,7.1144099999999995Q19.4351,6.94111,19.3259,6.77772Q19.2167,6.61433,19.092,6.4624299999999995Q18.967399999999998,6.31052,18.828400000000002,6.17157Q18.689500000000002,6.03262,18.537599999999998,5.907958Q18.3857,5.783295,18.2223,5.6741209999999995Q18.0589,5.564948,17.8856,5.472315Q17.7123,5.379682,17.5307,5.304482Q17.3492,5.229282,17.161099999999998,5.172239Q16.973100000000002,5.115196,16.7804,5.0768589Q16.587600000000002,5.0385222,16.3921,5.0192611Q16.1965,5,16,5L8,5Q7.80349,5,7.60793,5.0192611Q7.41237,5.0385222,7.21964,5.0768589Q7.02691,5.115196,6.83886,5.172239Q6.6508199999999995,5.229282,6.46927,5.304482Q6.28772,5.379682,6.1144099999999995,5.472315Q5.94111,5.564948,5.77772,5.6741209999999995Q5.61433,5.783295,5.4624299999999995,5.907958Q5.31052,6.03262,5.17157,6.17157Q5.03262,6.31052,4.907958,6.4624299999999995Q4.783295,6.61433,4.6741209999999995,6.77772Q4.564948,6.94111,4.472315,7.1144099999999995Q4.379682,7.28772,4.304482,7.46927Q4.229282,7.6508199999999995,4.172239,7.83886Q4.115196,8.02691,4.0768589,8.21964Q4.0385222,8.41237,4.0192611,8.60793Q4,8.80349,4,9Z" fill-rule="evenodd" fill="#2C68FF" fill-opacity="1"/>
    </g>
    <g>
      <g>
        <rect x="7" y="10" width="2.5" height="3" rx="1.25" fill="#D3D9E6" fill-opacity="1"/>
      </g>
      <g>
        <rect x="10.75" y="10" width="2.5" height="3" rx="1.25" fill="#80BFFF" fill-opacity="1"/>
      </g>
      <g>
        <rect x="14.5" y="10" width="2.5" height="3" rx="1.25" fill="#FFFFFF" fill-opacity="1"/>
      </g>
    </g>
  </g>
</svg>