<svg xmlns="http://www.w3.org/2000/svg" xmlns:xlink="http://www.w3.org/1999/xlink" fill="none" version="1.1" width="20" height="20" viewBox="0 0 20 20"><defs><clipPath id="master_svg0_862_22389"><rect x="0" y="0" width="20" height="20" rx="0"/></clipPath></defs><g clip-path="url(#master_svg0_862_22389)"><g style="opacity:0.30000001192092896;"><path d="M5,7.358333253860474L5,16.666633253860475L15,16.666633253860475L15,3.3333332538604736L9.025,3.3333332538604736L5,7.358333253860474ZM7.5,15.833333253860474L5.833333,15.833333253860474L5.833333,14.166633253860473L7.5,14.166633253860473L7.5,15.833333253860474ZM7.5,12.500003253860474L5.833333,12.500003253860474L5.833333,9.166663253860474L7.5,9.166663253860474L7.5,12.500003253860474ZM12.5,9.166663253860474L14.16667,9.166663253860474L14.16667,12.500003253860474L12.5,12.500003253860474L12.5,9.166663253860474ZM12.5,14.166633253860473L14.16667,14.166633253860473L14.16667,15.833333253860474L12.5,15.833333253860474L12.5,14.166633253860473ZM9.16667,9.166663253860474L10.83333,9.166663253860474L10.83333,10.833333253860474L9.16667,10.833333253860474L9.16667,9.166663253860474ZM9.16667,12.500003253860474L10.83333,12.500003253860474L10.83333,15.833333253860474L9.16667,15.833333253860474L9.16667,12.500003253860474Z" fill="#2C68FF" fill-opacity="1"/></g><g><path d="M15.000033253860474,1.6666666269302368L8.333333253860474,1.6666666269302368L3.3333332538604736,6.666666626930237L3.3333332538604736,16.666666626930237C3.3333332538604736,17.583366626930236,4.083333253860474,18.333366626930236,5.0000032538604735,18.333366626930236L15.000033253860474,18.333366626930236C15.916633253860473,18.333366626930236,16.666633253860475,17.583366626930236,16.666633253860475,16.666666626930237L16.666633253860475,3.3333366269302367C16.666633253860475,2.416666626930237,15.916633253860473,1.6666666269302368,15.000033253860474,1.6666666269302368ZM15.000033253860474,3.3333366269302367L15.000033253860474,16.666666626930237L5.0000032538604735,16.666666626930237L5.0000032538604735,7.358336626930237L9.025003253860474,3.3333366269302367L15.000033253860474,3.3333366269302367ZM5.833333253860474,14.166666626930237L7.5000032538604735,14.166666626930237L7.5000032538604735,15.833366626930237L5.833333253860474,15.833366626930237L5.833333253860474,14.166666626930237ZM12.500003253860474,14.166666626930237L14.166633253860473,14.166666626930237L14.166633253860473,15.833366626930237L12.500003253860474,15.833366626930237L12.500003253860474,14.166666626930237ZM5.833333253860474,9.166666626930237L7.5000032538604735,9.166666626930237L7.5000032538604735,12.499966626930236L5.833333253860474,12.499966626930236L5.833333253860474,9.166666626930237ZM9.166663253860474,12.499966626930236L10.833333253860474,12.499966626930236L10.833333253860474,15.833366626930237L9.166663253860474,15.833366626930237L9.166663253860474,12.499966626930236ZM9.166663253860474,9.166666626930237L10.833333253860474,9.166666626930237L10.833333253860474,10.833336626930237L9.166663253860474,10.833336626930237L9.166663253860474,9.166666626930237ZM12.500003253860474,9.166666626930237L14.166633253860473,9.166666626930237L14.166633253860473,12.499966626930236L12.500003253860474,12.499966626930236L12.500003253860474,9.166666626930237Z" fill="#2C68FF" fill-opacity="1"/></g></g></svg>