<svg width="50" height="40" viewBox="0 0 900 445" version="1.1" xmlns="http://www.w3.org/2000/svg" xmlns:xlink="http://www.w3.org/1999/xlink">
    <g id="控件" stroke="none" stroke-width="1" fill="none" fill-rule="evenodd">
        <g id="编组-5" fill="#004C97">
            <path d="M314.699138,11.6883117 L371.695183,72.7009231 L287.791973,79.8626503 L252.597549,82.8493558 L244.231012,101.337222 L287.791973,98.870405 L420.779221,91.294889 L386.419865,230.640882 L342.346236,233.176664 L340.247995,239.940517 L287.791973,238.158043 L248.829172,236.895457 L239.104328,233.176664 L229.918578,249.171188 L287.791973,253.362125 L387.677753,260.141893 L370.072613,327.483349 C370.072613,327.483349 362.520003,354.830538 358.672347,376.363464 C357.597911,382.578783 356.23589,390.388638 354.863294,398.34549 L354.437283,400.817975 C351.220605,419.510412 348.103344,438.187738 348.656815,438.187738 L348.656815,438.187738 L287.791973,429.848305 L247.978248,424.373562 L114.927578,440.277901 L81.440287,444.155844 L36.6214387,385.206871 L114.927578,382.655174 L273.971066,377.997399 L260.129019,359.525448 L114.927578,361.244262 L70.1034439,361.573171 L47.4244724,318.215544 L114.927578,316.942348 L276.962513,313.12276 L280.688608,290.889576 L114.927578,296.353708 L52.4613076,298.433262 L29.0265466,267.255876 L96.143829,252.990776 L171.173118,252.990776 L167.425882,228.518889 L130.032798,241.224323 L114.927578,244.555853 L90.2402142,249.171188 L74.2153618,224.349172 L31.4894692,244.985556 L-5.68434189e-14,96.7059719 L159.487449,96.7059719 L156.517143,82.4143472 L114.927578,81.0987114 L74.2153618,79.4859965 L38.6139748,33.9321061 L114.927578,27.7093608 L287.791973,13.7678651 L314.699138,11.6883117 Z M731.956402,4.26325641e-13 L786.34107,35.8971534 L787.204238,36.3347352 L797.978607,67.3773044 L900,70.2396043 L863.6657,138.91421 L799.638936,143.403285 L786.34107,166.281092 L783.914044,170.327437 L755.754454,182.214218 L764.203347,206.342995 L786.34107,185.055926 L817.394812,155.624688 L890.769179,240.572189 L837.988988,262.713829 L893.957823,377.576483 L786.34107,411.064362 L716.195967,433.149374 L665.837724,347.337005 L634.393018,352.176145 L616.286797,408.943378 L568.33527,443.337309 L566.695251,444.155844 L548.507791,306.415383 L479.220779,317.916063 L528.015165,236.582472 L550.599704,251.691915 L525.603371,270.029168 L542.110192,283.94427 L563.054712,268.469317 L566.304287,297.864519 L568.33527,296.577514 L581.16601,284.783397 L584.019543,256.587684 L612.631027,238.224691 L609.813037,280.278878 L582.394756,297.864519 L593.326526,316.685686 L612.631027,301.910864 L614.66201,332.587924 L636.033037,328.860756 L639.653266,304.824644 L654.636849,316.685686 L661.02937,297.864519 L639.653266,277.432022 L635.642073,242.250444 L665.42645,263.166855 L666.619653,290.075563 L685.203155,298.245473 L687.198596,274.137289 L711.85474,287.223559 L720.242703,268.005995 L694.058244,255.357307 L715.474968,240.572189 L698.069437,229.205358 L677.165536,243.084423 L642.450946,221.848835 L677.612353,202.646715 L705.304817,221.05604 L717.038826,204.736812 L693.66728,193.220688 L725.096754,176.922052 L710.290882,160.988926 L689.22958,171.161416 L686.47252,145.030059 L665.837724,153.194821 L665.837724,181.004433 L636.429079,201.833328 L637.617205,167.14596 L667.036005,144.19608 L659.775238,125.833088 L634.393018,140.535837 L635.642073,111.54218 L613.057533,115.207571 L611.84402,138.91421 L591.275232,127.480454 L584.877633,143.840867 L614.271046,164.659465 L614.271046,203.460103 L578.36833,182.214218 L580.384082,147.068676 L568.33527,148.252721 L565.832083,148.705747 L522.770149,138.502368 L483.328444,84.5562518 L568.33527,66.1881114 L579.597075,63.7479493 L620.272603,4.26325641e-13 L669.061911,69.457105 L707.767385,62.0491022 L731.956402,4.26325641e-13 Z M813.686314,270.826734 C813.686314,270.826734 802.616475,275.16445 790.568195,279.927256 L789.209168,280.464659 C786.63633,281.482361 784.036398,282.512633 781.506205,283.51793 C781.233527,283.630917 780.96167,283.743664 780.690744,283.856127 L779.880871,284.192615 C768.853771,288.77836 759.575765,292.808542 759.575765,293.134299 L759.575765,293.134299 L748.951049,329.424286 L781.506205,333.855654 L794.430558,335.82515 Z M564.479314,205.828318 L565.737076,206.169154 L597.902098,224.809219 L567.379007,238.327526 L565.737076,237.618218 L533.166833,223.339938 L539.792449,214.183415 L564.479314,205.828318 Z M338.313138,184.675325 L296.425736,202.918704 L291.07093,200.972935 L244.330088,184.675325 L237.362637,206.298701 L291.07093,205.203907 L345.254745,204.357713 L338.313138,184.675325 Z M105.558507,184.675325 L80.4846094,193.249591 L75.5244755,206.298701 L118.852086,201.142059 L146.416559,198.039443 L161.838162,187.764995 L118.852086,185.400275 L105.558507,184.675325 Z M323.676324,141.428571 L288.461084,145.30765 L248.151848,149.261326 L248.664233,161.893198 L288.461084,162.659067 L322.467494,163.051948 L323.676324,141.428571 Z M159.373695,141.428571 L117.802967,147.401413 L86.3136863,151.895131 L88.7832345,163.051948 L161.838162,163.051948 L159.373695,141.428571 Z" id="形状结合"></path>
        </g>
    </g>
</svg>
