<svg t="1648021908598" class="icon" viewBox="0 0 1024 1024" version="1.1" xmlns="http://www.w3.org/2000/svg" p-id="3593" width="200" height="200"><path d="M230.7072 168.704L195.2512 194.56a180.1216 180.1216 0 0 0-58.112 219.392c57.6512 128.1536 122.3424 230.144 194.432 305.92 66.4064 69.7344 149.4272 131.6096 248.9344 185.728a188.7744 188.7744 0 0 0 239.2064-49.9712l20.48-26.368a140.8 140.8 0 0 0-9.1648-183.5008l-15.0272-15.7952a132.5056 132.5056 0 0 0-175.5392-14.6176l-4.9408 3.8912c-16.384 13.568-32.1024 16.5632-51.968 9.9328-66.944-22.272-143.8464-113.6128-167.424-196.4288l-0.9984-2.9952c-2.2272-5.9904-0.8192-14.336 7.04-27.0336l2.56-3.9424a150.3744 150.3744 0 0 0-15.5904-187.9552l-27.136-28.4928a115.2 115.2 0 0 0-151.296-13.6448z m95.6928 66.56l27.1104 28.4928a73.5744 73.5744 0 0 1 7.6288 91.9552l-3.6864 5.6576c-18.816 30.208-25.0368 60.7744-16.0768 89.9328l0.896 2.4832c30.1056 105.7024 124.0576 217.344 217.0112 248.2688 45.0816 15.0016 88.448 6.784 125.2096-23.6544a55.7056 55.7056 0 0 1 75.8784 4.5056l15.0272 15.8208a64 64 0 0 1 4.1728 83.4048l-20.48 26.368a111.9744 111.9744 0 0 1-141.9008 29.6192c-92.7488-50.432-169.3696-107.52-229.9904-171.2128-65.5872-68.8896-125.696-163.6864-180.0192-284.4672a103.3216 103.3216 0 0 1 33.3312-125.8496l35.456-25.856a38.4 38.4 0 0 1 50.432 4.5568z" fill="#333333" p-id="3594"></path><path d="M552.9088 261.7344c62.1056 14.8224 111.0784 36.6848 146.7392 66.4064 37.12 30.9248 61.7984 72.0128 73.728 122.0608a38.4 38.4 0 0 1-74.752 17.792c-8.1408-34.2528-24.064-60.8-48.128-80.8448-25.5488-21.2736-63.9488-38.4256-115.4048-50.688a38.4 38.4 0 1 1 17.8176-74.7264z m45.0816-148.7104c58.2656 1.664 115.5328 24.1408 171.2896 66.3808 56.4224 42.752 93.7472 96.8704 110.9248 161.5104a38.4 38.4 0 0 1-74.24 19.712c-12.672-47.744-40.0128-87.424-83.0464-120.0128-43.6736-33.0752-85.888-49.664-127.104-50.816a38.4 38.4 0 0 1-1.536-76.6976l3.712-0.0768z" fill="#FF6E4C" p-id="3595"></path></svg>