<svg t="1648021118817" class="icon" viewBox="0 0 1024 1024" version="1.1" xmlns="http://www.w3.org/2000/svg" p-id="3462" width="200" height="200"><path d="M761.6 665.6a140.8 140.8 0 0 1 140.8 140.8V896a38.4 38.4 0 0 1-38.4 38.4H160a38.4 38.4 0 0 1-38.4-38.4v-89.6a140.8 140.8 0 0 1 140.8-140.8z m0 76.8h-499.2a64 64 0 0 0-64 64v51.2h627.2v-51.2a64 64 0 0 0-59.8016-63.872L761.6 742.4zM512 89.6c144.896 0 262.4 117.504 262.4 262.4S656.896 614.4 512 614.4 249.6 496.896 249.6 352 367.104 89.6 512 89.6z m0 76.8A185.6 185.6 0 1 0 512 537.6a185.6 185.6 0 0 0 0-371.2z" fill="#333333" p-id="3463"></path><path d="M432 288a48 48 0 1 1 0 96 48 48 0 0 1 0-96z m160 0a48 48 0 1 1 0 96 48 48 0 0 1 0-96z" fill="#FF6E4C" p-id="3464"></path></svg>