<?xml version="1.0" encoding="UTF-8"?>
<svg width="32px" height="32px" viewBox="0 0 32 32" version="1.1" xmlns="http://www.w3.org/2000/svg" xmlns:xlink="http://www.w3.org/1999/xlink">
    <title>图标/32PX/搜索灰色</title>
    <g id="图标/32PX/搜索灰色" stroke="none" stroke-width="1" fill="none" fill-rule="evenodd">
        <g id="搜索" fill-rule="nonzero">
            <rect id="矩形" fill="#000000" opacity="0" x="0" y="0" width="32" height="32"></rect>
            <path d="M27.6133333,25.72 L23.08,21.2 C24.5426461,19.3366063 25.3362792,17.03554 25.3333333,14.6666667 C25.3333333,8.77562934 20.557704,4.00000003 14.6666667,4.00000003 C8.77562936,4.00000003 4.00000003,8.77562936 4.00000003,14.6666667 C4.00000003,20.557704 8.77562934,25.3333333 14.6666667,25.3333333 C17.03554,25.3362792 19.3366063,24.5426461 21.2,23.08 L25.72,27.6133333 C25.9703555,27.8657502 26.31115,28.0077311 26.6666667,28.0077311 C27.0221834,28.0077311 27.3629779,27.8657502 27.6133333,27.6133333 C27.8657502,27.3629779 28.0077311,27.0221834 28.0077311,26.6666667 C28.0077311,26.31115 27.8657502,25.9703555 27.6133333,25.72 L27.6133333,25.72 Z M6.66666666,14.6666667 C6.66666666,10.2483887 10.2483887,6.66666666 14.6666667,6.66666666 C19.0849447,6.66666666 22.6666667,10.2483887 22.6666667,14.6666667 C22.6666667,19.0849447 19.0849447,22.6666667 14.6666667,22.6666667 C10.2483887,22.6666667 6.66666666,19.0849447 6.66666666,14.6666667 Z" id="形状" fill="#999999"></path>
        </g>
    </g>
</svg>